G04 #@! TF.GenerationSoftware,KiCad,Pcbnew,(5.1.4)-1*
G04 #@! TF.CreationDate,2020-08-12T13:24:48+02:00*
G04 #@! TF.ProjectId,DMX_usb,444d585f-7573-4622-9e6b-696361645f70,rev?*
G04 #@! TF.SameCoordinates,Original*
G04 #@! TF.FileFunction,Soldermask,Bot*
G04 #@! TF.FilePolarity,Negative*
%FSLAX46Y46*%
G04 Gerber Fmt 4.6, Leading zero omitted, Abs format (unit mm)*
G04 Created by KiCad (PCBNEW (5.1.4)-1) date 2020-08-12 13:24:48*
%MOMM*%
%LPD*%
G04 APERTURE LIST*
%ADD10C,0.100000*%
G04 APERTURE END LIST*
D10*
G36*
X263160985Y-133675860D02*
G01*
X263273748Y-133698290D01*
X263405741Y-133752963D01*
X263592408Y-133830283D01*
X263879196Y-134021909D01*
X264123091Y-134265804D01*
X264314717Y-134552592D01*
X264346060Y-134628261D01*
X264433566Y-134839519D01*
X264446710Y-134871253D01*
X264514000Y-135209540D01*
X264514000Y-135554460D01*
X264498928Y-135630229D01*
X264446710Y-135892748D01*
X264392037Y-136024741D01*
X264314717Y-136211408D01*
X264123091Y-136498196D01*
X263879196Y-136742091D01*
X263592408Y-136933717D01*
X263405741Y-137011037D01*
X263273748Y-137065710D01*
X263160985Y-137088140D01*
X262935460Y-137133000D01*
X262590540Y-137133000D01*
X262365015Y-137088140D01*
X262252252Y-137065710D01*
X262120259Y-137011037D01*
X261933592Y-136933717D01*
X261646804Y-136742091D01*
X261402909Y-136498196D01*
X261211283Y-136211408D01*
X261133963Y-136024741D01*
X261079290Y-135892748D01*
X261027072Y-135630229D01*
X261012000Y-135554460D01*
X261012000Y-135209540D01*
X261079290Y-134871253D01*
X261092435Y-134839519D01*
X261179940Y-134628261D01*
X261211283Y-134552592D01*
X261402909Y-134265804D01*
X261646804Y-134021909D01*
X261933592Y-133830283D01*
X262120259Y-133752963D01*
X262252252Y-133698290D01*
X262365015Y-133675860D01*
X262590540Y-133631000D01*
X262935460Y-133631000D01*
X263160985Y-133675860D01*
X263160985Y-133675860D01*
G37*
G36*
X224828213Y-135398249D02*
G01*
X224922652Y-135426897D01*
X225009687Y-135473418D01*
X225085975Y-135536025D01*
X225148582Y-135612313D01*
X225195103Y-135699348D01*
X225223751Y-135793787D01*
X225233424Y-135892000D01*
X225223751Y-135990213D01*
X225195103Y-136084652D01*
X225148582Y-136171687D01*
X225085975Y-136247975D01*
X225009687Y-136310582D01*
X224922652Y-136357103D01*
X224828213Y-136385751D01*
X224754612Y-136393000D01*
X223605388Y-136393000D01*
X223531787Y-136385751D01*
X223437348Y-136357103D01*
X223350313Y-136310582D01*
X223274025Y-136247975D01*
X223211418Y-136171687D01*
X223164897Y-136084652D01*
X223136249Y-135990213D01*
X223126576Y-135892000D01*
X223136249Y-135793787D01*
X223164897Y-135699348D01*
X223211418Y-135612313D01*
X223274025Y-135536025D01*
X223350313Y-135473418D01*
X223437348Y-135426897D01*
X223531787Y-135398249D01*
X223605388Y-135391000D01*
X224754612Y-135391000D01*
X224828213Y-135398249D01*
X224828213Y-135398249D01*
G37*
G36*
X220508213Y-135398249D02*
G01*
X220602652Y-135426897D01*
X220689687Y-135473418D01*
X220765975Y-135536025D01*
X220828582Y-135612313D01*
X220875103Y-135699348D01*
X220903751Y-135793787D01*
X220913424Y-135892000D01*
X220903751Y-135990213D01*
X220875103Y-136084652D01*
X220828582Y-136171687D01*
X220765975Y-136247975D01*
X220689687Y-136310582D01*
X220602652Y-136357103D01*
X220508213Y-136385751D01*
X220434612Y-136393000D01*
X219585388Y-136393000D01*
X219511787Y-136385751D01*
X219417348Y-136357103D01*
X219330313Y-136310582D01*
X219254025Y-136247975D01*
X219191418Y-136171687D01*
X219144897Y-136084652D01*
X219116249Y-135990213D01*
X219106576Y-135892000D01*
X219116249Y-135793787D01*
X219144897Y-135699348D01*
X219191418Y-135612313D01*
X219254025Y-135536025D01*
X219330313Y-135473418D01*
X219417348Y-135426897D01*
X219511787Y-135398249D01*
X219585388Y-135391000D01*
X220434612Y-135391000D01*
X220508213Y-135398249D01*
X220508213Y-135398249D01*
G37*
G36*
X267456228Y-134563703D02*
G01*
X267611100Y-134627853D01*
X267750481Y-134720985D01*
X267869015Y-134839519D01*
X267962147Y-134978900D01*
X268026297Y-135133772D01*
X268059000Y-135298184D01*
X268059000Y-135465816D01*
X268026297Y-135630228D01*
X267962147Y-135785100D01*
X267869015Y-135924481D01*
X267750481Y-136043015D01*
X267611100Y-136136147D01*
X267456228Y-136200297D01*
X267291816Y-136233000D01*
X267124184Y-136233000D01*
X266959772Y-136200297D01*
X266804900Y-136136147D01*
X266665519Y-136043015D01*
X266546985Y-135924481D01*
X266453853Y-135785100D01*
X266389703Y-135630228D01*
X266357000Y-135465816D01*
X266357000Y-135298184D01*
X266389703Y-135133772D01*
X266453853Y-134978900D01*
X266546985Y-134839519D01*
X266665519Y-134720985D01*
X266804900Y-134627853D01*
X266959772Y-134563703D01*
X267124184Y-134531000D01*
X267291816Y-134531000D01*
X267456228Y-134563703D01*
X267456228Y-134563703D01*
G37*
G36*
X223802383Y-134124489D02*
G01*
X223802386Y-134124490D01*
X223802385Y-134124490D01*
X223866258Y-134150946D01*
X223923748Y-134189360D01*
X223972640Y-134238252D01*
X224011054Y-134295742D01*
X224032624Y-134347818D01*
X224037511Y-134359617D01*
X224051000Y-134427430D01*
X224051000Y-134496570D01*
X224037511Y-134564383D01*
X224037510Y-134564385D01*
X224011054Y-134628258D01*
X223972640Y-134685748D01*
X223923748Y-134734640D01*
X223866258Y-134773054D01*
X223814182Y-134794624D01*
X223802383Y-134799511D01*
X223734570Y-134813000D01*
X223665430Y-134813000D01*
X223597617Y-134799511D01*
X223585818Y-134794624D01*
X223533742Y-134773054D01*
X223476252Y-134734640D01*
X223427360Y-134685748D01*
X223388946Y-134628258D01*
X223362490Y-134564385D01*
X223362489Y-134564383D01*
X223349000Y-134496570D01*
X223349000Y-134427430D01*
X223362489Y-134359617D01*
X223367376Y-134347818D01*
X223388946Y-134295742D01*
X223427360Y-134238252D01*
X223476252Y-134189360D01*
X223533742Y-134150946D01*
X223597615Y-134124490D01*
X223597614Y-134124490D01*
X223597617Y-134124489D01*
X223665430Y-134111000D01*
X223734570Y-134111000D01*
X223802383Y-134124489D01*
X223802383Y-134124489D01*
G37*
G36*
X259240831Y-130099841D02*
G01*
X259385826Y-130128682D01*
X259498974Y-130175550D01*
X259658989Y-130241830D01*
X259658990Y-130241831D01*
X259904832Y-130406097D01*
X260113903Y-130615168D01*
X260172963Y-130703558D01*
X260278170Y-130861011D01*
X260391318Y-131134175D01*
X260436909Y-131363375D01*
X260449000Y-131424164D01*
X260449000Y-131719836D01*
X260391318Y-132009826D01*
X260344450Y-132122974D01*
X260278170Y-132282989D01*
X260215727Y-132376442D01*
X260113903Y-132528832D01*
X259904832Y-132737903D01*
X259781076Y-132820594D01*
X259658989Y-132902170D01*
X259498974Y-132968450D01*
X259385826Y-133015318D01*
X259240831Y-133044159D01*
X259095837Y-133073000D01*
X258800163Y-133073000D01*
X258655169Y-133044159D01*
X258510174Y-133015318D01*
X258397026Y-132968450D01*
X258237011Y-132902170D01*
X258114924Y-132820594D01*
X257991168Y-132737903D01*
X257782097Y-132528832D01*
X257680273Y-132376442D01*
X257617830Y-132282989D01*
X257551550Y-132122974D01*
X257504682Y-132009826D01*
X257447000Y-131719836D01*
X257447000Y-131424164D01*
X257459092Y-131363375D01*
X257504682Y-131134175D01*
X257617830Y-130861011D01*
X257723037Y-130703558D01*
X257782097Y-130615168D01*
X257991168Y-130406097D01*
X258237010Y-130241831D01*
X258237011Y-130241830D01*
X258397026Y-130175550D01*
X258510174Y-130128682D01*
X258655169Y-130099841D01*
X258800163Y-130071000D01*
X259095837Y-130071000D01*
X259240831Y-130099841D01*
X259240831Y-130099841D01*
G37*
G36*
X268310443Y-130645519D02*
G01*
X268376627Y-130652037D01*
X268546466Y-130703557D01*
X268702991Y-130787222D01*
X268738729Y-130816552D01*
X268840186Y-130899814D01*
X268923448Y-131001271D01*
X268952778Y-131037009D01*
X269036443Y-131193534D01*
X269087963Y-131363373D01*
X269105359Y-131540000D01*
X269087963Y-131716627D01*
X269036443Y-131886466D01*
X268952778Y-132042991D01*
X268923448Y-132078729D01*
X268840186Y-132180186D01*
X268738729Y-132263448D01*
X268702991Y-132292778D01*
X268546466Y-132376443D01*
X268376627Y-132427963D01*
X268310443Y-132434481D01*
X268244260Y-132441000D01*
X268155740Y-132441000D01*
X268089557Y-132434481D01*
X268023373Y-132427963D01*
X267853534Y-132376443D01*
X267697009Y-132292778D01*
X267661271Y-132263448D01*
X267559814Y-132180186D01*
X267476552Y-132078729D01*
X267447222Y-132042991D01*
X267363557Y-131886466D01*
X267312037Y-131716627D01*
X267294641Y-131540000D01*
X267312037Y-131363373D01*
X267363557Y-131193534D01*
X267447222Y-131037009D01*
X267476552Y-131001271D01*
X267559814Y-130899814D01*
X267661271Y-130816552D01*
X267697009Y-130787222D01*
X267853534Y-130703557D01*
X268023373Y-130652037D01*
X268089557Y-130645519D01*
X268155740Y-130639000D01*
X268244260Y-130639000D01*
X268310443Y-130645519D01*
X268310443Y-130645519D01*
G37*
G36*
X268310443Y-128105519D02*
G01*
X268376627Y-128112037D01*
X268546466Y-128163557D01*
X268702991Y-128247222D01*
X268734093Y-128272747D01*
X268840186Y-128359814D01*
X268920970Y-128458251D01*
X268952778Y-128497009D01*
X269036443Y-128653534D01*
X269087963Y-128823373D01*
X269105359Y-129000000D01*
X269087963Y-129176627D01*
X269036443Y-129346466D01*
X268952778Y-129502991D01*
X268923448Y-129538729D01*
X268840186Y-129640186D01*
X268738729Y-129723448D01*
X268702991Y-129752778D01*
X268546466Y-129836443D01*
X268376627Y-129887963D01*
X268310443Y-129894481D01*
X268244260Y-129901000D01*
X268155740Y-129901000D01*
X268089557Y-129894481D01*
X268023373Y-129887963D01*
X267853534Y-129836443D01*
X267697009Y-129752778D01*
X267661271Y-129723448D01*
X267559814Y-129640186D01*
X267476552Y-129538729D01*
X267447222Y-129502991D01*
X267363557Y-129346466D01*
X267312037Y-129176627D01*
X267294641Y-129000000D01*
X267312037Y-128823373D01*
X267363557Y-128653534D01*
X267447222Y-128497009D01*
X267479030Y-128458251D01*
X267559814Y-128359814D01*
X267665907Y-128272747D01*
X267697009Y-128247222D01*
X267853534Y-128163557D01*
X268023373Y-128112037D01*
X268089557Y-128105519D01*
X268155740Y-128099000D01*
X268244260Y-128099000D01*
X268310443Y-128105519D01*
X268310443Y-128105519D01*
G37*
G36*
X263795985Y-126055860D02*
G01*
X263908748Y-126078290D01*
X264040741Y-126132963D01*
X264227408Y-126210283D01*
X264514196Y-126401909D01*
X264758091Y-126645804D01*
X264949717Y-126932592D01*
X265019467Y-127100985D01*
X265068566Y-127219519D01*
X265081710Y-127251253D01*
X265149000Y-127589540D01*
X265149000Y-127934460D01*
X265133928Y-128010229D01*
X265081710Y-128272748D01*
X265041035Y-128370946D01*
X264949717Y-128591408D01*
X264758091Y-128878196D01*
X264514196Y-129122091D01*
X264227408Y-129313717D01*
X264040741Y-129391037D01*
X263908748Y-129445710D01*
X263795985Y-129468140D01*
X263570460Y-129513000D01*
X263225540Y-129513000D01*
X263000015Y-129468140D01*
X262887252Y-129445710D01*
X262755259Y-129391037D01*
X262568592Y-129313717D01*
X262281804Y-129122091D01*
X262037909Y-128878196D01*
X261846283Y-128591408D01*
X261754965Y-128370946D01*
X261714290Y-128272748D01*
X261662072Y-128010229D01*
X261647000Y-127934460D01*
X261647000Y-127589540D01*
X261714290Y-127251253D01*
X261727435Y-127219519D01*
X261776533Y-127100985D01*
X261846283Y-126932592D01*
X262037909Y-126645804D01*
X262281804Y-126401909D01*
X262568592Y-126210283D01*
X262755259Y-126132963D01*
X262887252Y-126078290D01*
X263000015Y-126055860D01*
X263225540Y-126011000D01*
X263570460Y-126011000D01*
X263795985Y-126055860D01*
X263795985Y-126055860D01*
G37*
G36*
X223802383Y-128344489D02*
G01*
X223802386Y-128344490D01*
X223802385Y-128344490D01*
X223866258Y-128370946D01*
X223923748Y-128409360D01*
X223972640Y-128458252D01*
X224011054Y-128515742D01*
X224032624Y-128567818D01*
X224037511Y-128579617D01*
X224051000Y-128647430D01*
X224051000Y-128716570D01*
X224037511Y-128784383D01*
X224037510Y-128784385D01*
X224011054Y-128848258D01*
X223972640Y-128905748D01*
X223923748Y-128954640D01*
X223866258Y-128993054D01*
X223814182Y-129014624D01*
X223802383Y-129019511D01*
X223734570Y-129033000D01*
X223665430Y-129033000D01*
X223597617Y-129019511D01*
X223585818Y-129014624D01*
X223533742Y-128993054D01*
X223476252Y-128954640D01*
X223427360Y-128905748D01*
X223388946Y-128848258D01*
X223362490Y-128784385D01*
X223362489Y-128784383D01*
X223349000Y-128716570D01*
X223349000Y-128647430D01*
X223362489Y-128579617D01*
X223367376Y-128567818D01*
X223388946Y-128515742D01*
X223427360Y-128458252D01*
X223476252Y-128409360D01*
X223533742Y-128370946D01*
X223597615Y-128344490D01*
X223597614Y-128344490D01*
X223597617Y-128344489D01*
X223665430Y-128331000D01*
X223734570Y-128331000D01*
X223802383Y-128344489D01*
X223802383Y-128344489D01*
G37*
G36*
X272536228Y-126943703D02*
G01*
X272691100Y-127007853D01*
X272830481Y-127100985D01*
X272949015Y-127219519D01*
X273042147Y-127358900D01*
X273106297Y-127513772D01*
X273139000Y-127678184D01*
X273139000Y-127845816D01*
X273106297Y-128010228D01*
X273042147Y-128165100D01*
X272949015Y-128304481D01*
X272830481Y-128423015D01*
X272691100Y-128516147D01*
X272536228Y-128580297D01*
X272371816Y-128613000D01*
X272204184Y-128613000D01*
X272039772Y-128580297D01*
X271884900Y-128516147D01*
X271745519Y-128423015D01*
X271626985Y-128304481D01*
X271533853Y-128165100D01*
X271469703Y-128010228D01*
X271437000Y-127845816D01*
X271437000Y-127678184D01*
X271469703Y-127513772D01*
X271533853Y-127358900D01*
X271626985Y-127219519D01*
X271745519Y-127100985D01*
X271884900Y-127007853D01*
X272039772Y-126943703D01*
X272204184Y-126911000D01*
X272371816Y-126911000D01*
X272536228Y-126943703D01*
X272536228Y-126943703D01*
G37*
G36*
X224828213Y-126758249D02*
G01*
X224922652Y-126786897D01*
X225009687Y-126833418D01*
X225085975Y-126896025D01*
X225148582Y-126972313D01*
X225195103Y-127059348D01*
X225223751Y-127153787D01*
X225233424Y-127252000D01*
X225223751Y-127350213D01*
X225195103Y-127444652D01*
X225148582Y-127531687D01*
X225085975Y-127607975D01*
X225009687Y-127670582D01*
X224922652Y-127717103D01*
X224828213Y-127745751D01*
X224754612Y-127753000D01*
X223605388Y-127753000D01*
X223531787Y-127745751D01*
X223437348Y-127717103D01*
X223350313Y-127670582D01*
X223274025Y-127607975D01*
X223211418Y-127531687D01*
X223164897Y-127444652D01*
X223136249Y-127350213D01*
X223126576Y-127252000D01*
X223136249Y-127153787D01*
X223164897Y-127059348D01*
X223211418Y-126972313D01*
X223274025Y-126896025D01*
X223350313Y-126833418D01*
X223437348Y-126786897D01*
X223531787Y-126758249D01*
X223605388Y-126751000D01*
X224754612Y-126751000D01*
X224828213Y-126758249D01*
X224828213Y-126758249D01*
G37*
G36*
X220508213Y-126758249D02*
G01*
X220602652Y-126786897D01*
X220689687Y-126833418D01*
X220765975Y-126896025D01*
X220828582Y-126972313D01*
X220875103Y-127059348D01*
X220903751Y-127153787D01*
X220913424Y-127252000D01*
X220903751Y-127350213D01*
X220875103Y-127444652D01*
X220828582Y-127531687D01*
X220765975Y-127607975D01*
X220689687Y-127670582D01*
X220602652Y-127717103D01*
X220508213Y-127745751D01*
X220434612Y-127753000D01*
X219585388Y-127753000D01*
X219511787Y-127745751D01*
X219417348Y-127717103D01*
X219330313Y-127670582D01*
X219254025Y-127607975D01*
X219191418Y-127531687D01*
X219144897Y-127444652D01*
X219116249Y-127350213D01*
X219106576Y-127252000D01*
X219116249Y-127153787D01*
X219144897Y-127059348D01*
X219191418Y-126972313D01*
X219254025Y-126896025D01*
X219330313Y-126833418D01*
X219417348Y-126786897D01*
X219511787Y-126758249D01*
X219585388Y-126751000D01*
X220434612Y-126751000D01*
X220508213Y-126758249D01*
X220508213Y-126758249D01*
G37*
G36*
X269101000Y-127361000D02*
G01*
X267299000Y-127361000D01*
X267299000Y-125559000D01*
X269101000Y-125559000D01*
X269101000Y-127361000D01*
X269101000Y-127361000D01*
G37*
G36*
X263160985Y-108529860D02*
G01*
X263273748Y-108552290D01*
X263405741Y-108606963D01*
X263592408Y-108684283D01*
X263879196Y-108875909D01*
X264123091Y-109119804D01*
X264314717Y-109406592D01*
X264346060Y-109482261D01*
X264433566Y-109693519D01*
X264446710Y-109725253D01*
X264514000Y-110063540D01*
X264514000Y-110408460D01*
X264498928Y-110484229D01*
X264446710Y-110746748D01*
X264392037Y-110878741D01*
X264314717Y-111065408D01*
X264123091Y-111352196D01*
X263879196Y-111596091D01*
X263592408Y-111787717D01*
X263405741Y-111865037D01*
X263273748Y-111919710D01*
X263160985Y-111942140D01*
X262935460Y-111987000D01*
X262590540Y-111987000D01*
X262365015Y-111942140D01*
X262252252Y-111919710D01*
X262120259Y-111865037D01*
X261933592Y-111787717D01*
X261646804Y-111596091D01*
X261402909Y-111352196D01*
X261211283Y-111065408D01*
X261133963Y-110878741D01*
X261079290Y-110746748D01*
X261027072Y-110484229D01*
X261012000Y-110408460D01*
X261012000Y-110063540D01*
X261079290Y-109725253D01*
X261092435Y-109693519D01*
X261179940Y-109482261D01*
X261211283Y-109406592D01*
X261402909Y-109119804D01*
X261646804Y-108875909D01*
X261933592Y-108684283D01*
X262120259Y-108606963D01*
X262252252Y-108552290D01*
X262365015Y-108529860D01*
X262590540Y-108485000D01*
X262935460Y-108485000D01*
X263160985Y-108529860D01*
X263160985Y-108529860D01*
G37*
G36*
X224828213Y-110252249D02*
G01*
X224922652Y-110280897D01*
X225009687Y-110327418D01*
X225085975Y-110390025D01*
X225148582Y-110466313D01*
X225195103Y-110553348D01*
X225223751Y-110647787D01*
X225233424Y-110746000D01*
X225223751Y-110844213D01*
X225195103Y-110938652D01*
X225148582Y-111025687D01*
X225085975Y-111101975D01*
X225009687Y-111164582D01*
X224922652Y-111211103D01*
X224828213Y-111239751D01*
X224754612Y-111247000D01*
X223605388Y-111247000D01*
X223531787Y-111239751D01*
X223437348Y-111211103D01*
X223350313Y-111164582D01*
X223274025Y-111101975D01*
X223211418Y-111025687D01*
X223164897Y-110938652D01*
X223136249Y-110844213D01*
X223126576Y-110746000D01*
X223136249Y-110647787D01*
X223164897Y-110553348D01*
X223211418Y-110466313D01*
X223274025Y-110390025D01*
X223350313Y-110327418D01*
X223437348Y-110280897D01*
X223531787Y-110252249D01*
X223605388Y-110245000D01*
X224754612Y-110245000D01*
X224828213Y-110252249D01*
X224828213Y-110252249D01*
G37*
G36*
X220508213Y-110252249D02*
G01*
X220602652Y-110280897D01*
X220689687Y-110327418D01*
X220765975Y-110390025D01*
X220828582Y-110466313D01*
X220875103Y-110553348D01*
X220903751Y-110647787D01*
X220913424Y-110746000D01*
X220903751Y-110844213D01*
X220875103Y-110938652D01*
X220828582Y-111025687D01*
X220765975Y-111101975D01*
X220689687Y-111164582D01*
X220602652Y-111211103D01*
X220508213Y-111239751D01*
X220434612Y-111247000D01*
X219585388Y-111247000D01*
X219511787Y-111239751D01*
X219417348Y-111211103D01*
X219330313Y-111164582D01*
X219254025Y-111101975D01*
X219191418Y-111025687D01*
X219144897Y-110938652D01*
X219116249Y-110844213D01*
X219106576Y-110746000D01*
X219116249Y-110647787D01*
X219144897Y-110553348D01*
X219191418Y-110466313D01*
X219254025Y-110390025D01*
X219330313Y-110327418D01*
X219417348Y-110280897D01*
X219511787Y-110252249D01*
X219585388Y-110245000D01*
X220434612Y-110245000D01*
X220508213Y-110252249D01*
X220508213Y-110252249D01*
G37*
G36*
X267456228Y-109417703D02*
G01*
X267611100Y-109481853D01*
X267750481Y-109574985D01*
X267869015Y-109693519D01*
X267962147Y-109832900D01*
X268026297Y-109987772D01*
X268059000Y-110152184D01*
X268059000Y-110319816D01*
X268026297Y-110484228D01*
X267962147Y-110639100D01*
X267869015Y-110778481D01*
X267750481Y-110897015D01*
X267611100Y-110990147D01*
X267456228Y-111054297D01*
X267291816Y-111087000D01*
X267124184Y-111087000D01*
X266959772Y-111054297D01*
X266804900Y-110990147D01*
X266665519Y-110897015D01*
X266546985Y-110778481D01*
X266453853Y-110639100D01*
X266389703Y-110484228D01*
X266357000Y-110319816D01*
X266357000Y-110152184D01*
X266389703Y-109987772D01*
X266453853Y-109832900D01*
X266546985Y-109693519D01*
X266665519Y-109574985D01*
X266804900Y-109481853D01*
X266959772Y-109417703D01*
X267124184Y-109385000D01*
X267291816Y-109385000D01*
X267456228Y-109417703D01*
X267456228Y-109417703D01*
G37*
G36*
X223802383Y-108978489D02*
G01*
X223802386Y-108978490D01*
X223802385Y-108978490D01*
X223866258Y-109004946D01*
X223923748Y-109043360D01*
X223972640Y-109092252D01*
X224011054Y-109149742D01*
X224032624Y-109201818D01*
X224037511Y-109213617D01*
X224051000Y-109281430D01*
X224051000Y-109350570D01*
X224037511Y-109418383D01*
X224037510Y-109418385D01*
X224011054Y-109482258D01*
X223972640Y-109539748D01*
X223923748Y-109588640D01*
X223866258Y-109627054D01*
X223814182Y-109648624D01*
X223802383Y-109653511D01*
X223734570Y-109667000D01*
X223665430Y-109667000D01*
X223597617Y-109653511D01*
X223585818Y-109648624D01*
X223533742Y-109627054D01*
X223476252Y-109588640D01*
X223427360Y-109539748D01*
X223388946Y-109482258D01*
X223362490Y-109418385D01*
X223362489Y-109418383D01*
X223349000Y-109350570D01*
X223349000Y-109281430D01*
X223362489Y-109213617D01*
X223367376Y-109201818D01*
X223388946Y-109149742D01*
X223427360Y-109092252D01*
X223476252Y-109043360D01*
X223533742Y-109004946D01*
X223597615Y-108978490D01*
X223597614Y-108978490D01*
X223597617Y-108978489D01*
X223665430Y-108965000D01*
X223734570Y-108965000D01*
X223802383Y-108978489D01*
X223802383Y-108978489D01*
G37*
G36*
X259240831Y-104953841D02*
G01*
X259385826Y-104982682D01*
X259498974Y-105029550D01*
X259658989Y-105095830D01*
X259658990Y-105095831D01*
X259904832Y-105260097D01*
X260113903Y-105469168D01*
X260192783Y-105587221D01*
X260278170Y-105715011D01*
X260391318Y-105988175D01*
X260449000Y-106278163D01*
X260449000Y-106573837D01*
X260391318Y-106863825D01*
X260278170Y-107136989D01*
X260217383Y-107227963D01*
X260113903Y-107382832D01*
X259904832Y-107591903D01*
X259781076Y-107674594D01*
X259658989Y-107756170D01*
X259498974Y-107822450D01*
X259385826Y-107869318D01*
X259240831Y-107898159D01*
X259095837Y-107927000D01*
X258800163Y-107927000D01*
X258655169Y-107898159D01*
X258510174Y-107869318D01*
X258397026Y-107822450D01*
X258237011Y-107756170D01*
X258114924Y-107674594D01*
X257991168Y-107591903D01*
X257782097Y-107382832D01*
X257678617Y-107227963D01*
X257617830Y-107136989D01*
X257504682Y-106863825D01*
X257447000Y-106573837D01*
X257447000Y-106278163D01*
X257504682Y-105988175D01*
X257617830Y-105715011D01*
X257703217Y-105587221D01*
X257782097Y-105469168D01*
X257991168Y-105260097D01*
X258237010Y-105095831D01*
X258237011Y-105095830D01*
X258397026Y-105029550D01*
X258510174Y-104982682D01*
X258655169Y-104953841D01*
X258800163Y-104925000D01*
X259095837Y-104925000D01*
X259240831Y-104953841D01*
X259240831Y-104953841D01*
G37*
G36*
X268310442Y-105445518D02*
G01*
X268376627Y-105452037D01*
X268546466Y-105503557D01*
X268702991Y-105587222D01*
X268738729Y-105616552D01*
X268840186Y-105699814D01*
X268923448Y-105801271D01*
X268952778Y-105837009D01*
X269036443Y-105993534D01*
X269087963Y-106163373D01*
X269105359Y-106340000D01*
X269087963Y-106516627D01*
X269036443Y-106686466D01*
X268952778Y-106842991D01*
X268935680Y-106863825D01*
X268840186Y-106980186D01*
X268738729Y-107063448D01*
X268702991Y-107092778D01*
X268546466Y-107176443D01*
X268376627Y-107227963D01*
X268310442Y-107234482D01*
X268244260Y-107241000D01*
X268155740Y-107241000D01*
X268089558Y-107234482D01*
X268023373Y-107227963D01*
X267853534Y-107176443D01*
X267697009Y-107092778D01*
X267661271Y-107063448D01*
X267559814Y-106980186D01*
X267464320Y-106863825D01*
X267447222Y-106842991D01*
X267363557Y-106686466D01*
X267312037Y-106516627D01*
X267294641Y-106340000D01*
X267312037Y-106163373D01*
X267363557Y-105993534D01*
X267447222Y-105837009D01*
X267476552Y-105801271D01*
X267559814Y-105699814D01*
X267661271Y-105616552D01*
X267697009Y-105587222D01*
X267853534Y-105503557D01*
X268023373Y-105452037D01*
X268089557Y-105445519D01*
X268155740Y-105439000D01*
X268244260Y-105439000D01*
X268310442Y-105445518D01*
X268310442Y-105445518D01*
G37*
G36*
X268310443Y-102905519D02*
G01*
X268376627Y-102912037D01*
X268546466Y-102963557D01*
X268702991Y-103047222D01*
X268738729Y-103076552D01*
X268840186Y-103159814D01*
X268893639Y-103224948D01*
X268952778Y-103297009D01*
X268952779Y-103297011D01*
X269026160Y-103434295D01*
X269036443Y-103453534D01*
X269087963Y-103623373D01*
X269105359Y-103800000D01*
X269087963Y-103976627D01*
X269036443Y-104146466D01*
X268952778Y-104302991D01*
X268923448Y-104338729D01*
X268840186Y-104440186D01*
X268738729Y-104523448D01*
X268702991Y-104552778D01*
X268546466Y-104636443D01*
X268376627Y-104687963D01*
X268310442Y-104694482D01*
X268244260Y-104701000D01*
X268155740Y-104701000D01*
X268089557Y-104694481D01*
X268023373Y-104687963D01*
X267853534Y-104636443D01*
X267697009Y-104552778D01*
X267661271Y-104523448D01*
X267559814Y-104440186D01*
X267476552Y-104338729D01*
X267447222Y-104302991D01*
X267363557Y-104146466D01*
X267312037Y-103976627D01*
X267294641Y-103800000D01*
X267312037Y-103623373D01*
X267363557Y-103453534D01*
X267373841Y-103434295D01*
X267447221Y-103297011D01*
X267447222Y-103297009D01*
X267506361Y-103224948D01*
X267559814Y-103159814D01*
X267661271Y-103076552D01*
X267697009Y-103047222D01*
X267853534Y-102963557D01*
X268023373Y-102912037D01*
X268089557Y-102905519D01*
X268155740Y-102899000D01*
X268244260Y-102899000D01*
X268310443Y-102905519D01*
X268310443Y-102905519D01*
G37*
G36*
X263795985Y-100909860D02*
G01*
X263908748Y-100932290D01*
X264040741Y-100986963D01*
X264227408Y-101064283D01*
X264514196Y-101255909D01*
X264758091Y-101499804D01*
X264949717Y-101786592D01*
X265019467Y-101954985D01*
X265068566Y-102073519D01*
X265081710Y-102105253D01*
X265149000Y-102443540D01*
X265149000Y-102788460D01*
X265104140Y-103013985D01*
X265081710Y-103126748D01*
X265068013Y-103159815D01*
X264949717Y-103445408D01*
X264758091Y-103732196D01*
X264514196Y-103976091D01*
X264227408Y-104167717D01*
X264040741Y-104245037D01*
X263908748Y-104299710D01*
X263795985Y-104322140D01*
X263570460Y-104367000D01*
X263225540Y-104367000D01*
X263000015Y-104322140D01*
X262887252Y-104299710D01*
X262755259Y-104245037D01*
X262568592Y-104167717D01*
X262281804Y-103976091D01*
X262037909Y-103732196D01*
X261846283Y-103445408D01*
X261727987Y-103159815D01*
X261714290Y-103126748D01*
X261691860Y-103013985D01*
X261647000Y-102788460D01*
X261647000Y-102443540D01*
X261714290Y-102105253D01*
X261727435Y-102073519D01*
X261776533Y-101954985D01*
X261846283Y-101786592D01*
X262037909Y-101499804D01*
X262281804Y-101255909D01*
X262568592Y-101064283D01*
X262755259Y-100986963D01*
X262887252Y-100932290D01*
X263000015Y-100909860D01*
X263225540Y-100865000D01*
X263570460Y-100865000D01*
X263795985Y-100909860D01*
X263795985Y-100909860D01*
G37*
G36*
X223802383Y-103198489D02*
G01*
X223802386Y-103198490D01*
X223802385Y-103198490D01*
X223866258Y-103224946D01*
X223923748Y-103263360D01*
X223972640Y-103312252D01*
X224011054Y-103369742D01*
X224032624Y-103421818D01*
X224037511Y-103433617D01*
X224051000Y-103501430D01*
X224051000Y-103570570D01*
X224037511Y-103638383D01*
X224037510Y-103638385D01*
X224011054Y-103702258D01*
X223972640Y-103759748D01*
X223923748Y-103808640D01*
X223866258Y-103847054D01*
X223814182Y-103868624D01*
X223802383Y-103873511D01*
X223734570Y-103887000D01*
X223665430Y-103887000D01*
X223597617Y-103873511D01*
X223585818Y-103868624D01*
X223533742Y-103847054D01*
X223476252Y-103808640D01*
X223427360Y-103759748D01*
X223388946Y-103702258D01*
X223362490Y-103638385D01*
X223362489Y-103638383D01*
X223349000Y-103570570D01*
X223349000Y-103501430D01*
X223362489Y-103433617D01*
X223367376Y-103421818D01*
X223388946Y-103369742D01*
X223427360Y-103312252D01*
X223476252Y-103263360D01*
X223533742Y-103224946D01*
X223597615Y-103198490D01*
X223597614Y-103198490D01*
X223597617Y-103198489D01*
X223665430Y-103185000D01*
X223734570Y-103185000D01*
X223802383Y-103198489D01*
X223802383Y-103198489D01*
G37*
G36*
X272536228Y-101797703D02*
G01*
X272691100Y-101861853D01*
X272830481Y-101954985D01*
X272949015Y-102073519D01*
X273042147Y-102212900D01*
X273106297Y-102367772D01*
X273139000Y-102532184D01*
X273139000Y-102699816D01*
X273106297Y-102864228D01*
X273042147Y-103019100D01*
X272949015Y-103158481D01*
X272830481Y-103277015D01*
X272691100Y-103370147D01*
X272536228Y-103434297D01*
X272371816Y-103467000D01*
X272204184Y-103467000D01*
X272039772Y-103434297D01*
X271884900Y-103370147D01*
X271745519Y-103277015D01*
X271626985Y-103158481D01*
X271533853Y-103019100D01*
X271469703Y-102864228D01*
X271437000Y-102699816D01*
X271437000Y-102532184D01*
X271469703Y-102367772D01*
X271533853Y-102212900D01*
X271626985Y-102073519D01*
X271745519Y-101954985D01*
X271884900Y-101861853D01*
X272039772Y-101797703D01*
X272204184Y-101765000D01*
X272371816Y-101765000D01*
X272536228Y-101797703D01*
X272536228Y-101797703D01*
G37*
G36*
X220508213Y-101612249D02*
G01*
X220602652Y-101640897D01*
X220689687Y-101687418D01*
X220765975Y-101750025D01*
X220828582Y-101826313D01*
X220875103Y-101913348D01*
X220903751Y-102007787D01*
X220913424Y-102106000D01*
X220903751Y-102204213D01*
X220875103Y-102298652D01*
X220828582Y-102385687D01*
X220765975Y-102461975D01*
X220689687Y-102524582D01*
X220602652Y-102571103D01*
X220508213Y-102599751D01*
X220434612Y-102607000D01*
X219585388Y-102607000D01*
X219511787Y-102599751D01*
X219417348Y-102571103D01*
X219330313Y-102524582D01*
X219254025Y-102461975D01*
X219191418Y-102385687D01*
X219144897Y-102298652D01*
X219116249Y-102204213D01*
X219106576Y-102106000D01*
X219116249Y-102007787D01*
X219144897Y-101913348D01*
X219191418Y-101826313D01*
X219254025Y-101750025D01*
X219330313Y-101687418D01*
X219417348Y-101640897D01*
X219511787Y-101612249D01*
X219585388Y-101605000D01*
X220434612Y-101605000D01*
X220508213Y-101612249D01*
X220508213Y-101612249D01*
G37*
G36*
X224828213Y-101612249D02*
G01*
X224922652Y-101640897D01*
X225009687Y-101687418D01*
X225085975Y-101750025D01*
X225148582Y-101826313D01*
X225195103Y-101913348D01*
X225223751Y-102007787D01*
X225233424Y-102106000D01*
X225223751Y-102204213D01*
X225195103Y-102298652D01*
X225148582Y-102385687D01*
X225085975Y-102461975D01*
X225009687Y-102524582D01*
X224922652Y-102571103D01*
X224828213Y-102599751D01*
X224754612Y-102607000D01*
X223605388Y-102607000D01*
X223531787Y-102599751D01*
X223437348Y-102571103D01*
X223350313Y-102524582D01*
X223274025Y-102461975D01*
X223211418Y-102385687D01*
X223164897Y-102298652D01*
X223136249Y-102204213D01*
X223126576Y-102106000D01*
X223136249Y-102007787D01*
X223164897Y-101913348D01*
X223211418Y-101826313D01*
X223274025Y-101750025D01*
X223350313Y-101687418D01*
X223437348Y-101640897D01*
X223531787Y-101612249D01*
X223605388Y-101605000D01*
X224754612Y-101605000D01*
X224828213Y-101612249D01*
X224828213Y-101612249D01*
G37*
G36*
X269101000Y-102161000D02*
G01*
X267299000Y-102161000D01*
X267299000Y-100359000D01*
X269101000Y-100359000D01*
X269101000Y-102161000D01*
X269101000Y-102161000D01*
G37*
G36*
X263160985Y-83383860D02*
G01*
X263273748Y-83406290D01*
X263405741Y-83460963D01*
X263592408Y-83538283D01*
X263879196Y-83729909D01*
X264123091Y-83973804D01*
X264314717Y-84260592D01*
X264346060Y-84336261D01*
X264433566Y-84547519D01*
X264446710Y-84579253D01*
X264514000Y-84917540D01*
X264514000Y-85262460D01*
X264498928Y-85338229D01*
X264446710Y-85600748D01*
X264392037Y-85732741D01*
X264314717Y-85919408D01*
X264123091Y-86206196D01*
X263879196Y-86450091D01*
X263592408Y-86641717D01*
X263405741Y-86719037D01*
X263273748Y-86773710D01*
X263160985Y-86796140D01*
X262935460Y-86841000D01*
X262590540Y-86841000D01*
X262365015Y-86796140D01*
X262252252Y-86773710D01*
X262120259Y-86719037D01*
X261933592Y-86641717D01*
X261646804Y-86450091D01*
X261402909Y-86206196D01*
X261211283Y-85919408D01*
X261133963Y-85732741D01*
X261079290Y-85600748D01*
X261027072Y-85338229D01*
X261012000Y-85262460D01*
X261012000Y-84917540D01*
X261079290Y-84579253D01*
X261092435Y-84547519D01*
X261179940Y-84336261D01*
X261211283Y-84260592D01*
X261402909Y-83973804D01*
X261646804Y-83729909D01*
X261933592Y-83538283D01*
X262120259Y-83460963D01*
X262252252Y-83406290D01*
X262365015Y-83383860D01*
X262590540Y-83339000D01*
X262935460Y-83339000D01*
X263160985Y-83383860D01*
X263160985Y-83383860D01*
G37*
G36*
X224828213Y-85106249D02*
G01*
X224922652Y-85134897D01*
X225009687Y-85181418D01*
X225085975Y-85244025D01*
X225148582Y-85320313D01*
X225195103Y-85407348D01*
X225223751Y-85501787D01*
X225233424Y-85600000D01*
X225223751Y-85698213D01*
X225195103Y-85792652D01*
X225148582Y-85879687D01*
X225085975Y-85955975D01*
X225009687Y-86018582D01*
X224922652Y-86065103D01*
X224828213Y-86093751D01*
X224754612Y-86101000D01*
X223605388Y-86101000D01*
X223531787Y-86093751D01*
X223437348Y-86065103D01*
X223350313Y-86018582D01*
X223274025Y-85955975D01*
X223211418Y-85879687D01*
X223164897Y-85792652D01*
X223136249Y-85698213D01*
X223126576Y-85600000D01*
X223136249Y-85501787D01*
X223164897Y-85407348D01*
X223211418Y-85320313D01*
X223274025Y-85244025D01*
X223350313Y-85181418D01*
X223437348Y-85134897D01*
X223531787Y-85106249D01*
X223605388Y-85099000D01*
X224754612Y-85099000D01*
X224828213Y-85106249D01*
X224828213Y-85106249D01*
G37*
G36*
X220508213Y-85106249D02*
G01*
X220602652Y-85134897D01*
X220689687Y-85181418D01*
X220765975Y-85244025D01*
X220828582Y-85320313D01*
X220875103Y-85407348D01*
X220903751Y-85501787D01*
X220913424Y-85600000D01*
X220903751Y-85698213D01*
X220875103Y-85792652D01*
X220828582Y-85879687D01*
X220765975Y-85955975D01*
X220689687Y-86018582D01*
X220602652Y-86065103D01*
X220508213Y-86093751D01*
X220434612Y-86101000D01*
X219585388Y-86101000D01*
X219511787Y-86093751D01*
X219417348Y-86065103D01*
X219330313Y-86018582D01*
X219254025Y-85955975D01*
X219191418Y-85879687D01*
X219144897Y-85792652D01*
X219116249Y-85698213D01*
X219106576Y-85600000D01*
X219116249Y-85501787D01*
X219144897Y-85407348D01*
X219191418Y-85320313D01*
X219254025Y-85244025D01*
X219330313Y-85181418D01*
X219417348Y-85134897D01*
X219511787Y-85106249D01*
X219585388Y-85099000D01*
X220434612Y-85099000D01*
X220508213Y-85106249D01*
X220508213Y-85106249D01*
G37*
G36*
X267456228Y-84271703D02*
G01*
X267611100Y-84335853D01*
X267750481Y-84428985D01*
X267869015Y-84547519D01*
X267962147Y-84686900D01*
X268026297Y-84841772D01*
X268059000Y-85006184D01*
X268059000Y-85173816D01*
X268026297Y-85338228D01*
X267962147Y-85493100D01*
X267869015Y-85632481D01*
X267750481Y-85751015D01*
X267611100Y-85844147D01*
X267456228Y-85908297D01*
X267291816Y-85941000D01*
X267124184Y-85941000D01*
X266959772Y-85908297D01*
X266804900Y-85844147D01*
X266665519Y-85751015D01*
X266546985Y-85632481D01*
X266453853Y-85493100D01*
X266389703Y-85338228D01*
X266357000Y-85173816D01*
X266357000Y-85006184D01*
X266389703Y-84841772D01*
X266453853Y-84686900D01*
X266546985Y-84547519D01*
X266665519Y-84428985D01*
X266804900Y-84335853D01*
X266959772Y-84271703D01*
X267124184Y-84239000D01*
X267291816Y-84239000D01*
X267456228Y-84271703D01*
X267456228Y-84271703D01*
G37*
G36*
X223802383Y-83832489D02*
G01*
X223802386Y-83832490D01*
X223802385Y-83832490D01*
X223866258Y-83858946D01*
X223923748Y-83897360D01*
X223972640Y-83946252D01*
X224011054Y-84003742D01*
X224032624Y-84055818D01*
X224037511Y-84067617D01*
X224051000Y-84135430D01*
X224051000Y-84204570D01*
X224037511Y-84272383D01*
X224037510Y-84272385D01*
X224011054Y-84336258D01*
X223972640Y-84393748D01*
X223923748Y-84442640D01*
X223866258Y-84481054D01*
X223814182Y-84502624D01*
X223802383Y-84507511D01*
X223734570Y-84521000D01*
X223665430Y-84521000D01*
X223597617Y-84507511D01*
X223585818Y-84502624D01*
X223533742Y-84481054D01*
X223476252Y-84442640D01*
X223427360Y-84393748D01*
X223388946Y-84336258D01*
X223362490Y-84272385D01*
X223362489Y-84272383D01*
X223349000Y-84204570D01*
X223349000Y-84135430D01*
X223362489Y-84067617D01*
X223367376Y-84055818D01*
X223388946Y-84003742D01*
X223427360Y-83946252D01*
X223476252Y-83897360D01*
X223533742Y-83858946D01*
X223597615Y-83832490D01*
X223597614Y-83832490D01*
X223597617Y-83832489D01*
X223665430Y-83819000D01*
X223734570Y-83819000D01*
X223802383Y-83832489D01*
X223802383Y-83832489D01*
G37*
G36*
X259240831Y-79807841D02*
G01*
X259385826Y-79836682D01*
X259498974Y-79883550D01*
X259658989Y-79949830D01*
X259658990Y-79949831D01*
X259904832Y-80114097D01*
X260113903Y-80323168D01*
X260113904Y-80323170D01*
X260278170Y-80569011D01*
X260306336Y-80637011D01*
X260371171Y-80793534D01*
X260391318Y-80842175D01*
X260449000Y-81132163D01*
X260449000Y-81427837D01*
X260391318Y-81717825D01*
X260278170Y-81990989D01*
X260196594Y-82113076D01*
X260113903Y-82236832D01*
X259904832Y-82445903D01*
X259781076Y-82528594D01*
X259658989Y-82610170D01*
X259498974Y-82676450D01*
X259385826Y-82723318D01*
X259240831Y-82752159D01*
X259095837Y-82781000D01*
X258800163Y-82781000D01*
X258655169Y-82752159D01*
X258510174Y-82723318D01*
X258397026Y-82676450D01*
X258237011Y-82610170D01*
X258114924Y-82528594D01*
X257991168Y-82445903D01*
X257782097Y-82236832D01*
X257699406Y-82113076D01*
X257617830Y-81990989D01*
X257504682Y-81717825D01*
X257447000Y-81427837D01*
X257447000Y-81132163D01*
X257504682Y-80842175D01*
X257524830Y-80793534D01*
X257589664Y-80637011D01*
X257617830Y-80569011D01*
X257782096Y-80323170D01*
X257782097Y-80323168D01*
X257991168Y-80114097D01*
X258237010Y-79949831D01*
X258237011Y-79949830D01*
X258397026Y-79883550D01*
X258510174Y-79836682D01*
X258655169Y-79807841D01*
X258800163Y-79779000D01*
X259095837Y-79779000D01*
X259240831Y-79807841D01*
X259240831Y-79807841D01*
G37*
G36*
X268310443Y-80245519D02*
G01*
X268376627Y-80252037D01*
X268546466Y-80303557D01*
X268702991Y-80387222D01*
X268738729Y-80416552D01*
X268840186Y-80499814D01*
X268923448Y-80601271D01*
X268952778Y-80637009D01*
X269036443Y-80793534D01*
X269087963Y-80963373D01*
X269105359Y-81140000D01*
X269087963Y-81316627D01*
X269036443Y-81486466D01*
X268952778Y-81642991D01*
X268923448Y-81678729D01*
X268840186Y-81780186D01*
X268738729Y-81863448D01*
X268702991Y-81892778D01*
X268546466Y-81976443D01*
X268376627Y-82027963D01*
X268310442Y-82034482D01*
X268244260Y-82041000D01*
X268155740Y-82041000D01*
X268089557Y-82034481D01*
X268023373Y-82027963D01*
X267853534Y-81976443D01*
X267697009Y-81892778D01*
X267661271Y-81863448D01*
X267559814Y-81780186D01*
X267476552Y-81678729D01*
X267447222Y-81642991D01*
X267363557Y-81486466D01*
X267312037Y-81316627D01*
X267294641Y-81140000D01*
X267312037Y-80963373D01*
X267363557Y-80793534D01*
X267447222Y-80637009D01*
X267476552Y-80601271D01*
X267559814Y-80499814D01*
X267661271Y-80416552D01*
X267697009Y-80387222D01*
X267853534Y-80303557D01*
X268023373Y-80252037D01*
X268089558Y-80245518D01*
X268155740Y-80239000D01*
X268244260Y-80239000D01*
X268310443Y-80245519D01*
X268310443Y-80245519D01*
G37*
G36*
X268310442Y-77705518D02*
G01*
X268376627Y-77712037D01*
X268546466Y-77763557D01*
X268702991Y-77847222D01*
X268734523Y-77873100D01*
X268840186Y-77959814D01*
X268905171Y-78039000D01*
X268952778Y-78097009D01*
X269036443Y-78253534D01*
X269087963Y-78423373D01*
X269105359Y-78600000D01*
X269087963Y-78776627D01*
X269036443Y-78946466D01*
X268952778Y-79102991D01*
X268923448Y-79138729D01*
X268840186Y-79240186D01*
X268738729Y-79323448D01*
X268702991Y-79352778D01*
X268546466Y-79436443D01*
X268376627Y-79487963D01*
X268310442Y-79494482D01*
X268244260Y-79501000D01*
X268155740Y-79501000D01*
X268089557Y-79494481D01*
X268023373Y-79487963D01*
X267853534Y-79436443D01*
X267697009Y-79352778D01*
X267661271Y-79323448D01*
X267559814Y-79240186D01*
X267476552Y-79138729D01*
X267447222Y-79102991D01*
X267363557Y-78946466D01*
X267312037Y-78776627D01*
X267294641Y-78600000D01*
X267312037Y-78423373D01*
X267363557Y-78253534D01*
X267447222Y-78097009D01*
X267494829Y-78039000D01*
X267559814Y-77959814D01*
X267665477Y-77873100D01*
X267697009Y-77847222D01*
X267853534Y-77763557D01*
X268023373Y-77712037D01*
X268089558Y-77705518D01*
X268155740Y-77699000D01*
X268244260Y-77699000D01*
X268310442Y-77705518D01*
X268310442Y-77705518D01*
G37*
G36*
X263795985Y-75763860D02*
G01*
X263908748Y-75786290D01*
X264040741Y-75840963D01*
X264227408Y-75918283D01*
X264514196Y-76109909D01*
X264758091Y-76353804D01*
X264949717Y-76640592D01*
X265019467Y-76808985D01*
X265068566Y-76927519D01*
X265081710Y-76959253D01*
X265149000Y-77297540D01*
X265149000Y-77642460D01*
X265133928Y-77718229D01*
X265081710Y-77980748D01*
X265057581Y-78039000D01*
X264949717Y-78299408D01*
X264758091Y-78586196D01*
X264514196Y-78830091D01*
X264227408Y-79021717D01*
X264040741Y-79099037D01*
X263908748Y-79153710D01*
X263795985Y-79176140D01*
X263570460Y-79221000D01*
X263225540Y-79221000D01*
X263000015Y-79176140D01*
X262887252Y-79153710D01*
X262755259Y-79099037D01*
X262568592Y-79021717D01*
X262281804Y-78830091D01*
X262037909Y-78586196D01*
X261846283Y-78299408D01*
X261738419Y-78039000D01*
X261714290Y-77980748D01*
X261662072Y-77718229D01*
X261647000Y-77642460D01*
X261647000Y-77297540D01*
X261714290Y-76959253D01*
X261727435Y-76927519D01*
X261776533Y-76808985D01*
X261846283Y-76640592D01*
X262037909Y-76353804D01*
X262281804Y-76109909D01*
X262568592Y-75918283D01*
X262755259Y-75840963D01*
X262887252Y-75786290D01*
X263000015Y-75763860D01*
X263225540Y-75719000D01*
X263570460Y-75719000D01*
X263795985Y-75763860D01*
X263795985Y-75763860D01*
G37*
G36*
X223802383Y-78052489D02*
G01*
X223802386Y-78052490D01*
X223802385Y-78052490D01*
X223866258Y-78078946D01*
X223923748Y-78117360D01*
X223972640Y-78166252D01*
X224011054Y-78223742D01*
X224032624Y-78275818D01*
X224037511Y-78287617D01*
X224051000Y-78355430D01*
X224051000Y-78424570D01*
X224037511Y-78492383D01*
X224037510Y-78492385D01*
X224011054Y-78556258D01*
X223972640Y-78613748D01*
X223923748Y-78662640D01*
X223866258Y-78701054D01*
X223814182Y-78722624D01*
X223802383Y-78727511D01*
X223734570Y-78741000D01*
X223665430Y-78741000D01*
X223597617Y-78727511D01*
X223585818Y-78722624D01*
X223533742Y-78701054D01*
X223476252Y-78662640D01*
X223427360Y-78613748D01*
X223388946Y-78556258D01*
X223362490Y-78492385D01*
X223362489Y-78492383D01*
X223349000Y-78424570D01*
X223349000Y-78355430D01*
X223362489Y-78287617D01*
X223367376Y-78275818D01*
X223388946Y-78223742D01*
X223427360Y-78166252D01*
X223476252Y-78117360D01*
X223533742Y-78078946D01*
X223597615Y-78052490D01*
X223597614Y-78052490D01*
X223597617Y-78052489D01*
X223665430Y-78039000D01*
X223734570Y-78039000D01*
X223802383Y-78052489D01*
X223802383Y-78052489D01*
G37*
G36*
X272536228Y-76651703D02*
G01*
X272691100Y-76715853D01*
X272830481Y-76808985D01*
X272949015Y-76927519D01*
X273042147Y-77066900D01*
X273106297Y-77221772D01*
X273139000Y-77386184D01*
X273139000Y-77553816D01*
X273106297Y-77718228D01*
X273042147Y-77873100D01*
X272949015Y-78012481D01*
X272830481Y-78131015D01*
X272691100Y-78224147D01*
X272536228Y-78288297D01*
X272371816Y-78321000D01*
X272204184Y-78321000D01*
X272039772Y-78288297D01*
X271884900Y-78224147D01*
X271745519Y-78131015D01*
X271626985Y-78012481D01*
X271533853Y-77873100D01*
X271469703Y-77718228D01*
X271437000Y-77553816D01*
X271437000Y-77386184D01*
X271469703Y-77221772D01*
X271533853Y-77066900D01*
X271626985Y-76927519D01*
X271745519Y-76808985D01*
X271884900Y-76715853D01*
X272039772Y-76651703D01*
X272204184Y-76619000D01*
X272371816Y-76619000D01*
X272536228Y-76651703D01*
X272536228Y-76651703D01*
G37*
G36*
X220508213Y-76466249D02*
G01*
X220602652Y-76494897D01*
X220689687Y-76541418D01*
X220765975Y-76604025D01*
X220828582Y-76680313D01*
X220875103Y-76767348D01*
X220903751Y-76861787D01*
X220913424Y-76960000D01*
X220903751Y-77058213D01*
X220875103Y-77152652D01*
X220828582Y-77239687D01*
X220765975Y-77315975D01*
X220689687Y-77378582D01*
X220602652Y-77425103D01*
X220508213Y-77453751D01*
X220434612Y-77461000D01*
X219585388Y-77461000D01*
X219511787Y-77453751D01*
X219417348Y-77425103D01*
X219330313Y-77378582D01*
X219254025Y-77315975D01*
X219191418Y-77239687D01*
X219144897Y-77152652D01*
X219116249Y-77058213D01*
X219106576Y-76960000D01*
X219116249Y-76861787D01*
X219144897Y-76767348D01*
X219191418Y-76680313D01*
X219254025Y-76604025D01*
X219330313Y-76541418D01*
X219417348Y-76494897D01*
X219511787Y-76466249D01*
X219585388Y-76459000D01*
X220434612Y-76459000D01*
X220508213Y-76466249D01*
X220508213Y-76466249D01*
G37*
G36*
X224828213Y-76466249D02*
G01*
X224922652Y-76494897D01*
X225009687Y-76541418D01*
X225085975Y-76604025D01*
X225148582Y-76680313D01*
X225195103Y-76767348D01*
X225223751Y-76861787D01*
X225233424Y-76960000D01*
X225223751Y-77058213D01*
X225195103Y-77152652D01*
X225148582Y-77239687D01*
X225085975Y-77315975D01*
X225009687Y-77378582D01*
X224922652Y-77425103D01*
X224828213Y-77453751D01*
X224754612Y-77461000D01*
X223605388Y-77461000D01*
X223531787Y-77453751D01*
X223437348Y-77425103D01*
X223350313Y-77378582D01*
X223274025Y-77315975D01*
X223211418Y-77239687D01*
X223164897Y-77152652D01*
X223136249Y-77058213D01*
X223126576Y-76960000D01*
X223136249Y-76861787D01*
X223164897Y-76767348D01*
X223211418Y-76680313D01*
X223274025Y-76604025D01*
X223350313Y-76541418D01*
X223437348Y-76494897D01*
X223531787Y-76466249D01*
X223605388Y-76459000D01*
X224754612Y-76459000D01*
X224828213Y-76466249D01*
X224828213Y-76466249D01*
G37*
G36*
X269101000Y-76961000D02*
G01*
X267299000Y-76961000D01*
X267299000Y-75159000D01*
X269101000Y-75159000D01*
X269101000Y-76961000D01*
X269101000Y-76961000D01*
G37*
G36*
X235060443Y-64637519D02*
G01*
X235126627Y-64644037D01*
X235296466Y-64695557D01*
X235452991Y-64779222D01*
X235488729Y-64808552D01*
X235590186Y-64891814D01*
X235673448Y-64993271D01*
X235702778Y-65029009D01*
X235786443Y-65185534D01*
X235837963Y-65355373D01*
X235855359Y-65532000D01*
X235837963Y-65708627D01*
X235786443Y-65878466D01*
X235702778Y-66034991D01*
X235673448Y-66070729D01*
X235590186Y-66172186D01*
X235488729Y-66255448D01*
X235452991Y-66284778D01*
X235296466Y-66368443D01*
X235126627Y-66419963D01*
X235060443Y-66426481D01*
X234994260Y-66433000D01*
X234905740Y-66433000D01*
X234839557Y-66426481D01*
X234773373Y-66419963D01*
X234603534Y-66368443D01*
X234447009Y-66284778D01*
X234411271Y-66255448D01*
X234309814Y-66172186D01*
X234226552Y-66070729D01*
X234197222Y-66034991D01*
X234113557Y-65878466D01*
X234062037Y-65708627D01*
X234044641Y-65532000D01*
X234062037Y-65355373D01*
X234113557Y-65185534D01*
X234197222Y-65029009D01*
X234226552Y-64993271D01*
X234309814Y-64891814D01*
X234411271Y-64808552D01*
X234447009Y-64779222D01*
X234603534Y-64695557D01*
X234773373Y-64644037D01*
X234839557Y-64637519D01*
X234905740Y-64631000D01*
X234994260Y-64631000D01*
X235060443Y-64637519D01*
X235060443Y-64637519D01*
G37*
G36*
X237600443Y-64637519D02*
G01*
X237666627Y-64644037D01*
X237836466Y-64695557D01*
X237992991Y-64779222D01*
X238028729Y-64808552D01*
X238130186Y-64891814D01*
X238213448Y-64993271D01*
X238242778Y-65029009D01*
X238326443Y-65185534D01*
X238377963Y-65355373D01*
X238395359Y-65532000D01*
X238377963Y-65708627D01*
X238326443Y-65878466D01*
X238242778Y-66034991D01*
X238213448Y-66070729D01*
X238130186Y-66172186D01*
X238028729Y-66255448D01*
X237992991Y-66284778D01*
X237836466Y-66368443D01*
X237666627Y-66419963D01*
X237600443Y-66426481D01*
X237534260Y-66433000D01*
X237445740Y-66433000D01*
X237379557Y-66426481D01*
X237313373Y-66419963D01*
X237143534Y-66368443D01*
X236987009Y-66284778D01*
X236951271Y-66255448D01*
X236849814Y-66172186D01*
X236766552Y-66070729D01*
X236737222Y-66034991D01*
X236653557Y-65878466D01*
X236602037Y-65708627D01*
X236584641Y-65532000D01*
X236602037Y-65355373D01*
X236653557Y-65185534D01*
X236737222Y-65029009D01*
X236766552Y-64993271D01*
X236849814Y-64891814D01*
X236951271Y-64808552D01*
X236987009Y-64779222D01*
X237143534Y-64695557D01*
X237313373Y-64644037D01*
X237379557Y-64637519D01*
X237445740Y-64631000D01*
X237534260Y-64631000D01*
X237600443Y-64637519D01*
X237600443Y-64637519D01*
G37*
G36*
X240140443Y-64637519D02*
G01*
X240206627Y-64644037D01*
X240376466Y-64695557D01*
X240532991Y-64779222D01*
X240568729Y-64808552D01*
X240670186Y-64891814D01*
X240753448Y-64993271D01*
X240782778Y-65029009D01*
X240866443Y-65185534D01*
X240917963Y-65355373D01*
X240935359Y-65532000D01*
X240917963Y-65708627D01*
X240866443Y-65878466D01*
X240782778Y-66034991D01*
X240753448Y-66070729D01*
X240670186Y-66172186D01*
X240568729Y-66255448D01*
X240532991Y-66284778D01*
X240376466Y-66368443D01*
X240206627Y-66419963D01*
X240140443Y-66426481D01*
X240074260Y-66433000D01*
X239985740Y-66433000D01*
X239919557Y-66426481D01*
X239853373Y-66419963D01*
X239683534Y-66368443D01*
X239527009Y-66284778D01*
X239491271Y-66255448D01*
X239389814Y-66172186D01*
X239306552Y-66070729D01*
X239277222Y-66034991D01*
X239193557Y-65878466D01*
X239142037Y-65708627D01*
X239124641Y-65532000D01*
X239142037Y-65355373D01*
X239193557Y-65185534D01*
X239277222Y-65029009D01*
X239306552Y-64993271D01*
X239389814Y-64891814D01*
X239491271Y-64808552D01*
X239527009Y-64779222D01*
X239683534Y-64695557D01*
X239853373Y-64644037D01*
X239919557Y-64637519D01*
X239985740Y-64631000D01*
X240074260Y-64631000D01*
X240140443Y-64637519D01*
X240140443Y-64637519D01*
G37*
G36*
X243471000Y-66433000D02*
G01*
X241669000Y-66433000D01*
X241669000Y-64631000D01*
X243471000Y-64631000D01*
X243471000Y-66433000D01*
X243471000Y-66433000D01*
G37*
G36*
X263160985Y-58237860D02*
G01*
X263273748Y-58260290D01*
X263405741Y-58314963D01*
X263592408Y-58392283D01*
X263879196Y-58583909D01*
X264123091Y-58827804D01*
X264314717Y-59114592D01*
X264346060Y-59190261D01*
X264433566Y-59401519D01*
X264446710Y-59433253D01*
X264514000Y-59771540D01*
X264514000Y-60116460D01*
X264498928Y-60192229D01*
X264446710Y-60454748D01*
X264392037Y-60586741D01*
X264314717Y-60773408D01*
X264123091Y-61060196D01*
X263879196Y-61304091D01*
X263592408Y-61495717D01*
X263405741Y-61573037D01*
X263273748Y-61627710D01*
X263160985Y-61650140D01*
X262935460Y-61695000D01*
X262590540Y-61695000D01*
X262365015Y-61650140D01*
X262252252Y-61627710D01*
X262120259Y-61573037D01*
X261933592Y-61495717D01*
X261646804Y-61304091D01*
X261402909Y-61060196D01*
X261211283Y-60773408D01*
X261133963Y-60586741D01*
X261079290Y-60454748D01*
X261027072Y-60192229D01*
X261012000Y-60116460D01*
X261012000Y-59771540D01*
X261079290Y-59433253D01*
X261092435Y-59401519D01*
X261179940Y-59190261D01*
X261211283Y-59114592D01*
X261402909Y-58827804D01*
X261646804Y-58583909D01*
X261933592Y-58392283D01*
X262120259Y-58314963D01*
X262252252Y-58260290D01*
X262365015Y-58237860D01*
X262590540Y-58193000D01*
X262935460Y-58193000D01*
X263160985Y-58237860D01*
X263160985Y-58237860D01*
G37*
G36*
X220508213Y-59960249D02*
G01*
X220602652Y-59988897D01*
X220689687Y-60035418D01*
X220765975Y-60098025D01*
X220828582Y-60174313D01*
X220875103Y-60261348D01*
X220903751Y-60355787D01*
X220913424Y-60454000D01*
X220903751Y-60552213D01*
X220875103Y-60646652D01*
X220828582Y-60733687D01*
X220765975Y-60809975D01*
X220689687Y-60872582D01*
X220602652Y-60919103D01*
X220508213Y-60947751D01*
X220434612Y-60955000D01*
X219585388Y-60955000D01*
X219511787Y-60947751D01*
X219417348Y-60919103D01*
X219330313Y-60872582D01*
X219254025Y-60809975D01*
X219191418Y-60733687D01*
X219144897Y-60646652D01*
X219116249Y-60552213D01*
X219106576Y-60454000D01*
X219116249Y-60355787D01*
X219144897Y-60261348D01*
X219191418Y-60174313D01*
X219254025Y-60098025D01*
X219330313Y-60035418D01*
X219417348Y-59988897D01*
X219511787Y-59960249D01*
X219585388Y-59953000D01*
X220434612Y-59953000D01*
X220508213Y-59960249D01*
X220508213Y-59960249D01*
G37*
G36*
X224828213Y-59960249D02*
G01*
X224922652Y-59988897D01*
X225009687Y-60035418D01*
X225085975Y-60098025D01*
X225148582Y-60174313D01*
X225195103Y-60261348D01*
X225223751Y-60355787D01*
X225233424Y-60454000D01*
X225223751Y-60552213D01*
X225195103Y-60646652D01*
X225148582Y-60733687D01*
X225085975Y-60809975D01*
X225009687Y-60872582D01*
X224922652Y-60919103D01*
X224828213Y-60947751D01*
X224754612Y-60955000D01*
X223605388Y-60955000D01*
X223531787Y-60947751D01*
X223437348Y-60919103D01*
X223350313Y-60872582D01*
X223274025Y-60809975D01*
X223211418Y-60733687D01*
X223164897Y-60646652D01*
X223136249Y-60552213D01*
X223126576Y-60454000D01*
X223136249Y-60355787D01*
X223164897Y-60261348D01*
X223211418Y-60174313D01*
X223274025Y-60098025D01*
X223350313Y-60035418D01*
X223437348Y-59988897D01*
X223531787Y-59960249D01*
X223605388Y-59953000D01*
X224754612Y-59953000D01*
X224828213Y-59960249D01*
X224828213Y-59960249D01*
G37*
G36*
X267456228Y-59125703D02*
G01*
X267611100Y-59189853D01*
X267750481Y-59282985D01*
X267869015Y-59401519D01*
X267962147Y-59540900D01*
X268026297Y-59695772D01*
X268059000Y-59860184D01*
X268059000Y-60027816D01*
X268026297Y-60192228D01*
X267962147Y-60347100D01*
X267869015Y-60486481D01*
X267750481Y-60605015D01*
X267611100Y-60698147D01*
X267456228Y-60762297D01*
X267291816Y-60795000D01*
X267124184Y-60795000D01*
X266959772Y-60762297D01*
X266804900Y-60698147D01*
X266665519Y-60605015D01*
X266546985Y-60486481D01*
X266453853Y-60347100D01*
X266389703Y-60192228D01*
X266357000Y-60027816D01*
X266357000Y-59860184D01*
X266389703Y-59695772D01*
X266453853Y-59540900D01*
X266546985Y-59401519D01*
X266665519Y-59282985D01*
X266804900Y-59189853D01*
X266959772Y-59125703D01*
X267124184Y-59093000D01*
X267291816Y-59093000D01*
X267456228Y-59125703D01*
X267456228Y-59125703D01*
G37*
G36*
X223802383Y-58686489D02*
G01*
X223802386Y-58686490D01*
X223802385Y-58686490D01*
X223866258Y-58712946D01*
X223923748Y-58751360D01*
X223972640Y-58800252D01*
X224011054Y-58857742D01*
X224032624Y-58909818D01*
X224037511Y-58921617D01*
X224051000Y-58989430D01*
X224051000Y-59058570D01*
X224037511Y-59126383D01*
X224037510Y-59126385D01*
X224011054Y-59190258D01*
X223972640Y-59247748D01*
X223923748Y-59296640D01*
X223866258Y-59335054D01*
X223814182Y-59356624D01*
X223802383Y-59361511D01*
X223734570Y-59375000D01*
X223665430Y-59375000D01*
X223597617Y-59361511D01*
X223585818Y-59356624D01*
X223533742Y-59335054D01*
X223476252Y-59296640D01*
X223427360Y-59247748D01*
X223388946Y-59190258D01*
X223362490Y-59126385D01*
X223362489Y-59126383D01*
X223349000Y-59058570D01*
X223349000Y-58989430D01*
X223362489Y-58921617D01*
X223367376Y-58909818D01*
X223388946Y-58857742D01*
X223427360Y-58800252D01*
X223476252Y-58751360D01*
X223533742Y-58712946D01*
X223597615Y-58686490D01*
X223597614Y-58686490D01*
X223597617Y-58686489D01*
X223665430Y-58673000D01*
X223734570Y-58673000D01*
X223802383Y-58686489D01*
X223802383Y-58686489D01*
G37*
G36*
X259240831Y-54661841D02*
G01*
X259385826Y-54690682D01*
X259498974Y-54737550D01*
X259658989Y-54803830D01*
X259658990Y-54803831D01*
X259904832Y-54968097D01*
X260113903Y-55177168D01*
X260113904Y-55177170D01*
X260278170Y-55423011D01*
X260391318Y-55696175D01*
X260449000Y-55986163D01*
X260449000Y-56281837D01*
X260391318Y-56571825D01*
X260278170Y-56844989D01*
X260227925Y-56920186D01*
X260113903Y-57090832D01*
X259904832Y-57299903D01*
X259781076Y-57382594D01*
X259658989Y-57464170D01*
X259498974Y-57530450D01*
X259385826Y-57577318D01*
X259240831Y-57606159D01*
X259095837Y-57635000D01*
X258800163Y-57635000D01*
X258655169Y-57606159D01*
X258510174Y-57577318D01*
X258397026Y-57530450D01*
X258237011Y-57464170D01*
X258114924Y-57382594D01*
X257991168Y-57299903D01*
X257782097Y-57090832D01*
X257668075Y-56920186D01*
X257617830Y-56844989D01*
X257504682Y-56571825D01*
X257447000Y-56281837D01*
X257447000Y-55986163D01*
X257504682Y-55696175D01*
X257617830Y-55423011D01*
X257782096Y-55177170D01*
X257782097Y-55177168D01*
X257991168Y-54968097D01*
X258237010Y-54803831D01*
X258237011Y-54803830D01*
X258397026Y-54737550D01*
X258510174Y-54690682D01*
X258655169Y-54661841D01*
X258800163Y-54633000D01*
X259095837Y-54633000D01*
X259240831Y-54661841D01*
X259240831Y-54661841D01*
G37*
G36*
X268310443Y-55385519D02*
G01*
X268376627Y-55392037D01*
X268546466Y-55443557D01*
X268702991Y-55527222D01*
X268738729Y-55556552D01*
X268840186Y-55639814D01*
X268923448Y-55741271D01*
X268952778Y-55777009D01*
X269036443Y-55933534D01*
X269087963Y-56103373D01*
X269105359Y-56280000D01*
X269087963Y-56456627D01*
X269036443Y-56626466D01*
X268952778Y-56782991D01*
X268923448Y-56818729D01*
X268840186Y-56920186D01*
X268738729Y-57003448D01*
X268702991Y-57032778D01*
X268546466Y-57116443D01*
X268376627Y-57167963D01*
X268310443Y-57174481D01*
X268244260Y-57181000D01*
X268155740Y-57181000D01*
X268089557Y-57174481D01*
X268023373Y-57167963D01*
X267853534Y-57116443D01*
X267697009Y-57032778D01*
X267661271Y-57003448D01*
X267559814Y-56920186D01*
X267476552Y-56818729D01*
X267447222Y-56782991D01*
X267363557Y-56626466D01*
X267312037Y-56456627D01*
X267294641Y-56280000D01*
X267312037Y-56103373D01*
X267363557Y-55933534D01*
X267447222Y-55777009D01*
X267476552Y-55741271D01*
X267559814Y-55639814D01*
X267661271Y-55556552D01*
X267697009Y-55527222D01*
X267853534Y-55443557D01*
X268023373Y-55392037D01*
X268089557Y-55385519D01*
X268155740Y-55379000D01*
X268244260Y-55379000D01*
X268310443Y-55385519D01*
X268310443Y-55385519D01*
G37*
G36*
X268310442Y-52845518D02*
G01*
X268376627Y-52852037D01*
X268546466Y-52903557D01*
X268702991Y-52987222D01*
X268738729Y-53016552D01*
X268840186Y-53099814D01*
X268923448Y-53201271D01*
X268952778Y-53237009D01*
X269036443Y-53393534D01*
X269087963Y-53563373D01*
X269105359Y-53740000D01*
X269087963Y-53916627D01*
X269036443Y-54086466D01*
X268952778Y-54242991D01*
X268923448Y-54278729D01*
X268840186Y-54380186D01*
X268738729Y-54463448D01*
X268702991Y-54492778D01*
X268546466Y-54576443D01*
X268376627Y-54627963D01*
X268310442Y-54634482D01*
X268244260Y-54641000D01*
X268155740Y-54641000D01*
X268089558Y-54634482D01*
X268023373Y-54627963D01*
X267853534Y-54576443D01*
X267697009Y-54492778D01*
X267661271Y-54463448D01*
X267559814Y-54380186D01*
X267476552Y-54278729D01*
X267447222Y-54242991D01*
X267363557Y-54086466D01*
X267312037Y-53916627D01*
X267294641Y-53740000D01*
X267312037Y-53563373D01*
X267363557Y-53393534D01*
X267447222Y-53237009D01*
X267476552Y-53201271D01*
X267559814Y-53099814D01*
X267661271Y-53016552D01*
X267697009Y-52987222D01*
X267853534Y-52903557D01*
X268023373Y-52852037D01*
X268089558Y-52845518D01*
X268155740Y-52839000D01*
X268244260Y-52839000D01*
X268310442Y-52845518D01*
X268310442Y-52845518D01*
G37*
G36*
X263795985Y-50617860D02*
G01*
X263908748Y-50640290D01*
X264040741Y-50694963D01*
X264227408Y-50772283D01*
X264514196Y-50963909D01*
X264758091Y-51207804D01*
X264949717Y-51494592D01*
X265019467Y-51662985D01*
X265068566Y-51781519D01*
X265081710Y-51813253D01*
X265149000Y-52151540D01*
X265149000Y-52496460D01*
X265133928Y-52572229D01*
X265081710Y-52834748D01*
X265057581Y-52893000D01*
X264949717Y-53153408D01*
X264758091Y-53440196D01*
X264514196Y-53684091D01*
X264227408Y-53875717D01*
X264040741Y-53953037D01*
X263908748Y-54007710D01*
X263795985Y-54030140D01*
X263570460Y-54075000D01*
X263225540Y-54075000D01*
X263000015Y-54030140D01*
X262887252Y-54007710D01*
X262755259Y-53953037D01*
X262568592Y-53875717D01*
X262281804Y-53684091D01*
X262037909Y-53440196D01*
X261846283Y-53153408D01*
X261738419Y-52893000D01*
X261714290Y-52834748D01*
X261662072Y-52572229D01*
X261647000Y-52496460D01*
X261647000Y-52151540D01*
X261714290Y-51813253D01*
X261727435Y-51781519D01*
X261776533Y-51662985D01*
X261846283Y-51494592D01*
X262037909Y-51207804D01*
X262281804Y-50963909D01*
X262568592Y-50772283D01*
X262755259Y-50694963D01*
X262887252Y-50640290D01*
X263000015Y-50617860D01*
X263225540Y-50573000D01*
X263570460Y-50573000D01*
X263795985Y-50617860D01*
X263795985Y-50617860D01*
G37*
G36*
X223802383Y-52906489D02*
G01*
X223802386Y-52906490D01*
X223802385Y-52906490D01*
X223866258Y-52932946D01*
X223923748Y-52971360D01*
X223972640Y-53020252D01*
X224011054Y-53077742D01*
X224032624Y-53129818D01*
X224037511Y-53141617D01*
X224051000Y-53209430D01*
X224051000Y-53278570D01*
X224037511Y-53346383D01*
X224037510Y-53346385D01*
X224011054Y-53410258D01*
X223972640Y-53467748D01*
X223923748Y-53516640D01*
X223866258Y-53555054D01*
X223814182Y-53576624D01*
X223802383Y-53581511D01*
X223734570Y-53595000D01*
X223665430Y-53595000D01*
X223597617Y-53581511D01*
X223585818Y-53576624D01*
X223533742Y-53555054D01*
X223476252Y-53516640D01*
X223427360Y-53467748D01*
X223388946Y-53410258D01*
X223362490Y-53346385D01*
X223362489Y-53346383D01*
X223349000Y-53278570D01*
X223349000Y-53209430D01*
X223362489Y-53141617D01*
X223367376Y-53129818D01*
X223388946Y-53077742D01*
X223427360Y-53020252D01*
X223476252Y-52971360D01*
X223533742Y-52932946D01*
X223597615Y-52906490D01*
X223597614Y-52906490D01*
X223597617Y-52906489D01*
X223665430Y-52893000D01*
X223734570Y-52893000D01*
X223802383Y-52906489D01*
X223802383Y-52906489D01*
G37*
G36*
X272536228Y-51505703D02*
G01*
X272691100Y-51569853D01*
X272830481Y-51662985D01*
X272949015Y-51781519D01*
X273042147Y-51920900D01*
X273106297Y-52075772D01*
X273139000Y-52240184D01*
X273139000Y-52407816D01*
X273106297Y-52572228D01*
X273042147Y-52727100D01*
X272949015Y-52866481D01*
X272830481Y-52985015D01*
X272691100Y-53078147D01*
X272536228Y-53142297D01*
X272371816Y-53175000D01*
X272204184Y-53175000D01*
X272039772Y-53142297D01*
X271884900Y-53078147D01*
X271745519Y-52985015D01*
X271626985Y-52866481D01*
X271533853Y-52727100D01*
X271469703Y-52572228D01*
X271437000Y-52407816D01*
X271437000Y-52240184D01*
X271469703Y-52075772D01*
X271533853Y-51920900D01*
X271626985Y-51781519D01*
X271745519Y-51662985D01*
X271884900Y-51569853D01*
X272039772Y-51505703D01*
X272204184Y-51473000D01*
X272371816Y-51473000D01*
X272536228Y-51505703D01*
X272536228Y-51505703D01*
G37*
G36*
X224828213Y-51320249D02*
G01*
X224922652Y-51348897D01*
X225009687Y-51395418D01*
X225085975Y-51458025D01*
X225148582Y-51534313D01*
X225195103Y-51621348D01*
X225223751Y-51715787D01*
X225233424Y-51814000D01*
X225223751Y-51912213D01*
X225195103Y-52006652D01*
X225148582Y-52093687D01*
X225085975Y-52169975D01*
X225009687Y-52232582D01*
X224922652Y-52279103D01*
X224828213Y-52307751D01*
X224754612Y-52315000D01*
X223605388Y-52315000D01*
X223531787Y-52307751D01*
X223437348Y-52279103D01*
X223350313Y-52232582D01*
X223274025Y-52169975D01*
X223211418Y-52093687D01*
X223164897Y-52006652D01*
X223136249Y-51912213D01*
X223126576Y-51814000D01*
X223136249Y-51715787D01*
X223164897Y-51621348D01*
X223211418Y-51534313D01*
X223274025Y-51458025D01*
X223350313Y-51395418D01*
X223437348Y-51348897D01*
X223531787Y-51320249D01*
X223605388Y-51313000D01*
X224754612Y-51313000D01*
X224828213Y-51320249D01*
X224828213Y-51320249D01*
G37*
G36*
X220508213Y-51320249D02*
G01*
X220602652Y-51348897D01*
X220689687Y-51395418D01*
X220765975Y-51458025D01*
X220828582Y-51534313D01*
X220875103Y-51621348D01*
X220903751Y-51715787D01*
X220913424Y-51814000D01*
X220903751Y-51912213D01*
X220875103Y-52006652D01*
X220828582Y-52093687D01*
X220765975Y-52169975D01*
X220689687Y-52232582D01*
X220602652Y-52279103D01*
X220508213Y-52307751D01*
X220434612Y-52315000D01*
X219585388Y-52315000D01*
X219511787Y-52307751D01*
X219417348Y-52279103D01*
X219330313Y-52232582D01*
X219254025Y-52169975D01*
X219191418Y-52093687D01*
X219144897Y-52006652D01*
X219116249Y-51912213D01*
X219106576Y-51814000D01*
X219116249Y-51715787D01*
X219144897Y-51621348D01*
X219191418Y-51534313D01*
X219254025Y-51458025D01*
X219330313Y-51395418D01*
X219417348Y-51348897D01*
X219511787Y-51320249D01*
X219585388Y-51313000D01*
X220434612Y-51313000D01*
X220508213Y-51320249D01*
X220508213Y-51320249D01*
G37*
G36*
X269101000Y-52101000D02*
G01*
X267299000Y-52101000D01*
X267299000Y-50299000D01*
X269101000Y-50299000D01*
X269101000Y-52101000D01*
X269101000Y-52101000D01*
G37*
M02*
