M48
; DRILL file {KiCad (5.1.5)-3} date 07/04/20 05:18:39
; FORMAT={-:-/ absolute / inch / decimal}
; #@! TF.CreationDate,2020-07-04T05:18:39+02:00
; #@! TF.GenerationSoftware,Kicad,Pcbnew,(5.1.5)-3
; #@! TF.FileFunction,Plated,1,2,PTH
FMAT,2
INCH
T1C0.0157
T2C0.0236
T3C0.0394
T4C0.0472
T5C0.0630
%
G90
G05
T1
X8.91Y-2.36
X8.9184Y-2.193
X8.92Y-4.1693
X8.92Y-4.2107
X8.9254Y-5.1593
X8.9254Y-5.2007
X8.93Y-3.1793
X8.93Y-3.2207
X8.9455Y-2.2912
X8.9475Y-2.22
X8.95Y-4.38
X8.97Y-3.41
X8.98Y-2.36
X8.9908Y-2.2357
X9.05Y-4.37
X9.08Y-2.0396
X9.08Y-3.4
X9.1254Y-2.7954
X9.127Y-4.7546
X9.13Y-4.7959
X9.1546Y-2.8246
X9.16Y-3.7993
X9.16Y-3.8407
X9.2068Y-2.2248
X9.21Y-2.15
X9.2449Y-2.2357
X9.3294Y-2.0974
X9.3515Y-2.13
X9.36Y-1.96
X9.36Y-2.28
X9.38Y-2.09
X9.39Y-2.19
X9.39Y-2.19
X9.49Y-2.24
X9.54Y-2.24
X9.54Y-4.29
X9.55Y-3.3074
X9.56Y-4.4
X9.5602Y-2.3398
X9.5677Y-5.2798
X9.5802Y-5.3698
X9.5977Y-2.3523
X9.62Y-1.95
X9.62Y-4.02
X9.62Y-5.0
X9.63Y-3.03
X9.65Y-3.34
X9.66Y-3.46
X9.66Y-4.35
X9.66Y-5.36
X9.7Y-5.28
X9.71Y-2.24
X9.71Y-3.04
X9.7198Y-1.95
X9.7198Y-4.02
X9.7198Y-5.0
X9.72Y-3.32
X9.73Y-4.31
X9.7452Y-2.0252
X9.76Y-2.38
X9.77Y-1.99
X9.78Y-3.04
X9.79Y-2.26
X9.7965Y-1.9465
X9.8Y-4.02
X9.8Y-5.0
X9.8023Y-3.45
X9.81Y-4.44
X9.81Y-5.43
X9.82Y-4.32
X9.84Y-5.31
X9.8437Y-3.3159
X9.95Y-2.49
X9.95Y-4.93
X9.96Y-2.98
X9.96Y-3.57
X9.97Y-3.66
X9.97Y-3.74
X9.98Y-2.67
X9.98Y-2.75
X9.98Y-4.55
X9.98Y-4.65
X9.98Y-4.73
X9.98Y-5.53
X10.0Y-3.66
X10.0Y-3.74
X10.01Y-2.67
X10.01Y-2.75
X10.01Y-4.65
X10.01Y-4.73
X10.03Y-3.66
X10.03Y-3.74
X10.04Y-2.67
X10.04Y-2.75
X10.04Y-4.65
X10.04Y-4.73
X10.06Y-1.96
X10.06Y-3.66
X10.06Y-3.74
X10.07Y-2.67
X10.07Y-2.75
X10.07Y-4.65
X10.07Y-4.73
T3
X8.68Y-2.82
X8.68Y-2.92
X8.85Y-1.83
X8.85Y-1.93
X8.68Y-4.8
X8.68Y-4.9
X8.68Y-1.83
X8.68Y-1.93
X8.68Y-3.81
X8.68Y-3.91
T4
X10.1948Y-5.18
X10.1948Y-3.2
X10.1948Y-4.19
X10.1948Y-2.21
T5
X10.345Y-5.33
X10.37Y-5.03
X10.345Y-3.35
X10.37Y-3.05
X10.345Y-4.34
X10.37Y-4.04
X10.345Y-2.36
X10.37Y-2.06
T2
G00X8.6461Y-2.0399
M15
G01X8.6776Y-2.0399
M16
G05
G00X8.6461Y-2.3801
M15
G01X8.6776Y-2.3801
M16
G05
G00X8.8043Y-2.0399
M15
G01X8.8476Y-2.0399
M16
G05
G00X8.8043Y-2.3801
M15
G01X8.8476Y-2.3801
M16
G05
G00X8.6461Y-4.0199
M15
G01X8.6776Y-4.0199
M16
G05
G00X8.6461Y-4.3601
M15
G01X8.6776Y-4.3601
M16
G05
G00X8.8043Y-4.0199
M15
G01X8.8476Y-4.0199
M16
G05
G00X8.8043Y-4.3601
M15
G01X8.8476Y-4.3601
M16
G05
G00X8.6461Y-5.0099
M15
G01X8.6776Y-5.0099
M16
G05
G00X8.6461Y-5.3501
M15
G01X8.6776Y-5.3501
M16
G05
G00X8.8043Y-5.0099
M15
G01X8.8476Y-5.0099
M16
G05
G00X8.8043Y-5.3501
M15
G01X8.8476Y-5.3501
M16
G05
G00X8.6461Y-3.0299
M15
G01X8.6776Y-3.0299
M16
G05
G00X8.6461Y-3.3701
M15
G01X8.6776Y-3.3701
M16
G05
G00X8.8043Y-3.0299
M15
G01X8.8476Y-3.0299
M16
G05
G00X8.8043Y-3.3701
M15
G01X8.8476Y-3.3701
M16
G05
T0
M30
