G04 #@! TF.GenerationSoftware,KiCad,Pcbnew,(5.1.5)-3*
G04 #@! TF.CreationDate,2020-07-04T05:18:36+02:00*
G04 #@! TF.ProjectId,DMX_usb,444d585f-7573-4622-9e6b-696361645f70,rev?*
G04 #@! TF.SameCoordinates,Original*
G04 #@! TF.FileFunction,Soldermask,Top*
G04 #@! TF.FilePolarity,Negative*
%FSLAX46Y46*%
G04 Gerber Fmt 4.6, Leading zero omitted, Abs format (unit mm)*
G04 Created by KiCad (PCBNEW (5.1.5)-3) date 2020-07-04 05:18:36*
%MOMM*%
%LPD*%
G04 APERTURE LIST*
%ADD10C,0.100000*%
G04 APERTURE END LIST*
D10*
G36*
X255096674Y-140856465D02*
G01*
X255134367Y-140867899D01*
X255169103Y-140886466D01*
X255199548Y-140911452D01*
X255224534Y-140941897D01*
X255243101Y-140976633D01*
X255254535Y-141014326D01*
X255259000Y-141059661D01*
X255259000Y-141896339D01*
X255254535Y-141941674D01*
X255243101Y-141979367D01*
X255224534Y-142014103D01*
X255199548Y-142044548D01*
X255169103Y-142069534D01*
X255134367Y-142088101D01*
X255096674Y-142099535D01*
X255051339Y-142104000D01*
X253964661Y-142104000D01*
X253919326Y-142099535D01*
X253881633Y-142088101D01*
X253846897Y-142069534D01*
X253816452Y-142044548D01*
X253791466Y-142014103D01*
X253772899Y-141979367D01*
X253761465Y-141941674D01*
X253757000Y-141896339D01*
X253757000Y-141059661D01*
X253761465Y-141014326D01*
X253772899Y-140976633D01*
X253791466Y-140941897D01*
X253816452Y-140911452D01*
X253846897Y-140886466D01*
X253881633Y-140867899D01*
X253919326Y-140856465D01*
X253964661Y-140852000D01*
X255051339Y-140852000D01*
X255096674Y-140856465D01*
G37*
G36*
X244174674Y-140103465D02*
G01*
X244212367Y-140114899D01*
X244247103Y-140133466D01*
X244277548Y-140158452D01*
X244302534Y-140188897D01*
X244321101Y-140223633D01*
X244332535Y-140261326D01*
X244337000Y-140306661D01*
X244337000Y-141143339D01*
X244332535Y-141188674D01*
X244321101Y-141226367D01*
X244302534Y-141261103D01*
X244277548Y-141291548D01*
X244247103Y-141316534D01*
X244212367Y-141335101D01*
X244174674Y-141346535D01*
X244129339Y-141351000D01*
X243042661Y-141351000D01*
X242997326Y-141346535D01*
X242959633Y-141335101D01*
X242924897Y-141316534D01*
X242894452Y-141291548D01*
X242869466Y-141261103D01*
X242850899Y-141226367D01*
X242839465Y-141188674D01*
X242835000Y-141143339D01*
X242835000Y-140306661D01*
X242839465Y-140261326D01*
X242850899Y-140223633D01*
X242869466Y-140188897D01*
X242894452Y-140158452D01*
X242924897Y-140133466D01*
X242959633Y-140114899D01*
X242997326Y-140103465D01*
X243042661Y-140099000D01*
X244129339Y-140099000D01*
X244174674Y-140103465D01*
G37*
G36*
X221909997Y-138599051D02*
G01*
X221943652Y-138609261D01*
X221974665Y-138625838D01*
X222001851Y-138648149D01*
X222024162Y-138675335D01*
X222040739Y-138706348D01*
X222050949Y-138740003D01*
X222055000Y-138781138D01*
X222055000Y-140110862D01*
X222050949Y-140151997D01*
X222040739Y-140185652D01*
X222024162Y-140216665D01*
X222001851Y-140243851D01*
X221974665Y-140266162D01*
X221943652Y-140282739D01*
X221909997Y-140292949D01*
X221868862Y-140297000D01*
X219539138Y-140297000D01*
X219498003Y-140292949D01*
X219464348Y-140282739D01*
X219433335Y-140266162D01*
X219406149Y-140243851D01*
X219383838Y-140216665D01*
X219367261Y-140185652D01*
X219357051Y-140151997D01*
X219353000Y-140110862D01*
X219353000Y-138781138D01*
X219357051Y-138740003D01*
X219367261Y-138706348D01*
X219383838Y-138675335D01*
X219406149Y-138648149D01*
X219433335Y-138625838D01*
X219464348Y-138609261D01*
X219498003Y-138599051D01*
X219539138Y-138595000D01*
X221868862Y-138595000D01*
X221909997Y-138599051D01*
G37*
G36*
X225509997Y-138599051D02*
G01*
X225543652Y-138609261D01*
X225574665Y-138625838D01*
X225601851Y-138648149D01*
X225624162Y-138675335D01*
X225640739Y-138706348D01*
X225650949Y-138740003D01*
X225655000Y-138781138D01*
X225655000Y-140110862D01*
X225650949Y-140151997D01*
X225640739Y-140185652D01*
X225624162Y-140216665D01*
X225601851Y-140243851D01*
X225574665Y-140266162D01*
X225543652Y-140282739D01*
X225509997Y-140292949D01*
X225468862Y-140297000D01*
X223139138Y-140297000D01*
X223098003Y-140292949D01*
X223064348Y-140282739D01*
X223033335Y-140266162D01*
X223006149Y-140243851D01*
X222983838Y-140216665D01*
X222967261Y-140185652D01*
X222957051Y-140151997D01*
X222953000Y-140110862D01*
X222953000Y-138781138D01*
X222957051Y-138740003D01*
X222967261Y-138706348D01*
X222983838Y-138675335D01*
X223006149Y-138648149D01*
X223033335Y-138625838D01*
X223064348Y-138609261D01*
X223098003Y-138599051D01*
X223139138Y-138595000D01*
X225468862Y-138595000D01*
X225509997Y-138599051D01*
G37*
G36*
X255096674Y-138806465D02*
G01*
X255134367Y-138817899D01*
X255169103Y-138836466D01*
X255199548Y-138861452D01*
X255224534Y-138891897D01*
X255243101Y-138926633D01*
X255254535Y-138964326D01*
X255259000Y-139009661D01*
X255259000Y-139846339D01*
X255254535Y-139891674D01*
X255243101Y-139929367D01*
X255224534Y-139964103D01*
X255199548Y-139994548D01*
X255169103Y-140019534D01*
X255134367Y-140038101D01*
X255096674Y-140049535D01*
X255051339Y-140054000D01*
X253964661Y-140054000D01*
X253919326Y-140049535D01*
X253881633Y-140038101D01*
X253846897Y-140019534D01*
X253816452Y-139994548D01*
X253791466Y-139964103D01*
X253772899Y-139929367D01*
X253761465Y-139891674D01*
X253757000Y-139846339D01*
X253757000Y-139009661D01*
X253761465Y-138964326D01*
X253772899Y-138926633D01*
X253791466Y-138891897D01*
X253816452Y-138861452D01*
X253846897Y-138836466D01*
X253881633Y-138817899D01*
X253919326Y-138806465D01*
X253964661Y-138802000D01*
X255051339Y-138802000D01*
X255096674Y-138806465D01*
G37*
G36*
X253091928Y-138970764D02*
G01*
X253113009Y-138977160D01*
X253132445Y-138987548D01*
X253149476Y-139001524D01*
X253163452Y-139018555D01*
X253173840Y-139037991D01*
X253180236Y-139059072D01*
X253183000Y-139087140D01*
X253183000Y-139550860D01*
X253180236Y-139578928D01*
X253173840Y-139600009D01*
X253163452Y-139619445D01*
X253149476Y-139636476D01*
X253132445Y-139650452D01*
X253113009Y-139660840D01*
X253091928Y-139667236D01*
X253063860Y-139670000D01*
X251250140Y-139670000D01*
X251222072Y-139667236D01*
X251200991Y-139660840D01*
X251181555Y-139650452D01*
X251164524Y-139636476D01*
X251150548Y-139619445D01*
X251140160Y-139600009D01*
X251133764Y-139578928D01*
X251131000Y-139550860D01*
X251131000Y-139087140D01*
X251133764Y-139059072D01*
X251140160Y-139037991D01*
X251150548Y-139018555D01*
X251164524Y-139001524D01*
X251181555Y-138987548D01*
X251200991Y-138977160D01*
X251222072Y-138970764D01*
X251250140Y-138968000D01*
X253063860Y-138968000D01*
X253091928Y-138970764D01*
G37*
G36*
X248141928Y-138970764D02*
G01*
X248163009Y-138977160D01*
X248182445Y-138987548D01*
X248199476Y-139001524D01*
X248213452Y-139018555D01*
X248223840Y-139037991D01*
X248230236Y-139059072D01*
X248233000Y-139087140D01*
X248233000Y-139550860D01*
X248230236Y-139578928D01*
X248223840Y-139600009D01*
X248213452Y-139619445D01*
X248199476Y-139636476D01*
X248182445Y-139650452D01*
X248163009Y-139660840D01*
X248141928Y-139667236D01*
X248113860Y-139670000D01*
X246300140Y-139670000D01*
X246272072Y-139667236D01*
X246250991Y-139660840D01*
X246231555Y-139650452D01*
X246214524Y-139636476D01*
X246200548Y-139619445D01*
X246190160Y-139600009D01*
X246183764Y-139578928D01*
X246181000Y-139550860D01*
X246181000Y-139087140D01*
X246183764Y-139059072D01*
X246190160Y-139037991D01*
X246200548Y-139018555D01*
X246214524Y-139001524D01*
X246231555Y-138987548D01*
X246250991Y-138977160D01*
X246272072Y-138970764D01*
X246300140Y-138968000D01*
X248113860Y-138968000D01*
X248141928Y-138970764D01*
G37*
G36*
X244174674Y-138053465D02*
G01*
X244212367Y-138064899D01*
X244247103Y-138083466D01*
X244277548Y-138108452D01*
X244302534Y-138138897D01*
X244321101Y-138173633D01*
X244332535Y-138211326D01*
X244337000Y-138256661D01*
X244337000Y-139093339D01*
X244332535Y-139138674D01*
X244321101Y-139176367D01*
X244302534Y-139211103D01*
X244277548Y-139241548D01*
X244247103Y-139266534D01*
X244212367Y-139285101D01*
X244174674Y-139296535D01*
X244129339Y-139301000D01*
X243042661Y-139301000D01*
X242997326Y-139296535D01*
X242959633Y-139285101D01*
X242924897Y-139266534D01*
X242894452Y-139241548D01*
X242869466Y-139211103D01*
X242850899Y-139176367D01*
X242839465Y-139138674D01*
X242835000Y-139093339D01*
X242835000Y-138256661D01*
X242839465Y-138211326D01*
X242850899Y-138173633D01*
X242869466Y-138138897D01*
X242894452Y-138108452D01*
X242924897Y-138083466D01*
X242959633Y-138064899D01*
X242997326Y-138053465D01*
X243042661Y-138049000D01*
X244129339Y-138049000D01*
X244174674Y-138053465D01*
G37*
G36*
X253091928Y-137700764D02*
G01*
X253113009Y-137707160D01*
X253132445Y-137717548D01*
X253149476Y-137731524D01*
X253163452Y-137748555D01*
X253173840Y-137767991D01*
X253180236Y-137789072D01*
X253183000Y-137817140D01*
X253183000Y-138280860D01*
X253180236Y-138308928D01*
X253173840Y-138330009D01*
X253163452Y-138349445D01*
X253149476Y-138366476D01*
X253132445Y-138380452D01*
X253113009Y-138390840D01*
X253091928Y-138397236D01*
X253063860Y-138400000D01*
X251250140Y-138400000D01*
X251222072Y-138397236D01*
X251200991Y-138390840D01*
X251181555Y-138380452D01*
X251164524Y-138366476D01*
X251150548Y-138349445D01*
X251140160Y-138330009D01*
X251133764Y-138308928D01*
X251131000Y-138280860D01*
X251131000Y-137817140D01*
X251133764Y-137789072D01*
X251140160Y-137767991D01*
X251150548Y-137748555D01*
X251164524Y-137731524D01*
X251181555Y-137717548D01*
X251200991Y-137707160D01*
X251222072Y-137700764D01*
X251250140Y-137698000D01*
X253063860Y-137698000D01*
X253091928Y-137700764D01*
G37*
G36*
X248141928Y-137700764D02*
G01*
X248163009Y-137707160D01*
X248182445Y-137717548D01*
X248199476Y-137731524D01*
X248213452Y-137748555D01*
X248223840Y-137767991D01*
X248230236Y-137789072D01*
X248233000Y-137817140D01*
X248233000Y-138280860D01*
X248230236Y-138308928D01*
X248223840Y-138330009D01*
X248213452Y-138349445D01*
X248199476Y-138366476D01*
X248182445Y-138380452D01*
X248163009Y-138390840D01*
X248141928Y-138397236D01*
X248113860Y-138400000D01*
X246300140Y-138400000D01*
X246272072Y-138397236D01*
X246250991Y-138390840D01*
X246231555Y-138380452D01*
X246214524Y-138366476D01*
X246200548Y-138349445D01*
X246190160Y-138330009D01*
X246183764Y-138308928D01*
X246181000Y-138280860D01*
X246181000Y-137817140D01*
X246183764Y-137789072D01*
X246190160Y-137767991D01*
X246200548Y-137748555D01*
X246214524Y-137731524D01*
X246231555Y-137717548D01*
X246250991Y-137707160D01*
X246272072Y-137700764D01*
X246300140Y-137698000D01*
X248113860Y-137698000D01*
X248141928Y-137700764D01*
G37*
G36*
X255096674Y-137046465D02*
G01*
X255134367Y-137057899D01*
X255169103Y-137076466D01*
X255199548Y-137101452D01*
X255224534Y-137131897D01*
X255243101Y-137166633D01*
X255254535Y-137204326D01*
X255259000Y-137249661D01*
X255259000Y-138086339D01*
X255254535Y-138131674D01*
X255243101Y-138169367D01*
X255224534Y-138204103D01*
X255199548Y-138234548D01*
X255169103Y-138259534D01*
X255134367Y-138278101D01*
X255096674Y-138289535D01*
X255051339Y-138294000D01*
X253964661Y-138294000D01*
X253919326Y-138289535D01*
X253881633Y-138278101D01*
X253846897Y-138259534D01*
X253816452Y-138234548D01*
X253791466Y-138204103D01*
X253772899Y-138169367D01*
X253761465Y-138131674D01*
X253757000Y-138086339D01*
X253757000Y-137249661D01*
X253761465Y-137204326D01*
X253772899Y-137166633D01*
X253791466Y-137131897D01*
X253816452Y-137101452D01*
X253846897Y-137076466D01*
X253881633Y-137057899D01*
X253919326Y-137046465D01*
X253964661Y-137042000D01*
X255051339Y-137042000D01*
X255096674Y-137046465D01*
G37*
G36*
X263160985Y-133675860D02*
G01*
X263273748Y-133698290D01*
X263405741Y-133752963D01*
X263592408Y-133830283D01*
X263879196Y-134021909D01*
X264123091Y-134265804D01*
X264314717Y-134552592D01*
X264382269Y-134715679D01*
X264433566Y-134839519D01*
X264446710Y-134871253D01*
X264514000Y-135209540D01*
X264514000Y-135554460D01*
X264498928Y-135630229D01*
X264446710Y-135892748D01*
X264398819Y-136008367D01*
X264314717Y-136211408D01*
X264123091Y-136498196D01*
X263879196Y-136742091D01*
X263592408Y-136933717D01*
X263406167Y-137010860D01*
X263273748Y-137065710D01*
X263204697Y-137079445D01*
X262935460Y-137133000D01*
X262590540Y-137133000D01*
X262321303Y-137079445D01*
X262252252Y-137065710D01*
X262119833Y-137010860D01*
X261933592Y-136933717D01*
X261646804Y-136742091D01*
X261402909Y-136498196D01*
X261211283Y-136211408D01*
X261127181Y-136008367D01*
X261079290Y-135892748D01*
X261027072Y-135630229D01*
X261012000Y-135554460D01*
X261012000Y-135209540D01*
X261079290Y-134871253D01*
X261092435Y-134839519D01*
X261143731Y-134715679D01*
X261211283Y-134552592D01*
X261402909Y-134265804D01*
X261646804Y-134021909D01*
X261933592Y-133830283D01*
X262120259Y-133752963D01*
X262252252Y-133698290D01*
X262365015Y-133675860D01*
X262590540Y-133631000D01*
X262935460Y-133631000D01*
X263160985Y-133675860D01*
G37*
G36*
X253091928Y-136430764D02*
G01*
X253113009Y-136437160D01*
X253132445Y-136447548D01*
X253149476Y-136461524D01*
X253163452Y-136478555D01*
X253173840Y-136497991D01*
X253180236Y-136519072D01*
X253183000Y-136547140D01*
X253183000Y-137010860D01*
X253180236Y-137038928D01*
X253173840Y-137060009D01*
X253163452Y-137079445D01*
X253149476Y-137096476D01*
X253132445Y-137110452D01*
X253113009Y-137120840D01*
X253091928Y-137127236D01*
X253063860Y-137130000D01*
X251250140Y-137130000D01*
X251222072Y-137127236D01*
X251200991Y-137120840D01*
X251181555Y-137110452D01*
X251164524Y-137096476D01*
X251150548Y-137079445D01*
X251140160Y-137060009D01*
X251133764Y-137038928D01*
X251131000Y-137010860D01*
X251131000Y-136547140D01*
X251133764Y-136519072D01*
X251140160Y-136497991D01*
X251150548Y-136478555D01*
X251164524Y-136461524D01*
X251181555Y-136447548D01*
X251200991Y-136437160D01*
X251222072Y-136430764D01*
X251250140Y-136428000D01*
X253063860Y-136428000D01*
X253091928Y-136430764D01*
G37*
G36*
X248141928Y-136430764D02*
G01*
X248163009Y-136437160D01*
X248182445Y-136447548D01*
X248199476Y-136461524D01*
X248213452Y-136478555D01*
X248223840Y-136497991D01*
X248230236Y-136519072D01*
X248233000Y-136547140D01*
X248233000Y-137010860D01*
X248230236Y-137038928D01*
X248223840Y-137060009D01*
X248213452Y-137079445D01*
X248199476Y-137096476D01*
X248182445Y-137110452D01*
X248163009Y-137120840D01*
X248141928Y-137127236D01*
X248113860Y-137130000D01*
X246300140Y-137130000D01*
X246272072Y-137127236D01*
X246250991Y-137120840D01*
X246231555Y-137110452D01*
X246214524Y-137096476D01*
X246200548Y-137079445D01*
X246190160Y-137060009D01*
X246183764Y-137038928D01*
X246181000Y-137010860D01*
X246181000Y-136547140D01*
X246183764Y-136519072D01*
X246190160Y-136497991D01*
X246200548Y-136478555D01*
X246214524Y-136461524D01*
X246231555Y-136447548D01*
X246250991Y-136437160D01*
X246272072Y-136430764D01*
X246300140Y-136428000D01*
X248113860Y-136428000D01*
X248141928Y-136430764D01*
G37*
G36*
X220508213Y-135398249D02*
G01*
X220602652Y-135426897D01*
X220689687Y-135473418D01*
X220765975Y-135536025D01*
X220828582Y-135612313D01*
X220875103Y-135699348D01*
X220903751Y-135793787D01*
X220913424Y-135892000D01*
X220903751Y-135990213D01*
X220875103Y-136084652D01*
X220828582Y-136171687D01*
X220765975Y-136247975D01*
X220689687Y-136310582D01*
X220602652Y-136357103D01*
X220508213Y-136385751D01*
X220434612Y-136393000D01*
X219585388Y-136393000D01*
X219511787Y-136385751D01*
X219417348Y-136357103D01*
X219330313Y-136310582D01*
X219254025Y-136247975D01*
X219191418Y-136171687D01*
X219144897Y-136084652D01*
X219116249Y-135990213D01*
X219106576Y-135892000D01*
X219116249Y-135793787D01*
X219144897Y-135699348D01*
X219191418Y-135612313D01*
X219254025Y-135536025D01*
X219330313Y-135473418D01*
X219417348Y-135426897D01*
X219511787Y-135398249D01*
X219585388Y-135391000D01*
X220434612Y-135391000D01*
X220508213Y-135398249D01*
G37*
G36*
X224828213Y-135398249D02*
G01*
X224922652Y-135426897D01*
X225009687Y-135473418D01*
X225085975Y-135536025D01*
X225148582Y-135612313D01*
X225195103Y-135699348D01*
X225223751Y-135793787D01*
X225233424Y-135892000D01*
X225223751Y-135990213D01*
X225195103Y-136084652D01*
X225148582Y-136171687D01*
X225085975Y-136247975D01*
X225009687Y-136310582D01*
X224922652Y-136357103D01*
X224828213Y-136385751D01*
X224754612Y-136393000D01*
X223605388Y-136393000D01*
X223531787Y-136385751D01*
X223437348Y-136357103D01*
X223350313Y-136310582D01*
X223274025Y-136247975D01*
X223211418Y-136171687D01*
X223164897Y-136084652D01*
X223136249Y-135990213D01*
X223126576Y-135892000D01*
X223136249Y-135793787D01*
X223164897Y-135699348D01*
X223211418Y-135612313D01*
X223274025Y-135536025D01*
X223350313Y-135473418D01*
X223437348Y-135426897D01*
X223531787Y-135398249D01*
X223605388Y-135391000D01*
X224754612Y-135391000D01*
X224828213Y-135398249D01*
G37*
G36*
X255096674Y-134996465D02*
G01*
X255134367Y-135007899D01*
X255169103Y-135026466D01*
X255199548Y-135051452D01*
X255224534Y-135081897D01*
X255243101Y-135116633D01*
X255254535Y-135154326D01*
X255259000Y-135199661D01*
X255259000Y-136036339D01*
X255254535Y-136081674D01*
X255243101Y-136119367D01*
X255224534Y-136154103D01*
X255199548Y-136184548D01*
X255169103Y-136209534D01*
X255134367Y-136228101D01*
X255096674Y-136239535D01*
X255051339Y-136244000D01*
X253964661Y-136244000D01*
X253919326Y-136239535D01*
X253881633Y-136228101D01*
X253846897Y-136209534D01*
X253816452Y-136184548D01*
X253791466Y-136154103D01*
X253772899Y-136119367D01*
X253761465Y-136081674D01*
X253757000Y-136036339D01*
X253757000Y-135199661D01*
X253761465Y-135154326D01*
X253772899Y-135116633D01*
X253791466Y-135081897D01*
X253816452Y-135051452D01*
X253846897Y-135026466D01*
X253881633Y-135007899D01*
X253919326Y-134996465D01*
X253964661Y-134992000D01*
X255051339Y-134992000D01*
X255096674Y-134996465D01*
G37*
G36*
X267456228Y-134563703D02*
G01*
X267611100Y-134627853D01*
X267750481Y-134720985D01*
X267869015Y-134839519D01*
X267962147Y-134978900D01*
X268026297Y-135133772D01*
X268059000Y-135298184D01*
X268059000Y-135465816D01*
X268026297Y-135630228D01*
X267962147Y-135785100D01*
X267869015Y-135924481D01*
X267750481Y-136043015D01*
X267611100Y-136136147D01*
X267456228Y-136200297D01*
X267291816Y-136233000D01*
X267124184Y-136233000D01*
X266959772Y-136200297D01*
X266804900Y-136136147D01*
X266665519Y-136043015D01*
X266546985Y-135924481D01*
X266453853Y-135785100D01*
X266389703Y-135630228D01*
X266357000Y-135465816D01*
X266357000Y-135298184D01*
X266389703Y-135133772D01*
X266453853Y-134978900D01*
X266546985Y-134839519D01*
X266665519Y-134720985D01*
X266804900Y-134627853D01*
X266959772Y-134563703D01*
X267124184Y-134531000D01*
X267291816Y-134531000D01*
X267456228Y-134563703D01*
G37*
G36*
X242770674Y-134635465D02*
G01*
X242808367Y-134646899D01*
X242843103Y-134665466D01*
X242873548Y-134690452D01*
X242898534Y-134720897D01*
X242917101Y-134755633D01*
X242928535Y-134793326D01*
X242933000Y-134838661D01*
X242933000Y-135925339D01*
X242928535Y-135970674D01*
X242917101Y-136008367D01*
X242898534Y-136043103D01*
X242873548Y-136073548D01*
X242843103Y-136098534D01*
X242808367Y-136117101D01*
X242770674Y-136128535D01*
X242725339Y-136133000D01*
X241888661Y-136133000D01*
X241843326Y-136128535D01*
X241805633Y-136117101D01*
X241770897Y-136098534D01*
X241740452Y-136073548D01*
X241715466Y-136043103D01*
X241696899Y-136008367D01*
X241685465Y-135970674D01*
X241681000Y-135925339D01*
X241681000Y-134838661D01*
X241685465Y-134793326D01*
X241696899Y-134755633D01*
X241715466Y-134720897D01*
X241740452Y-134690452D01*
X241770897Y-134665466D01*
X241805633Y-134646899D01*
X241843326Y-134635465D01*
X241888661Y-134631000D01*
X242725339Y-134631000D01*
X242770674Y-134635465D01*
G37*
G36*
X244820674Y-134635465D02*
G01*
X244858367Y-134646899D01*
X244893103Y-134665466D01*
X244923548Y-134690452D01*
X244948534Y-134720897D01*
X244967101Y-134755633D01*
X244978535Y-134793326D01*
X244983000Y-134838661D01*
X244983000Y-135925339D01*
X244978535Y-135970674D01*
X244967101Y-136008367D01*
X244948534Y-136043103D01*
X244923548Y-136073548D01*
X244893103Y-136098534D01*
X244858367Y-136117101D01*
X244820674Y-136128535D01*
X244775339Y-136133000D01*
X243938661Y-136133000D01*
X243893326Y-136128535D01*
X243855633Y-136117101D01*
X243820897Y-136098534D01*
X243790452Y-136073548D01*
X243765466Y-136043103D01*
X243746899Y-136008367D01*
X243735465Y-135970674D01*
X243731000Y-135925339D01*
X243731000Y-134838661D01*
X243735465Y-134793326D01*
X243746899Y-134755633D01*
X243765466Y-134720897D01*
X243790452Y-134690452D01*
X243820897Y-134665466D01*
X243855633Y-134646899D01*
X243893326Y-134635465D01*
X243938661Y-134631000D01*
X244775339Y-134631000D01*
X244820674Y-134635465D01*
G37*
G36*
X248141928Y-135160764D02*
G01*
X248163009Y-135167160D01*
X248182445Y-135177548D01*
X248199476Y-135191524D01*
X248213452Y-135208555D01*
X248223840Y-135227991D01*
X248230236Y-135249072D01*
X248233000Y-135277140D01*
X248233000Y-135740860D01*
X248230236Y-135768928D01*
X248223840Y-135790009D01*
X248213452Y-135809445D01*
X248199476Y-135826476D01*
X248182445Y-135840452D01*
X248163009Y-135850840D01*
X248141928Y-135857236D01*
X248113860Y-135860000D01*
X246300140Y-135860000D01*
X246272072Y-135857236D01*
X246250991Y-135850840D01*
X246231555Y-135840452D01*
X246214524Y-135826476D01*
X246200548Y-135809445D01*
X246190160Y-135790009D01*
X246183764Y-135768928D01*
X246181000Y-135740860D01*
X246181000Y-135277140D01*
X246183764Y-135249072D01*
X246190160Y-135227991D01*
X246200548Y-135208555D01*
X246214524Y-135191524D01*
X246231555Y-135177548D01*
X246250991Y-135167160D01*
X246272072Y-135160764D01*
X246300140Y-135158000D01*
X248113860Y-135158000D01*
X248141928Y-135160764D01*
G37*
G36*
X253091928Y-135160764D02*
G01*
X253113009Y-135167160D01*
X253132445Y-135177548D01*
X253149476Y-135191524D01*
X253163452Y-135208555D01*
X253173840Y-135227991D01*
X253180236Y-135249072D01*
X253183000Y-135277140D01*
X253183000Y-135740860D01*
X253180236Y-135768928D01*
X253173840Y-135790009D01*
X253163452Y-135809445D01*
X253149476Y-135826476D01*
X253132445Y-135840452D01*
X253113009Y-135850840D01*
X253091928Y-135857236D01*
X253063860Y-135860000D01*
X251250140Y-135860000D01*
X251222072Y-135857236D01*
X251200991Y-135850840D01*
X251181555Y-135840452D01*
X251164524Y-135826476D01*
X251150548Y-135809445D01*
X251140160Y-135790009D01*
X251133764Y-135768928D01*
X251131000Y-135740860D01*
X251131000Y-135277140D01*
X251133764Y-135249072D01*
X251140160Y-135227991D01*
X251150548Y-135208555D01*
X251164524Y-135191524D01*
X251181555Y-135177548D01*
X251200991Y-135167160D01*
X251222072Y-135160764D01*
X251250140Y-135158000D01*
X253063860Y-135158000D01*
X253091928Y-135160764D01*
G37*
G36*
X225391000Y-135123000D02*
G01*
X224129000Y-135123000D01*
X224129000Y-134831163D01*
X224126598Y-134806777D01*
X224119485Y-134783328D01*
X224107934Y-134761717D01*
X224092389Y-134742775D01*
X224073447Y-134727230D01*
X224051836Y-134715679D01*
X224028387Y-134708566D01*
X224004001Y-134706164D01*
X223979615Y-134708566D01*
X223956166Y-134715679D01*
X223934555Y-134727230D01*
X223933317Y-134728246D01*
X223866258Y-134773054D01*
X223817315Y-134793326D01*
X223802383Y-134799511D01*
X223734570Y-134813000D01*
X223665430Y-134813000D01*
X223597617Y-134799511D01*
X223582685Y-134793326D01*
X223533742Y-134773054D01*
X223476252Y-134734640D01*
X223427360Y-134685748D01*
X223388946Y-134628258D01*
X223362490Y-134564385D01*
X223362489Y-134564383D01*
X223349000Y-134496570D01*
X223349000Y-134427430D01*
X223362489Y-134359617D01*
X223367376Y-134347818D01*
X223388946Y-134295742D01*
X223427360Y-134238252D01*
X223476252Y-134189360D01*
X223533742Y-134150946D01*
X223597615Y-134124490D01*
X223597614Y-134124490D01*
X223597617Y-134124489D01*
X223665430Y-134111000D01*
X223734570Y-134111000D01*
X223802383Y-134124489D01*
X223802386Y-134124490D01*
X223802385Y-134124490D01*
X223866258Y-134150946D01*
X223933317Y-134195754D01*
X223934555Y-134196770D01*
X223956166Y-134208321D01*
X223979615Y-134215434D01*
X224004001Y-134217836D01*
X224028387Y-134215434D01*
X224051836Y-134208321D01*
X224073447Y-134196770D01*
X224092389Y-134181225D01*
X224107934Y-134162283D01*
X224119485Y-134140672D01*
X224126598Y-134117223D01*
X224129000Y-134092837D01*
X224129000Y-129051163D01*
X224126598Y-129026777D01*
X224119485Y-129003328D01*
X224107934Y-128981717D01*
X224092389Y-128962775D01*
X224073447Y-128947230D01*
X224051836Y-128935679D01*
X224028387Y-128928566D01*
X224004001Y-128926164D01*
X223979615Y-128928566D01*
X223956166Y-128935679D01*
X223934555Y-128947230D01*
X223933317Y-128948246D01*
X223866258Y-128993054D01*
X223814182Y-129014624D01*
X223802383Y-129019511D01*
X223734570Y-129033000D01*
X223665430Y-129033000D01*
X223597617Y-129019511D01*
X223585818Y-129014624D01*
X223533742Y-128993054D01*
X223476252Y-128954640D01*
X223427360Y-128905748D01*
X223388946Y-128848258D01*
X223362490Y-128784385D01*
X223362489Y-128784383D01*
X223349000Y-128716570D01*
X223349000Y-128647430D01*
X223362489Y-128579617D01*
X223374713Y-128550105D01*
X223388946Y-128515742D01*
X223427360Y-128458252D01*
X223476252Y-128409360D01*
X223533742Y-128370946D01*
X223597615Y-128344490D01*
X223597614Y-128344490D01*
X223597617Y-128344489D01*
X223665430Y-128331000D01*
X223734570Y-128331000D01*
X223802383Y-128344489D01*
X223802386Y-128344490D01*
X223802385Y-128344490D01*
X223866258Y-128370946D01*
X223933317Y-128415754D01*
X223934555Y-128416770D01*
X223956166Y-128428321D01*
X223979615Y-128435434D01*
X224004001Y-128437836D01*
X224028387Y-128435434D01*
X224051836Y-128428321D01*
X224073447Y-128416770D01*
X224092389Y-128401225D01*
X224107934Y-128382283D01*
X224119485Y-128360672D01*
X224126598Y-128337223D01*
X224129000Y-128312837D01*
X224129000Y-128021000D01*
X225391000Y-128021000D01*
X225391000Y-135123000D01*
G37*
G36*
X255096674Y-133245465D02*
G01*
X255134367Y-133256899D01*
X255169103Y-133275466D01*
X255199548Y-133300452D01*
X255224534Y-133330897D01*
X255243101Y-133365633D01*
X255254535Y-133403326D01*
X255259000Y-133448661D01*
X255259000Y-134285339D01*
X255254535Y-134330674D01*
X255243101Y-134368367D01*
X255224534Y-134403103D01*
X255199548Y-134433548D01*
X255169103Y-134458534D01*
X255134367Y-134477101D01*
X255096674Y-134488535D01*
X255051339Y-134493000D01*
X253964661Y-134493000D01*
X253919326Y-134488535D01*
X253881633Y-134477101D01*
X253846897Y-134458534D01*
X253816452Y-134433548D01*
X253791466Y-134403103D01*
X253772899Y-134368367D01*
X253761465Y-134330674D01*
X253757000Y-134285339D01*
X253757000Y-133448661D01*
X253761465Y-133403326D01*
X253772899Y-133365633D01*
X253791466Y-133330897D01*
X253816452Y-133300452D01*
X253846897Y-133275466D01*
X253881633Y-133256899D01*
X253919326Y-133245465D01*
X253964661Y-133241000D01*
X255051339Y-133241000D01*
X255096674Y-133245465D01*
G37*
G36*
X251135000Y-133558000D02*
G01*
X242133000Y-133558000D01*
X242133000Y-131706000D01*
X251135000Y-131706000D01*
X251135000Y-133558000D01*
G37*
G36*
X259240831Y-130099841D02*
G01*
X259385826Y-130128682D01*
X259498974Y-130175550D01*
X259658989Y-130241830D01*
X259658990Y-130241831D01*
X259904832Y-130406097D01*
X260113903Y-130615168D01*
X260196594Y-130738924D01*
X260278170Y-130861011D01*
X260344450Y-131021026D01*
X260391318Y-131134174D01*
X260405784Y-131206899D01*
X260449000Y-131424163D01*
X260449000Y-131719837D01*
X260391318Y-132009825D01*
X260278170Y-132282989D01*
X260201903Y-132397131D01*
X260113903Y-132528832D01*
X259904832Y-132737903D01*
X259781076Y-132820594D01*
X259658989Y-132902170D01*
X259498974Y-132968450D01*
X259385826Y-133015318D01*
X259240831Y-133044159D01*
X259095837Y-133073000D01*
X258800163Y-133073000D01*
X258655169Y-133044159D01*
X258510174Y-133015318D01*
X258397026Y-132968450D01*
X258237011Y-132902170D01*
X258114924Y-132820594D01*
X257991168Y-132737903D01*
X257782097Y-132528832D01*
X257694097Y-132397131D01*
X257617830Y-132282989D01*
X257504682Y-132009825D01*
X257447000Y-131719837D01*
X257447000Y-131424163D01*
X257490216Y-131206899D01*
X257504682Y-131134174D01*
X257551550Y-131021026D01*
X257617830Y-130861011D01*
X257699406Y-130738924D01*
X257782097Y-130615168D01*
X257991168Y-130406097D01*
X258237010Y-130241831D01*
X258237011Y-130241830D01*
X258397026Y-130175550D01*
X258510174Y-130128682D01*
X258655169Y-130099841D01*
X258800163Y-130071000D01*
X259095837Y-130071000D01*
X259240831Y-130099841D01*
G37*
G36*
X255096674Y-131195465D02*
G01*
X255134367Y-131206899D01*
X255169103Y-131225466D01*
X255199548Y-131250452D01*
X255224534Y-131280897D01*
X255243101Y-131315633D01*
X255254535Y-131353326D01*
X255259000Y-131398661D01*
X255259000Y-132235339D01*
X255254535Y-132280674D01*
X255243101Y-132318367D01*
X255224534Y-132353103D01*
X255199548Y-132383548D01*
X255169103Y-132408534D01*
X255134367Y-132427101D01*
X255096674Y-132438535D01*
X255051339Y-132443000D01*
X253964661Y-132443000D01*
X253919326Y-132438535D01*
X253881633Y-132427101D01*
X253846897Y-132408534D01*
X253816452Y-132383548D01*
X253791466Y-132353103D01*
X253772899Y-132318367D01*
X253761465Y-132280674D01*
X253757000Y-132235339D01*
X253757000Y-131398661D01*
X253761465Y-131353326D01*
X253772899Y-131315633D01*
X253791466Y-131280897D01*
X253816452Y-131250452D01*
X253846897Y-131225466D01*
X253881633Y-131206899D01*
X253919326Y-131195465D01*
X253964661Y-131191000D01*
X255051339Y-131191000D01*
X255096674Y-131195465D01*
G37*
G36*
X263795985Y-126055860D02*
G01*
X263908748Y-126078290D01*
X264040741Y-126132963D01*
X264227408Y-126210283D01*
X264514196Y-126401909D01*
X264758091Y-126645804D01*
X264949717Y-126932592D01*
X265019467Y-127100985D01*
X265081710Y-127251252D01*
X265091275Y-127299337D01*
X265149000Y-127589540D01*
X265149000Y-127934460D01*
X265133928Y-128010229D01*
X265081710Y-128272748D01*
X265041035Y-128370946D01*
X264949717Y-128591408D01*
X264758091Y-128878196D01*
X264514196Y-129122091D01*
X264227408Y-129313717D01*
X264040741Y-129391037D01*
X263908748Y-129445710D01*
X263795985Y-129468140D01*
X263570460Y-129513000D01*
X263225540Y-129513000D01*
X263000015Y-129468140D01*
X262887252Y-129445710D01*
X262755259Y-129391037D01*
X262568592Y-129313717D01*
X262281804Y-129122091D01*
X262037909Y-128878196D01*
X261846283Y-128591408D01*
X261754965Y-128370946D01*
X261714290Y-128272748D01*
X261662072Y-128010229D01*
X261647000Y-127934460D01*
X261647000Y-127589540D01*
X261704725Y-127299337D01*
X261714290Y-127251252D01*
X261776533Y-127100985D01*
X261846283Y-126932592D01*
X262037909Y-126645804D01*
X262281804Y-126401909D01*
X262568592Y-126210283D01*
X262755259Y-126132963D01*
X262887252Y-126078290D01*
X263000015Y-126055860D01*
X263225540Y-126011000D01*
X263570460Y-126011000D01*
X263795985Y-126055860D01*
G37*
G36*
X255283562Y-127220181D02*
G01*
X255318481Y-127230774D01*
X255350663Y-127247976D01*
X255378873Y-127271127D01*
X255402024Y-127299337D01*
X255419226Y-127331519D01*
X255429819Y-127366438D01*
X255434000Y-127408895D01*
X255434000Y-128550105D01*
X255429819Y-128592562D01*
X255419226Y-128627481D01*
X255402024Y-128659663D01*
X255378873Y-128687873D01*
X255350663Y-128711024D01*
X255318481Y-128728226D01*
X255283562Y-128738819D01*
X255241105Y-128743000D01*
X253774895Y-128743000D01*
X253732438Y-128738819D01*
X253697519Y-128728226D01*
X253665337Y-128711024D01*
X253637127Y-128687873D01*
X253613976Y-128659663D01*
X253596774Y-128627481D01*
X253586181Y-128592562D01*
X253582000Y-128550105D01*
X253582000Y-127408895D01*
X253586181Y-127366438D01*
X253596774Y-127331519D01*
X253613976Y-127299337D01*
X253637127Y-127271127D01*
X253665337Y-127247976D01*
X253697519Y-127230774D01*
X253732438Y-127220181D01*
X253774895Y-127216000D01*
X255241105Y-127216000D01*
X255283562Y-127220181D01*
G37*
G36*
X272536228Y-126943703D02*
G01*
X272691100Y-127007853D01*
X272830481Y-127100985D01*
X272949015Y-127219519D01*
X273042147Y-127358900D01*
X273106297Y-127513772D01*
X273139000Y-127678184D01*
X273139000Y-127845816D01*
X273106297Y-128010228D01*
X273042147Y-128165100D01*
X272949015Y-128304481D01*
X272830481Y-128423015D01*
X272691100Y-128516147D01*
X272536228Y-128580297D01*
X272371816Y-128613000D01*
X272204184Y-128613000D01*
X272039772Y-128580297D01*
X271884900Y-128516147D01*
X271745519Y-128423015D01*
X271626985Y-128304481D01*
X271533853Y-128165100D01*
X271469703Y-128010228D01*
X271437000Y-127845816D01*
X271437000Y-127678184D01*
X271469703Y-127513772D01*
X271533853Y-127358900D01*
X271626985Y-127219519D01*
X271745519Y-127100985D01*
X271884900Y-127007853D01*
X272039772Y-126943703D01*
X272204184Y-126911000D01*
X272371816Y-126911000D01*
X272536228Y-126943703D01*
G37*
G36*
X220508213Y-126758249D02*
G01*
X220602652Y-126786897D01*
X220689687Y-126833418D01*
X220765975Y-126896025D01*
X220828582Y-126972313D01*
X220875103Y-127059348D01*
X220903751Y-127153787D01*
X220913424Y-127252000D01*
X220903751Y-127350213D01*
X220875103Y-127444652D01*
X220828582Y-127531687D01*
X220765975Y-127607975D01*
X220689687Y-127670582D01*
X220602652Y-127717103D01*
X220508213Y-127745751D01*
X220434612Y-127753000D01*
X219585388Y-127753000D01*
X219511787Y-127745751D01*
X219417348Y-127717103D01*
X219330313Y-127670582D01*
X219254025Y-127607975D01*
X219191418Y-127531687D01*
X219144897Y-127444652D01*
X219116249Y-127350213D01*
X219106576Y-127252000D01*
X219116249Y-127153787D01*
X219144897Y-127059348D01*
X219191418Y-126972313D01*
X219254025Y-126896025D01*
X219330313Y-126833418D01*
X219417348Y-126786897D01*
X219511787Y-126758249D01*
X219585388Y-126751000D01*
X220434612Y-126751000D01*
X220508213Y-126758249D01*
G37*
G36*
X224828213Y-126758249D02*
G01*
X224922652Y-126786897D01*
X225009687Y-126833418D01*
X225085975Y-126896025D01*
X225148582Y-126972313D01*
X225195103Y-127059348D01*
X225223751Y-127153787D01*
X225233424Y-127252000D01*
X225223751Y-127350213D01*
X225195103Y-127444652D01*
X225148582Y-127531687D01*
X225085975Y-127607975D01*
X225009687Y-127670582D01*
X224922652Y-127717103D01*
X224828213Y-127745751D01*
X224754612Y-127753000D01*
X223605388Y-127753000D01*
X223531787Y-127745751D01*
X223437348Y-127717103D01*
X223350313Y-127670582D01*
X223274025Y-127607975D01*
X223211418Y-127531687D01*
X223164897Y-127444652D01*
X223136249Y-127350213D01*
X223126576Y-127252000D01*
X223136249Y-127153787D01*
X223164897Y-127059348D01*
X223211418Y-126972313D01*
X223274025Y-126896025D01*
X223350313Y-126833418D01*
X223437348Y-126786897D01*
X223531787Y-126758249D01*
X223605388Y-126751000D01*
X224754612Y-126751000D01*
X224828213Y-126758249D01*
G37*
G36*
X251135000Y-126358000D02*
G01*
X242133000Y-126358000D01*
X242133000Y-124506000D01*
X251135000Y-124506000D01*
X251135000Y-126358000D01*
G37*
G36*
X255283562Y-124245181D02*
G01*
X255318481Y-124255774D01*
X255350663Y-124272976D01*
X255378873Y-124296127D01*
X255402024Y-124324337D01*
X255419226Y-124356519D01*
X255429819Y-124391438D01*
X255434000Y-124433895D01*
X255434000Y-125575105D01*
X255429819Y-125617562D01*
X255419226Y-125652481D01*
X255402024Y-125684663D01*
X255378873Y-125712873D01*
X255350663Y-125736024D01*
X255318481Y-125753226D01*
X255283562Y-125763819D01*
X255241105Y-125768000D01*
X253774895Y-125768000D01*
X253732438Y-125763819D01*
X253697519Y-125753226D01*
X253665337Y-125736024D01*
X253637127Y-125712873D01*
X253613976Y-125684663D01*
X253596774Y-125652481D01*
X253586181Y-125617562D01*
X253582000Y-125575105D01*
X253582000Y-124433895D01*
X253586181Y-124391438D01*
X253596774Y-124356519D01*
X253613976Y-124324337D01*
X253637127Y-124296127D01*
X253665337Y-124272976D01*
X253697519Y-124255774D01*
X253732438Y-124245181D01*
X253774895Y-124241000D01*
X255241105Y-124241000D01*
X255283562Y-124245181D01*
G37*
G36*
X220585512Y-123563927D02*
G01*
X220734812Y-123593624D01*
X220898784Y-123661544D01*
X221046354Y-123760147D01*
X221171853Y-123885646D01*
X221270456Y-124033216D01*
X221338376Y-124197188D01*
X221373000Y-124371259D01*
X221373000Y-124548741D01*
X221338376Y-124722812D01*
X221270456Y-124886784D01*
X221171853Y-125034354D01*
X221046354Y-125159853D01*
X220898784Y-125258456D01*
X220734812Y-125326376D01*
X220585512Y-125356073D01*
X220560742Y-125361000D01*
X220383258Y-125361000D01*
X220358488Y-125356073D01*
X220209188Y-125326376D01*
X220045216Y-125258456D01*
X219897646Y-125159853D01*
X219772147Y-125034354D01*
X219673544Y-124886784D01*
X219605624Y-124722812D01*
X219571000Y-124548741D01*
X219571000Y-124371259D01*
X219605624Y-124197188D01*
X219673544Y-124033216D01*
X219772147Y-123885646D01*
X219897646Y-123760147D01*
X220045216Y-123661544D01*
X220209188Y-123593624D01*
X220358488Y-123563927D01*
X220383258Y-123559000D01*
X220560742Y-123559000D01*
X220585512Y-123563927D01*
G37*
G36*
X246580674Y-122189465D02*
G01*
X246618367Y-122200899D01*
X246653103Y-122219466D01*
X246683548Y-122244452D01*
X246708534Y-122274897D01*
X246727101Y-122309633D01*
X246738535Y-122347326D01*
X246743000Y-122392661D01*
X246743000Y-123479339D01*
X246738535Y-123524674D01*
X246727101Y-123562367D01*
X246708534Y-123597103D01*
X246683548Y-123627548D01*
X246653103Y-123652534D01*
X246618367Y-123671101D01*
X246580674Y-123682535D01*
X246535339Y-123687000D01*
X245698661Y-123687000D01*
X245653326Y-123682535D01*
X245615633Y-123671101D01*
X245580897Y-123652534D01*
X245550452Y-123627548D01*
X245525466Y-123597103D01*
X245506899Y-123562367D01*
X245495465Y-123524674D01*
X245491000Y-123479339D01*
X245491000Y-122392661D01*
X245495465Y-122347326D01*
X245506899Y-122309633D01*
X245525466Y-122274897D01*
X245550452Y-122244452D01*
X245580897Y-122219466D01*
X245615633Y-122200899D01*
X245653326Y-122189465D01*
X245698661Y-122185000D01*
X246535339Y-122185000D01*
X246580674Y-122189465D01*
G37*
G36*
X244820674Y-122189465D02*
G01*
X244858367Y-122200899D01*
X244893103Y-122219466D01*
X244923548Y-122244452D01*
X244948534Y-122274897D01*
X244967101Y-122309633D01*
X244978535Y-122347326D01*
X244983000Y-122392661D01*
X244983000Y-123479339D01*
X244978535Y-123524674D01*
X244967101Y-123562367D01*
X244948534Y-123597103D01*
X244923548Y-123627548D01*
X244893103Y-123652534D01*
X244858367Y-123671101D01*
X244820674Y-123682535D01*
X244775339Y-123687000D01*
X243938661Y-123687000D01*
X243893326Y-123682535D01*
X243855633Y-123671101D01*
X243820897Y-123652534D01*
X243790452Y-123627548D01*
X243765466Y-123597103D01*
X243746899Y-123562367D01*
X243735465Y-123524674D01*
X243731000Y-123479339D01*
X243731000Y-122392661D01*
X243735465Y-122347326D01*
X243746899Y-122309633D01*
X243765466Y-122274897D01*
X243790452Y-122244452D01*
X243820897Y-122219466D01*
X243855633Y-122200899D01*
X243893326Y-122189465D01*
X243938661Y-122185000D01*
X244775339Y-122185000D01*
X244820674Y-122189465D01*
G37*
G36*
X248630674Y-122189465D02*
G01*
X248668367Y-122200899D01*
X248703103Y-122219466D01*
X248733548Y-122244452D01*
X248758534Y-122274897D01*
X248777101Y-122309633D01*
X248788535Y-122347326D01*
X248793000Y-122392661D01*
X248793000Y-123479339D01*
X248788535Y-123524674D01*
X248777101Y-123562367D01*
X248758534Y-123597103D01*
X248733548Y-123627548D01*
X248703103Y-123652534D01*
X248668367Y-123671101D01*
X248630674Y-123682535D01*
X248585339Y-123687000D01*
X247748661Y-123687000D01*
X247703326Y-123682535D01*
X247665633Y-123671101D01*
X247630897Y-123652534D01*
X247600452Y-123627548D01*
X247575466Y-123597103D01*
X247556899Y-123562367D01*
X247545465Y-123524674D01*
X247541000Y-123479339D01*
X247541000Y-122392661D01*
X247545465Y-122347326D01*
X247556899Y-122309633D01*
X247575466Y-122274897D01*
X247600452Y-122244452D01*
X247630897Y-122219466D01*
X247665633Y-122200899D01*
X247703326Y-122189465D01*
X247748661Y-122185000D01*
X248585339Y-122185000D01*
X248630674Y-122189465D01*
G37*
G36*
X242770674Y-122189465D02*
G01*
X242808367Y-122200899D01*
X242843103Y-122219466D01*
X242873548Y-122244452D01*
X242898534Y-122274897D01*
X242917101Y-122309633D01*
X242928535Y-122347326D01*
X242933000Y-122392661D01*
X242933000Y-123479339D01*
X242928535Y-123524674D01*
X242917101Y-123562367D01*
X242898534Y-123597103D01*
X242873548Y-123627548D01*
X242843103Y-123652534D01*
X242808367Y-123671101D01*
X242770674Y-123682535D01*
X242725339Y-123687000D01*
X241888661Y-123687000D01*
X241843326Y-123682535D01*
X241805633Y-123671101D01*
X241770897Y-123652534D01*
X241740452Y-123627548D01*
X241715466Y-123597103D01*
X241696899Y-123562367D01*
X241685465Y-123524674D01*
X241681000Y-123479339D01*
X241681000Y-122392661D01*
X241685465Y-122347326D01*
X241696899Y-122309633D01*
X241715466Y-122274897D01*
X241740452Y-122244452D01*
X241770897Y-122219466D01*
X241805633Y-122200899D01*
X241843326Y-122189465D01*
X241888661Y-122185000D01*
X242725339Y-122185000D01*
X242770674Y-122189465D01*
G37*
G36*
X221373000Y-122821000D02*
G01*
X219571000Y-122821000D01*
X219571000Y-121019000D01*
X221373000Y-121019000D01*
X221373000Y-122821000D01*
G37*
G36*
X255096674Y-115964465D02*
G01*
X255134367Y-115975899D01*
X255169103Y-115994466D01*
X255199548Y-116019452D01*
X255224534Y-116049897D01*
X255243101Y-116084633D01*
X255254535Y-116122326D01*
X255259000Y-116167661D01*
X255259000Y-117004339D01*
X255254535Y-117049674D01*
X255243101Y-117087367D01*
X255224534Y-117122103D01*
X255199548Y-117152548D01*
X255169103Y-117177534D01*
X255134367Y-117196101D01*
X255096674Y-117207535D01*
X255051339Y-117212000D01*
X253964661Y-117212000D01*
X253919326Y-117207535D01*
X253881633Y-117196101D01*
X253846897Y-117177534D01*
X253816452Y-117152548D01*
X253791466Y-117122103D01*
X253772899Y-117087367D01*
X253761465Y-117049674D01*
X253757000Y-117004339D01*
X253757000Y-116167661D01*
X253761465Y-116122326D01*
X253772899Y-116084633D01*
X253791466Y-116049897D01*
X253816452Y-116019452D01*
X253846897Y-115994466D01*
X253881633Y-115975899D01*
X253919326Y-115964465D01*
X253964661Y-115960000D01*
X255051339Y-115960000D01*
X255096674Y-115964465D01*
G37*
G36*
X243158674Y-114957465D02*
G01*
X243196367Y-114968899D01*
X243231103Y-114987466D01*
X243261548Y-115012452D01*
X243286534Y-115042897D01*
X243305101Y-115077633D01*
X243316535Y-115115326D01*
X243321000Y-115160661D01*
X243321000Y-115997339D01*
X243316535Y-116042674D01*
X243305101Y-116080367D01*
X243286534Y-116115103D01*
X243261548Y-116145548D01*
X243231103Y-116170534D01*
X243196367Y-116189101D01*
X243158674Y-116200535D01*
X243113339Y-116205000D01*
X242026661Y-116205000D01*
X241981326Y-116200535D01*
X241943633Y-116189101D01*
X241908897Y-116170534D01*
X241878452Y-116145548D01*
X241853466Y-116115103D01*
X241834899Y-116080367D01*
X241823465Y-116042674D01*
X241819000Y-115997339D01*
X241819000Y-115160661D01*
X241823465Y-115115326D01*
X241834899Y-115077633D01*
X241853466Y-115042897D01*
X241878452Y-115012452D01*
X241908897Y-114987466D01*
X241943633Y-114968899D01*
X241981326Y-114957465D01*
X242026661Y-114953000D01*
X243113339Y-114953000D01*
X243158674Y-114957465D01*
G37*
G36*
X255096674Y-113914465D02*
G01*
X255134367Y-113925899D01*
X255169103Y-113944466D01*
X255199548Y-113969452D01*
X255224534Y-113999897D01*
X255243101Y-114034633D01*
X255254535Y-114072326D01*
X255259000Y-114117661D01*
X255259000Y-114954339D01*
X255254535Y-114999674D01*
X255243101Y-115037367D01*
X255224534Y-115072103D01*
X255199548Y-115102548D01*
X255169103Y-115127534D01*
X255134367Y-115146101D01*
X255096674Y-115157535D01*
X255051339Y-115162000D01*
X253964661Y-115162000D01*
X253919326Y-115157535D01*
X253881633Y-115146101D01*
X253846897Y-115127534D01*
X253816452Y-115102548D01*
X253791466Y-115072103D01*
X253772899Y-115037367D01*
X253761465Y-114999674D01*
X253757000Y-114954339D01*
X253757000Y-114117661D01*
X253761465Y-114072326D01*
X253772899Y-114034633D01*
X253791466Y-113999897D01*
X253816452Y-113969452D01*
X253846897Y-113944466D01*
X253881633Y-113925899D01*
X253919326Y-113914465D01*
X253964661Y-113910000D01*
X255051339Y-113910000D01*
X255096674Y-113914465D01*
G37*
G36*
X225509997Y-113453051D02*
G01*
X225543652Y-113463261D01*
X225574665Y-113479838D01*
X225601851Y-113502149D01*
X225624162Y-113529335D01*
X225640739Y-113560348D01*
X225650949Y-113594003D01*
X225655000Y-113635138D01*
X225655000Y-114964862D01*
X225650949Y-115005997D01*
X225640739Y-115039652D01*
X225624162Y-115070665D01*
X225601851Y-115097851D01*
X225574665Y-115120162D01*
X225543652Y-115136739D01*
X225509997Y-115146949D01*
X225468862Y-115151000D01*
X223139138Y-115151000D01*
X223098003Y-115146949D01*
X223064348Y-115136739D01*
X223033335Y-115120162D01*
X223006149Y-115097851D01*
X222983838Y-115070665D01*
X222967261Y-115039652D01*
X222957051Y-115005997D01*
X222953000Y-114964862D01*
X222953000Y-113635138D01*
X222957051Y-113594003D01*
X222967261Y-113560348D01*
X222983838Y-113529335D01*
X223006149Y-113502149D01*
X223033335Y-113479838D01*
X223064348Y-113463261D01*
X223098003Y-113453051D01*
X223139138Y-113449000D01*
X225468862Y-113449000D01*
X225509997Y-113453051D01*
G37*
G36*
X221909997Y-113453051D02*
G01*
X221943652Y-113463261D01*
X221974665Y-113479838D01*
X222001851Y-113502149D01*
X222024162Y-113529335D01*
X222040739Y-113560348D01*
X222050949Y-113594003D01*
X222055000Y-113635138D01*
X222055000Y-114964862D01*
X222050949Y-115005997D01*
X222040739Y-115039652D01*
X222024162Y-115070665D01*
X222001851Y-115097851D01*
X221974665Y-115120162D01*
X221943652Y-115136739D01*
X221909997Y-115146949D01*
X221868862Y-115151000D01*
X219539138Y-115151000D01*
X219498003Y-115146949D01*
X219464348Y-115136739D01*
X219433335Y-115120162D01*
X219406149Y-115097851D01*
X219383838Y-115070665D01*
X219367261Y-115039652D01*
X219357051Y-115005997D01*
X219353000Y-114964862D01*
X219353000Y-113635138D01*
X219357051Y-113594003D01*
X219367261Y-113560348D01*
X219383838Y-113529335D01*
X219406149Y-113502149D01*
X219433335Y-113479838D01*
X219464348Y-113463261D01*
X219498003Y-113453051D01*
X219539138Y-113449000D01*
X221868862Y-113449000D01*
X221909997Y-113453051D01*
G37*
G36*
X253091928Y-114332764D02*
G01*
X253113009Y-114339160D01*
X253132445Y-114349548D01*
X253149476Y-114363524D01*
X253163452Y-114380555D01*
X253173840Y-114399991D01*
X253180236Y-114421072D01*
X253183000Y-114449140D01*
X253183000Y-114912860D01*
X253180236Y-114940928D01*
X253173840Y-114962009D01*
X253163452Y-114981445D01*
X253149476Y-114998476D01*
X253132445Y-115012452D01*
X253113009Y-115022840D01*
X253091928Y-115029236D01*
X253063860Y-115032000D01*
X251250140Y-115032000D01*
X251222072Y-115029236D01*
X251200991Y-115022840D01*
X251181555Y-115012452D01*
X251164524Y-114998476D01*
X251150548Y-114981445D01*
X251140160Y-114962009D01*
X251133764Y-114940928D01*
X251131000Y-114912860D01*
X251131000Y-114449140D01*
X251133764Y-114421072D01*
X251140160Y-114399991D01*
X251150548Y-114380555D01*
X251164524Y-114363524D01*
X251181555Y-114349548D01*
X251200991Y-114339160D01*
X251222072Y-114332764D01*
X251250140Y-114330000D01*
X253063860Y-114330000D01*
X253091928Y-114332764D01*
G37*
G36*
X248141928Y-114332764D02*
G01*
X248163009Y-114339160D01*
X248182445Y-114349548D01*
X248199476Y-114363524D01*
X248213452Y-114380555D01*
X248223840Y-114399991D01*
X248230236Y-114421072D01*
X248233000Y-114449140D01*
X248233000Y-114912860D01*
X248230236Y-114940928D01*
X248223840Y-114962009D01*
X248213452Y-114981445D01*
X248199476Y-114998476D01*
X248182445Y-115012452D01*
X248163009Y-115022840D01*
X248141928Y-115029236D01*
X248113860Y-115032000D01*
X246300140Y-115032000D01*
X246272072Y-115029236D01*
X246250991Y-115022840D01*
X246231555Y-115012452D01*
X246214524Y-114998476D01*
X246200548Y-114981445D01*
X246190160Y-114962009D01*
X246183764Y-114940928D01*
X246181000Y-114912860D01*
X246181000Y-114449140D01*
X246183764Y-114421072D01*
X246190160Y-114399991D01*
X246200548Y-114380555D01*
X246214524Y-114363524D01*
X246231555Y-114349548D01*
X246250991Y-114339160D01*
X246272072Y-114332764D01*
X246300140Y-114330000D01*
X248113860Y-114330000D01*
X248141928Y-114332764D01*
G37*
G36*
X243158674Y-112907465D02*
G01*
X243196367Y-112918899D01*
X243231103Y-112937466D01*
X243261548Y-112962452D01*
X243286534Y-112992897D01*
X243305101Y-113027633D01*
X243316535Y-113065326D01*
X243321000Y-113110661D01*
X243321000Y-113947339D01*
X243316535Y-113992674D01*
X243305101Y-114030367D01*
X243286534Y-114065103D01*
X243261548Y-114095548D01*
X243231103Y-114120534D01*
X243196367Y-114139101D01*
X243158674Y-114150535D01*
X243113339Y-114155000D01*
X242026661Y-114155000D01*
X241981326Y-114150535D01*
X241943633Y-114139101D01*
X241908897Y-114120534D01*
X241878452Y-114095548D01*
X241853466Y-114065103D01*
X241834899Y-114030367D01*
X241823465Y-113992674D01*
X241819000Y-113947339D01*
X241819000Y-113110661D01*
X241823465Y-113065326D01*
X241834899Y-113027633D01*
X241853466Y-112992897D01*
X241878452Y-112962452D01*
X241908897Y-112937466D01*
X241943633Y-112918899D01*
X241981326Y-112907465D01*
X242026661Y-112903000D01*
X243113339Y-112903000D01*
X243158674Y-112907465D01*
G37*
G36*
X253091928Y-113062764D02*
G01*
X253113009Y-113069160D01*
X253132445Y-113079548D01*
X253149476Y-113093524D01*
X253163452Y-113110555D01*
X253173840Y-113129991D01*
X253180236Y-113151072D01*
X253183000Y-113179140D01*
X253183000Y-113642860D01*
X253180236Y-113670928D01*
X253173840Y-113692009D01*
X253163452Y-113711445D01*
X253149476Y-113728476D01*
X253132445Y-113742452D01*
X253113009Y-113752840D01*
X253091928Y-113759236D01*
X253063860Y-113762000D01*
X251250140Y-113762000D01*
X251222072Y-113759236D01*
X251200991Y-113752840D01*
X251181555Y-113742452D01*
X251164524Y-113728476D01*
X251150548Y-113711445D01*
X251140160Y-113692009D01*
X251133764Y-113670928D01*
X251131000Y-113642860D01*
X251131000Y-113179140D01*
X251133764Y-113151072D01*
X251140160Y-113129991D01*
X251150548Y-113110555D01*
X251164524Y-113093524D01*
X251181555Y-113079548D01*
X251200991Y-113069160D01*
X251222072Y-113062764D01*
X251250140Y-113060000D01*
X253063860Y-113060000D01*
X253091928Y-113062764D01*
G37*
G36*
X248141928Y-113062764D02*
G01*
X248163009Y-113069160D01*
X248182445Y-113079548D01*
X248199476Y-113093524D01*
X248213452Y-113110555D01*
X248223840Y-113129991D01*
X248230236Y-113151072D01*
X248233000Y-113179140D01*
X248233000Y-113642860D01*
X248230236Y-113670928D01*
X248223840Y-113692009D01*
X248213452Y-113711445D01*
X248199476Y-113728476D01*
X248182445Y-113742452D01*
X248163009Y-113752840D01*
X248141928Y-113759236D01*
X248113860Y-113762000D01*
X246300140Y-113762000D01*
X246272072Y-113759236D01*
X246250991Y-113752840D01*
X246231555Y-113742452D01*
X246214524Y-113728476D01*
X246200548Y-113711445D01*
X246190160Y-113692009D01*
X246183764Y-113670928D01*
X246181000Y-113642860D01*
X246181000Y-113179140D01*
X246183764Y-113151072D01*
X246190160Y-113129991D01*
X246200548Y-113110555D01*
X246214524Y-113093524D01*
X246231555Y-113079548D01*
X246250991Y-113069160D01*
X246272072Y-113062764D01*
X246300140Y-113060000D01*
X248113860Y-113060000D01*
X248141928Y-113062764D01*
G37*
G36*
X255096674Y-112154465D02*
G01*
X255134367Y-112165899D01*
X255169103Y-112184466D01*
X255199548Y-112209452D01*
X255224534Y-112239897D01*
X255243101Y-112274633D01*
X255254535Y-112312326D01*
X255259000Y-112357661D01*
X255259000Y-113194339D01*
X255254535Y-113239674D01*
X255243101Y-113277367D01*
X255224534Y-113312103D01*
X255199548Y-113342548D01*
X255169103Y-113367534D01*
X255134367Y-113386101D01*
X255096674Y-113397535D01*
X255051339Y-113402000D01*
X253964661Y-113402000D01*
X253919326Y-113397535D01*
X253881633Y-113386101D01*
X253846897Y-113367534D01*
X253816452Y-113342548D01*
X253791466Y-113312103D01*
X253772899Y-113277367D01*
X253761465Y-113239674D01*
X253757000Y-113194339D01*
X253757000Y-112357661D01*
X253761465Y-112312326D01*
X253772899Y-112274633D01*
X253791466Y-112239897D01*
X253816452Y-112209452D01*
X253846897Y-112184466D01*
X253881633Y-112165899D01*
X253919326Y-112154465D01*
X253964661Y-112150000D01*
X255051339Y-112150000D01*
X255096674Y-112154465D01*
G37*
G36*
X248141928Y-111792764D02*
G01*
X248163009Y-111799160D01*
X248182445Y-111809548D01*
X248199476Y-111823524D01*
X248213452Y-111840555D01*
X248223840Y-111859991D01*
X248230236Y-111881072D01*
X248233000Y-111909140D01*
X248233000Y-112372860D01*
X248230236Y-112400928D01*
X248223840Y-112422009D01*
X248213452Y-112441445D01*
X248199476Y-112458476D01*
X248182445Y-112472452D01*
X248163009Y-112482840D01*
X248141928Y-112489236D01*
X248113860Y-112492000D01*
X246300140Y-112492000D01*
X246272072Y-112489236D01*
X246250991Y-112482840D01*
X246231555Y-112472452D01*
X246214524Y-112458476D01*
X246200548Y-112441445D01*
X246190160Y-112422009D01*
X246183764Y-112400928D01*
X246181000Y-112372860D01*
X246181000Y-111909140D01*
X246183764Y-111881072D01*
X246190160Y-111859991D01*
X246200548Y-111840555D01*
X246214524Y-111823524D01*
X246231555Y-111809548D01*
X246250991Y-111799160D01*
X246272072Y-111792764D01*
X246300140Y-111790000D01*
X248113860Y-111790000D01*
X248141928Y-111792764D01*
G37*
G36*
X253091928Y-111792764D02*
G01*
X253113009Y-111799160D01*
X253132445Y-111809548D01*
X253149476Y-111823524D01*
X253163452Y-111840555D01*
X253173840Y-111859991D01*
X253180236Y-111881072D01*
X253183000Y-111909140D01*
X253183000Y-112372860D01*
X253180236Y-112400928D01*
X253173840Y-112422009D01*
X253163452Y-112441445D01*
X253149476Y-112458476D01*
X253132445Y-112472452D01*
X253113009Y-112482840D01*
X253091928Y-112489236D01*
X253063860Y-112492000D01*
X251250140Y-112492000D01*
X251222072Y-112489236D01*
X251200991Y-112482840D01*
X251181555Y-112472452D01*
X251164524Y-112458476D01*
X251150548Y-112441445D01*
X251140160Y-112422009D01*
X251133764Y-112400928D01*
X251131000Y-112372860D01*
X251131000Y-111909140D01*
X251133764Y-111881072D01*
X251140160Y-111859991D01*
X251150548Y-111840555D01*
X251164524Y-111823524D01*
X251181555Y-111809548D01*
X251200991Y-111799160D01*
X251222072Y-111792764D01*
X251250140Y-111790000D01*
X253063860Y-111790000D01*
X253091928Y-111792764D01*
G37*
G36*
X263160985Y-108529860D02*
G01*
X263273748Y-108552290D01*
X263311856Y-108568075D01*
X263592408Y-108684283D01*
X263879196Y-108875909D01*
X264123091Y-109119804D01*
X264314717Y-109406592D01*
X264378328Y-109560164D01*
X264446710Y-109725252D01*
X264467326Y-109828897D01*
X264514000Y-110063540D01*
X264514000Y-110408460D01*
X264498928Y-110484229D01*
X264446710Y-110746748D01*
X264392037Y-110878741D01*
X264314717Y-111065408D01*
X264123091Y-111352196D01*
X263879196Y-111596091D01*
X263592408Y-111787717D01*
X263417922Y-111859991D01*
X263273748Y-111919710D01*
X263215672Y-111931262D01*
X262935460Y-111987000D01*
X262590540Y-111987000D01*
X262310328Y-111931262D01*
X262252252Y-111919710D01*
X262108078Y-111859991D01*
X261933592Y-111787717D01*
X261646804Y-111596091D01*
X261402909Y-111352196D01*
X261211283Y-111065408D01*
X261133963Y-110878741D01*
X261079290Y-110746748D01*
X261027072Y-110484229D01*
X261012000Y-110408460D01*
X261012000Y-110063540D01*
X261058674Y-109828897D01*
X261079290Y-109725252D01*
X261147672Y-109560164D01*
X261211283Y-109406592D01*
X261402909Y-109119804D01*
X261646804Y-108875909D01*
X261933592Y-108684283D01*
X262214144Y-108568075D01*
X262252252Y-108552290D01*
X262365015Y-108529860D01*
X262590540Y-108485000D01*
X262935460Y-108485000D01*
X263160985Y-108529860D01*
G37*
G36*
X255096674Y-110104465D02*
G01*
X255134367Y-110115899D01*
X255169103Y-110134466D01*
X255199548Y-110159452D01*
X255224534Y-110189897D01*
X255243101Y-110224633D01*
X255254535Y-110262326D01*
X255259000Y-110307661D01*
X255259000Y-111144339D01*
X255254535Y-111189674D01*
X255243101Y-111227367D01*
X255224534Y-111262103D01*
X255199548Y-111292548D01*
X255169103Y-111317534D01*
X255134367Y-111336101D01*
X255096674Y-111347535D01*
X255051339Y-111352000D01*
X253964661Y-111352000D01*
X253919326Y-111347535D01*
X253881633Y-111336101D01*
X253846897Y-111317534D01*
X253816452Y-111292548D01*
X253791466Y-111262103D01*
X253772899Y-111227367D01*
X253761465Y-111189674D01*
X253757000Y-111144339D01*
X253757000Y-110307661D01*
X253761465Y-110262326D01*
X253772899Y-110224633D01*
X253791466Y-110189897D01*
X253816452Y-110159452D01*
X253846897Y-110134466D01*
X253881633Y-110115899D01*
X253919326Y-110104465D01*
X253964661Y-110100000D01*
X255051339Y-110100000D01*
X255096674Y-110104465D01*
G37*
G36*
X220508213Y-110252249D02*
G01*
X220602652Y-110280897D01*
X220689687Y-110327418D01*
X220765975Y-110390025D01*
X220828582Y-110466313D01*
X220875103Y-110553348D01*
X220903751Y-110647787D01*
X220913424Y-110746000D01*
X220903751Y-110844213D01*
X220875103Y-110938652D01*
X220828582Y-111025687D01*
X220765975Y-111101975D01*
X220689687Y-111164582D01*
X220602652Y-111211103D01*
X220508213Y-111239751D01*
X220434612Y-111247000D01*
X219585388Y-111247000D01*
X219511787Y-111239751D01*
X219417348Y-111211103D01*
X219330313Y-111164582D01*
X219254025Y-111101975D01*
X219191418Y-111025687D01*
X219144897Y-110938652D01*
X219116249Y-110844213D01*
X219106576Y-110746000D01*
X219116249Y-110647787D01*
X219144897Y-110553348D01*
X219191418Y-110466313D01*
X219254025Y-110390025D01*
X219330313Y-110327418D01*
X219417348Y-110280897D01*
X219511787Y-110252249D01*
X219585388Y-110245000D01*
X220434612Y-110245000D01*
X220508213Y-110252249D01*
G37*
G36*
X224828213Y-110252249D02*
G01*
X224922652Y-110280897D01*
X225009687Y-110327418D01*
X225085975Y-110390025D01*
X225148582Y-110466313D01*
X225195103Y-110553348D01*
X225223751Y-110647787D01*
X225233424Y-110746000D01*
X225223751Y-110844213D01*
X225195103Y-110938652D01*
X225148582Y-111025687D01*
X225085975Y-111101975D01*
X225009687Y-111164582D01*
X224922652Y-111211103D01*
X224828213Y-111239751D01*
X224754612Y-111247000D01*
X223605388Y-111247000D01*
X223531787Y-111239751D01*
X223437348Y-111211103D01*
X223350313Y-111164582D01*
X223274025Y-111101975D01*
X223211418Y-111025687D01*
X223164897Y-110938652D01*
X223136249Y-110844213D01*
X223126576Y-110746000D01*
X223136249Y-110647787D01*
X223164897Y-110553348D01*
X223211418Y-110466313D01*
X223274025Y-110390025D01*
X223350313Y-110327418D01*
X223437348Y-110280897D01*
X223531787Y-110252249D01*
X223605388Y-110245000D01*
X224754612Y-110245000D01*
X224828213Y-110252249D01*
G37*
G36*
X242271674Y-109743465D02*
G01*
X242309367Y-109754899D01*
X242344103Y-109773466D01*
X242374548Y-109798452D01*
X242399534Y-109828897D01*
X242418101Y-109863633D01*
X242429535Y-109901326D01*
X242434000Y-109946661D01*
X242434000Y-111033339D01*
X242429535Y-111078674D01*
X242418101Y-111116367D01*
X242399534Y-111151103D01*
X242374548Y-111181548D01*
X242344103Y-111206534D01*
X242309367Y-111225101D01*
X242271674Y-111236535D01*
X242226339Y-111241000D01*
X241389661Y-111241000D01*
X241344326Y-111236535D01*
X241306633Y-111225101D01*
X241271897Y-111206534D01*
X241241452Y-111181548D01*
X241216466Y-111151103D01*
X241197899Y-111116367D01*
X241186465Y-111078674D01*
X241182000Y-111033339D01*
X241182000Y-109946661D01*
X241186465Y-109901326D01*
X241197899Y-109863633D01*
X241216466Y-109828897D01*
X241241452Y-109798452D01*
X241271897Y-109773466D01*
X241306633Y-109754899D01*
X241344326Y-109743465D01*
X241389661Y-109739000D01*
X242226339Y-109739000D01*
X242271674Y-109743465D01*
G37*
G36*
X244321674Y-109743465D02*
G01*
X244359367Y-109754899D01*
X244394103Y-109773466D01*
X244424548Y-109798452D01*
X244449534Y-109828897D01*
X244468101Y-109863633D01*
X244479535Y-109901326D01*
X244484000Y-109946661D01*
X244484000Y-111033339D01*
X244479535Y-111078674D01*
X244468101Y-111116367D01*
X244449534Y-111151103D01*
X244424548Y-111181548D01*
X244394103Y-111206534D01*
X244359367Y-111225101D01*
X244321674Y-111236535D01*
X244276339Y-111241000D01*
X243439661Y-111241000D01*
X243394326Y-111236535D01*
X243356633Y-111225101D01*
X243321897Y-111206534D01*
X243291452Y-111181548D01*
X243266466Y-111151103D01*
X243247899Y-111116367D01*
X243236465Y-111078674D01*
X243232000Y-111033339D01*
X243232000Y-109946661D01*
X243236465Y-109901326D01*
X243247899Y-109863633D01*
X243266466Y-109828897D01*
X243291452Y-109798452D01*
X243321897Y-109773466D01*
X243356633Y-109754899D01*
X243394326Y-109743465D01*
X243439661Y-109739000D01*
X244276339Y-109739000D01*
X244321674Y-109743465D01*
G37*
G36*
X248141928Y-110522764D02*
G01*
X248163009Y-110529160D01*
X248182445Y-110539548D01*
X248199476Y-110553524D01*
X248213452Y-110570555D01*
X248223840Y-110589991D01*
X248230236Y-110611072D01*
X248233000Y-110639140D01*
X248233000Y-111102860D01*
X248230236Y-111130928D01*
X248223840Y-111152009D01*
X248213452Y-111171445D01*
X248199476Y-111188476D01*
X248182445Y-111202452D01*
X248163009Y-111212840D01*
X248141928Y-111219236D01*
X248113860Y-111222000D01*
X246300140Y-111222000D01*
X246272072Y-111219236D01*
X246250991Y-111212840D01*
X246231555Y-111202452D01*
X246214524Y-111188476D01*
X246200548Y-111171445D01*
X246190160Y-111152009D01*
X246183764Y-111130928D01*
X246181000Y-111102860D01*
X246181000Y-110639140D01*
X246183764Y-110611072D01*
X246190160Y-110589991D01*
X246200548Y-110570555D01*
X246214524Y-110553524D01*
X246231555Y-110539548D01*
X246250991Y-110529160D01*
X246272072Y-110522764D01*
X246300140Y-110520000D01*
X248113860Y-110520000D01*
X248141928Y-110522764D01*
G37*
G36*
X253091928Y-110522764D02*
G01*
X253113009Y-110529160D01*
X253132445Y-110539548D01*
X253149476Y-110553524D01*
X253163452Y-110570555D01*
X253173840Y-110589991D01*
X253180236Y-110611072D01*
X253183000Y-110639140D01*
X253183000Y-111102860D01*
X253180236Y-111130928D01*
X253173840Y-111152009D01*
X253163452Y-111171445D01*
X253149476Y-111188476D01*
X253132445Y-111202452D01*
X253113009Y-111212840D01*
X253091928Y-111219236D01*
X253063860Y-111222000D01*
X251250140Y-111222000D01*
X251222072Y-111219236D01*
X251200991Y-111212840D01*
X251181555Y-111202452D01*
X251164524Y-111188476D01*
X251150548Y-111171445D01*
X251140160Y-111152009D01*
X251133764Y-111130928D01*
X251131000Y-111102860D01*
X251131000Y-110639140D01*
X251133764Y-110611072D01*
X251140160Y-110589991D01*
X251150548Y-110570555D01*
X251164524Y-110553524D01*
X251181555Y-110539548D01*
X251200991Y-110529160D01*
X251222072Y-110522764D01*
X251250140Y-110520000D01*
X253063860Y-110520000D01*
X253091928Y-110522764D01*
G37*
G36*
X267456228Y-109417703D02*
G01*
X267611100Y-109481853D01*
X267750481Y-109574985D01*
X267869015Y-109693519D01*
X267962147Y-109832900D01*
X268026297Y-109987772D01*
X268059000Y-110152184D01*
X268059000Y-110319816D01*
X268026297Y-110484228D01*
X267962147Y-110639100D01*
X267869015Y-110778481D01*
X267750481Y-110897015D01*
X267611100Y-110990147D01*
X267456228Y-111054297D01*
X267291816Y-111087000D01*
X267124184Y-111087000D01*
X266959772Y-111054297D01*
X266804900Y-110990147D01*
X266665519Y-110897015D01*
X266546985Y-110778481D01*
X266453853Y-110639100D01*
X266389703Y-110484228D01*
X266357000Y-110319816D01*
X266357000Y-110152184D01*
X266389703Y-109987772D01*
X266453853Y-109832900D01*
X266546985Y-109693519D01*
X266665519Y-109574985D01*
X266804900Y-109481853D01*
X266959772Y-109417703D01*
X267124184Y-109385000D01*
X267291816Y-109385000D01*
X267456228Y-109417703D01*
G37*
G36*
X225391000Y-109977000D02*
G01*
X224129000Y-109977000D01*
X224129000Y-109685163D01*
X224126598Y-109660777D01*
X224119485Y-109637328D01*
X224107934Y-109615717D01*
X224092389Y-109596775D01*
X224073447Y-109581230D01*
X224051836Y-109569679D01*
X224028387Y-109562566D01*
X224004001Y-109560164D01*
X223979615Y-109562566D01*
X223956166Y-109569679D01*
X223934555Y-109581230D01*
X223933317Y-109582246D01*
X223866258Y-109627054D01*
X223814182Y-109648624D01*
X223802383Y-109653511D01*
X223734570Y-109667000D01*
X223665430Y-109667000D01*
X223597617Y-109653511D01*
X223585818Y-109648624D01*
X223533742Y-109627054D01*
X223476252Y-109588640D01*
X223427360Y-109539748D01*
X223388946Y-109482258D01*
X223362490Y-109418385D01*
X223362489Y-109418383D01*
X223349000Y-109350570D01*
X223349000Y-109281430D01*
X223362489Y-109213617D01*
X223377656Y-109177000D01*
X223388946Y-109149742D01*
X223427360Y-109092252D01*
X223476252Y-109043360D01*
X223533742Y-109004946D01*
X223597615Y-108978490D01*
X223597614Y-108978490D01*
X223597617Y-108978489D01*
X223665430Y-108965000D01*
X223734570Y-108965000D01*
X223802383Y-108978489D01*
X223802386Y-108978490D01*
X223802385Y-108978490D01*
X223866258Y-109004946D01*
X223933317Y-109049754D01*
X223934555Y-109050770D01*
X223956166Y-109062321D01*
X223979615Y-109069434D01*
X224004001Y-109071836D01*
X224028387Y-109069434D01*
X224051836Y-109062321D01*
X224073447Y-109050770D01*
X224092389Y-109035225D01*
X224107934Y-109016283D01*
X224119485Y-108994672D01*
X224126598Y-108971223D01*
X224129000Y-108946837D01*
X224129000Y-103905163D01*
X224126598Y-103880777D01*
X224119485Y-103857328D01*
X224107934Y-103835717D01*
X224092389Y-103816775D01*
X224073447Y-103801230D01*
X224051836Y-103789679D01*
X224028387Y-103782566D01*
X224004001Y-103780164D01*
X223979615Y-103782566D01*
X223956166Y-103789679D01*
X223934555Y-103801230D01*
X223933317Y-103802246D01*
X223866258Y-103847054D01*
X223814182Y-103868624D01*
X223802383Y-103873511D01*
X223734570Y-103887000D01*
X223665430Y-103887000D01*
X223597617Y-103873511D01*
X223585818Y-103868624D01*
X223533742Y-103847054D01*
X223476252Y-103808640D01*
X223427360Y-103759748D01*
X223388946Y-103702258D01*
X223362490Y-103638385D01*
X223362489Y-103638383D01*
X223349000Y-103570570D01*
X223349000Y-103501430D01*
X223362489Y-103433617D01*
X223367376Y-103421818D01*
X223388946Y-103369742D01*
X223427360Y-103312252D01*
X223476252Y-103263360D01*
X223533742Y-103224946D01*
X223597615Y-103198490D01*
X223597614Y-103198490D01*
X223597617Y-103198489D01*
X223665430Y-103185000D01*
X223734570Y-103185000D01*
X223802383Y-103198489D01*
X223802386Y-103198490D01*
X223802385Y-103198490D01*
X223866258Y-103224946D01*
X223933317Y-103269754D01*
X223934555Y-103270770D01*
X223956166Y-103282321D01*
X223979615Y-103289434D01*
X224004001Y-103291836D01*
X224028387Y-103289434D01*
X224051836Y-103282321D01*
X224073447Y-103270770D01*
X224092389Y-103255225D01*
X224107934Y-103236283D01*
X224119485Y-103214672D01*
X224126598Y-103191223D01*
X224129000Y-103166837D01*
X224129000Y-102875000D01*
X225391000Y-102875000D01*
X225391000Y-109977000D01*
G37*
G36*
X255096674Y-108353465D02*
G01*
X255134367Y-108364899D01*
X255169103Y-108383466D01*
X255199548Y-108408452D01*
X255224534Y-108438897D01*
X255243101Y-108473633D01*
X255254535Y-108511326D01*
X255259000Y-108556661D01*
X255259000Y-109393339D01*
X255254535Y-109438674D01*
X255243101Y-109476367D01*
X255224534Y-109511103D01*
X255199548Y-109541548D01*
X255169103Y-109566534D01*
X255134367Y-109585101D01*
X255096674Y-109596535D01*
X255051339Y-109601000D01*
X253964661Y-109601000D01*
X253919326Y-109596535D01*
X253881633Y-109585101D01*
X253846897Y-109566534D01*
X253816452Y-109541548D01*
X253791466Y-109511103D01*
X253772899Y-109476367D01*
X253761465Y-109438674D01*
X253757000Y-109393339D01*
X253757000Y-108556661D01*
X253761465Y-108511326D01*
X253772899Y-108473633D01*
X253791466Y-108438897D01*
X253816452Y-108408452D01*
X253846897Y-108383466D01*
X253881633Y-108364899D01*
X253919326Y-108353465D01*
X253964661Y-108349000D01*
X255051339Y-108349000D01*
X255096674Y-108353465D01*
G37*
G36*
X251135000Y-108666000D02*
G01*
X242133000Y-108666000D01*
X242133000Y-106814000D01*
X251135000Y-106814000D01*
X251135000Y-108666000D01*
G37*
G36*
X259240831Y-104953841D02*
G01*
X259385826Y-104982682D01*
X259498974Y-105029550D01*
X259658989Y-105095830D01*
X259658990Y-105095831D01*
X259904832Y-105260097D01*
X260113903Y-105469168D01*
X260196594Y-105592924D01*
X260278170Y-105715011D01*
X260391318Y-105988175D01*
X260449000Y-106278163D01*
X260449000Y-106573837D01*
X260391318Y-106863825D01*
X260278170Y-107136989D01*
X260278169Y-107136990D01*
X260113903Y-107382832D01*
X259904832Y-107591903D01*
X259781076Y-107674594D01*
X259658989Y-107756170D01*
X259498974Y-107822450D01*
X259385826Y-107869318D01*
X259240831Y-107898159D01*
X259095837Y-107927000D01*
X258800163Y-107927000D01*
X258655169Y-107898159D01*
X258510174Y-107869318D01*
X258397026Y-107822450D01*
X258237011Y-107756170D01*
X258114924Y-107674594D01*
X257991168Y-107591903D01*
X257782097Y-107382832D01*
X257617831Y-107136990D01*
X257617830Y-107136989D01*
X257504682Y-106863825D01*
X257447000Y-106573837D01*
X257447000Y-106278163D01*
X257504682Y-105988175D01*
X257617830Y-105715011D01*
X257699406Y-105592924D01*
X257782097Y-105469168D01*
X257991168Y-105260097D01*
X258237010Y-105095831D01*
X258237011Y-105095830D01*
X258397026Y-105029550D01*
X258510174Y-104982682D01*
X258655169Y-104953841D01*
X258800163Y-104925000D01*
X259095837Y-104925000D01*
X259240831Y-104953841D01*
G37*
G36*
X255096674Y-106303465D02*
G01*
X255134367Y-106314899D01*
X255169103Y-106333466D01*
X255199548Y-106358452D01*
X255224534Y-106388897D01*
X255243101Y-106423633D01*
X255254535Y-106461326D01*
X255259000Y-106506661D01*
X255259000Y-107343339D01*
X255254535Y-107388674D01*
X255243101Y-107426367D01*
X255224534Y-107461103D01*
X255199548Y-107491548D01*
X255169103Y-107516534D01*
X255134367Y-107535101D01*
X255096674Y-107546535D01*
X255051339Y-107551000D01*
X253964661Y-107551000D01*
X253919326Y-107546535D01*
X253881633Y-107535101D01*
X253846897Y-107516534D01*
X253816452Y-107491548D01*
X253791466Y-107461103D01*
X253772899Y-107426367D01*
X253761465Y-107388674D01*
X253757000Y-107343339D01*
X253757000Y-106506661D01*
X253761465Y-106461326D01*
X253772899Y-106423633D01*
X253791466Y-106388897D01*
X253816452Y-106358452D01*
X253846897Y-106333466D01*
X253881633Y-106314899D01*
X253919326Y-106303465D01*
X253964661Y-106299000D01*
X255051339Y-106299000D01*
X255096674Y-106303465D01*
G37*
G36*
X263795985Y-100909860D02*
G01*
X263908748Y-100932290D01*
X264040741Y-100986963D01*
X264227408Y-101064283D01*
X264514196Y-101255909D01*
X264758091Y-101499804D01*
X264949717Y-101786592D01*
X265019467Y-101954985D01*
X265072864Y-102083895D01*
X265081710Y-102105253D01*
X265149000Y-102443540D01*
X265149000Y-102788460D01*
X265133928Y-102864229D01*
X265081710Y-103126748D01*
X265041452Y-103223939D01*
X264949717Y-103445408D01*
X264758091Y-103732196D01*
X264514196Y-103976091D01*
X264227408Y-104167717D01*
X264040741Y-104245037D01*
X263908748Y-104299710D01*
X263795985Y-104322140D01*
X263570460Y-104367000D01*
X263225540Y-104367000D01*
X263000015Y-104322140D01*
X262887252Y-104299710D01*
X262755259Y-104245037D01*
X262568592Y-104167717D01*
X262281804Y-103976091D01*
X262037909Y-103732196D01*
X261846283Y-103445408D01*
X261754548Y-103223939D01*
X261714290Y-103126748D01*
X261662072Y-102864229D01*
X261647000Y-102788460D01*
X261647000Y-102443540D01*
X261714290Y-102105253D01*
X261723137Y-102083895D01*
X261776533Y-101954985D01*
X261846283Y-101786592D01*
X262037909Y-101499804D01*
X262281804Y-101255909D01*
X262568592Y-101064283D01*
X262755259Y-100986963D01*
X262887252Y-100932290D01*
X263000015Y-100909860D01*
X263225540Y-100865000D01*
X263570460Y-100865000D01*
X263795985Y-100909860D01*
G37*
G36*
X272536228Y-101797703D02*
G01*
X272691100Y-101861853D01*
X272830481Y-101954985D01*
X272949015Y-102073519D01*
X273042147Y-102212900D01*
X273106297Y-102367772D01*
X273139000Y-102532184D01*
X273139000Y-102699816D01*
X273106297Y-102864228D01*
X273042147Y-103019100D01*
X272949015Y-103158481D01*
X272830481Y-103277015D01*
X272691100Y-103370147D01*
X272536228Y-103434297D01*
X272371816Y-103467000D01*
X272204184Y-103467000D01*
X272039772Y-103434297D01*
X271884900Y-103370147D01*
X271745519Y-103277015D01*
X271626985Y-103158481D01*
X271533853Y-103019100D01*
X271469703Y-102864228D01*
X271437000Y-102699816D01*
X271437000Y-102532184D01*
X271469703Y-102367772D01*
X271533853Y-102212900D01*
X271626985Y-102073519D01*
X271745519Y-101954985D01*
X271884900Y-101861853D01*
X272039772Y-101797703D01*
X272204184Y-101765000D01*
X272371816Y-101765000D01*
X272536228Y-101797703D01*
G37*
G36*
X255283562Y-101820181D02*
G01*
X255318481Y-101830774D01*
X255350663Y-101847976D01*
X255378873Y-101871127D01*
X255402024Y-101899337D01*
X255419226Y-101931519D01*
X255429819Y-101966438D01*
X255434000Y-102008895D01*
X255434000Y-103150105D01*
X255429819Y-103192562D01*
X255419226Y-103227481D01*
X255402024Y-103259663D01*
X255378873Y-103287873D01*
X255350663Y-103311024D01*
X255318481Y-103328226D01*
X255283562Y-103338819D01*
X255241105Y-103343000D01*
X253774895Y-103343000D01*
X253732438Y-103338819D01*
X253697519Y-103328226D01*
X253665337Y-103311024D01*
X253637127Y-103287873D01*
X253613976Y-103259663D01*
X253596774Y-103227481D01*
X253586181Y-103192562D01*
X253582000Y-103150105D01*
X253582000Y-102008895D01*
X253586181Y-101966438D01*
X253596774Y-101931519D01*
X253613976Y-101899337D01*
X253637127Y-101871127D01*
X253665337Y-101847976D01*
X253697519Y-101830774D01*
X253732438Y-101820181D01*
X253774895Y-101816000D01*
X255241105Y-101816000D01*
X255283562Y-101820181D01*
G37*
G36*
X224828213Y-101612249D02*
G01*
X224922652Y-101640897D01*
X225009687Y-101687418D01*
X225085975Y-101750025D01*
X225148582Y-101826313D01*
X225195103Y-101913348D01*
X225223751Y-102007787D01*
X225233424Y-102106000D01*
X225223751Y-102204213D01*
X225195103Y-102298652D01*
X225148582Y-102385687D01*
X225085975Y-102461975D01*
X225009687Y-102524582D01*
X224922652Y-102571103D01*
X224828213Y-102599751D01*
X224754612Y-102607000D01*
X223605388Y-102607000D01*
X223531787Y-102599751D01*
X223437348Y-102571103D01*
X223350313Y-102524582D01*
X223274025Y-102461975D01*
X223211418Y-102385687D01*
X223164897Y-102298652D01*
X223136249Y-102204213D01*
X223126576Y-102106000D01*
X223136249Y-102007787D01*
X223164897Y-101913348D01*
X223211418Y-101826313D01*
X223274025Y-101750025D01*
X223350313Y-101687418D01*
X223437348Y-101640897D01*
X223531787Y-101612249D01*
X223605388Y-101605000D01*
X224754612Y-101605000D01*
X224828213Y-101612249D01*
G37*
G36*
X220508213Y-101612249D02*
G01*
X220602652Y-101640897D01*
X220689687Y-101687418D01*
X220765975Y-101750025D01*
X220828582Y-101826313D01*
X220875103Y-101913348D01*
X220903751Y-102007787D01*
X220913424Y-102106000D01*
X220903751Y-102204213D01*
X220875103Y-102298652D01*
X220828582Y-102385687D01*
X220765975Y-102461975D01*
X220689687Y-102524582D01*
X220602652Y-102571103D01*
X220508213Y-102599751D01*
X220434612Y-102607000D01*
X219585388Y-102607000D01*
X219511787Y-102599751D01*
X219417348Y-102571103D01*
X219330313Y-102524582D01*
X219254025Y-102461975D01*
X219191418Y-102385687D01*
X219144897Y-102298652D01*
X219116249Y-102204213D01*
X219106576Y-102106000D01*
X219116249Y-102007787D01*
X219144897Y-101913348D01*
X219191418Y-101826313D01*
X219254025Y-101750025D01*
X219330313Y-101687418D01*
X219417348Y-101640897D01*
X219511787Y-101612249D01*
X219585388Y-101605000D01*
X220434612Y-101605000D01*
X220508213Y-101612249D01*
G37*
G36*
X251135000Y-101466000D02*
G01*
X242133000Y-101466000D01*
X242133000Y-99614000D01*
X251135000Y-99614000D01*
X251135000Y-101466000D01*
G37*
G36*
X255283562Y-98845181D02*
G01*
X255318481Y-98855774D01*
X255350663Y-98872976D01*
X255378873Y-98896127D01*
X255402024Y-98924337D01*
X255419226Y-98956519D01*
X255429819Y-98991438D01*
X255434000Y-99033895D01*
X255434000Y-100175105D01*
X255429819Y-100217562D01*
X255419226Y-100252481D01*
X255402024Y-100284663D01*
X255378873Y-100312873D01*
X255350663Y-100336024D01*
X255318481Y-100353226D01*
X255283562Y-100363819D01*
X255241105Y-100368000D01*
X253774895Y-100368000D01*
X253732438Y-100363819D01*
X253697519Y-100353226D01*
X253665337Y-100336024D01*
X253637127Y-100312873D01*
X253613976Y-100284663D01*
X253596774Y-100252481D01*
X253586181Y-100217562D01*
X253582000Y-100175105D01*
X253582000Y-99033895D01*
X253586181Y-98991438D01*
X253596774Y-98956519D01*
X253613976Y-98924337D01*
X253637127Y-98896127D01*
X253665337Y-98872976D01*
X253697519Y-98855774D01*
X253732438Y-98845181D01*
X253774895Y-98841000D01*
X255241105Y-98841000D01*
X255283562Y-98845181D01*
G37*
G36*
X220585512Y-98417927D02*
G01*
X220734812Y-98447624D01*
X220898784Y-98515544D01*
X221046354Y-98614147D01*
X221171853Y-98739646D01*
X221270456Y-98887216D01*
X221338376Y-99051188D01*
X221373000Y-99225259D01*
X221373000Y-99402741D01*
X221338376Y-99576812D01*
X221270456Y-99740784D01*
X221171853Y-99888354D01*
X221046354Y-100013853D01*
X220898784Y-100112456D01*
X220734812Y-100180376D01*
X220585512Y-100210073D01*
X220560742Y-100215000D01*
X220383258Y-100215000D01*
X220358488Y-100210073D01*
X220209188Y-100180376D01*
X220045216Y-100112456D01*
X219897646Y-100013853D01*
X219772147Y-99888354D01*
X219673544Y-99740784D01*
X219605624Y-99576812D01*
X219571000Y-99402741D01*
X219571000Y-99225259D01*
X219605624Y-99051188D01*
X219673544Y-98887216D01*
X219772147Y-98739646D01*
X219897646Y-98614147D01*
X220045216Y-98515544D01*
X220209188Y-98447624D01*
X220358488Y-98417927D01*
X220383258Y-98413000D01*
X220560742Y-98413000D01*
X220585512Y-98417927D01*
G37*
G36*
X244829674Y-97551465D02*
G01*
X244867367Y-97562899D01*
X244902103Y-97581466D01*
X244932548Y-97606452D01*
X244957534Y-97636897D01*
X244976101Y-97671633D01*
X244987535Y-97709326D01*
X244992000Y-97754661D01*
X244992000Y-98841339D01*
X244987535Y-98886674D01*
X244976101Y-98924367D01*
X244957534Y-98959103D01*
X244932548Y-98989548D01*
X244902103Y-99014534D01*
X244867367Y-99033101D01*
X244829674Y-99044535D01*
X244784339Y-99049000D01*
X243947661Y-99049000D01*
X243902326Y-99044535D01*
X243864633Y-99033101D01*
X243829897Y-99014534D01*
X243799452Y-98989548D01*
X243774466Y-98959103D01*
X243755899Y-98924367D01*
X243744465Y-98886674D01*
X243740000Y-98841339D01*
X243740000Y-97754661D01*
X243744465Y-97709326D01*
X243755899Y-97671633D01*
X243774466Y-97636897D01*
X243799452Y-97606452D01*
X243829897Y-97581466D01*
X243864633Y-97562899D01*
X243902326Y-97551465D01*
X243947661Y-97547000D01*
X244784339Y-97547000D01*
X244829674Y-97551465D01*
G37*
G36*
X248621674Y-97551465D02*
G01*
X248659367Y-97562899D01*
X248694103Y-97581466D01*
X248724548Y-97606452D01*
X248749534Y-97636897D01*
X248768101Y-97671633D01*
X248779535Y-97709326D01*
X248784000Y-97754661D01*
X248784000Y-98841339D01*
X248779535Y-98886674D01*
X248768101Y-98924367D01*
X248749534Y-98959103D01*
X248724548Y-98989548D01*
X248694103Y-99014534D01*
X248659367Y-99033101D01*
X248621674Y-99044535D01*
X248576339Y-99049000D01*
X247739661Y-99049000D01*
X247694326Y-99044535D01*
X247656633Y-99033101D01*
X247621897Y-99014534D01*
X247591452Y-98989548D01*
X247566466Y-98959103D01*
X247547899Y-98924367D01*
X247536465Y-98886674D01*
X247532000Y-98841339D01*
X247532000Y-97754661D01*
X247536465Y-97709326D01*
X247547899Y-97671633D01*
X247566466Y-97636897D01*
X247591452Y-97606452D01*
X247621897Y-97581466D01*
X247656633Y-97562899D01*
X247694326Y-97551465D01*
X247739661Y-97547000D01*
X248576339Y-97547000D01*
X248621674Y-97551465D01*
G37*
G36*
X242779674Y-97551465D02*
G01*
X242817367Y-97562899D01*
X242852103Y-97581466D01*
X242882548Y-97606452D01*
X242907534Y-97636897D01*
X242926101Y-97671633D01*
X242937535Y-97709326D01*
X242942000Y-97754661D01*
X242942000Y-98841339D01*
X242937535Y-98886674D01*
X242926101Y-98924367D01*
X242907534Y-98959103D01*
X242882548Y-98989548D01*
X242852103Y-99014534D01*
X242817367Y-99033101D01*
X242779674Y-99044535D01*
X242734339Y-99049000D01*
X241897661Y-99049000D01*
X241852326Y-99044535D01*
X241814633Y-99033101D01*
X241779897Y-99014534D01*
X241749452Y-98989548D01*
X241724466Y-98959103D01*
X241705899Y-98924367D01*
X241694465Y-98886674D01*
X241690000Y-98841339D01*
X241690000Y-97754661D01*
X241694465Y-97709326D01*
X241705899Y-97671633D01*
X241724466Y-97636897D01*
X241749452Y-97606452D01*
X241779897Y-97581466D01*
X241814633Y-97562899D01*
X241852326Y-97551465D01*
X241897661Y-97547000D01*
X242734339Y-97547000D01*
X242779674Y-97551465D01*
G37*
G36*
X246571674Y-97551465D02*
G01*
X246609367Y-97562899D01*
X246644103Y-97581466D01*
X246674548Y-97606452D01*
X246699534Y-97636897D01*
X246718101Y-97671633D01*
X246729535Y-97709326D01*
X246734000Y-97754661D01*
X246734000Y-98841339D01*
X246729535Y-98886674D01*
X246718101Y-98924367D01*
X246699534Y-98959103D01*
X246674548Y-98989548D01*
X246644103Y-99014534D01*
X246609367Y-99033101D01*
X246571674Y-99044535D01*
X246526339Y-99049000D01*
X245689661Y-99049000D01*
X245644326Y-99044535D01*
X245606633Y-99033101D01*
X245571897Y-99014534D01*
X245541452Y-98989548D01*
X245516466Y-98959103D01*
X245497899Y-98924367D01*
X245486465Y-98886674D01*
X245482000Y-98841339D01*
X245482000Y-97754661D01*
X245486465Y-97709326D01*
X245497899Y-97671633D01*
X245516466Y-97636897D01*
X245541452Y-97606452D01*
X245571897Y-97581466D01*
X245606633Y-97562899D01*
X245644326Y-97551465D01*
X245689661Y-97547000D01*
X246526339Y-97547000D01*
X246571674Y-97551465D01*
G37*
G36*
X221373000Y-97675000D02*
G01*
X219571000Y-97675000D01*
X219571000Y-95873000D01*
X221373000Y-95873000D01*
X221373000Y-97675000D01*
G37*
G36*
X255274474Y-89532065D02*
G01*
X255312167Y-89543499D01*
X255346903Y-89562066D01*
X255377348Y-89587052D01*
X255402334Y-89617497D01*
X255420901Y-89652233D01*
X255432335Y-89689926D01*
X255436800Y-89735261D01*
X255436800Y-90571939D01*
X255432335Y-90617274D01*
X255420901Y-90654967D01*
X255402334Y-90689703D01*
X255377348Y-90720148D01*
X255346903Y-90745134D01*
X255312167Y-90763701D01*
X255274474Y-90775135D01*
X255229139Y-90779600D01*
X254142461Y-90779600D01*
X254097126Y-90775135D01*
X254059433Y-90763701D01*
X254024697Y-90745134D01*
X253994252Y-90720148D01*
X253969266Y-90689703D01*
X253950699Y-90654967D01*
X253939265Y-90617274D01*
X253934800Y-90571939D01*
X253934800Y-89735261D01*
X253939265Y-89689926D01*
X253950699Y-89652233D01*
X253969266Y-89617497D01*
X253994252Y-89587052D01*
X254024697Y-89562066D01*
X254059433Y-89543499D01*
X254097126Y-89532065D01*
X254142461Y-89527600D01*
X255229139Y-89527600D01*
X255274474Y-89532065D01*
G37*
G36*
X243666674Y-89303465D02*
G01*
X243704367Y-89314899D01*
X243739103Y-89333466D01*
X243769548Y-89358452D01*
X243794534Y-89388897D01*
X243813101Y-89423633D01*
X243824535Y-89461326D01*
X243829000Y-89506661D01*
X243829000Y-90343339D01*
X243824535Y-90388674D01*
X243813101Y-90426367D01*
X243794534Y-90461103D01*
X243769548Y-90491548D01*
X243739103Y-90516534D01*
X243704367Y-90535101D01*
X243666674Y-90546535D01*
X243621339Y-90551000D01*
X242534661Y-90551000D01*
X242489326Y-90546535D01*
X242451633Y-90535101D01*
X242416897Y-90516534D01*
X242386452Y-90491548D01*
X242361466Y-90461103D01*
X242342899Y-90426367D01*
X242331465Y-90388674D01*
X242327000Y-90343339D01*
X242327000Y-89506661D01*
X242331465Y-89461326D01*
X242342899Y-89423633D01*
X242361466Y-89388897D01*
X242386452Y-89358452D01*
X242416897Y-89333466D01*
X242451633Y-89314899D01*
X242489326Y-89303465D01*
X242534661Y-89299000D01*
X243621339Y-89299000D01*
X243666674Y-89303465D01*
G37*
G36*
X221909997Y-88307051D02*
G01*
X221943652Y-88317261D01*
X221974665Y-88333838D01*
X222001851Y-88356149D01*
X222024162Y-88383335D01*
X222040739Y-88414348D01*
X222050949Y-88448003D01*
X222055000Y-88489138D01*
X222055000Y-89818862D01*
X222050949Y-89859997D01*
X222040739Y-89893652D01*
X222024162Y-89924665D01*
X222001851Y-89951851D01*
X221974665Y-89974162D01*
X221943652Y-89990739D01*
X221909997Y-90000949D01*
X221868862Y-90005000D01*
X219539138Y-90005000D01*
X219498003Y-90000949D01*
X219464348Y-89990739D01*
X219433335Y-89974162D01*
X219406149Y-89951851D01*
X219383838Y-89924665D01*
X219367261Y-89893652D01*
X219357051Y-89859997D01*
X219353000Y-89818862D01*
X219353000Y-88489138D01*
X219357051Y-88448003D01*
X219367261Y-88414348D01*
X219383838Y-88383335D01*
X219406149Y-88356149D01*
X219433335Y-88333838D01*
X219464348Y-88317261D01*
X219498003Y-88307051D01*
X219539138Y-88303000D01*
X221868862Y-88303000D01*
X221909997Y-88307051D01*
G37*
G36*
X225509997Y-88307051D02*
G01*
X225543652Y-88317261D01*
X225574665Y-88333838D01*
X225601851Y-88356149D01*
X225624162Y-88383335D01*
X225640739Y-88414348D01*
X225650949Y-88448003D01*
X225655000Y-88489138D01*
X225655000Y-89818862D01*
X225650949Y-89859997D01*
X225640739Y-89893652D01*
X225624162Y-89924665D01*
X225601851Y-89951851D01*
X225574665Y-89974162D01*
X225543652Y-89990739D01*
X225509997Y-90000949D01*
X225468862Y-90005000D01*
X223139138Y-90005000D01*
X223098003Y-90000949D01*
X223064348Y-89990739D01*
X223033335Y-89974162D01*
X223006149Y-89951851D01*
X222983838Y-89924665D01*
X222967261Y-89893652D01*
X222957051Y-89859997D01*
X222953000Y-89818862D01*
X222953000Y-88489138D01*
X222957051Y-88448003D01*
X222967261Y-88414348D01*
X222983838Y-88383335D01*
X223006149Y-88356149D01*
X223033335Y-88333838D01*
X223064348Y-88317261D01*
X223098003Y-88307051D01*
X223139138Y-88303000D01*
X225468862Y-88303000D01*
X225509997Y-88307051D01*
G37*
G36*
X247887928Y-88932764D02*
G01*
X247909009Y-88939160D01*
X247928445Y-88949548D01*
X247945476Y-88963524D01*
X247959452Y-88980555D01*
X247969840Y-88999991D01*
X247976236Y-89021072D01*
X247979000Y-89049140D01*
X247979000Y-89512860D01*
X247976236Y-89540928D01*
X247969840Y-89562009D01*
X247959452Y-89581445D01*
X247945476Y-89598476D01*
X247928445Y-89612452D01*
X247909009Y-89622840D01*
X247887928Y-89629236D01*
X247859860Y-89632000D01*
X246046140Y-89632000D01*
X246018072Y-89629236D01*
X245996991Y-89622840D01*
X245977555Y-89612452D01*
X245960524Y-89598476D01*
X245946548Y-89581445D01*
X245936160Y-89562009D01*
X245929764Y-89540928D01*
X245927000Y-89512860D01*
X245927000Y-89049140D01*
X245929764Y-89021072D01*
X245936160Y-88999991D01*
X245946548Y-88980555D01*
X245960524Y-88963524D01*
X245977555Y-88949548D01*
X245996991Y-88939160D01*
X246018072Y-88932764D01*
X246046140Y-88930000D01*
X247859860Y-88930000D01*
X247887928Y-88932764D01*
G37*
G36*
X252837928Y-88932764D02*
G01*
X252859009Y-88939160D01*
X252878445Y-88949548D01*
X252895476Y-88963524D01*
X252909452Y-88980555D01*
X252919840Y-88999991D01*
X252926236Y-89021072D01*
X252929000Y-89049140D01*
X252929000Y-89512860D01*
X252926236Y-89540928D01*
X252919840Y-89562009D01*
X252909452Y-89581445D01*
X252895476Y-89598476D01*
X252878445Y-89612452D01*
X252859009Y-89622840D01*
X252837928Y-89629236D01*
X252809860Y-89632000D01*
X250996140Y-89632000D01*
X250968072Y-89629236D01*
X250946991Y-89622840D01*
X250927555Y-89612452D01*
X250910524Y-89598476D01*
X250896548Y-89581445D01*
X250886160Y-89562009D01*
X250879764Y-89540928D01*
X250877000Y-89512860D01*
X250877000Y-89049140D01*
X250879764Y-89021072D01*
X250886160Y-88999991D01*
X250896548Y-88980555D01*
X250910524Y-88963524D01*
X250927555Y-88949548D01*
X250946991Y-88939160D01*
X250968072Y-88932764D01*
X250996140Y-88930000D01*
X252809860Y-88930000D01*
X252837928Y-88932764D01*
G37*
G36*
X255274474Y-87482065D02*
G01*
X255312167Y-87493499D01*
X255346903Y-87512066D01*
X255377348Y-87537052D01*
X255402334Y-87567497D01*
X255420901Y-87602233D01*
X255432335Y-87639926D01*
X255436800Y-87685261D01*
X255436800Y-88521939D01*
X255432335Y-88567274D01*
X255420901Y-88604967D01*
X255402334Y-88639703D01*
X255377348Y-88670148D01*
X255346903Y-88695134D01*
X255312167Y-88713701D01*
X255274474Y-88725135D01*
X255229139Y-88729600D01*
X254142461Y-88729600D01*
X254097126Y-88725135D01*
X254059433Y-88713701D01*
X254024697Y-88695134D01*
X253994252Y-88670148D01*
X253969266Y-88639703D01*
X253950699Y-88604967D01*
X253939265Y-88567274D01*
X253934800Y-88521939D01*
X253934800Y-87685261D01*
X253939265Y-87639926D01*
X253950699Y-87602233D01*
X253969266Y-87567497D01*
X253994252Y-87537052D01*
X254024697Y-87512066D01*
X254059433Y-87493499D01*
X254097126Y-87482065D01*
X254142461Y-87477600D01*
X255229139Y-87477600D01*
X255274474Y-87482065D01*
G37*
G36*
X243666674Y-87253465D02*
G01*
X243704367Y-87264899D01*
X243739103Y-87283466D01*
X243769548Y-87308452D01*
X243794534Y-87338897D01*
X243813101Y-87373633D01*
X243824535Y-87411326D01*
X243829000Y-87456661D01*
X243829000Y-88293339D01*
X243824535Y-88338674D01*
X243813101Y-88376367D01*
X243794534Y-88411103D01*
X243769548Y-88441548D01*
X243739103Y-88466534D01*
X243704367Y-88485101D01*
X243666674Y-88496535D01*
X243621339Y-88501000D01*
X242534661Y-88501000D01*
X242489326Y-88496535D01*
X242451633Y-88485101D01*
X242416897Y-88466534D01*
X242386452Y-88441548D01*
X242361466Y-88411103D01*
X242342899Y-88376367D01*
X242331465Y-88338674D01*
X242327000Y-88293339D01*
X242327000Y-87456661D01*
X242331465Y-87411326D01*
X242342899Y-87373633D01*
X242361466Y-87338897D01*
X242386452Y-87308452D01*
X242416897Y-87283466D01*
X242451633Y-87264899D01*
X242489326Y-87253465D01*
X242534661Y-87249000D01*
X243621339Y-87249000D01*
X243666674Y-87253465D01*
G37*
G36*
X252837928Y-87662764D02*
G01*
X252859009Y-87669160D01*
X252878445Y-87679548D01*
X252895476Y-87693524D01*
X252909452Y-87710555D01*
X252919840Y-87729991D01*
X252926236Y-87751072D01*
X252929000Y-87779140D01*
X252929000Y-88242860D01*
X252926236Y-88270928D01*
X252919840Y-88292009D01*
X252909452Y-88311445D01*
X252895476Y-88328476D01*
X252878445Y-88342452D01*
X252859009Y-88352840D01*
X252837928Y-88359236D01*
X252809860Y-88362000D01*
X250996140Y-88362000D01*
X250968072Y-88359236D01*
X250946991Y-88352840D01*
X250927555Y-88342452D01*
X250910524Y-88328476D01*
X250896548Y-88311445D01*
X250886160Y-88292009D01*
X250879764Y-88270928D01*
X250877000Y-88242860D01*
X250877000Y-87779140D01*
X250879764Y-87751072D01*
X250886160Y-87729991D01*
X250896548Y-87710555D01*
X250910524Y-87693524D01*
X250927555Y-87679548D01*
X250946991Y-87669160D01*
X250968072Y-87662764D01*
X250996140Y-87660000D01*
X252809860Y-87660000D01*
X252837928Y-87662764D01*
G37*
G36*
X247887928Y-87662764D02*
G01*
X247909009Y-87669160D01*
X247928445Y-87679548D01*
X247945476Y-87693524D01*
X247959452Y-87710555D01*
X247969840Y-87729991D01*
X247976236Y-87751072D01*
X247979000Y-87779140D01*
X247979000Y-88242860D01*
X247976236Y-88270928D01*
X247969840Y-88292009D01*
X247959452Y-88311445D01*
X247945476Y-88328476D01*
X247928445Y-88342452D01*
X247909009Y-88352840D01*
X247887928Y-88359236D01*
X247859860Y-88362000D01*
X246046140Y-88362000D01*
X246018072Y-88359236D01*
X245996991Y-88352840D01*
X245977555Y-88342452D01*
X245960524Y-88328476D01*
X245946548Y-88311445D01*
X245936160Y-88292009D01*
X245929764Y-88270928D01*
X245927000Y-88242860D01*
X245927000Y-87779140D01*
X245929764Y-87751072D01*
X245936160Y-87729991D01*
X245946548Y-87710555D01*
X245960524Y-87693524D01*
X245977555Y-87679548D01*
X245996991Y-87669160D01*
X246018072Y-87662764D01*
X246046140Y-87660000D01*
X247859860Y-87660000D01*
X247887928Y-87662764D01*
G37*
G36*
X252837928Y-86392764D02*
G01*
X252859009Y-86399160D01*
X252878445Y-86409548D01*
X252895476Y-86423524D01*
X252909452Y-86440555D01*
X252919840Y-86459991D01*
X252926236Y-86481072D01*
X252929000Y-86509140D01*
X252929000Y-86972860D01*
X252926236Y-87000928D01*
X252919840Y-87022009D01*
X252909452Y-87041445D01*
X252895476Y-87058476D01*
X252878445Y-87072452D01*
X252859009Y-87082840D01*
X252837928Y-87089236D01*
X252809860Y-87092000D01*
X250996140Y-87092000D01*
X250968072Y-87089236D01*
X250946991Y-87082840D01*
X250927555Y-87072452D01*
X250910524Y-87058476D01*
X250896548Y-87041445D01*
X250886160Y-87022009D01*
X250879764Y-87000928D01*
X250877000Y-86972860D01*
X250877000Y-86509140D01*
X250879764Y-86481072D01*
X250886160Y-86459991D01*
X250896548Y-86440555D01*
X250910524Y-86423524D01*
X250927555Y-86409548D01*
X250946991Y-86399160D01*
X250968072Y-86392764D01*
X250996140Y-86390000D01*
X252809860Y-86390000D01*
X252837928Y-86392764D01*
G37*
G36*
X247887928Y-86392764D02*
G01*
X247909009Y-86399160D01*
X247928445Y-86409548D01*
X247945476Y-86423524D01*
X247959452Y-86440555D01*
X247969840Y-86459991D01*
X247976236Y-86481072D01*
X247979000Y-86509140D01*
X247979000Y-86972860D01*
X247976236Y-87000928D01*
X247969840Y-87022009D01*
X247959452Y-87041445D01*
X247945476Y-87058476D01*
X247928445Y-87072452D01*
X247909009Y-87082840D01*
X247887928Y-87089236D01*
X247859860Y-87092000D01*
X246046140Y-87092000D01*
X246018072Y-87089236D01*
X245996991Y-87082840D01*
X245977555Y-87072452D01*
X245960524Y-87058476D01*
X245946548Y-87041445D01*
X245936160Y-87022009D01*
X245929764Y-87000928D01*
X245927000Y-86972860D01*
X245927000Y-86509140D01*
X245929764Y-86481072D01*
X245936160Y-86459991D01*
X245946548Y-86440555D01*
X245960524Y-86423524D01*
X245977555Y-86409548D01*
X245996991Y-86399160D01*
X246018072Y-86392764D01*
X246046140Y-86390000D01*
X247859860Y-86390000D01*
X247887928Y-86392764D01*
G37*
G36*
X255274474Y-85722065D02*
G01*
X255312167Y-85733499D01*
X255346903Y-85752066D01*
X255377348Y-85777052D01*
X255402334Y-85807497D01*
X255420901Y-85842233D01*
X255432335Y-85879926D01*
X255436800Y-85925261D01*
X255436800Y-86761939D01*
X255432335Y-86807274D01*
X255420901Y-86844967D01*
X255402334Y-86879703D01*
X255377348Y-86910148D01*
X255346903Y-86935134D01*
X255312167Y-86953701D01*
X255274474Y-86965135D01*
X255229139Y-86969600D01*
X254142461Y-86969600D01*
X254097126Y-86965135D01*
X254059433Y-86953701D01*
X254024697Y-86935134D01*
X253994252Y-86910148D01*
X253969266Y-86879703D01*
X253950699Y-86844967D01*
X253939265Y-86807274D01*
X253934800Y-86761939D01*
X253934800Y-85925261D01*
X253939265Y-85879926D01*
X253950699Y-85842233D01*
X253969266Y-85807497D01*
X253994252Y-85777052D01*
X254024697Y-85752066D01*
X254059433Y-85733499D01*
X254097126Y-85722065D01*
X254142461Y-85717600D01*
X255229139Y-85717600D01*
X255274474Y-85722065D01*
G37*
G36*
X263160985Y-83383860D02*
G01*
X263273748Y-83406290D01*
X263405741Y-83460963D01*
X263592408Y-83538283D01*
X263879196Y-83729909D01*
X264123091Y-83973804D01*
X264314717Y-84260592D01*
X264346060Y-84336261D01*
X264446710Y-84579252D01*
X264467326Y-84682897D01*
X264514000Y-84917540D01*
X264514000Y-85262460D01*
X264498928Y-85338229D01*
X264446710Y-85600748D01*
X264404414Y-85702860D01*
X264314717Y-85919408D01*
X264123091Y-86206196D01*
X263879196Y-86450091D01*
X263592408Y-86641717D01*
X263457911Y-86697427D01*
X263273748Y-86773710D01*
X263160985Y-86796140D01*
X262935460Y-86841000D01*
X262590540Y-86841000D01*
X262365015Y-86796140D01*
X262252252Y-86773710D01*
X262068089Y-86697427D01*
X261933592Y-86641717D01*
X261646804Y-86450091D01*
X261402909Y-86206196D01*
X261211283Y-85919408D01*
X261121586Y-85702860D01*
X261079290Y-85600748D01*
X261027072Y-85338229D01*
X261012000Y-85262460D01*
X261012000Y-84917540D01*
X261058674Y-84682897D01*
X261079290Y-84579252D01*
X261179940Y-84336261D01*
X261211283Y-84260592D01*
X261402909Y-83973804D01*
X261646804Y-83729909D01*
X261933592Y-83538283D01*
X262120259Y-83460963D01*
X262252252Y-83406290D01*
X262365015Y-83383860D01*
X262590540Y-83339000D01*
X262935460Y-83339000D01*
X263160985Y-83383860D01*
G37*
G36*
X220508213Y-85106249D02*
G01*
X220602652Y-85134897D01*
X220689687Y-85181418D01*
X220765975Y-85244025D01*
X220828582Y-85320313D01*
X220875103Y-85407348D01*
X220903751Y-85501787D01*
X220913424Y-85600000D01*
X220903751Y-85698213D01*
X220875103Y-85792652D01*
X220828582Y-85879687D01*
X220765975Y-85955975D01*
X220689687Y-86018582D01*
X220602652Y-86065103D01*
X220508213Y-86093751D01*
X220434612Y-86101000D01*
X219585388Y-86101000D01*
X219511787Y-86093751D01*
X219417348Y-86065103D01*
X219330313Y-86018582D01*
X219254025Y-85955975D01*
X219191418Y-85879687D01*
X219144897Y-85792652D01*
X219116249Y-85698213D01*
X219106576Y-85600000D01*
X219116249Y-85501787D01*
X219144897Y-85407348D01*
X219191418Y-85320313D01*
X219254025Y-85244025D01*
X219330313Y-85181418D01*
X219417348Y-85134897D01*
X219511787Y-85106249D01*
X219585388Y-85099000D01*
X220434612Y-85099000D01*
X220508213Y-85106249D01*
G37*
G36*
X224828213Y-85106249D02*
G01*
X224922652Y-85134897D01*
X225009687Y-85181418D01*
X225085975Y-85244025D01*
X225148582Y-85320313D01*
X225195103Y-85407348D01*
X225223751Y-85501787D01*
X225233424Y-85600000D01*
X225223751Y-85698213D01*
X225195103Y-85792652D01*
X225148582Y-85879687D01*
X225085975Y-85955975D01*
X225009687Y-86018582D01*
X224922652Y-86065103D01*
X224828213Y-86093751D01*
X224754612Y-86101000D01*
X223605388Y-86101000D01*
X223531787Y-86093751D01*
X223437348Y-86065103D01*
X223350313Y-86018582D01*
X223274025Y-85955975D01*
X223211418Y-85879687D01*
X223164897Y-85792652D01*
X223136249Y-85698213D01*
X223126576Y-85600000D01*
X223136249Y-85501787D01*
X223164897Y-85407348D01*
X223211418Y-85320313D01*
X223274025Y-85244025D01*
X223350313Y-85181418D01*
X223437348Y-85134897D01*
X223531787Y-85106249D01*
X223605388Y-85099000D01*
X224754612Y-85099000D01*
X224828213Y-85106249D01*
G37*
G36*
X242262674Y-84597465D02*
G01*
X242300367Y-84608899D01*
X242335103Y-84627466D01*
X242365548Y-84652452D01*
X242390534Y-84682897D01*
X242409101Y-84717633D01*
X242420535Y-84755326D01*
X242425000Y-84800661D01*
X242425000Y-85887339D01*
X242420535Y-85932674D01*
X242409101Y-85970367D01*
X242390534Y-86005103D01*
X242365548Y-86035548D01*
X242335103Y-86060534D01*
X242300367Y-86079101D01*
X242262674Y-86090535D01*
X242217339Y-86095000D01*
X241380661Y-86095000D01*
X241335326Y-86090535D01*
X241297633Y-86079101D01*
X241262897Y-86060534D01*
X241232452Y-86035548D01*
X241207466Y-86005103D01*
X241188899Y-85970367D01*
X241177465Y-85932674D01*
X241173000Y-85887339D01*
X241173000Y-84800661D01*
X241177465Y-84755326D01*
X241188899Y-84717633D01*
X241207466Y-84682897D01*
X241232452Y-84652452D01*
X241262897Y-84627466D01*
X241297633Y-84608899D01*
X241335326Y-84597465D01*
X241380661Y-84593000D01*
X242217339Y-84593000D01*
X242262674Y-84597465D01*
G37*
G36*
X244312674Y-84597465D02*
G01*
X244350367Y-84608899D01*
X244385103Y-84627466D01*
X244415548Y-84652452D01*
X244440534Y-84682897D01*
X244459101Y-84717633D01*
X244470535Y-84755326D01*
X244475000Y-84800661D01*
X244475000Y-85887339D01*
X244470535Y-85932674D01*
X244459101Y-85970367D01*
X244440534Y-86005103D01*
X244415548Y-86035548D01*
X244385103Y-86060534D01*
X244350367Y-86079101D01*
X244312674Y-86090535D01*
X244267339Y-86095000D01*
X243430661Y-86095000D01*
X243385326Y-86090535D01*
X243347633Y-86079101D01*
X243312897Y-86060534D01*
X243282452Y-86035548D01*
X243257466Y-86005103D01*
X243238899Y-85970367D01*
X243227465Y-85932674D01*
X243223000Y-85887339D01*
X243223000Y-84800661D01*
X243227465Y-84755326D01*
X243238899Y-84717633D01*
X243257466Y-84682897D01*
X243282452Y-84652452D01*
X243312897Y-84627466D01*
X243347633Y-84608899D01*
X243385326Y-84597465D01*
X243430661Y-84593000D01*
X244267339Y-84593000D01*
X244312674Y-84597465D01*
G37*
G36*
X267456228Y-84271703D02*
G01*
X267611100Y-84335853D01*
X267750481Y-84428985D01*
X267869015Y-84547519D01*
X267962147Y-84686900D01*
X268026297Y-84841772D01*
X268059000Y-85006184D01*
X268059000Y-85173816D01*
X268026297Y-85338228D01*
X267962147Y-85493100D01*
X267869015Y-85632481D01*
X267750481Y-85751015D01*
X267611100Y-85844147D01*
X267456228Y-85908297D01*
X267291816Y-85941000D01*
X267124184Y-85941000D01*
X266959772Y-85908297D01*
X266804900Y-85844147D01*
X266665519Y-85751015D01*
X266546985Y-85632481D01*
X266453853Y-85493100D01*
X266389703Y-85338228D01*
X266357000Y-85173816D01*
X266357000Y-85006184D01*
X266389703Y-84841772D01*
X266453853Y-84686900D01*
X266546985Y-84547519D01*
X266665519Y-84428985D01*
X266804900Y-84335853D01*
X266959772Y-84271703D01*
X267124184Y-84239000D01*
X267291816Y-84239000D01*
X267456228Y-84271703D01*
G37*
G36*
X247887928Y-85122764D02*
G01*
X247909009Y-85129160D01*
X247928445Y-85139548D01*
X247945476Y-85153524D01*
X247959452Y-85170555D01*
X247969840Y-85189991D01*
X247976236Y-85211072D01*
X247979000Y-85239140D01*
X247979000Y-85702860D01*
X247976236Y-85730928D01*
X247969840Y-85752009D01*
X247959452Y-85771445D01*
X247945476Y-85788476D01*
X247928445Y-85802452D01*
X247909009Y-85812840D01*
X247887928Y-85819236D01*
X247859860Y-85822000D01*
X246046140Y-85822000D01*
X246018072Y-85819236D01*
X245996991Y-85812840D01*
X245977555Y-85802452D01*
X245960524Y-85788476D01*
X245946548Y-85771445D01*
X245936160Y-85752009D01*
X245929764Y-85730928D01*
X245927000Y-85702860D01*
X245927000Y-85239140D01*
X245929764Y-85211072D01*
X245936160Y-85189991D01*
X245946548Y-85170555D01*
X245960524Y-85153524D01*
X245977555Y-85139548D01*
X245996991Y-85129160D01*
X246018072Y-85122764D01*
X246046140Y-85120000D01*
X247859860Y-85120000D01*
X247887928Y-85122764D01*
G37*
G36*
X252837928Y-85122764D02*
G01*
X252859009Y-85129160D01*
X252878445Y-85139548D01*
X252895476Y-85153524D01*
X252909452Y-85170555D01*
X252919840Y-85189991D01*
X252926236Y-85211072D01*
X252929000Y-85239140D01*
X252929000Y-85702860D01*
X252926236Y-85730928D01*
X252919840Y-85752009D01*
X252909452Y-85771445D01*
X252895476Y-85788476D01*
X252878445Y-85802452D01*
X252859009Y-85812840D01*
X252837928Y-85819236D01*
X252809860Y-85822000D01*
X250996140Y-85822000D01*
X250968072Y-85819236D01*
X250946991Y-85812840D01*
X250927555Y-85802452D01*
X250910524Y-85788476D01*
X250896548Y-85771445D01*
X250886160Y-85752009D01*
X250879764Y-85730928D01*
X250877000Y-85702860D01*
X250877000Y-85239140D01*
X250879764Y-85211072D01*
X250886160Y-85189991D01*
X250896548Y-85170555D01*
X250910524Y-85153524D01*
X250927555Y-85139548D01*
X250946991Y-85129160D01*
X250968072Y-85122764D01*
X250996140Y-85120000D01*
X252809860Y-85120000D01*
X252837928Y-85122764D01*
G37*
G36*
X255274474Y-83672065D02*
G01*
X255312167Y-83683499D01*
X255346903Y-83702066D01*
X255377348Y-83727052D01*
X255402334Y-83757497D01*
X255420901Y-83792233D01*
X255432335Y-83829926D01*
X255436800Y-83875261D01*
X255436800Y-84711939D01*
X255432335Y-84757274D01*
X255420901Y-84794967D01*
X255402334Y-84829703D01*
X255377348Y-84860148D01*
X255346903Y-84885134D01*
X255312167Y-84903701D01*
X255274474Y-84915135D01*
X255229139Y-84919600D01*
X254142461Y-84919600D01*
X254097126Y-84915135D01*
X254059433Y-84903701D01*
X254024697Y-84885134D01*
X253994252Y-84860148D01*
X253969266Y-84829703D01*
X253950699Y-84794967D01*
X253939265Y-84757274D01*
X253934800Y-84711939D01*
X253934800Y-83875261D01*
X253939265Y-83829926D01*
X253950699Y-83792233D01*
X253969266Y-83757497D01*
X253994252Y-83727052D01*
X254024697Y-83702066D01*
X254059433Y-83683499D01*
X254097126Y-83672065D01*
X254142461Y-83667600D01*
X255229139Y-83667600D01*
X255274474Y-83672065D01*
G37*
G36*
X225391000Y-84831000D02*
G01*
X224129000Y-84831000D01*
X224129000Y-84539163D01*
X224126598Y-84514777D01*
X224119485Y-84491328D01*
X224107934Y-84469717D01*
X224092389Y-84450775D01*
X224073447Y-84435230D01*
X224051836Y-84423679D01*
X224028387Y-84416566D01*
X224004001Y-84414164D01*
X223979615Y-84416566D01*
X223956166Y-84423679D01*
X223934555Y-84435230D01*
X223933317Y-84436246D01*
X223866258Y-84481054D01*
X223814182Y-84502624D01*
X223802383Y-84507511D01*
X223734570Y-84521000D01*
X223665430Y-84521000D01*
X223597617Y-84507511D01*
X223585818Y-84502624D01*
X223533742Y-84481054D01*
X223476252Y-84442640D01*
X223427360Y-84393748D01*
X223388946Y-84336258D01*
X223362490Y-84272385D01*
X223362489Y-84272383D01*
X223349000Y-84204570D01*
X223349000Y-84135430D01*
X223362489Y-84067617D01*
X223377656Y-84031000D01*
X223388946Y-84003742D01*
X223427360Y-83946252D01*
X223476252Y-83897360D01*
X223533742Y-83858946D01*
X223597615Y-83832490D01*
X223597614Y-83832490D01*
X223597617Y-83832489D01*
X223665430Y-83819000D01*
X223734570Y-83819000D01*
X223802383Y-83832489D01*
X223802386Y-83832490D01*
X223802385Y-83832490D01*
X223866258Y-83858946D01*
X223933317Y-83903754D01*
X223934555Y-83904770D01*
X223956166Y-83916321D01*
X223979615Y-83923434D01*
X224004001Y-83925836D01*
X224028387Y-83923434D01*
X224051836Y-83916321D01*
X224073447Y-83904770D01*
X224092389Y-83889225D01*
X224107934Y-83870283D01*
X224119485Y-83848672D01*
X224126598Y-83825223D01*
X224129000Y-83800837D01*
X224129000Y-78759163D01*
X224126598Y-78734777D01*
X224119485Y-78711328D01*
X224107934Y-78689717D01*
X224092389Y-78670775D01*
X224073447Y-78655230D01*
X224051836Y-78643679D01*
X224028387Y-78636566D01*
X224004001Y-78634164D01*
X223979615Y-78636566D01*
X223956166Y-78643679D01*
X223934555Y-78655230D01*
X223933317Y-78656246D01*
X223866258Y-78701054D01*
X223814182Y-78722624D01*
X223802383Y-78727511D01*
X223734570Y-78741000D01*
X223665430Y-78741000D01*
X223597617Y-78727511D01*
X223585818Y-78722624D01*
X223533742Y-78701054D01*
X223476252Y-78662640D01*
X223427360Y-78613748D01*
X223388946Y-78556258D01*
X223362490Y-78492385D01*
X223362489Y-78492383D01*
X223349000Y-78424570D01*
X223349000Y-78355430D01*
X223362489Y-78287617D01*
X223367376Y-78275818D01*
X223388946Y-78223742D01*
X223427360Y-78166252D01*
X223476252Y-78117360D01*
X223533742Y-78078946D01*
X223597615Y-78052490D01*
X223597614Y-78052490D01*
X223597617Y-78052489D01*
X223665430Y-78039000D01*
X223734570Y-78039000D01*
X223802383Y-78052489D01*
X223802386Y-78052490D01*
X223802385Y-78052490D01*
X223866258Y-78078946D01*
X223933317Y-78123754D01*
X223934555Y-78124770D01*
X223956166Y-78136321D01*
X223979615Y-78143434D01*
X224004001Y-78145836D01*
X224028387Y-78143434D01*
X224051836Y-78136321D01*
X224073447Y-78124770D01*
X224092389Y-78109225D01*
X224107934Y-78090283D01*
X224119485Y-78068672D01*
X224126598Y-78045223D01*
X224129000Y-78020837D01*
X224129000Y-77729000D01*
X225391000Y-77729000D01*
X225391000Y-84831000D01*
G37*
G36*
X251135000Y-83520000D02*
G01*
X242133000Y-83520000D01*
X242133000Y-81668000D01*
X251135000Y-81668000D01*
X251135000Y-83520000D01*
G37*
G36*
X255274474Y-81903065D02*
G01*
X255312167Y-81914499D01*
X255346903Y-81933066D01*
X255377348Y-81958052D01*
X255402334Y-81988497D01*
X255420901Y-82023233D01*
X255432335Y-82060926D01*
X255436800Y-82106261D01*
X255436800Y-82942939D01*
X255432335Y-82988274D01*
X255420901Y-83025967D01*
X255402334Y-83060703D01*
X255377348Y-83091148D01*
X255346903Y-83116134D01*
X255312167Y-83134701D01*
X255274474Y-83146135D01*
X255229139Y-83150600D01*
X254142461Y-83150600D01*
X254097126Y-83146135D01*
X254059433Y-83134701D01*
X254024697Y-83116134D01*
X253994252Y-83091148D01*
X253969266Y-83060703D01*
X253950699Y-83025967D01*
X253939265Y-82988274D01*
X253934800Y-82942939D01*
X253934800Y-82106261D01*
X253939265Y-82060926D01*
X253950699Y-82023233D01*
X253969266Y-81988497D01*
X253994252Y-81958052D01*
X254024697Y-81933066D01*
X254059433Y-81914499D01*
X254097126Y-81903065D01*
X254142461Y-81898600D01*
X255229139Y-81898600D01*
X255274474Y-81903065D01*
G37*
G36*
X259240831Y-79807841D02*
G01*
X259385826Y-79836682D01*
X259497806Y-79883066D01*
X259658989Y-79949830D01*
X259658990Y-79949831D01*
X259904832Y-80114097D01*
X260113903Y-80323168D01*
X260196594Y-80446924D01*
X260278170Y-80569011D01*
X260344450Y-80729026D01*
X260385624Y-80828427D01*
X260391318Y-80842175D01*
X260449000Y-81132163D01*
X260449000Y-81427837D01*
X260391318Y-81717825D01*
X260278170Y-81990989D01*
X260227637Y-82066617D01*
X260113903Y-82236832D01*
X259904832Y-82445903D01*
X259781076Y-82528594D01*
X259658989Y-82610170D01*
X259498974Y-82676450D01*
X259385826Y-82723318D01*
X259240831Y-82752159D01*
X259095837Y-82781000D01*
X258800163Y-82781000D01*
X258655169Y-82752159D01*
X258510174Y-82723318D01*
X258397026Y-82676450D01*
X258237011Y-82610170D01*
X258114924Y-82528594D01*
X257991168Y-82445903D01*
X257782097Y-82236832D01*
X257668363Y-82066617D01*
X257617830Y-81990989D01*
X257504682Y-81717825D01*
X257447000Y-81427837D01*
X257447000Y-81132163D01*
X257504682Y-80842175D01*
X257510377Y-80828427D01*
X257551550Y-80729026D01*
X257617830Y-80569011D01*
X257699406Y-80446924D01*
X257782097Y-80323168D01*
X257991168Y-80114097D01*
X258237010Y-79949831D01*
X258237011Y-79949830D01*
X258398194Y-79883066D01*
X258510174Y-79836682D01*
X258655169Y-79807841D01*
X258800163Y-79779000D01*
X259095837Y-79779000D01*
X259240831Y-79807841D01*
G37*
G36*
X255274474Y-79853065D02*
G01*
X255312167Y-79864499D01*
X255346903Y-79883066D01*
X255377348Y-79908052D01*
X255402334Y-79938497D01*
X255420901Y-79973233D01*
X255432335Y-80010926D01*
X255436800Y-80056261D01*
X255436800Y-80892939D01*
X255432335Y-80938274D01*
X255420901Y-80975967D01*
X255402334Y-81010703D01*
X255377348Y-81041148D01*
X255346903Y-81066134D01*
X255312167Y-81084701D01*
X255274474Y-81096135D01*
X255229139Y-81100600D01*
X254142461Y-81100600D01*
X254097126Y-81096135D01*
X254059433Y-81084701D01*
X254024697Y-81066134D01*
X253994252Y-81041148D01*
X253969266Y-81010703D01*
X253950699Y-80975967D01*
X253939265Y-80938274D01*
X253934800Y-80892939D01*
X253934800Y-80056261D01*
X253939265Y-80010926D01*
X253950699Y-79973233D01*
X253969266Y-79938497D01*
X253994252Y-79908052D01*
X254024697Y-79883066D01*
X254059433Y-79864499D01*
X254097126Y-79853065D01*
X254142461Y-79848600D01*
X255229139Y-79848600D01*
X255274474Y-79853065D01*
G37*
G36*
X263795985Y-75763860D02*
G01*
X263908748Y-75786290D01*
X263923269Y-75792305D01*
X264227408Y-75918283D01*
X264514196Y-76109909D01*
X264758091Y-76353804D01*
X264949717Y-76640592D01*
X265019467Y-76808985D01*
X265068566Y-76927519D01*
X265081710Y-76959253D01*
X265149000Y-77297540D01*
X265149000Y-77642460D01*
X265133928Y-77718229D01*
X265081710Y-77980748D01*
X265041035Y-78078946D01*
X264949717Y-78299408D01*
X264758091Y-78586196D01*
X264514196Y-78830091D01*
X264227408Y-79021717D01*
X264040741Y-79099037D01*
X263908748Y-79153710D01*
X263795985Y-79176140D01*
X263570460Y-79221000D01*
X263225540Y-79221000D01*
X263000015Y-79176140D01*
X262887252Y-79153710D01*
X262755259Y-79099037D01*
X262568592Y-79021717D01*
X262281804Y-78830091D01*
X262037909Y-78586196D01*
X261846283Y-78299408D01*
X261754965Y-78078946D01*
X261714290Y-77980748D01*
X261662072Y-77718229D01*
X261647000Y-77642460D01*
X261647000Y-77297540D01*
X261714290Y-76959253D01*
X261727435Y-76927519D01*
X261776533Y-76808985D01*
X261846283Y-76640592D01*
X262037909Y-76353804D01*
X262281804Y-76109909D01*
X262568592Y-75918283D01*
X262872731Y-75792305D01*
X262887252Y-75786290D01*
X263000015Y-75763860D01*
X263225540Y-75719000D01*
X263570460Y-75719000D01*
X263795985Y-75763860D01*
G37*
G36*
X255435962Y-77512381D02*
G01*
X255470881Y-77522974D01*
X255503063Y-77540176D01*
X255531273Y-77563327D01*
X255554424Y-77591537D01*
X255571626Y-77623719D01*
X255582219Y-77658638D01*
X255586400Y-77701095D01*
X255586400Y-78842305D01*
X255582219Y-78884762D01*
X255571626Y-78919681D01*
X255554424Y-78951863D01*
X255531273Y-78980073D01*
X255503063Y-79003224D01*
X255470881Y-79020426D01*
X255435962Y-79031019D01*
X255393505Y-79035200D01*
X253927295Y-79035200D01*
X253884838Y-79031019D01*
X253849919Y-79020426D01*
X253817737Y-79003224D01*
X253789527Y-78980073D01*
X253766376Y-78951863D01*
X253749174Y-78919681D01*
X253738581Y-78884762D01*
X253734400Y-78842305D01*
X253734400Y-77701095D01*
X253738581Y-77658638D01*
X253749174Y-77623719D01*
X253766376Y-77591537D01*
X253789527Y-77563327D01*
X253817737Y-77540176D01*
X253849919Y-77522974D01*
X253884838Y-77512381D01*
X253927295Y-77508200D01*
X255393505Y-77508200D01*
X255435962Y-77512381D01*
G37*
G36*
X272536228Y-76651703D02*
G01*
X272691100Y-76715853D01*
X272830481Y-76808985D01*
X272949015Y-76927519D01*
X273042147Y-77066900D01*
X273106297Y-77221772D01*
X273139000Y-77386184D01*
X273139000Y-77553816D01*
X273106297Y-77718228D01*
X273042147Y-77873100D01*
X272949015Y-78012481D01*
X272830481Y-78131015D01*
X272691100Y-78224147D01*
X272536228Y-78288297D01*
X272371816Y-78321000D01*
X272204184Y-78321000D01*
X272039772Y-78288297D01*
X271884900Y-78224147D01*
X271745519Y-78131015D01*
X271626985Y-78012481D01*
X271533853Y-77873100D01*
X271469703Y-77718228D01*
X271437000Y-77553816D01*
X271437000Y-77386184D01*
X271469703Y-77221772D01*
X271533853Y-77066900D01*
X271626985Y-76927519D01*
X271745519Y-76808985D01*
X271884900Y-76715853D01*
X272039772Y-76651703D01*
X272204184Y-76619000D01*
X272371816Y-76619000D01*
X272536228Y-76651703D01*
G37*
G36*
X224828213Y-76466249D02*
G01*
X224922652Y-76494897D01*
X225009687Y-76541418D01*
X225085975Y-76604025D01*
X225148582Y-76680313D01*
X225195103Y-76767348D01*
X225223751Y-76861787D01*
X225233424Y-76960000D01*
X225223751Y-77058213D01*
X225195103Y-77152652D01*
X225148582Y-77239687D01*
X225085975Y-77315975D01*
X225009687Y-77378582D01*
X224922652Y-77425103D01*
X224828213Y-77453751D01*
X224754612Y-77461000D01*
X223605388Y-77461000D01*
X223531787Y-77453751D01*
X223437348Y-77425103D01*
X223350313Y-77378582D01*
X223274025Y-77315975D01*
X223211418Y-77239687D01*
X223164897Y-77152652D01*
X223136249Y-77058213D01*
X223126576Y-76960000D01*
X223136249Y-76861787D01*
X223164897Y-76767348D01*
X223211418Y-76680313D01*
X223274025Y-76604025D01*
X223350313Y-76541418D01*
X223437348Y-76494897D01*
X223531787Y-76466249D01*
X223605388Y-76459000D01*
X224754612Y-76459000D01*
X224828213Y-76466249D01*
G37*
G36*
X220508213Y-76466249D02*
G01*
X220602652Y-76494897D01*
X220689687Y-76541418D01*
X220765975Y-76604025D01*
X220828582Y-76680313D01*
X220875103Y-76767348D01*
X220903751Y-76861787D01*
X220913424Y-76960000D01*
X220903751Y-77058213D01*
X220875103Y-77152652D01*
X220828582Y-77239687D01*
X220765975Y-77315975D01*
X220689687Y-77378582D01*
X220602652Y-77425103D01*
X220508213Y-77453751D01*
X220434612Y-77461000D01*
X219585388Y-77461000D01*
X219511787Y-77453751D01*
X219417348Y-77425103D01*
X219330313Y-77378582D01*
X219254025Y-77315975D01*
X219191418Y-77239687D01*
X219144897Y-77152652D01*
X219116249Y-77058213D01*
X219106576Y-76960000D01*
X219116249Y-76861787D01*
X219144897Y-76767348D01*
X219191418Y-76680313D01*
X219254025Y-76604025D01*
X219330313Y-76541418D01*
X219417348Y-76494897D01*
X219511787Y-76466249D01*
X219585388Y-76459000D01*
X220434612Y-76459000D01*
X220508213Y-76466249D01*
G37*
G36*
X251135000Y-76320000D02*
G01*
X242133000Y-76320000D01*
X242133000Y-74468000D01*
X251135000Y-74468000D01*
X251135000Y-76320000D01*
G37*
G36*
X255435962Y-74537381D02*
G01*
X255470881Y-74547974D01*
X255503063Y-74565176D01*
X255531273Y-74588327D01*
X255554424Y-74616537D01*
X255571626Y-74648719D01*
X255582219Y-74683638D01*
X255586400Y-74726095D01*
X255586400Y-75867305D01*
X255582219Y-75909762D01*
X255571626Y-75944681D01*
X255554424Y-75976863D01*
X255531273Y-76005073D01*
X255503063Y-76028224D01*
X255470881Y-76045426D01*
X255435962Y-76056019D01*
X255393505Y-76060200D01*
X253927295Y-76060200D01*
X253884838Y-76056019D01*
X253849919Y-76045426D01*
X253817737Y-76028224D01*
X253789527Y-76005073D01*
X253766376Y-75976863D01*
X253749174Y-75944681D01*
X253738581Y-75909762D01*
X253734400Y-75867305D01*
X253734400Y-74726095D01*
X253738581Y-74683638D01*
X253749174Y-74648719D01*
X253766376Y-74616537D01*
X253789527Y-74588327D01*
X253817737Y-74565176D01*
X253849919Y-74547974D01*
X253884838Y-74537381D01*
X253927295Y-74533200D01*
X255393505Y-74533200D01*
X255435962Y-74537381D01*
G37*
G36*
X220585512Y-73271927D02*
G01*
X220734812Y-73301624D01*
X220898784Y-73369544D01*
X221046354Y-73468147D01*
X221171853Y-73593646D01*
X221270456Y-73741216D01*
X221338376Y-73905188D01*
X221373000Y-74079259D01*
X221373000Y-74256741D01*
X221338376Y-74430812D01*
X221270456Y-74594784D01*
X221171853Y-74742354D01*
X221046354Y-74867853D01*
X220898784Y-74966456D01*
X220734812Y-75034376D01*
X220585512Y-75064073D01*
X220560742Y-75069000D01*
X220383258Y-75069000D01*
X220358488Y-75064073D01*
X220209188Y-75034376D01*
X220045216Y-74966456D01*
X219897646Y-74867853D01*
X219772147Y-74742354D01*
X219673544Y-74594784D01*
X219605624Y-74430812D01*
X219571000Y-74256741D01*
X219571000Y-74079259D01*
X219605624Y-73905188D01*
X219673544Y-73741216D01*
X219772147Y-73593646D01*
X219897646Y-73468147D01*
X220045216Y-73369544D01*
X220209188Y-73301624D01*
X220358488Y-73271927D01*
X220383258Y-73267000D01*
X220560742Y-73267000D01*
X220585512Y-73271927D01*
G37*
G36*
X248131674Y-72405465D02*
G01*
X248169367Y-72416899D01*
X248204103Y-72435466D01*
X248234548Y-72460452D01*
X248259534Y-72490897D01*
X248278101Y-72525633D01*
X248289535Y-72563326D01*
X248294000Y-72608661D01*
X248294000Y-73695339D01*
X248289535Y-73740674D01*
X248278101Y-73778367D01*
X248259534Y-73813103D01*
X248234548Y-73843548D01*
X248204103Y-73868534D01*
X248169367Y-73887101D01*
X248131674Y-73898535D01*
X248086339Y-73903000D01*
X247249661Y-73903000D01*
X247204326Y-73898535D01*
X247166633Y-73887101D01*
X247131897Y-73868534D01*
X247101452Y-73843548D01*
X247076466Y-73813103D01*
X247057899Y-73778367D01*
X247046465Y-73740674D01*
X247042000Y-73695339D01*
X247042000Y-72608661D01*
X247046465Y-72563326D01*
X247057899Y-72525633D01*
X247076466Y-72490897D01*
X247101452Y-72460452D01*
X247131897Y-72435466D01*
X247166633Y-72416899D01*
X247204326Y-72405465D01*
X247249661Y-72401000D01*
X248086339Y-72401000D01*
X248131674Y-72405465D01*
G37*
G36*
X246081674Y-72405465D02*
G01*
X246119367Y-72416899D01*
X246154103Y-72435466D01*
X246184548Y-72460452D01*
X246209534Y-72490897D01*
X246228101Y-72525633D01*
X246239535Y-72563326D01*
X246244000Y-72608661D01*
X246244000Y-73695339D01*
X246239535Y-73740674D01*
X246228101Y-73778367D01*
X246209534Y-73813103D01*
X246184548Y-73843548D01*
X246154103Y-73868534D01*
X246119367Y-73887101D01*
X246081674Y-73898535D01*
X246036339Y-73903000D01*
X245199661Y-73903000D01*
X245154326Y-73898535D01*
X245116633Y-73887101D01*
X245081897Y-73868534D01*
X245051452Y-73843548D01*
X245026466Y-73813103D01*
X245007899Y-73778367D01*
X244996465Y-73740674D01*
X244992000Y-73695339D01*
X244992000Y-72608661D01*
X244996465Y-72563326D01*
X245007899Y-72525633D01*
X245026466Y-72490897D01*
X245051452Y-72460452D01*
X245081897Y-72435466D01*
X245116633Y-72416899D01*
X245154326Y-72405465D01*
X245199661Y-72401000D01*
X246036339Y-72401000D01*
X246081674Y-72405465D01*
G37*
G36*
X244312674Y-72405465D02*
G01*
X244350367Y-72416899D01*
X244385103Y-72435466D01*
X244415548Y-72460452D01*
X244440534Y-72490897D01*
X244459101Y-72525633D01*
X244470535Y-72563326D01*
X244475000Y-72608661D01*
X244475000Y-73695339D01*
X244470535Y-73740674D01*
X244459101Y-73778367D01*
X244440534Y-73813103D01*
X244415548Y-73843548D01*
X244385103Y-73868534D01*
X244350367Y-73887101D01*
X244312674Y-73898535D01*
X244267339Y-73903000D01*
X243430661Y-73903000D01*
X243385326Y-73898535D01*
X243347633Y-73887101D01*
X243312897Y-73868534D01*
X243282452Y-73843548D01*
X243257466Y-73813103D01*
X243238899Y-73778367D01*
X243227465Y-73740674D01*
X243223000Y-73695339D01*
X243223000Y-72608661D01*
X243227465Y-72563326D01*
X243238899Y-72525633D01*
X243257466Y-72490897D01*
X243282452Y-72460452D01*
X243312897Y-72435466D01*
X243347633Y-72416899D01*
X243385326Y-72405465D01*
X243430661Y-72401000D01*
X244267339Y-72401000D01*
X244312674Y-72405465D01*
G37*
G36*
X242262674Y-72405465D02*
G01*
X242300367Y-72416899D01*
X242335103Y-72435466D01*
X242365548Y-72460452D01*
X242390534Y-72490897D01*
X242409101Y-72525633D01*
X242420535Y-72563326D01*
X242425000Y-72608661D01*
X242425000Y-73695339D01*
X242420535Y-73740674D01*
X242409101Y-73778367D01*
X242390534Y-73813103D01*
X242365548Y-73843548D01*
X242335103Y-73868534D01*
X242300367Y-73887101D01*
X242262674Y-73898535D01*
X242217339Y-73903000D01*
X241380661Y-73903000D01*
X241335326Y-73898535D01*
X241297633Y-73887101D01*
X241262897Y-73868534D01*
X241232452Y-73843548D01*
X241207466Y-73813103D01*
X241188899Y-73778367D01*
X241177465Y-73740674D01*
X241173000Y-73695339D01*
X241173000Y-72608661D01*
X241177465Y-72563326D01*
X241188899Y-72525633D01*
X241207466Y-72490897D01*
X241232452Y-72460452D01*
X241262897Y-72435466D01*
X241297633Y-72416899D01*
X241335326Y-72405465D01*
X241380661Y-72401000D01*
X242217339Y-72401000D01*
X242262674Y-72405465D01*
G37*
G36*
X221373000Y-72529000D02*
G01*
X219571000Y-72529000D01*
X219571000Y-70727000D01*
X221373000Y-70727000D01*
X221373000Y-72529000D01*
G37*
G36*
X254588674Y-63903465D02*
G01*
X254626367Y-63914899D01*
X254661103Y-63933466D01*
X254691548Y-63958452D01*
X254716534Y-63988897D01*
X254735101Y-64023633D01*
X254746535Y-64061326D01*
X254751000Y-64106661D01*
X254751000Y-64943339D01*
X254746535Y-64988674D01*
X254735101Y-65026367D01*
X254716534Y-65061103D01*
X254691548Y-65091548D01*
X254661103Y-65116534D01*
X254626367Y-65135101D01*
X254588674Y-65146535D01*
X254543339Y-65151000D01*
X253456661Y-65151000D01*
X253411326Y-65146535D01*
X253373633Y-65135101D01*
X253338897Y-65116534D01*
X253308452Y-65091548D01*
X253283466Y-65061103D01*
X253264899Y-65026367D01*
X253253465Y-64988674D01*
X253249000Y-64943339D01*
X253249000Y-64106661D01*
X253253465Y-64061326D01*
X253264899Y-64023633D01*
X253283466Y-63988897D01*
X253308452Y-63958452D01*
X253338897Y-63933466D01*
X253373633Y-63914899D01*
X253411326Y-63903465D01*
X253456661Y-63899000D01*
X254543339Y-63899000D01*
X254588674Y-63903465D01*
G37*
G36*
X250136674Y-63515465D02*
G01*
X250174367Y-63526899D01*
X250209103Y-63545466D01*
X250239548Y-63570452D01*
X250264534Y-63600897D01*
X250283101Y-63635633D01*
X250294535Y-63673326D01*
X250299000Y-63718661D01*
X250299000Y-64805339D01*
X250294535Y-64850674D01*
X250283101Y-64888367D01*
X250264534Y-64923103D01*
X250239548Y-64953548D01*
X250209103Y-64978534D01*
X250174367Y-64997101D01*
X250136674Y-65008535D01*
X250091339Y-65013000D01*
X249254661Y-65013000D01*
X249209326Y-65008535D01*
X249171633Y-64997101D01*
X249136897Y-64978534D01*
X249106452Y-64953548D01*
X249081466Y-64923103D01*
X249062899Y-64888367D01*
X249051465Y-64850674D01*
X249047000Y-64805339D01*
X249047000Y-63718661D01*
X249051465Y-63673326D01*
X249062899Y-63635633D01*
X249081466Y-63600897D01*
X249106452Y-63570452D01*
X249136897Y-63545466D01*
X249171633Y-63526899D01*
X249209326Y-63515465D01*
X249254661Y-63511000D01*
X250091339Y-63511000D01*
X250136674Y-63515465D01*
G37*
G36*
X252186674Y-63515465D02*
G01*
X252224367Y-63526899D01*
X252259103Y-63545466D01*
X252289548Y-63570452D01*
X252314534Y-63600897D01*
X252333101Y-63635633D01*
X252344535Y-63673326D01*
X252349000Y-63718661D01*
X252349000Y-64805339D01*
X252344535Y-64850674D01*
X252333101Y-64888367D01*
X252314534Y-64923103D01*
X252289548Y-64953548D01*
X252259103Y-64978534D01*
X252224367Y-64997101D01*
X252186674Y-65008535D01*
X252141339Y-65013000D01*
X251304661Y-65013000D01*
X251259326Y-65008535D01*
X251221633Y-64997101D01*
X251186897Y-64978534D01*
X251156452Y-64953548D01*
X251131466Y-64923103D01*
X251112899Y-64888367D01*
X251101465Y-64850674D01*
X251097000Y-64805339D01*
X251097000Y-63718661D01*
X251101465Y-63673326D01*
X251112899Y-63635633D01*
X251131466Y-63600897D01*
X251156452Y-63570452D01*
X251186897Y-63545466D01*
X251221633Y-63526899D01*
X251259326Y-63515465D01*
X251304661Y-63511000D01*
X252141339Y-63511000D01*
X252186674Y-63515465D01*
G37*
G36*
X225509997Y-63161051D02*
G01*
X225543652Y-63171261D01*
X225574665Y-63187838D01*
X225601851Y-63210149D01*
X225624162Y-63237335D01*
X225640739Y-63268348D01*
X225650949Y-63302003D01*
X225655000Y-63343138D01*
X225655000Y-64672862D01*
X225650949Y-64713997D01*
X225640739Y-64747652D01*
X225624162Y-64778665D01*
X225601851Y-64805851D01*
X225574665Y-64828162D01*
X225543652Y-64844739D01*
X225509997Y-64854949D01*
X225468862Y-64859000D01*
X223139138Y-64859000D01*
X223098003Y-64854949D01*
X223064348Y-64844739D01*
X223033335Y-64828162D01*
X223006149Y-64805851D01*
X222983838Y-64778665D01*
X222967261Y-64747652D01*
X222957051Y-64713997D01*
X222953000Y-64672862D01*
X222953000Y-63343138D01*
X222957051Y-63302003D01*
X222967261Y-63268348D01*
X222983838Y-63237335D01*
X223006149Y-63210149D01*
X223033335Y-63187838D01*
X223064348Y-63171261D01*
X223098003Y-63161051D01*
X223139138Y-63157000D01*
X225468862Y-63157000D01*
X225509997Y-63161051D01*
G37*
G36*
X221909997Y-63161051D02*
G01*
X221943652Y-63171261D01*
X221974665Y-63187838D01*
X222001851Y-63210149D01*
X222024162Y-63237335D01*
X222040739Y-63268348D01*
X222050949Y-63302003D01*
X222055000Y-63343138D01*
X222055000Y-64672862D01*
X222050949Y-64713997D01*
X222040739Y-64747652D01*
X222024162Y-64778665D01*
X222001851Y-64805851D01*
X221974665Y-64828162D01*
X221943652Y-64844739D01*
X221909997Y-64854949D01*
X221868862Y-64859000D01*
X219539138Y-64859000D01*
X219498003Y-64854949D01*
X219464348Y-64844739D01*
X219433335Y-64828162D01*
X219406149Y-64805851D01*
X219383838Y-64778665D01*
X219367261Y-64747652D01*
X219357051Y-64713997D01*
X219353000Y-64672862D01*
X219353000Y-63343138D01*
X219357051Y-63302003D01*
X219367261Y-63268348D01*
X219383838Y-63237335D01*
X219406149Y-63210149D01*
X219433335Y-63187838D01*
X219464348Y-63171261D01*
X219498003Y-63161051D01*
X219539138Y-63157000D01*
X221868862Y-63157000D01*
X221909997Y-63161051D01*
G37*
G36*
X254588674Y-61853465D02*
G01*
X254626367Y-61864899D01*
X254661103Y-61883466D01*
X254691548Y-61908452D01*
X254716534Y-61938897D01*
X254735101Y-61973633D01*
X254746535Y-62011326D01*
X254751000Y-62056661D01*
X254751000Y-62893339D01*
X254746535Y-62938674D01*
X254735101Y-62976367D01*
X254716534Y-63011103D01*
X254691548Y-63041548D01*
X254661103Y-63066534D01*
X254626367Y-63085101D01*
X254588674Y-63096535D01*
X254543339Y-63101000D01*
X253456661Y-63101000D01*
X253411326Y-63096535D01*
X253373633Y-63085101D01*
X253338897Y-63066534D01*
X253308452Y-63041548D01*
X253283466Y-63011103D01*
X253264899Y-62976367D01*
X253253465Y-62938674D01*
X253249000Y-62893339D01*
X253249000Y-62056661D01*
X253253465Y-62011326D01*
X253264899Y-61973633D01*
X253283466Y-61938897D01*
X253308452Y-61908452D01*
X253338897Y-61883466D01*
X253373633Y-61864899D01*
X253411326Y-61853465D01*
X253456661Y-61849000D01*
X254543339Y-61849000D01*
X254588674Y-61853465D01*
G37*
G36*
X247379928Y-61627764D02*
G01*
X247401009Y-61634160D01*
X247420445Y-61644548D01*
X247437476Y-61658524D01*
X247451452Y-61675555D01*
X247461840Y-61694991D01*
X247468236Y-61716072D01*
X247471000Y-61744140D01*
X247471000Y-62207860D01*
X247468236Y-62235928D01*
X247461840Y-62257009D01*
X247451452Y-62276445D01*
X247437476Y-62293476D01*
X247420445Y-62307452D01*
X247401009Y-62317840D01*
X247379928Y-62324236D01*
X247351860Y-62327000D01*
X245538140Y-62327000D01*
X245510072Y-62324236D01*
X245488991Y-62317840D01*
X245469555Y-62307452D01*
X245452524Y-62293476D01*
X245438548Y-62276445D01*
X245428160Y-62257009D01*
X245421764Y-62235928D01*
X245419000Y-62207860D01*
X245419000Y-61744140D01*
X245421764Y-61716072D01*
X245428160Y-61694991D01*
X245438548Y-61675555D01*
X245452524Y-61658524D01*
X245469555Y-61644548D01*
X245488991Y-61634160D01*
X245510072Y-61627764D01*
X245538140Y-61625000D01*
X247351860Y-61625000D01*
X247379928Y-61627764D01*
G37*
G36*
X252329928Y-61627764D02*
G01*
X252351009Y-61634160D01*
X252370445Y-61644548D01*
X252387476Y-61658524D01*
X252401452Y-61675555D01*
X252411840Y-61694991D01*
X252418236Y-61716072D01*
X252421000Y-61744140D01*
X252421000Y-62207860D01*
X252418236Y-62235928D01*
X252411840Y-62257009D01*
X252401452Y-62276445D01*
X252387476Y-62293476D01*
X252370445Y-62307452D01*
X252351009Y-62317840D01*
X252329928Y-62324236D01*
X252301860Y-62327000D01*
X250488140Y-62327000D01*
X250460072Y-62324236D01*
X250438991Y-62317840D01*
X250419555Y-62307452D01*
X250402524Y-62293476D01*
X250388548Y-62276445D01*
X250378160Y-62257009D01*
X250371764Y-62235928D01*
X250369000Y-62207860D01*
X250369000Y-61744140D01*
X250371764Y-61716072D01*
X250378160Y-61694991D01*
X250388548Y-61675555D01*
X250402524Y-61658524D01*
X250419555Y-61644548D01*
X250438991Y-61634160D01*
X250460072Y-61627764D01*
X250488140Y-61625000D01*
X252301860Y-61625000D01*
X252329928Y-61627764D01*
G37*
G36*
X263160985Y-58237860D02*
G01*
X263273748Y-58260290D01*
X263290128Y-58267075D01*
X263592408Y-58392283D01*
X263879196Y-58583909D01*
X264123091Y-58827804D01*
X264314717Y-59114592D01*
X264387054Y-59289230D01*
X264435215Y-59405500D01*
X264446710Y-59433253D01*
X264514000Y-59771540D01*
X264514000Y-60116460D01*
X264485383Y-60260326D01*
X264446710Y-60454748D01*
X264392037Y-60586741D01*
X264314717Y-60773408D01*
X264123091Y-61060196D01*
X263879196Y-61304091D01*
X263592408Y-61495717D01*
X263405741Y-61573037D01*
X263273748Y-61627710D01*
X263160985Y-61650140D01*
X262935460Y-61695000D01*
X262590540Y-61695000D01*
X262365015Y-61650140D01*
X262252252Y-61627710D01*
X262120259Y-61573037D01*
X261933592Y-61495717D01*
X261646804Y-61304091D01*
X261402909Y-61060196D01*
X261211283Y-60773408D01*
X261133963Y-60586741D01*
X261079290Y-60454748D01*
X261040617Y-60260326D01*
X261012000Y-60116460D01*
X261012000Y-59771540D01*
X261079290Y-59433253D01*
X261090786Y-59405500D01*
X261138946Y-59289230D01*
X261211283Y-59114592D01*
X261402909Y-58827804D01*
X261646804Y-58583909D01*
X261933592Y-58392283D01*
X262235872Y-58267075D01*
X262252252Y-58260290D01*
X262365015Y-58237860D01*
X262590540Y-58193000D01*
X262935460Y-58193000D01*
X263160985Y-58237860D01*
G37*
G36*
X254588674Y-60102465D02*
G01*
X254626367Y-60113899D01*
X254661103Y-60132466D01*
X254691548Y-60157452D01*
X254716534Y-60187897D01*
X254735101Y-60222633D01*
X254746535Y-60260326D01*
X254751000Y-60305661D01*
X254751000Y-61142339D01*
X254746535Y-61187674D01*
X254735101Y-61225367D01*
X254716534Y-61260103D01*
X254691548Y-61290548D01*
X254661103Y-61315534D01*
X254626367Y-61334101D01*
X254588674Y-61345535D01*
X254543339Y-61350000D01*
X253456661Y-61350000D01*
X253411326Y-61345535D01*
X253373633Y-61334101D01*
X253338897Y-61315534D01*
X253308452Y-61290548D01*
X253283466Y-61260103D01*
X253264899Y-61225367D01*
X253253465Y-61187674D01*
X253249000Y-61142339D01*
X253249000Y-60305661D01*
X253253465Y-60260326D01*
X253264899Y-60222633D01*
X253283466Y-60187897D01*
X253308452Y-60157452D01*
X253338897Y-60132466D01*
X253373633Y-60113899D01*
X253411326Y-60102465D01*
X253456661Y-60098000D01*
X254543339Y-60098000D01*
X254588674Y-60102465D01*
G37*
G36*
X252329928Y-60357764D02*
G01*
X252351009Y-60364160D01*
X252370445Y-60374548D01*
X252387476Y-60388524D01*
X252401452Y-60405555D01*
X252411840Y-60424991D01*
X252418236Y-60446072D01*
X252421000Y-60474140D01*
X252421000Y-60937860D01*
X252418236Y-60965928D01*
X252411840Y-60987009D01*
X252401452Y-61006445D01*
X252387476Y-61023476D01*
X252370445Y-61037452D01*
X252351009Y-61047840D01*
X252329928Y-61054236D01*
X252301860Y-61057000D01*
X250488140Y-61057000D01*
X250460072Y-61054236D01*
X250438991Y-61047840D01*
X250419555Y-61037452D01*
X250402524Y-61023476D01*
X250388548Y-61006445D01*
X250378160Y-60987009D01*
X250371764Y-60965928D01*
X250369000Y-60937860D01*
X250369000Y-60474140D01*
X250371764Y-60446072D01*
X250378160Y-60424991D01*
X250388548Y-60405555D01*
X250402524Y-60388524D01*
X250419555Y-60374548D01*
X250438991Y-60364160D01*
X250460072Y-60357764D01*
X250488140Y-60355000D01*
X252301860Y-60355000D01*
X252329928Y-60357764D01*
G37*
G36*
X247379928Y-60357764D02*
G01*
X247401009Y-60364160D01*
X247420445Y-60374548D01*
X247437476Y-60388524D01*
X247451452Y-60405555D01*
X247461840Y-60424991D01*
X247468236Y-60446072D01*
X247471000Y-60474140D01*
X247471000Y-60937860D01*
X247468236Y-60965928D01*
X247461840Y-60987009D01*
X247451452Y-61006445D01*
X247437476Y-61023476D01*
X247420445Y-61037452D01*
X247401009Y-61047840D01*
X247379928Y-61054236D01*
X247351860Y-61057000D01*
X245538140Y-61057000D01*
X245510072Y-61054236D01*
X245488991Y-61047840D01*
X245469555Y-61037452D01*
X245452524Y-61023476D01*
X245438548Y-61006445D01*
X245428160Y-60987009D01*
X245421764Y-60965928D01*
X245419000Y-60937860D01*
X245419000Y-60474140D01*
X245421764Y-60446072D01*
X245428160Y-60424991D01*
X245438548Y-60405555D01*
X245452524Y-60388524D01*
X245469555Y-60374548D01*
X245488991Y-60364160D01*
X245510072Y-60357764D01*
X245538140Y-60355000D01*
X247351860Y-60355000D01*
X247379928Y-60357764D01*
G37*
G36*
X220508213Y-59960249D02*
G01*
X220602652Y-59988897D01*
X220689687Y-60035418D01*
X220765975Y-60098025D01*
X220828582Y-60174313D01*
X220875103Y-60261348D01*
X220903751Y-60355787D01*
X220913424Y-60454000D01*
X220903751Y-60552213D01*
X220875103Y-60646652D01*
X220828582Y-60733687D01*
X220765975Y-60809975D01*
X220689687Y-60872582D01*
X220602652Y-60919103D01*
X220508213Y-60947751D01*
X220434612Y-60955000D01*
X219585388Y-60955000D01*
X219511787Y-60947751D01*
X219417348Y-60919103D01*
X219330313Y-60872582D01*
X219254025Y-60809975D01*
X219191418Y-60733687D01*
X219144897Y-60646652D01*
X219116249Y-60552213D01*
X219106576Y-60454000D01*
X219116249Y-60355787D01*
X219144897Y-60261348D01*
X219191418Y-60174313D01*
X219254025Y-60098025D01*
X219330313Y-60035418D01*
X219417348Y-59988897D01*
X219511787Y-59960249D01*
X219585388Y-59953000D01*
X220434612Y-59953000D01*
X220508213Y-59960249D01*
G37*
G36*
X224828213Y-59960249D02*
G01*
X224922652Y-59988897D01*
X225009687Y-60035418D01*
X225085975Y-60098025D01*
X225148582Y-60174313D01*
X225195103Y-60261348D01*
X225223751Y-60355787D01*
X225233424Y-60454000D01*
X225223751Y-60552213D01*
X225195103Y-60646652D01*
X225148582Y-60733687D01*
X225085975Y-60809975D01*
X225009687Y-60872582D01*
X224922652Y-60919103D01*
X224828213Y-60947751D01*
X224754612Y-60955000D01*
X223605388Y-60955000D01*
X223531787Y-60947751D01*
X223437348Y-60919103D01*
X223350313Y-60872582D01*
X223274025Y-60809975D01*
X223211418Y-60733687D01*
X223164897Y-60646652D01*
X223136249Y-60552213D01*
X223126576Y-60454000D01*
X223136249Y-60355787D01*
X223164897Y-60261348D01*
X223211418Y-60174313D01*
X223274025Y-60098025D01*
X223350313Y-60035418D01*
X223437348Y-59988897D01*
X223531787Y-59960249D01*
X223605388Y-59953000D01*
X224754612Y-59953000D01*
X224828213Y-59960249D01*
G37*
G36*
X267456228Y-59125703D02*
G01*
X267611100Y-59189853D01*
X267750481Y-59282985D01*
X267869015Y-59401519D01*
X267962147Y-59540900D01*
X268026297Y-59695772D01*
X268059000Y-59860184D01*
X268059000Y-60027816D01*
X268026297Y-60192228D01*
X267962147Y-60347100D01*
X267869015Y-60486481D01*
X267750481Y-60605015D01*
X267611100Y-60698147D01*
X267456228Y-60762297D01*
X267291816Y-60795000D01*
X267124184Y-60795000D01*
X266959772Y-60762297D01*
X266804900Y-60698147D01*
X266665519Y-60605015D01*
X266546985Y-60486481D01*
X266453853Y-60347100D01*
X266389703Y-60192228D01*
X266357000Y-60027816D01*
X266357000Y-59860184D01*
X266389703Y-59695772D01*
X266453853Y-59540900D01*
X266546985Y-59401519D01*
X266665519Y-59282985D01*
X266804900Y-59189853D01*
X266959772Y-59125703D01*
X267124184Y-59093000D01*
X267291816Y-59093000D01*
X267456228Y-59125703D01*
G37*
G36*
X240364674Y-58823465D02*
G01*
X240402367Y-58834899D01*
X240437103Y-58853466D01*
X240467548Y-58878452D01*
X240492534Y-58908897D01*
X240511101Y-58943633D01*
X240522535Y-58981326D01*
X240527000Y-59026661D01*
X240527000Y-59863339D01*
X240522535Y-59908674D01*
X240511101Y-59946367D01*
X240492534Y-59981103D01*
X240467548Y-60011548D01*
X240437103Y-60036534D01*
X240402367Y-60055101D01*
X240364674Y-60066535D01*
X240319339Y-60071000D01*
X239232661Y-60071000D01*
X239187326Y-60066535D01*
X239149633Y-60055101D01*
X239114897Y-60036534D01*
X239084452Y-60011548D01*
X239059466Y-59981103D01*
X239040899Y-59946367D01*
X239029465Y-59908674D01*
X239025000Y-59863339D01*
X239025000Y-59026661D01*
X239029465Y-58981326D01*
X239040899Y-58943633D01*
X239059466Y-58908897D01*
X239084452Y-58878452D01*
X239114897Y-58853466D01*
X239149633Y-58834899D01*
X239187326Y-58823465D01*
X239232661Y-58819000D01*
X240319339Y-58819000D01*
X240364674Y-58823465D01*
G37*
G36*
X252329928Y-59087764D02*
G01*
X252351009Y-59094160D01*
X252370445Y-59104548D01*
X252387476Y-59118524D01*
X252401452Y-59135555D01*
X252411840Y-59154991D01*
X252418236Y-59176072D01*
X252421000Y-59204140D01*
X252421000Y-59667860D01*
X252418236Y-59695928D01*
X252411840Y-59717009D01*
X252401452Y-59736445D01*
X252387476Y-59753476D01*
X252370445Y-59767452D01*
X252351009Y-59777840D01*
X252329928Y-59784236D01*
X252301860Y-59787000D01*
X250488140Y-59787000D01*
X250460072Y-59784236D01*
X250438991Y-59777840D01*
X250419555Y-59767452D01*
X250402524Y-59753476D01*
X250388548Y-59736445D01*
X250378160Y-59717009D01*
X250371764Y-59695928D01*
X250369000Y-59667860D01*
X250369000Y-59204140D01*
X250371764Y-59176072D01*
X250378160Y-59154991D01*
X250388548Y-59135555D01*
X250402524Y-59118524D01*
X250419555Y-59104548D01*
X250438991Y-59094160D01*
X250460072Y-59087764D01*
X250488140Y-59085000D01*
X252301860Y-59085000D01*
X252329928Y-59087764D01*
G37*
G36*
X247379928Y-59087764D02*
G01*
X247401009Y-59094160D01*
X247420445Y-59104548D01*
X247437476Y-59118524D01*
X247451452Y-59135555D01*
X247461840Y-59154991D01*
X247468236Y-59176072D01*
X247471000Y-59204140D01*
X247471000Y-59667860D01*
X247468236Y-59695928D01*
X247461840Y-59717009D01*
X247451452Y-59736445D01*
X247437476Y-59753476D01*
X247420445Y-59767452D01*
X247401009Y-59777840D01*
X247379928Y-59784236D01*
X247351860Y-59787000D01*
X245538140Y-59787000D01*
X245510072Y-59784236D01*
X245488991Y-59777840D01*
X245469555Y-59767452D01*
X245452524Y-59753476D01*
X245438548Y-59736445D01*
X245428160Y-59717009D01*
X245421764Y-59695928D01*
X245419000Y-59667860D01*
X245419000Y-59204140D01*
X245421764Y-59176072D01*
X245428160Y-59154991D01*
X245438548Y-59135555D01*
X245452524Y-59118524D01*
X245469555Y-59104548D01*
X245488991Y-59094160D01*
X245510072Y-59087764D01*
X245538140Y-59085000D01*
X247351860Y-59085000D01*
X247379928Y-59087764D01*
G37*
G36*
X225391000Y-59685000D02*
G01*
X224129000Y-59685000D01*
X224129000Y-59393163D01*
X224126598Y-59368777D01*
X224119485Y-59345328D01*
X224107934Y-59323717D01*
X224092389Y-59304775D01*
X224073447Y-59289230D01*
X224051836Y-59277679D01*
X224028387Y-59270566D01*
X224004001Y-59268164D01*
X223979615Y-59270566D01*
X223956166Y-59277679D01*
X223934555Y-59289230D01*
X223933317Y-59290246D01*
X223866258Y-59335054D01*
X223814182Y-59356624D01*
X223802383Y-59361511D01*
X223734570Y-59375000D01*
X223665430Y-59375000D01*
X223597617Y-59361511D01*
X223585818Y-59356624D01*
X223533742Y-59335054D01*
X223476252Y-59296640D01*
X223427360Y-59247748D01*
X223388946Y-59190258D01*
X223362490Y-59126385D01*
X223362489Y-59126383D01*
X223349000Y-59058570D01*
X223349000Y-58989430D01*
X223362489Y-58921617D01*
X223380368Y-58878452D01*
X223388946Y-58857742D01*
X223427360Y-58800252D01*
X223476252Y-58751360D01*
X223533742Y-58712946D01*
X223597615Y-58686490D01*
X223597614Y-58686490D01*
X223597617Y-58686489D01*
X223665430Y-58673000D01*
X223734570Y-58673000D01*
X223802383Y-58686489D01*
X223802386Y-58686490D01*
X223802385Y-58686490D01*
X223866258Y-58712946D01*
X223933317Y-58757754D01*
X223934555Y-58758770D01*
X223956166Y-58770321D01*
X223979615Y-58777434D01*
X224004001Y-58779836D01*
X224028387Y-58777434D01*
X224051836Y-58770321D01*
X224073447Y-58758770D01*
X224092389Y-58743225D01*
X224107934Y-58724283D01*
X224119485Y-58702672D01*
X224126598Y-58679223D01*
X224129000Y-58654837D01*
X224129000Y-53613163D01*
X224126598Y-53588777D01*
X224119485Y-53565328D01*
X224107934Y-53543717D01*
X224092389Y-53524775D01*
X224073447Y-53509230D01*
X224051836Y-53497679D01*
X224028387Y-53490566D01*
X224004001Y-53488164D01*
X223979615Y-53490566D01*
X223956166Y-53497679D01*
X223934555Y-53509230D01*
X223933317Y-53510246D01*
X223866258Y-53555054D01*
X223814182Y-53576624D01*
X223802383Y-53581511D01*
X223734570Y-53595000D01*
X223665430Y-53595000D01*
X223597617Y-53581511D01*
X223585818Y-53576624D01*
X223533742Y-53555054D01*
X223476252Y-53516640D01*
X223427360Y-53467748D01*
X223388946Y-53410258D01*
X223362490Y-53346385D01*
X223362489Y-53346383D01*
X223349000Y-53278570D01*
X223349000Y-53209430D01*
X223362489Y-53141617D01*
X223367376Y-53129818D01*
X223388946Y-53077742D01*
X223427360Y-53020252D01*
X223476252Y-52971360D01*
X223533742Y-52932946D01*
X223597615Y-52906490D01*
X223597614Y-52906490D01*
X223597617Y-52906489D01*
X223665430Y-52893000D01*
X223734570Y-52893000D01*
X223802383Y-52906489D01*
X223802386Y-52906490D01*
X223802385Y-52906490D01*
X223866258Y-52932946D01*
X223933317Y-52977754D01*
X223934555Y-52978770D01*
X223956166Y-52990321D01*
X223979615Y-52997434D01*
X224004001Y-52999836D01*
X224028387Y-52997434D01*
X224051836Y-52990321D01*
X224073447Y-52978770D01*
X224092389Y-52963225D01*
X224107934Y-52944283D01*
X224119485Y-52922672D01*
X224126598Y-52899223D01*
X224129000Y-52874837D01*
X224129000Y-52583000D01*
X225391000Y-52583000D01*
X225391000Y-59685000D01*
G37*
G36*
X236841000Y-59405500D02*
G01*
X227979000Y-59405500D01*
X227979000Y-57778500D01*
X236841000Y-57778500D01*
X236841000Y-59405500D01*
G37*
G36*
X254588674Y-58052465D02*
G01*
X254626367Y-58063899D01*
X254661103Y-58082466D01*
X254691548Y-58107452D01*
X254716534Y-58137897D01*
X254735101Y-58172633D01*
X254746535Y-58210326D01*
X254751000Y-58255661D01*
X254751000Y-59092339D01*
X254746535Y-59137674D01*
X254735101Y-59175367D01*
X254716534Y-59210103D01*
X254691548Y-59240548D01*
X254661103Y-59265534D01*
X254626367Y-59284101D01*
X254588674Y-59295535D01*
X254543339Y-59300000D01*
X253456661Y-59300000D01*
X253411326Y-59295535D01*
X253373633Y-59284101D01*
X253338897Y-59265534D01*
X253308452Y-59240548D01*
X253283466Y-59210103D01*
X253264899Y-59175367D01*
X253253465Y-59137674D01*
X253249000Y-59092339D01*
X253249000Y-58255661D01*
X253253465Y-58210326D01*
X253264899Y-58172633D01*
X253283466Y-58137897D01*
X253308452Y-58107452D01*
X253338897Y-58082466D01*
X253373633Y-58063899D01*
X253411326Y-58052465D01*
X253456661Y-58048000D01*
X254543339Y-58048000D01*
X254588674Y-58052465D01*
G37*
G36*
X242262674Y-57673465D02*
G01*
X242300367Y-57684899D01*
X242335103Y-57703466D01*
X242365548Y-57728452D01*
X242390534Y-57758897D01*
X242409101Y-57793633D01*
X242420535Y-57831326D01*
X242425000Y-57876661D01*
X242425000Y-58963339D01*
X242420535Y-59008674D01*
X242409101Y-59046367D01*
X242390534Y-59081103D01*
X242365548Y-59111548D01*
X242335103Y-59136534D01*
X242300367Y-59155101D01*
X242262674Y-59166535D01*
X242217339Y-59171000D01*
X241380661Y-59171000D01*
X241335326Y-59166535D01*
X241297633Y-59155101D01*
X241262897Y-59136534D01*
X241232452Y-59111548D01*
X241207466Y-59081103D01*
X241188899Y-59046367D01*
X241177465Y-59008674D01*
X241173000Y-58963339D01*
X241173000Y-57876661D01*
X241177465Y-57831326D01*
X241188899Y-57793633D01*
X241207466Y-57758897D01*
X241232452Y-57728452D01*
X241262897Y-57703466D01*
X241297633Y-57684899D01*
X241335326Y-57673465D01*
X241380661Y-57669000D01*
X242217339Y-57669000D01*
X242262674Y-57673465D01*
G37*
G36*
X244312674Y-57673465D02*
G01*
X244350367Y-57684899D01*
X244385103Y-57703466D01*
X244415548Y-57728452D01*
X244440534Y-57758897D01*
X244459101Y-57793633D01*
X244470535Y-57831326D01*
X244475000Y-57876661D01*
X244475000Y-58963339D01*
X244470535Y-59008674D01*
X244459101Y-59046367D01*
X244440534Y-59081103D01*
X244415548Y-59111548D01*
X244385103Y-59136534D01*
X244350367Y-59155101D01*
X244312674Y-59166535D01*
X244267339Y-59171000D01*
X243430661Y-59171000D01*
X243385326Y-59166535D01*
X243347633Y-59155101D01*
X243312897Y-59136534D01*
X243282452Y-59111548D01*
X243257466Y-59081103D01*
X243238899Y-59046367D01*
X243227465Y-59008674D01*
X243223000Y-58963339D01*
X243223000Y-57876661D01*
X243227465Y-57831326D01*
X243238899Y-57793633D01*
X243257466Y-57758897D01*
X243282452Y-57728452D01*
X243312897Y-57703466D01*
X243347633Y-57684899D01*
X243385326Y-57673465D01*
X243430661Y-57669000D01*
X244267339Y-57669000D01*
X244312674Y-57673465D01*
G37*
G36*
X247379928Y-57817764D02*
G01*
X247401009Y-57824160D01*
X247420445Y-57834548D01*
X247437476Y-57848524D01*
X247451452Y-57865555D01*
X247461840Y-57884991D01*
X247468236Y-57906072D01*
X247471000Y-57934140D01*
X247471000Y-58397860D01*
X247468236Y-58425928D01*
X247461840Y-58447009D01*
X247451452Y-58466445D01*
X247437476Y-58483476D01*
X247420445Y-58497452D01*
X247401009Y-58507840D01*
X247379928Y-58514236D01*
X247351860Y-58517000D01*
X245538140Y-58517000D01*
X245510072Y-58514236D01*
X245488991Y-58507840D01*
X245469555Y-58497452D01*
X245452524Y-58483476D01*
X245438548Y-58466445D01*
X245428160Y-58447009D01*
X245421764Y-58425928D01*
X245419000Y-58397860D01*
X245419000Y-57934140D01*
X245421764Y-57906072D01*
X245428160Y-57884991D01*
X245438548Y-57865555D01*
X245452524Y-57848524D01*
X245469555Y-57834548D01*
X245488991Y-57824160D01*
X245510072Y-57817764D01*
X245538140Y-57815000D01*
X247351860Y-57815000D01*
X247379928Y-57817764D01*
G37*
G36*
X252329928Y-57817764D02*
G01*
X252351009Y-57824160D01*
X252370445Y-57834548D01*
X252387476Y-57848524D01*
X252401452Y-57865555D01*
X252411840Y-57884991D01*
X252418236Y-57906072D01*
X252421000Y-57934140D01*
X252421000Y-58397860D01*
X252418236Y-58425928D01*
X252411840Y-58447009D01*
X252401452Y-58466445D01*
X252387476Y-58483476D01*
X252370445Y-58497452D01*
X252351009Y-58507840D01*
X252329928Y-58514236D01*
X252301860Y-58517000D01*
X250488140Y-58517000D01*
X250460072Y-58514236D01*
X250438991Y-58507840D01*
X250419555Y-58497452D01*
X250402524Y-58483476D01*
X250388548Y-58466445D01*
X250378160Y-58447009D01*
X250371764Y-58425928D01*
X250369000Y-58397860D01*
X250369000Y-57934140D01*
X250371764Y-57906072D01*
X250378160Y-57884991D01*
X250388548Y-57865555D01*
X250402524Y-57848524D01*
X250419555Y-57834548D01*
X250438991Y-57824160D01*
X250460072Y-57817764D01*
X250488140Y-57815000D01*
X252301860Y-57815000D01*
X252329928Y-57817764D01*
G37*
G36*
X240364674Y-56773465D02*
G01*
X240402367Y-56784899D01*
X240437103Y-56803466D01*
X240467548Y-56828452D01*
X240492534Y-56858897D01*
X240511101Y-56893633D01*
X240522535Y-56931326D01*
X240527000Y-56976661D01*
X240527000Y-57813339D01*
X240522535Y-57858674D01*
X240511101Y-57896367D01*
X240492534Y-57931103D01*
X240467548Y-57961548D01*
X240437103Y-57986534D01*
X240402367Y-58005101D01*
X240364674Y-58016535D01*
X240319339Y-58021000D01*
X239232661Y-58021000D01*
X239187326Y-58016535D01*
X239149633Y-58005101D01*
X239114897Y-57986534D01*
X239084452Y-57961548D01*
X239059466Y-57931103D01*
X239040899Y-57896367D01*
X239029465Y-57858674D01*
X239025000Y-57813339D01*
X239025000Y-56976661D01*
X239029465Y-56931326D01*
X239040899Y-56893633D01*
X239059466Y-56858897D01*
X239084452Y-56828452D01*
X239114897Y-56803466D01*
X239149633Y-56784899D01*
X239187326Y-56773465D01*
X239232661Y-56769000D01*
X240319339Y-56769000D01*
X240364674Y-56773465D01*
G37*
G36*
X259224593Y-54658611D02*
G01*
X259385826Y-54690682D01*
X259456072Y-54719779D01*
X259658989Y-54803830D01*
X259725459Y-54848244D01*
X259904832Y-54968097D01*
X260113903Y-55177168D01*
X260121977Y-55189252D01*
X260278170Y-55423011D01*
X260391318Y-55696175D01*
X260449000Y-55986163D01*
X260449000Y-56281837D01*
X260391318Y-56571825D01*
X260278170Y-56844989D01*
X260278169Y-56844990D01*
X260113903Y-57090832D01*
X259904832Y-57299903D01*
X259900309Y-57302925D01*
X259658989Y-57464170D01*
X259557758Y-57506101D01*
X259385826Y-57577318D01*
X259240831Y-57606159D01*
X259095837Y-57635000D01*
X258800163Y-57635000D01*
X258655169Y-57606159D01*
X258510174Y-57577318D01*
X258338242Y-57506101D01*
X258237011Y-57464170D01*
X257995691Y-57302925D01*
X257991168Y-57299903D01*
X257782097Y-57090832D01*
X257617831Y-56844990D01*
X257617830Y-56844989D01*
X257504682Y-56571825D01*
X257447000Y-56281837D01*
X257447000Y-55986163D01*
X257504682Y-55696175D01*
X257617830Y-55423011D01*
X257774023Y-55189252D01*
X257782097Y-55177168D01*
X257991168Y-54968097D01*
X258170541Y-54848244D01*
X258237011Y-54803830D01*
X258439928Y-54719779D01*
X258510174Y-54690682D01*
X258671407Y-54658611D01*
X258800163Y-54633000D01*
X259095837Y-54633000D01*
X259224593Y-54658611D01*
G37*
G36*
X254588674Y-56274465D02*
G01*
X254626367Y-56285899D01*
X254661103Y-56304466D01*
X254691548Y-56329452D01*
X254716534Y-56359897D01*
X254735101Y-56394633D01*
X254746535Y-56432326D01*
X254751000Y-56477661D01*
X254751000Y-57314339D01*
X254746535Y-57359674D01*
X254735101Y-57397367D01*
X254716534Y-57432103D01*
X254691548Y-57462548D01*
X254661103Y-57487534D01*
X254626367Y-57506101D01*
X254588674Y-57517535D01*
X254543339Y-57522000D01*
X253456661Y-57522000D01*
X253411326Y-57517535D01*
X253373633Y-57506101D01*
X253338897Y-57487534D01*
X253308452Y-57462548D01*
X253283466Y-57432103D01*
X253264899Y-57397367D01*
X253253465Y-57359674D01*
X253249000Y-57314339D01*
X253249000Y-56477661D01*
X253253465Y-56432326D01*
X253264899Y-56394633D01*
X253283466Y-56359897D01*
X253308452Y-56329452D01*
X253338897Y-56304466D01*
X253373633Y-56285899D01*
X253411326Y-56274465D01*
X253456661Y-56270000D01*
X254543339Y-56270000D01*
X254588674Y-56274465D01*
G37*
G36*
X240535999Y-53588737D02*
G01*
X240545608Y-53591652D01*
X240554472Y-53596390D01*
X240562237Y-53602763D01*
X240568610Y-53610528D01*
X240573348Y-53619392D01*
X240576263Y-53629001D01*
X240577852Y-53645140D01*
X240577852Y-54632860D01*
X240576263Y-54648999D01*
X240573348Y-54658608D01*
X240568610Y-54667472D01*
X240562258Y-54675212D01*
X240562237Y-54675237D01*
X240554427Y-54681640D01*
X240554372Y-54681677D01*
X240544853Y-54689480D01*
X240544878Y-54689511D01*
X240531028Y-54700853D01*
X240515463Y-54719779D01*
X240503889Y-54741377D01*
X240496751Y-54764819D01*
X240494324Y-54789202D01*
X240496700Y-54813591D01*
X240503789Y-54837047D01*
X240515318Y-54858670D01*
X240530843Y-54877628D01*
X240549769Y-54893193D01*
X240552825Y-54895029D01*
X240554514Y-54896418D01*
X240554516Y-54896419D01*
X240560712Y-54901515D01*
X240562274Y-54902800D01*
X240568642Y-54910575D01*
X240571791Y-54916483D01*
X240573367Y-54919438D01*
X240576257Y-54929001D01*
X240576282Y-54929085D01*
X240577852Y-54945113D01*
X240577852Y-56082860D01*
X240576263Y-56098999D01*
X240573348Y-56108608D01*
X240568610Y-56117472D01*
X240562237Y-56125237D01*
X240554472Y-56131610D01*
X240545608Y-56136348D01*
X240535999Y-56139263D01*
X240519860Y-56140852D01*
X239032140Y-56140852D01*
X239016001Y-56139263D01*
X239006392Y-56136348D01*
X238997528Y-56131610D01*
X238989763Y-56125237D01*
X238983390Y-56117472D01*
X238978652Y-56108608D01*
X238975737Y-56098999D01*
X238974148Y-56082860D01*
X238974148Y-54945140D01*
X238975737Y-54929001D01*
X238978652Y-54919392D01*
X238983390Y-54910528D01*
X238989763Y-54902763D01*
X239002737Y-54892116D01*
X239011968Y-54885947D01*
X239029294Y-54868619D01*
X239042907Y-54848244D01*
X239052283Y-54825605D01*
X239057063Y-54801572D01*
X239057062Y-54777068D01*
X239052280Y-54753035D01*
X239042902Y-54730396D01*
X239029287Y-54710022D01*
X239011959Y-54692696D01*
X239002683Y-54685825D01*
X238989800Y-54675274D01*
X238988668Y-54673897D01*
X238983419Y-54667516D01*
X238978674Y-54658661D01*
X238977749Y-54655623D01*
X238975758Y-54649085D01*
X238975758Y-54649082D01*
X238975748Y-54649050D01*
X238974753Y-54639000D01*
X238974753Y-54638935D01*
X238974148Y-54632825D01*
X238974148Y-53645140D01*
X238975737Y-53629001D01*
X238978652Y-53619392D01*
X238983390Y-53610528D01*
X238989763Y-53602763D01*
X238997528Y-53596390D01*
X239006392Y-53591652D01*
X239016001Y-53588737D01*
X239032140Y-53587148D01*
X240519860Y-53587148D01*
X240535999Y-53588737D01*
G37*
G36*
X251135000Y-56088000D02*
G01*
X242133000Y-56088000D01*
X242133000Y-54236000D01*
X251135000Y-54236000D01*
X251135000Y-56088000D01*
G37*
G36*
X254588674Y-54224465D02*
G01*
X254626367Y-54235899D01*
X254661103Y-54254466D01*
X254691548Y-54279452D01*
X254716534Y-54309897D01*
X254735101Y-54344633D01*
X254746535Y-54382326D01*
X254751000Y-54427661D01*
X254751000Y-55264339D01*
X254746535Y-55309674D01*
X254735101Y-55347367D01*
X254716534Y-55382103D01*
X254691548Y-55412548D01*
X254661103Y-55437534D01*
X254626367Y-55456101D01*
X254588674Y-55467535D01*
X254543339Y-55472000D01*
X253456661Y-55472000D01*
X253411326Y-55467535D01*
X253373633Y-55456101D01*
X253338897Y-55437534D01*
X253308452Y-55412548D01*
X253283466Y-55382103D01*
X253264899Y-55347367D01*
X253253465Y-55309674D01*
X253249000Y-55264339D01*
X253249000Y-54427661D01*
X253253465Y-54382326D01*
X253264899Y-54344633D01*
X253283466Y-54309897D01*
X253308452Y-54279452D01*
X253338897Y-54254466D01*
X253373633Y-54235899D01*
X253411326Y-54224465D01*
X253456661Y-54220000D01*
X254543339Y-54220000D01*
X254588674Y-54224465D01*
G37*
G36*
X263795985Y-50617860D02*
G01*
X263908748Y-50640290D01*
X264040741Y-50694963D01*
X264227408Y-50772283D01*
X264514196Y-50963909D01*
X264758091Y-51207804D01*
X264949717Y-51494592D01*
X265019910Y-51664055D01*
X265076126Y-51799770D01*
X265081710Y-51813253D01*
X265149000Y-52151540D01*
X265149000Y-52496460D01*
X265133928Y-52572229D01*
X265081710Y-52834748D01*
X265028493Y-52963225D01*
X264949717Y-53153408D01*
X264758091Y-53440196D01*
X264514196Y-53684091D01*
X264227408Y-53875717D01*
X264040741Y-53953037D01*
X263908748Y-54007710D01*
X263795985Y-54030140D01*
X263570460Y-54075000D01*
X263225540Y-54075000D01*
X263000015Y-54030140D01*
X262887252Y-54007710D01*
X262755259Y-53953037D01*
X262568592Y-53875717D01*
X262281804Y-53684091D01*
X262037909Y-53440196D01*
X261846283Y-53153408D01*
X261767507Y-52963225D01*
X261714290Y-52834748D01*
X261662072Y-52572229D01*
X261647000Y-52496460D01*
X261647000Y-52151540D01*
X261714290Y-51813253D01*
X261719875Y-51799770D01*
X261776090Y-51664055D01*
X261846283Y-51494592D01*
X262037909Y-51207804D01*
X262281804Y-50963909D01*
X262568592Y-50772283D01*
X262755259Y-50694963D01*
X262887252Y-50640290D01*
X263000015Y-50617860D01*
X263225540Y-50573000D01*
X263570460Y-50573000D01*
X263795985Y-50617860D01*
G37*
G36*
X236841000Y-53981500D02*
G01*
X227979000Y-53981500D01*
X227979000Y-52354500D01*
X236841000Y-52354500D01*
X236841000Y-53981500D01*
G37*
G36*
X272536228Y-51505703D02*
G01*
X272691100Y-51569853D01*
X272830481Y-51662985D01*
X272949015Y-51781519D01*
X273042147Y-51920900D01*
X273106297Y-52075772D01*
X273139000Y-52240184D01*
X273139000Y-52407816D01*
X273106297Y-52572228D01*
X273042147Y-52727100D01*
X272949015Y-52866481D01*
X272830481Y-52985015D01*
X272691100Y-53078147D01*
X272536228Y-53142297D01*
X272371816Y-53175000D01*
X272204184Y-53175000D01*
X272039772Y-53142297D01*
X271884900Y-53078147D01*
X271745519Y-52985015D01*
X271626985Y-52866481D01*
X271533853Y-52727100D01*
X271469703Y-52572228D01*
X271437000Y-52407816D01*
X271437000Y-52240184D01*
X271469703Y-52075772D01*
X271533853Y-51920900D01*
X271626985Y-51781519D01*
X271745519Y-51662985D01*
X271884900Y-51569853D01*
X272039772Y-51505703D01*
X272204184Y-51473000D01*
X272371816Y-51473000D01*
X272536228Y-51505703D01*
G37*
G36*
X254775562Y-51491681D02*
G01*
X254810481Y-51502274D01*
X254842663Y-51519476D01*
X254870873Y-51542627D01*
X254894024Y-51570837D01*
X254911226Y-51603019D01*
X254921819Y-51637938D01*
X254926000Y-51680395D01*
X254926000Y-52821605D01*
X254921819Y-52864062D01*
X254911226Y-52898981D01*
X254894024Y-52931163D01*
X254870873Y-52959373D01*
X254842663Y-52982524D01*
X254810481Y-52999726D01*
X254775562Y-53010319D01*
X254733105Y-53014500D01*
X253266895Y-53014500D01*
X253224438Y-53010319D01*
X253189519Y-52999726D01*
X253157337Y-52982524D01*
X253129127Y-52959373D01*
X253105976Y-52931163D01*
X253088774Y-52898981D01*
X253078181Y-52864062D01*
X253074000Y-52821605D01*
X253074000Y-51680395D01*
X253078181Y-51637938D01*
X253088774Y-51603019D01*
X253105976Y-51570837D01*
X253129127Y-51542627D01*
X253157337Y-51519476D01*
X253189519Y-51502274D01*
X253224438Y-51491681D01*
X253266895Y-51487500D01*
X254733105Y-51487500D01*
X254775562Y-51491681D01*
G37*
G36*
X240535999Y-50323737D02*
G01*
X240545608Y-50326652D01*
X240554472Y-50331390D01*
X240562237Y-50337763D01*
X240568610Y-50345528D01*
X240573348Y-50354392D01*
X240576263Y-50364001D01*
X240577852Y-50380140D01*
X240577852Y-51367860D01*
X240576263Y-51383999D01*
X240573348Y-51393608D01*
X240568610Y-51402472D01*
X240562258Y-51410212D01*
X240562237Y-51410237D01*
X240554427Y-51416640D01*
X240554372Y-51416677D01*
X240544853Y-51424480D01*
X240544878Y-51424511D01*
X240531028Y-51435853D01*
X240515463Y-51454779D01*
X240503889Y-51476377D01*
X240496751Y-51499819D01*
X240494324Y-51524202D01*
X240496700Y-51548591D01*
X240503789Y-51572047D01*
X240515318Y-51593670D01*
X240530843Y-51612628D01*
X240549769Y-51628193D01*
X240552825Y-51630029D01*
X240554514Y-51631418D01*
X240554516Y-51631419D01*
X240560712Y-51636515D01*
X240562274Y-51637800D01*
X240568642Y-51645575D01*
X240571791Y-51651483D01*
X240573367Y-51654438D01*
X240575950Y-51662985D01*
X240576282Y-51664085D01*
X240577852Y-51680113D01*
X240577852Y-52817860D01*
X240576263Y-52833999D01*
X240573348Y-52843608D01*
X240568610Y-52852472D01*
X240562237Y-52860237D01*
X240554472Y-52866610D01*
X240545608Y-52871348D01*
X240535999Y-52874263D01*
X240519860Y-52875852D01*
X239032140Y-52875852D01*
X239016001Y-52874263D01*
X239006392Y-52871348D01*
X238997528Y-52866610D01*
X238989763Y-52860237D01*
X238983390Y-52852472D01*
X238978652Y-52843608D01*
X238975737Y-52833999D01*
X238974148Y-52817860D01*
X238974148Y-51680140D01*
X238975737Y-51664001D01*
X238978652Y-51654392D01*
X238983390Y-51645528D01*
X238989763Y-51637763D01*
X239002737Y-51627116D01*
X239011968Y-51620947D01*
X239029294Y-51603619D01*
X239042907Y-51583244D01*
X239052283Y-51560605D01*
X239057063Y-51536572D01*
X239057062Y-51512068D01*
X239052280Y-51488035D01*
X239042902Y-51465396D01*
X239029287Y-51445022D01*
X239011959Y-51427696D01*
X239002683Y-51420825D01*
X238989800Y-51410274D01*
X238988668Y-51408897D01*
X238983419Y-51402516D01*
X238978674Y-51393661D01*
X238977749Y-51390623D01*
X238975758Y-51384085D01*
X238975758Y-51384082D01*
X238975748Y-51384050D01*
X238974753Y-51374000D01*
X238974753Y-51373935D01*
X238974148Y-51367825D01*
X238974148Y-50380140D01*
X238975737Y-50364001D01*
X238978652Y-50354392D01*
X238983390Y-50345528D01*
X238989763Y-50337763D01*
X238997528Y-50331390D01*
X239006392Y-50326652D01*
X239016001Y-50323737D01*
X239032140Y-50322148D01*
X240519860Y-50322148D01*
X240535999Y-50323737D01*
G37*
G36*
X220508213Y-51320249D02*
G01*
X220602652Y-51348897D01*
X220689687Y-51395418D01*
X220765975Y-51458025D01*
X220828582Y-51534313D01*
X220875103Y-51621348D01*
X220903751Y-51715787D01*
X220913424Y-51814000D01*
X220903751Y-51912213D01*
X220875103Y-52006652D01*
X220828582Y-52093687D01*
X220765975Y-52169975D01*
X220689687Y-52232582D01*
X220602652Y-52279103D01*
X220508213Y-52307751D01*
X220434612Y-52315000D01*
X219585388Y-52315000D01*
X219511787Y-52307751D01*
X219417348Y-52279103D01*
X219330313Y-52232582D01*
X219254025Y-52169975D01*
X219191418Y-52093687D01*
X219144897Y-52006652D01*
X219116249Y-51912213D01*
X219106576Y-51814000D01*
X219116249Y-51715787D01*
X219144897Y-51621348D01*
X219191418Y-51534313D01*
X219254025Y-51458025D01*
X219330313Y-51395418D01*
X219417348Y-51348897D01*
X219511787Y-51320249D01*
X219585388Y-51313000D01*
X220434612Y-51313000D01*
X220508213Y-51320249D01*
G37*
G36*
X224828213Y-51320249D02*
G01*
X224922652Y-51348897D01*
X225009687Y-51395418D01*
X225085975Y-51458025D01*
X225148582Y-51534313D01*
X225195103Y-51621348D01*
X225223751Y-51715787D01*
X225233424Y-51814000D01*
X225223751Y-51912213D01*
X225195103Y-52006652D01*
X225148582Y-52093687D01*
X225085975Y-52169975D01*
X225009687Y-52232582D01*
X224922652Y-52279103D01*
X224828213Y-52307751D01*
X224754612Y-52315000D01*
X223605388Y-52315000D01*
X223531787Y-52307751D01*
X223437348Y-52279103D01*
X223350313Y-52232582D01*
X223274025Y-52169975D01*
X223211418Y-52093687D01*
X223164897Y-52006652D01*
X223136249Y-51912213D01*
X223126576Y-51814000D01*
X223136249Y-51715787D01*
X223164897Y-51621348D01*
X223211418Y-51534313D01*
X223274025Y-51458025D01*
X223350313Y-51395418D01*
X223437348Y-51348897D01*
X223531787Y-51320249D01*
X223605388Y-51313000D01*
X224754612Y-51313000D01*
X224828213Y-51320249D01*
G37*
G36*
X237962674Y-50307465D02*
G01*
X238000367Y-50318899D01*
X238035103Y-50337466D01*
X238065548Y-50362452D01*
X238090534Y-50392897D01*
X238109101Y-50427633D01*
X238120535Y-50465326D01*
X238125000Y-50510661D01*
X238125000Y-51597339D01*
X238120535Y-51642674D01*
X238109101Y-51680367D01*
X238090534Y-51715103D01*
X238065548Y-51745548D01*
X238035103Y-51770534D01*
X238000367Y-51789101D01*
X237962674Y-51800535D01*
X237917339Y-51805000D01*
X237080661Y-51805000D01*
X237035326Y-51800535D01*
X236997633Y-51789101D01*
X236962897Y-51770534D01*
X236932452Y-51745548D01*
X236907466Y-51715103D01*
X236888899Y-51680367D01*
X236877465Y-51642674D01*
X236873000Y-51597339D01*
X236873000Y-50510661D01*
X236877465Y-50465326D01*
X236888899Y-50427633D01*
X236907466Y-50392897D01*
X236932452Y-50362452D01*
X236962897Y-50337466D01*
X236997633Y-50318899D01*
X237035326Y-50307465D01*
X237080661Y-50303000D01*
X237917339Y-50303000D01*
X237962674Y-50307465D01*
G37*
G36*
X228292674Y-50307465D02*
G01*
X228330367Y-50318899D01*
X228365103Y-50337466D01*
X228395548Y-50362452D01*
X228420534Y-50392897D01*
X228439101Y-50427633D01*
X228450535Y-50465326D01*
X228455000Y-50510661D01*
X228455000Y-51597339D01*
X228450535Y-51642674D01*
X228439101Y-51680367D01*
X228420534Y-51715103D01*
X228395548Y-51745548D01*
X228365103Y-51770534D01*
X228330367Y-51789101D01*
X228292674Y-51800535D01*
X228247339Y-51805000D01*
X227410661Y-51805000D01*
X227365326Y-51800535D01*
X227327633Y-51789101D01*
X227292897Y-51770534D01*
X227262452Y-51745548D01*
X227237466Y-51715103D01*
X227218899Y-51680367D01*
X227207465Y-51642674D01*
X227203000Y-51597339D01*
X227203000Y-50510661D01*
X227207465Y-50465326D01*
X227218899Y-50427633D01*
X227237466Y-50392897D01*
X227262452Y-50362452D01*
X227292897Y-50337466D01*
X227327633Y-50318899D01*
X227365326Y-50307465D01*
X227410661Y-50303000D01*
X228247339Y-50303000D01*
X228292674Y-50307465D01*
G37*
G36*
X230342674Y-50307465D02*
G01*
X230380367Y-50318899D01*
X230415103Y-50337466D01*
X230445548Y-50362452D01*
X230470534Y-50392897D01*
X230489101Y-50427633D01*
X230500535Y-50465326D01*
X230505000Y-50510661D01*
X230505000Y-51597339D01*
X230500535Y-51642674D01*
X230489101Y-51680367D01*
X230470534Y-51715103D01*
X230445548Y-51745548D01*
X230415103Y-51770534D01*
X230380367Y-51789101D01*
X230342674Y-51800535D01*
X230297339Y-51805000D01*
X229460661Y-51805000D01*
X229415326Y-51800535D01*
X229377633Y-51789101D01*
X229342897Y-51770534D01*
X229312452Y-51745548D01*
X229287466Y-51715103D01*
X229268899Y-51680367D01*
X229257465Y-51642674D01*
X229253000Y-51597339D01*
X229253000Y-50510661D01*
X229257465Y-50465326D01*
X229268899Y-50427633D01*
X229287466Y-50392897D01*
X229312452Y-50362452D01*
X229342897Y-50337466D01*
X229377633Y-50318899D01*
X229415326Y-50307465D01*
X229460661Y-50303000D01*
X230297339Y-50303000D01*
X230342674Y-50307465D01*
G37*
G36*
X235912674Y-50307465D02*
G01*
X235950367Y-50318899D01*
X235985103Y-50337466D01*
X236015548Y-50362452D01*
X236040534Y-50392897D01*
X236059101Y-50427633D01*
X236070535Y-50465326D01*
X236075000Y-50510661D01*
X236075000Y-51597339D01*
X236070535Y-51642674D01*
X236059101Y-51680367D01*
X236040534Y-51715103D01*
X236015548Y-51745548D01*
X235985103Y-51770534D01*
X235950367Y-51789101D01*
X235912674Y-51800535D01*
X235867339Y-51805000D01*
X235030661Y-51805000D01*
X234985326Y-51800535D01*
X234947633Y-51789101D01*
X234912897Y-51770534D01*
X234882452Y-51745548D01*
X234857466Y-51715103D01*
X234838899Y-51680367D01*
X234827465Y-51642674D01*
X234823000Y-51597339D01*
X234823000Y-50510661D01*
X234827465Y-50465326D01*
X234838899Y-50427633D01*
X234857466Y-50392897D01*
X234882452Y-50362452D01*
X234912897Y-50337466D01*
X234947633Y-50318899D01*
X234985326Y-50307465D01*
X235030661Y-50303000D01*
X235867339Y-50303000D01*
X235912674Y-50307465D01*
G37*
G36*
X234152674Y-50307465D02*
G01*
X234190367Y-50318899D01*
X234225103Y-50337466D01*
X234255548Y-50362452D01*
X234280534Y-50392897D01*
X234299101Y-50427633D01*
X234310535Y-50465326D01*
X234315000Y-50510661D01*
X234315000Y-51597339D01*
X234310535Y-51642674D01*
X234299101Y-51680367D01*
X234280534Y-51715103D01*
X234255548Y-51745548D01*
X234225103Y-51770534D01*
X234190367Y-51789101D01*
X234152674Y-51800535D01*
X234107339Y-51805000D01*
X233270661Y-51805000D01*
X233225326Y-51800535D01*
X233187633Y-51789101D01*
X233152897Y-51770534D01*
X233122452Y-51745548D01*
X233097466Y-51715103D01*
X233078899Y-51680367D01*
X233067465Y-51642674D01*
X233063000Y-51597339D01*
X233063000Y-50510661D01*
X233067465Y-50465326D01*
X233078899Y-50427633D01*
X233097466Y-50392897D01*
X233122452Y-50362452D01*
X233152897Y-50337466D01*
X233187633Y-50318899D01*
X233225326Y-50307465D01*
X233270661Y-50303000D01*
X234107339Y-50303000D01*
X234152674Y-50307465D01*
G37*
G36*
X232102674Y-50307465D02*
G01*
X232140367Y-50318899D01*
X232175103Y-50337466D01*
X232205548Y-50362452D01*
X232230534Y-50392897D01*
X232249101Y-50427633D01*
X232260535Y-50465326D01*
X232265000Y-50510661D01*
X232265000Y-51597339D01*
X232260535Y-51642674D01*
X232249101Y-51680367D01*
X232230534Y-51715103D01*
X232205548Y-51745548D01*
X232175103Y-51770534D01*
X232140367Y-51789101D01*
X232102674Y-51800535D01*
X232057339Y-51805000D01*
X231220661Y-51805000D01*
X231175326Y-51800535D01*
X231137633Y-51789101D01*
X231102897Y-51770534D01*
X231072452Y-51745548D01*
X231047466Y-51715103D01*
X231028899Y-51680367D01*
X231017465Y-51642674D01*
X231013000Y-51597339D01*
X231013000Y-50510661D01*
X231017465Y-50465326D01*
X231028899Y-50427633D01*
X231047466Y-50392897D01*
X231072452Y-50362452D01*
X231102897Y-50337466D01*
X231137633Y-50318899D01*
X231175326Y-50307465D01*
X231220661Y-50303000D01*
X232057339Y-50303000D01*
X232102674Y-50307465D01*
G37*
G36*
X254775562Y-48516681D02*
G01*
X254810481Y-48527274D01*
X254842663Y-48544476D01*
X254870873Y-48567627D01*
X254894024Y-48595837D01*
X254911226Y-48628019D01*
X254921819Y-48662938D01*
X254926000Y-48705395D01*
X254926000Y-49846605D01*
X254921819Y-49889062D01*
X254911226Y-49923981D01*
X254894024Y-49956163D01*
X254870873Y-49984373D01*
X254842663Y-50007524D01*
X254810481Y-50024726D01*
X254775562Y-50035319D01*
X254733105Y-50039500D01*
X253266895Y-50039500D01*
X253224438Y-50035319D01*
X253189519Y-50024726D01*
X253157337Y-50007524D01*
X253129127Y-49984373D01*
X253105976Y-49956163D01*
X253088774Y-49923981D01*
X253078181Y-49889062D01*
X253074000Y-49846605D01*
X253074000Y-48705395D01*
X253078181Y-48662938D01*
X253088774Y-48628019D01*
X253105976Y-48595837D01*
X253129127Y-48567627D01*
X253157337Y-48544476D01*
X253189519Y-48527274D01*
X253224438Y-48516681D01*
X253266895Y-48512500D01*
X254733105Y-48512500D01*
X254775562Y-48516681D01*
G37*
G36*
X225691000Y-49923000D02*
G01*
X223889000Y-49923000D01*
X223889000Y-48121000D01*
X225691000Y-48121000D01*
X225691000Y-49923000D01*
G37*
G36*
X220585512Y-48125927D02*
G01*
X220734812Y-48155624D01*
X220898784Y-48223544D01*
X221046354Y-48322147D01*
X221171853Y-48447646D01*
X221270456Y-48595216D01*
X221338376Y-48759188D01*
X221373000Y-48933259D01*
X221373000Y-49110741D01*
X221338376Y-49284812D01*
X221270456Y-49448784D01*
X221171853Y-49596354D01*
X221046354Y-49721853D01*
X220898784Y-49820456D01*
X220734812Y-49888376D01*
X220585512Y-49918073D01*
X220560742Y-49923000D01*
X220383258Y-49923000D01*
X220358488Y-49918073D01*
X220209188Y-49888376D01*
X220045216Y-49820456D01*
X219897646Y-49721853D01*
X219772147Y-49596354D01*
X219673544Y-49448784D01*
X219605624Y-49284812D01*
X219571000Y-49110741D01*
X219571000Y-48933259D01*
X219605624Y-48759188D01*
X219673544Y-48595216D01*
X219772147Y-48447646D01*
X219897646Y-48322147D01*
X220045216Y-48223544D01*
X220209188Y-48155624D01*
X220358488Y-48125927D01*
X220383258Y-48121000D01*
X220560742Y-48121000D01*
X220585512Y-48125927D01*
G37*
G36*
X251135000Y-48888000D02*
G01*
X242133000Y-48888000D01*
X242133000Y-47036000D01*
X251135000Y-47036000D01*
X251135000Y-48888000D01*
G37*
G36*
X231985000Y-48041000D02*
G01*
X227383000Y-48041000D01*
X227383000Y-45939000D01*
X231985000Y-45939000D01*
X231985000Y-48041000D01*
G37*
G36*
X240485000Y-48041000D02*
G01*
X235883000Y-48041000D01*
X235883000Y-45939000D01*
X240485000Y-45939000D01*
X240485000Y-48041000D01*
G37*
G36*
X221373000Y-47383000D02*
G01*
X219571000Y-47383000D01*
X219571000Y-45581000D01*
X221373000Y-45581000D01*
X221373000Y-47383000D01*
G37*
G36*
X224903512Y-45585927D02*
G01*
X225052812Y-45615624D01*
X225216784Y-45683544D01*
X225364354Y-45782147D01*
X225489853Y-45907646D01*
X225588456Y-46055216D01*
X225656376Y-46219188D01*
X225691000Y-46393259D01*
X225691000Y-46570741D01*
X225656376Y-46744812D01*
X225588456Y-46908784D01*
X225489853Y-47056354D01*
X225364354Y-47181853D01*
X225216784Y-47280456D01*
X225052812Y-47348376D01*
X224903512Y-47378073D01*
X224878742Y-47383000D01*
X224701258Y-47383000D01*
X224676488Y-47378073D01*
X224527188Y-47348376D01*
X224363216Y-47280456D01*
X224215646Y-47181853D01*
X224090147Y-47056354D01*
X223991544Y-46908784D01*
X223923624Y-46744812D01*
X223889000Y-46570741D01*
X223889000Y-46393259D01*
X223923624Y-46219188D01*
X223991544Y-46055216D01*
X224090147Y-45907646D01*
X224215646Y-45782147D01*
X224363216Y-45683544D01*
X224527188Y-45615624D01*
X224676488Y-45585927D01*
X224701258Y-45581000D01*
X224878742Y-45581000D01*
X224903512Y-45585927D01*
G37*
G36*
X243532674Y-44719465D02*
G01*
X243570367Y-44730899D01*
X243605103Y-44749466D01*
X243635548Y-44774452D01*
X243660534Y-44804897D01*
X243679101Y-44839633D01*
X243690535Y-44877326D01*
X243695000Y-44922661D01*
X243695000Y-46009339D01*
X243690535Y-46054674D01*
X243679101Y-46092367D01*
X243660534Y-46127103D01*
X243635548Y-46157548D01*
X243605103Y-46182534D01*
X243570367Y-46201101D01*
X243532674Y-46212535D01*
X243487339Y-46217000D01*
X242650661Y-46217000D01*
X242605326Y-46212535D01*
X242567633Y-46201101D01*
X242532897Y-46182534D01*
X242502452Y-46157548D01*
X242477466Y-46127103D01*
X242458899Y-46092367D01*
X242447465Y-46054674D01*
X242443000Y-46009339D01*
X242443000Y-44922661D01*
X242447465Y-44877326D01*
X242458899Y-44839633D01*
X242477466Y-44804897D01*
X242502452Y-44774452D01*
X242532897Y-44749466D01*
X242567633Y-44730899D01*
X242605326Y-44719465D01*
X242650661Y-44715000D01*
X243487339Y-44715000D01*
X243532674Y-44719465D01*
G37*
G36*
X245582674Y-44719465D02*
G01*
X245620367Y-44730899D01*
X245655103Y-44749466D01*
X245685548Y-44774452D01*
X245710534Y-44804897D01*
X245729101Y-44839633D01*
X245740535Y-44877326D01*
X245745000Y-44922661D01*
X245745000Y-46009339D01*
X245740535Y-46054674D01*
X245729101Y-46092367D01*
X245710534Y-46127103D01*
X245685548Y-46157548D01*
X245655103Y-46182534D01*
X245620367Y-46201101D01*
X245582674Y-46212535D01*
X245537339Y-46217000D01*
X244700661Y-46217000D01*
X244655326Y-46212535D01*
X244617633Y-46201101D01*
X244582897Y-46182534D01*
X244552452Y-46157548D01*
X244527466Y-46127103D01*
X244508899Y-46092367D01*
X244497465Y-46054674D01*
X244493000Y-46009339D01*
X244493000Y-44922661D01*
X244497465Y-44877326D01*
X244508899Y-44839633D01*
X244527466Y-44804897D01*
X244552452Y-44774452D01*
X244582897Y-44749466D01*
X244617633Y-44730899D01*
X244655326Y-44719465D01*
X244700661Y-44715000D01*
X245537339Y-44715000D01*
X245582674Y-44719465D01*
G37*
G36*
X247587674Y-44719465D02*
G01*
X247625367Y-44730899D01*
X247660103Y-44749466D01*
X247690548Y-44774452D01*
X247715534Y-44804897D01*
X247734101Y-44839633D01*
X247745535Y-44877326D01*
X247750000Y-44922661D01*
X247750000Y-46009339D01*
X247745535Y-46054674D01*
X247734101Y-46092367D01*
X247715534Y-46127103D01*
X247690548Y-46157548D01*
X247660103Y-46182534D01*
X247625367Y-46201101D01*
X247587674Y-46212535D01*
X247542339Y-46217000D01*
X246705661Y-46217000D01*
X246660326Y-46212535D01*
X246622633Y-46201101D01*
X246587897Y-46182534D01*
X246557452Y-46157548D01*
X246532466Y-46127103D01*
X246513899Y-46092367D01*
X246502465Y-46054674D01*
X246498000Y-46009339D01*
X246498000Y-44922661D01*
X246502465Y-44877326D01*
X246513899Y-44839633D01*
X246532466Y-44804897D01*
X246557452Y-44774452D01*
X246587897Y-44749466D01*
X246622633Y-44730899D01*
X246660326Y-44719465D01*
X246705661Y-44715000D01*
X247542339Y-44715000D01*
X247587674Y-44719465D01*
G37*
G36*
X249637674Y-44719465D02*
G01*
X249675367Y-44730899D01*
X249710103Y-44749466D01*
X249740548Y-44774452D01*
X249765534Y-44804897D01*
X249784101Y-44839633D01*
X249795535Y-44877326D01*
X249800000Y-44922661D01*
X249800000Y-46009339D01*
X249795535Y-46054674D01*
X249784101Y-46092367D01*
X249765534Y-46127103D01*
X249740548Y-46157548D01*
X249710103Y-46182534D01*
X249675367Y-46201101D01*
X249637674Y-46212535D01*
X249592339Y-46217000D01*
X248755661Y-46217000D01*
X248710326Y-46212535D01*
X248672633Y-46201101D01*
X248637897Y-46182534D01*
X248607452Y-46157548D01*
X248582466Y-46127103D01*
X248563899Y-46092367D01*
X248552465Y-46054674D01*
X248548000Y-46009339D01*
X248548000Y-44922661D01*
X248552465Y-44877326D01*
X248563899Y-44839633D01*
X248582466Y-44804897D01*
X248607452Y-44774452D01*
X248637897Y-44749466D01*
X248672633Y-44730899D01*
X248710326Y-44719465D01*
X248755661Y-44715000D01*
X249592339Y-44715000D01*
X249637674Y-44719465D01*
G37*
M02*
