M48
; DRILL file {KiCad (5.1.4)-1} date 12/08/2020 13:25:08
; FORMAT={-:-/ absolute / metric / decimal}
; #@! TF.CreationDate,2020-08-12T13:25:08+02:00
; #@! TF.GenerationSoftware,Kicad,Pcbnew,(5.1.4)-1
FMAT,2
METRIC
T1C0.400
T2C0.600
T3C1.000
T4C1.200
T5C1.600
T6C0.600
T7C1.600
%
G90
G05
T1
X226.06Y-56.642
X226.06Y-124.46
X226.251Y-123.001
X226.503Y-59.386
X226.544Y-55.626
X226.568Y-105.901
X226.568Y-106.951
X226.577Y-99.568
X226.597Y-80.735
X226.605Y-132.014
X226.684Y-98.221
X226.706Y-131.019
X226.822Y-81.805
X227.076Y-72.644
X227.076Y-73.644
X227.215Y-58.196
X227.33Y-111.252
X227.584Y-64.516
X227.838Y-86.614
X228.119Y-59.944
X228.367Y-56.787
X229.87Y-97.282
X229.87Y-110.998
X230.124Y-126.492
X230.632Y-51.805
X230.632Y-86.36
X230.886Y-125.73
X231.825Y-120.767
X231.902Y-121.817
X232.617Y-71.684
X232.664Y-96.503
X232.664Y-97.553
X232.956Y-72.625
X233.68Y-98.298
X233.853Y-56.51
X233.934Y-54.61
X234.82Y-56.787
X235.19Y-72.367
X236.728Y-73.152
X236.967Y-53.274
X237.7Y-54.139
X237.744Y-49.784
X237.744Y-57.912
X241.046Y-56.896
X241.554Y-122.682
X241.808Y-72.898
X242.062Y-98.298
X242.316Y-56.896
X242.316Y-108.966
X242.571Y-84.008
X242.824Y-111.76
X242.829Y-59.431
X243.018Y-134.107
X243.337Y-136.393
X243.782Y-59.748
X244.253Y-49.117
X244.279Y-101.949
X244.348Y-127.0
X244.602Y-76.962
X245.11Y-84.836
X245.364Y-87.884
X245.364Y-110.49
X245.364Y-136.144
X245.618Y-72.898
X246.38Y-134.112
X246.634Y-56.896
X246.834Y-77.198
X246.884Y-49.53
X246.888Y-84.328
X246.888Y-98.298
X246.888Y-122.682
X246.998Y-102.15
X247.034Y-127.038
X247.142Y-109.474
X247.528Y-51.44
X247.904Y-60.452
X248.158Y-50.546
X248.412Y-77.216
X248.666Y-57.404
X248.83Y-49.44
X248.92Y-102.108
X248.92Y-127.0
X248.977Y-87.63
X249.174Y-112.776
X249.174Y-137.922
X249.428Y-109.728
X249.936Y-134.874
X250.03Y-84.224
X252.73Y-63.246
X252.73Y-125.222
X252.984Y-75.692
X252.984Y-90.678
X253.238Y-92.964
X253.238Y-94.996
X253.492Y-67.818
X253.492Y-69.85
X253.492Y-115.57
X253.492Y-118.11
X253.492Y-120.142
X253.492Y-140.462
X254.0Y-92.964
X254.0Y-94.996
X254.254Y-67.818
X254.254Y-69.85
X254.254Y-118.11
X254.254Y-120.142
X254.762Y-92.964
X254.762Y-94.996
X255.016Y-67.818
X255.016Y-69.85
X255.016Y-118.11
X255.016Y-120.142
X255.524Y-49.784
X255.524Y-92.964
X255.524Y-94.996
X255.778Y-67.818
X255.778Y-69.85
X255.778Y-118.11
X255.778Y-120.142
T3
X234.95Y-65.532
X237.49Y-65.532
X240.03Y-65.532
X242.57Y-65.532
X268.2Y-101.26
X268.2Y-103.8
X268.2Y-106.34
X268.2Y-51.2
X268.2Y-53.74
X268.2Y-56.28
X268.2Y-126.46
X268.2Y-129.0
X268.2Y-131.54
X268.2Y-76.06
X268.2Y-78.6
X268.2Y-81.14
T4
X258.948Y-56.134
X258.948Y-131.572
X258.948Y-81.28
X258.948Y-106.426
T5
X262.763Y-59.944
X263.398Y-52.324
X262.763Y-135.382
X263.398Y-127.762
X262.763Y-85.09
X263.398Y-77.47
X262.763Y-110.236
X263.398Y-102.616
T6
X223.7Y-103.536
X223.7Y-109.316
X223.7Y-78.39
X223.7Y-84.17
X223.7Y-128.682
X223.7Y-134.462
X223.7Y-53.244
X223.7Y-59.024
T7
X267.208Y-59.944
X272.288Y-52.324
X267.208Y-135.382
X272.288Y-127.762
X267.208Y-85.09
X272.288Y-77.47
X267.208Y-110.236
X272.288Y-102.616
T2
G00X219.61Y-102.106
M15
G01X220.41Y-102.106
M16
G05
G00X219.61Y-110.746
M15
G01X220.41Y-110.746
M16
G05
G00X223.63Y-102.106
M15
G01X224.73Y-102.106
M16
G05
G00X223.63Y-110.746
M15
G01X224.73Y-110.746
M16
G05
G00X219.61Y-76.96
M15
G01X220.41Y-76.96
M16
G05
G00X219.61Y-85.6
M15
G01X220.41Y-85.6
M16
G05
G00X223.63Y-76.96
M15
G01X224.73Y-76.96
M16
G05
G00X223.63Y-85.6
M15
G01X224.73Y-85.6
M16
G05
G00X219.61Y-127.252
M15
G01X220.41Y-127.252
M16
G05
G00X219.61Y-135.892
M15
G01X220.41Y-135.892
M16
G05
G00X223.63Y-127.252
M15
G01X224.73Y-127.252
M16
G05
G00X223.63Y-135.892
M15
G01X224.73Y-135.892
M16
G05
G00X219.61Y-51.814
M15
G01X220.41Y-51.814
M16
G05
G00X219.61Y-60.454
M15
G01X220.41Y-60.454
M16
G05
G00X223.63Y-51.814
M15
G01X224.73Y-51.814
M16
G05
G00X223.63Y-60.454
M15
G01X224.73Y-60.454
M16
G05
T0
M30
