G04 #@! TF.GenerationSoftware,KiCad,Pcbnew,(5.1.5)-3*
G04 #@! TF.CreationDate,2020-07-04T05:18:36+02:00*
G04 #@! TF.ProjectId,DMX_usb,444d585f-7573-4622-9e6b-696361645f70,rev?*
G04 #@! TF.SameCoordinates,Original*
G04 #@! TF.FileFunction,Legend,Top*
G04 #@! TF.FilePolarity,Positive*
%FSLAX46Y46*%
G04 Gerber Fmt 4.6, Leading zero omitted, Abs format (unit mm)*
G04 Created by KiCad (PCBNEW (5.1.5)-3) date 2020-07-04 05:18:36*
%MOMM*%
%LPD*%
G04 APERTURE LIST*
%ADD10C,0.150000*%
%ADD11C,0.120000*%
%ADD12C,0.200000*%
%ADD13C,0.254000*%
G04 APERTURE END LIST*
D10*
X230934857Y-141692380D02*
X230934857Y-142501904D01*
X230982476Y-142597142D01*
X231030095Y-142644761D01*
X231125333Y-142692380D01*
X231315809Y-142692380D01*
X231411047Y-142644761D01*
X231458666Y-142597142D01*
X231506285Y-142501904D01*
X231506285Y-141692380D01*
X231934857Y-142644761D02*
X232030095Y-142692380D01*
X232220571Y-142692380D01*
X232315809Y-142644761D01*
X232363428Y-142549523D01*
X232363428Y-142501904D01*
X232315809Y-142406666D01*
X232220571Y-142359047D01*
X232077714Y-142359047D01*
X231982476Y-142311428D01*
X231934857Y-142216190D01*
X231934857Y-142168571D01*
X231982476Y-142073333D01*
X232077714Y-142025714D01*
X232220571Y-142025714D01*
X232315809Y-142073333D01*
X232792000Y-142692380D02*
X232792000Y-141692380D01*
X232792000Y-142073333D02*
X232887238Y-142025714D01*
X233077714Y-142025714D01*
X233172952Y-142073333D01*
X233220571Y-142120952D01*
X233268190Y-142216190D01*
X233268190Y-142501904D01*
X233220571Y-142597142D01*
X233172952Y-142644761D01*
X233077714Y-142692380D01*
X232887238Y-142692380D01*
X232792000Y-142644761D01*
X234458666Y-142692380D02*
X234458666Y-141692380D01*
X234696761Y-141692380D01*
X234839619Y-141740000D01*
X234934857Y-141835238D01*
X234982476Y-141930476D01*
X235030095Y-142120952D01*
X235030095Y-142263809D01*
X234982476Y-142454285D01*
X234934857Y-142549523D01*
X234839619Y-142644761D01*
X234696761Y-142692380D01*
X234458666Y-142692380D01*
X235458666Y-142692380D02*
X235458666Y-141692380D01*
X235792000Y-142406666D01*
X236125333Y-141692380D01*
X236125333Y-142692380D01*
X236506285Y-141692380D02*
X237172952Y-142692380D01*
X237172952Y-141692380D02*
X236506285Y-142692380D01*
X238744380Y-142692380D02*
X238744380Y-141692380D01*
X238744380Y-142644761D02*
X238649142Y-142692380D01*
X238458666Y-142692380D01*
X238363428Y-142644761D01*
X238315809Y-142597142D01*
X238268190Y-142501904D01*
X238268190Y-142216190D01*
X238315809Y-142120952D01*
X238363428Y-142073333D01*
X238458666Y-142025714D01*
X238649142Y-142025714D01*
X238744380Y-142073333D01*
X239363428Y-142692380D02*
X239268190Y-142644761D01*
X239220571Y-142597142D01*
X239172952Y-142501904D01*
X239172952Y-142216190D01*
X239220571Y-142120952D01*
X239268190Y-142073333D01*
X239363428Y-142025714D01*
X239506285Y-142025714D01*
X239601523Y-142073333D01*
X239649142Y-142120952D01*
X239696761Y-142216190D01*
X239696761Y-142501904D01*
X239649142Y-142597142D01*
X239601523Y-142644761D01*
X239506285Y-142692380D01*
X239363428Y-142692380D01*
X240125333Y-142025714D02*
X240125333Y-142692380D01*
X240125333Y-142120952D02*
X240172952Y-142073333D01*
X240268190Y-142025714D01*
X240411047Y-142025714D01*
X240506285Y-142073333D01*
X240553904Y-142168571D01*
X240553904Y-142692380D01*
X241458666Y-142025714D02*
X241458666Y-142835238D01*
X241411047Y-142930476D01*
X241363428Y-142978095D01*
X241268190Y-143025714D01*
X241125333Y-143025714D01*
X241030095Y-142978095D01*
X241458666Y-142644761D02*
X241363428Y-142692380D01*
X241172952Y-142692380D01*
X241077714Y-142644761D01*
X241030095Y-142597142D01*
X240982476Y-142501904D01*
X240982476Y-142216190D01*
X241030095Y-142120952D01*
X241077714Y-142073333D01*
X241172952Y-142025714D01*
X241363428Y-142025714D01*
X241458666Y-142073333D01*
X242077714Y-142692380D02*
X241982476Y-142644761D01*
X241934857Y-142549523D01*
X241934857Y-141692380D01*
X242839619Y-142644761D02*
X242744380Y-142692380D01*
X242553904Y-142692380D01*
X242458666Y-142644761D01*
X242411047Y-142549523D01*
X242411047Y-142168571D01*
X242458666Y-142073333D01*
X242553904Y-142025714D01*
X242744380Y-142025714D01*
X242839619Y-142073333D01*
X242887238Y-142168571D01*
X242887238Y-142263809D01*
X242411047Y-142359047D01*
X244411047Y-142168571D02*
X244553904Y-142216190D01*
X244601523Y-142263809D01*
X244649142Y-142359047D01*
X244649142Y-142501904D01*
X244601523Y-142597142D01*
X244553904Y-142644761D01*
X244458666Y-142692380D01*
X244077714Y-142692380D01*
X244077714Y-141692380D01*
X244411047Y-141692380D01*
X244506285Y-141740000D01*
X244553904Y-141787619D01*
X244601523Y-141882857D01*
X244601523Y-141978095D01*
X244553904Y-142073333D01*
X244506285Y-142120952D01*
X244411047Y-142168571D01*
X244077714Y-142168571D01*
X244982476Y-142025714D02*
X245220571Y-142692380D01*
X245458666Y-142025714D02*
X245220571Y-142692380D01*
X245125333Y-142930476D01*
X245077714Y-142978095D01*
X244982476Y-143025714D01*
X246601523Y-142692380D02*
X246601523Y-141692380D01*
X247172952Y-142692380D01*
X247172952Y-141692380D01*
X247792000Y-142692380D02*
X247696761Y-142644761D01*
X247649142Y-142597142D01*
X247601523Y-142501904D01*
X247601523Y-142216190D01*
X247649142Y-142120952D01*
X247696761Y-142073333D01*
X247792000Y-142025714D01*
X247934857Y-142025714D01*
X248030095Y-142073333D01*
X248077714Y-142120952D01*
X248125333Y-142216190D01*
X248125333Y-142501904D01*
X248077714Y-142597142D01*
X248030095Y-142644761D01*
X247934857Y-142692380D01*
X247792000Y-142692380D01*
X248553904Y-142692380D02*
X248553904Y-142025714D01*
X248553904Y-142216190D02*
X248601523Y-142120952D01*
X248649142Y-142073333D01*
X248744380Y-142025714D01*
X248839619Y-142025714D01*
X249030095Y-142025714D02*
X249411047Y-142025714D01*
X249172952Y-141692380D02*
X249172952Y-142549523D01*
X249220571Y-142644761D01*
X249315809Y-142692380D01*
X249411047Y-142692380D01*
X249887238Y-142692380D02*
X249792000Y-142644761D01*
X249744380Y-142549523D01*
X249744380Y-141692380D01*
X250649142Y-142644761D02*
X250553904Y-142692380D01*
X250363428Y-142692380D01*
X250268190Y-142644761D01*
X250220571Y-142549523D01*
X250220571Y-142168571D01*
X250268190Y-142073333D01*
X250363428Y-142025714D01*
X250553904Y-142025714D01*
X250649142Y-142073333D01*
X250696761Y-142168571D01*
X250696761Y-142263809D01*
X250220571Y-142359047D01*
X231188857Y-116546380D02*
X231188857Y-117355904D01*
X231236476Y-117451142D01*
X231284095Y-117498761D01*
X231379333Y-117546380D01*
X231569809Y-117546380D01*
X231665047Y-117498761D01*
X231712666Y-117451142D01*
X231760285Y-117355904D01*
X231760285Y-116546380D01*
X232188857Y-117498761D02*
X232284095Y-117546380D01*
X232474571Y-117546380D01*
X232569809Y-117498761D01*
X232617428Y-117403523D01*
X232617428Y-117355904D01*
X232569809Y-117260666D01*
X232474571Y-117213047D01*
X232331714Y-117213047D01*
X232236476Y-117165428D01*
X232188857Y-117070190D01*
X232188857Y-117022571D01*
X232236476Y-116927333D01*
X232331714Y-116879714D01*
X232474571Y-116879714D01*
X232569809Y-116927333D01*
X233046000Y-117546380D02*
X233046000Y-116546380D01*
X233046000Y-116927333D02*
X233141238Y-116879714D01*
X233331714Y-116879714D01*
X233426952Y-116927333D01*
X233474571Y-116974952D01*
X233522190Y-117070190D01*
X233522190Y-117355904D01*
X233474571Y-117451142D01*
X233426952Y-117498761D01*
X233331714Y-117546380D01*
X233141238Y-117546380D01*
X233046000Y-117498761D01*
X234712666Y-117546380D02*
X234712666Y-116546380D01*
X234950761Y-116546380D01*
X235093619Y-116594000D01*
X235188857Y-116689238D01*
X235236476Y-116784476D01*
X235284095Y-116974952D01*
X235284095Y-117117809D01*
X235236476Y-117308285D01*
X235188857Y-117403523D01*
X235093619Y-117498761D01*
X234950761Y-117546380D01*
X234712666Y-117546380D01*
X235712666Y-117546380D02*
X235712666Y-116546380D01*
X236046000Y-117260666D01*
X236379333Y-116546380D01*
X236379333Y-117546380D01*
X236760285Y-116546380D02*
X237426952Y-117546380D01*
X237426952Y-116546380D02*
X236760285Y-117546380D01*
X238998380Y-117546380D02*
X238998380Y-116546380D01*
X238998380Y-117498761D02*
X238903142Y-117546380D01*
X238712666Y-117546380D01*
X238617428Y-117498761D01*
X238569809Y-117451142D01*
X238522190Y-117355904D01*
X238522190Y-117070190D01*
X238569809Y-116974952D01*
X238617428Y-116927333D01*
X238712666Y-116879714D01*
X238903142Y-116879714D01*
X238998380Y-116927333D01*
X239617428Y-117546380D02*
X239522190Y-117498761D01*
X239474571Y-117451142D01*
X239426952Y-117355904D01*
X239426952Y-117070190D01*
X239474571Y-116974952D01*
X239522190Y-116927333D01*
X239617428Y-116879714D01*
X239760285Y-116879714D01*
X239855523Y-116927333D01*
X239903142Y-116974952D01*
X239950761Y-117070190D01*
X239950761Y-117355904D01*
X239903142Y-117451142D01*
X239855523Y-117498761D01*
X239760285Y-117546380D01*
X239617428Y-117546380D01*
X240379333Y-116879714D02*
X240379333Y-117546380D01*
X240379333Y-116974952D02*
X240426952Y-116927333D01*
X240522190Y-116879714D01*
X240665047Y-116879714D01*
X240760285Y-116927333D01*
X240807904Y-117022571D01*
X240807904Y-117546380D01*
X241712666Y-116879714D02*
X241712666Y-117689238D01*
X241665047Y-117784476D01*
X241617428Y-117832095D01*
X241522190Y-117879714D01*
X241379333Y-117879714D01*
X241284095Y-117832095D01*
X241712666Y-117498761D02*
X241617428Y-117546380D01*
X241426952Y-117546380D01*
X241331714Y-117498761D01*
X241284095Y-117451142D01*
X241236476Y-117355904D01*
X241236476Y-117070190D01*
X241284095Y-116974952D01*
X241331714Y-116927333D01*
X241426952Y-116879714D01*
X241617428Y-116879714D01*
X241712666Y-116927333D01*
X242331714Y-117546380D02*
X242236476Y-117498761D01*
X242188857Y-117403523D01*
X242188857Y-116546380D01*
X243093619Y-117498761D02*
X242998380Y-117546380D01*
X242807904Y-117546380D01*
X242712666Y-117498761D01*
X242665047Y-117403523D01*
X242665047Y-117022571D01*
X242712666Y-116927333D01*
X242807904Y-116879714D01*
X242998380Y-116879714D01*
X243093619Y-116927333D01*
X243141238Y-117022571D01*
X243141238Y-117117809D01*
X242665047Y-117213047D01*
X244665047Y-117022571D02*
X244807904Y-117070190D01*
X244855523Y-117117809D01*
X244903142Y-117213047D01*
X244903142Y-117355904D01*
X244855523Y-117451142D01*
X244807904Y-117498761D01*
X244712666Y-117546380D01*
X244331714Y-117546380D01*
X244331714Y-116546380D01*
X244665047Y-116546380D01*
X244760285Y-116594000D01*
X244807904Y-116641619D01*
X244855523Y-116736857D01*
X244855523Y-116832095D01*
X244807904Y-116927333D01*
X244760285Y-116974952D01*
X244665047Y-117022571D01*
X244331714Y-117022571D01*
X245236476Y-116879714D02*
X245474571Y-117546380D01*
X245712666Y-116879714D02*
X245474571Y-117546380D01*
X245379333Y-117784476D01*
X245331714Y-117832095D01*
X245236476Y-117879714D01*
X246855523Y-117546380D02*
X246855523Y-116546380D01*
X247426952Y-117546380D01*
X247426952Y-116546380D01*
X248046000Y-117546380D02*
X247950761Y-117498761D01*
X247903142Y-117451142D01*
X247855523Y-117355904D01*
X247855523Y-117070190D01*
X247903142Y-116974952D01*
X247950761Y-116927333D01*
X248046000Y-116879714D01*
X248188857Y-116879714D01*
X248284095Y-116927333D01*
X248331714Y-116974952D01*
X248379333Y-117070190D01*
X248379333Y-117355904D01*
X248331714Y-117451142D01*
X248284095Y-117498761D01*
X248188857Y-117546380D01*
X248046000Y-117546380D01*
X248807904Y-117546380D02*
X248807904Y-116879714D01*
X248807904Y-117070190D02*
X248855523Y-116974952D01*
X248903142Y-116927333D01*
X248998380Y-116879714D01*
X249093619Y-116879714D01*
X249284095Y-116879714D02*
X249665047Y-116879714D01*
X249426952Y-116546380D02*
X249426952Y-117403523D01*
X249474571Y-117498761D01*
X249569809Y-117546380D01*
X249665047Y-117546380D01*
X250141238Y-117546380D02*
X250046000Y-117498761D01*
X249998380Y-117403523D01*
X249998380Y-116546380D01*
X250903142Y-117498761D02*
X250807904Y-117546380D01*
X250617428Y-117546380D01*
X250522190Y-117498761D01*
X250474571Y-117403523D01*
X250474571Y-117022571D01*
X250522190Y-116927333D01*
X250617428Y-116879714D01*
X250807904Y-116879714D01*
X250903142Y-116927333D01*
X250950761Y-117022571D01*
X250950761Y-117117809D01*
X250474571Y-117213047D01*
X231188857Y-91400380D02*
X231188857Y-92209904D01*
X231236476Y-92305142D01*
X231284095Y-92352761D01*
X231379333Y-92400380D01*
X231569809Y-92400380D01*
X231665047Y-92352761D01*
X231712666Y-92305142D01*
X231760285Y-92209904D01*
X231760285Y-91400380D01*
X232188857Y-92352761D02*
X232284095Y-92400380D01*
X232474571Y-92400380D01*
X232569809Y-92352761D01*
X232617428Y-92257523D01*
X232617428Y-92209904D01*
X232569809Y-92114666D01*
X232474571Y-92067047D01*
X232331714Y-92067047D01*
X232236476Y-92019428D01*
X232188857Y-91924190D01*
X232188857Y-91876571D01*
X232236476Y-91781333D01*
X232331714Y-91733714D01*
X232474571Y-91733714D01*
X232569809Y-91781333D01*
X233046000Y-92400380D02*
X233046000Y-91400380D01*
X233046000Y-91781333D02*
X233141238Y-91733714D01*
X233331714Y-91733714D01*
X233426952Y-91781333D01*
X233474571Y-91828952D01*
X233522190Y-91924190D01*
X233522190Y-92209904D01*
X233474571Y-92305142D01*
X233426952Y-92352761D01*
X233331714Y-92400380D01*
X233141238Y-92400380D01*
X233046000Y-92352761D01*
X234712666Y-92400380D02*
X234712666Y-91400380D01*
X234950761Y-91400380D01*
X235093619Y-91448000D01*
X235188857Y-91543238D01*
X235236476Y-91638476D01*
X235284095Y-91828952D01*
X235284095Y-91971809D01*
X235236476Y-92162285D01*
X235188857Y-92257523D01*
X235093619Y-92352761D01*
X234950761Y-92400380D01*
X234712666Y-92400380D01*
X235712666Y-92400380D02*
X235712666Y-91400380D01*
X236046000Y-92114666D01*
X236379333Y-91400380D01*
X236379333Y-92400380D01*
X236760285Y-91400380D02*
X237426952Y-92400380D01*
X237426952Y-91400380D02*
X236760285Y-92400380D01*
X238998380Y-92400380D02*
X238998380Y-91400380D01*
X238998380Y-92352761D02*
X238903142Y-92400380D01*
X238712666Y-92400380D01*
X238617428Y-92352761D01*
X238569809Y-92305142D01*
X238522190Y-92209904D01*
X238522190Y-91924190D01*
X238569809Y-91828952D01*
X238617428Y-91781333D01*
X238712666Y-91733714D01*
X238903142Y-91733714D01*
X238998380Y-91781333D01*
X239617428Y-92400380D02*
X239522190Y-92352761D01*
X239474571Y-92305142D01*
X239426952Y-92209904D01*
X239426952Y-91924190D01*
X239474571Y-91828952D01*
X239522190Y-91781333D01*
X239617428Y-91733714D01*
X239760285Y-91733714D01*
X239855523Y-91781333D01*
X239903142Y-91828952D01*
X239950761Y-91924190D01*
X239950761Y-92209904D01*
X239903142Y-92305142D01*
X239855523Y-92352761D01*
X239760285Y-92400380D01*
X239617428Y-92400380D01*
X240379333Y-91733714D02*
X240379333Y-92400380D01*
X240379333Y-91828952D02*
X240426952Y-91781333D01*
X240522190Y-91733714D01*
X240665047Y-91733714D01*
X240760285Y-91781333D01*
X240807904Y-91876571D01*
X240807904Y-92400380D01*
X241712666Y-91733714D02*
X241712666Y-92543238D01*
X241665047Y-92638476D01*
X241617428Y-92686095D01*
X241522190Y-92733714D01*
X241379333Y-92733714D01*
X241284095Y-92686095D01*
X241712666Y-92352761D02*
X241617428Y-92400380D01*
X241426952Y-92400380D01*
X241331714Y-92352761D01*
X241284095Y-92305142D01*
X241236476Y-92209904D01*
X241236476Y-91924190D01*
X241284095Y-91828952D01*
X241331714Y-91781333D01*
X241426952Y-91733714D01*
X241617428Y-91733714D01*
X241712666Y-91781333D01*
X242331714Y-92400380D02*
X242236476Y-92352761D01*
X242188857Y-92257523D01*
X242188857Y-91400380D01*
X243093619Y-92352761D02*
X242998380Y-92400380D01*
X242807904Y-92400380D01*
X242712666Y-92352761D01*
X242665047Y-92257523D01*
X242665047Y-91876571D01*
X242712666Y-91781333D01*
X242807904Y-91733714D01*
X242998380Y-91733714D01*
X243093619Y-91781333D01*
X243141238Y-91876571D01*
X243141238Y-91971809D01*
X242665047Y-92067047D01*
X244665047Y-91876571D02*
X244807904Y-91924190D01*
X244855523Y-91971809D01*
X244903142Y-92067047D01*
X244903142Y-92209904D01*
X244855523Y-92305142D01*
X244807904Y-92352761D01*
X244712666Y-92400380D01*
X244331714Y-92400380D01*
X244331714Y-91400380D01*
X244665047Y-91400380D01*
X244760285Y-91448000D01*
X244807904Y-91495619D01*
X244855523Y-91590857D01*
X244855523Y-91686095D01*
X244807904Y-91781333D01*
X244760285Y-91828952D01*
X244665047Y-91876571D01*
X244331714Y-91876571D01*
X245236476Y-91733714D02*
X245474571Y-92400380D01*
X245712666Y-91733714D02*
X245474571Y-92400380D01*
X245379333Y-92638476D01*
X245331714Y-92686095D01*
X245236476Y-92733714D01*
X246855523Y-92400380D02*
X246855523Y-91400380D01*
X247426952Y-92400380D01*
X247426952Y-91400380D01*
X248046000Y-92400380D02*
X247950761Y-92352761D01*
X247903142Y-92305142D01*
X247855523Y-92209904D01*
X247855523Y-91924190D01*
X247903142Y-91828952D01*
X247950761Y-91781333D01*
X248046000Y-91733714D01*
X248188857Y-91733714D01*
X248284095Y-91781333D01*
X248331714Y-91828952D01*
X248379333Y-91924190D01*
X248379333Y-92209904D01*
X248331714Y-92305142D01*
X248284095Y-92352761D01*
X248188857Y-92400380D01*
X248046000Y-92400380D01*
X248807904Y-92400380D02*
X248807904Y-91733714D01*
X248807904Y-91924190D02*
X248855523Y-91828952D01*
X248903142Y-91781333D01*
X248998380Y-91733714D01*
X249093619Y-91733714D01*
X249284095Y-91733714D02*
X249665047Y-91733714D01*
X249426952Y-91400380D02*
X249426952Y-92257523D01*
X249474571Y-92352761D01*
X249569809Y-92400380D01*
X249665047Y-92400380D01*
X250141238Y-92400380D02*
X250046000Y-92352761D01*
X249998380Y-92257523D01*
X249998380Y-91400380D01*
X250903142Y-92352761D02*
X250807904Y-92400380D01*
X250617428Y-92400380D01*
X250522190Y-92352761D01*
X250474571Y-92257523D01*
X250474571Y-91876571D01*
X250522190Y-91781333D01*
X250617428Y-91733714D01*
X250807904Y-91733714D01*
X250903142Y-91781333D01*
X250950761Y-91876571D01*
X250950761Y-91971809D01*
X250474571Y-92067047D01*
X231442857Y-66254380D02*
X231442857Y-67063904D01*
X231490476Y-67159142D01*
X231538095Y-67206761D01*
X231633333Y-67254380D01*
X231823809Y-67254380D01*
X231919047Y-67206761D01*
X231966666Y-67159142D01*
X232014285Y-67063904D01*
X232014285Y-66254380D01*
X232442857Y-67206761D02*
X232538095Y-67254380D01*
X232728571Y-67254380D01*
X232823809Y-67206761D01*
X232871428Y-67111523D01*
X232871428Y-67063904D01*
X232823809Y-66968666D01*
X232728571Y-66921047D01*
X232585714Y-66921047D01*
X232490476Y-66873428D01*
X232442857Y-66778190D01*
X232442857Y-66730571D01*
X232490476Y-66635333D01*
X232585714Y-66587714D01*
X232728571Y-66587714D01*
X232823809Y-66635333D01*
X233300000Y-67254380D02*
X233300000Y-66254380D01*
X233300000Y-66635333D02*
X233395238Y-66587714D01*
X233585714Y-66587714D01*
X233680952Y-66635333D01*
X233728571Y-66682952D01*
X233776190Y-66778190D01*
X233776190Y-67063904D01*
X233728571Y-67159142D01*
X233680952Y-67206761D01*
X233585714Y-67254380D01*
X233395238Y-67254380D01*
X233300000Y-67206761D01*
X234966666Y-67254380D02*
X234966666Y-66254380D01*
X235204761Y-66254380D01*
X235347619Y-66302000D01*
X235442857Y-66397238D01*
X235490476Y-66492476D01*
X235538095Y-66682952D01*
X235538095Y-66825809D01*
X235490476Y-67016285D01*
X235442857Y-67111523D01*
X235347619Y-67206761D01*
X235204761Y-67254380D01*
X234966666Y-67254380D01*
X235966666Y-67254380D02*
X235966666Y-66254380D01*
X236300000Y-66968666D01*
X236633333Y-66254380D01*
X236633333Y-67254380D01*
X237014285Y-66254380D02*
X237680952Y-67254380D01*
X237680952Y-66254380D02*
X237014285Y-67254380D01*
X239252380Y-67254380D02*
X239252380Y-66254380D01*
X239252380Y-67206761D02*
X239157142Y-67254380D01*
X238966666Y-67254380D01*
X238871428Y-67206761D01*
X238823809Y-67159142D01*
X238776190Y-67063904D01*
X238776190Y-66778190D01*
X238823809Y-66682952D01*
X238871428Y-66635333D01*
X238966666Y-66587714D01*
X239157142Y-66587714D01*
X239252380Y-66635333D01*
X239871428Y-67254380D02*
X239776190Y-67206761D01*
X239728571Y-67159142D01*
X239680952Y-67063904D01*
X239680952Y-66778190D01*
X239728571Y-66682952D01*
X239776190Y-66635333D01*
X239871428Y-66587714D01*
X240014285Y-66587714D01*
X240109523Y-66635333D01*
X240157142Y-66682952D01*
X240204761Y-66778190D01*
X240204761Y-67063904D01*
X240157142Y-67159142D01*
X240109523Y-67206761D01*
X240014285Y-67254380D01*
X239871428Y-67254380D01*
X240633333Y-66587714D02*
X240633333Y-67254380D01*
X240633333Y-66682952D02*
X240680952Y-66635333D01*
X240776190Y-66587714D01*
X240919047Y-66587714D01*
X241014285Y-66635333D01*
X241061904Y-66730571D01*
X241061904Y-67254380D01*
X241966666Y-66587714D02*
X241966666Y-67397238D01*
X241919047Y-67492476D01*
X241871428Y-67540095D01*
X241776190Y-67587714D01*
X241633333Y-67587714D01*
X241538095Y-67540095D01*
X241966666Y-67206761D02*
X241871428Y-67254380D01*
X241680952Y-67254380D01*
X241585714Y-67206761D01*
X241538095Y-67159142D01*
X241490476Y-67063904D01*
X241490476Y-66778190D01*
X241538095Y-66682952D01*
X241585714Y-66635333D01*
X241680952Y-66587714D01*
X241871428Y-66587714D01*
X241966666Y-66635333D01*
X242585714Y-67254380D02*
X242490476Y-67206761D01*
X242442857Y-67111523D01*
X242442857Y-66254380D01*
X243347619Y-67206761D02*
X243252380Y-67254380D01*
X243061904Y-67254380D01*
X242966666Y-67206761D01*
X242919047Y-67111523D01*
X242919047Y-66730571D01*
X242966666Y-66635333D01*
X243061904Y-66587714D01*
X243252380Y-66587714D01*
X243347619Y-66635333D01*
X243395238Y-66730571D01*
X243395238Y-66825809D01*
X242919047Y-66921047D01*
X244919047Y-66730571D02*
X245061904Y-66778190D01*
X245109523Y-66825809D01*
X245157142Y-66921047D01*
X245157142Y-67063904D01*
X245109523Y-67159142D01*
X245061904Y-67206761D01*
X244966666Y-67254380D01*
X244585714Y-67254380D01*
X244585714Y-66254380D01*
X244919047Y-66254380D01*
X245014285Y-66302000D01*
X245061904Y-66349619D01*
X245109523Y-66444857D01*
X245109523Y-66540095D01*
X245061904Y-66635333D01*
X245014285Y-66682952D01*
X244919047Y-66730571D01*
X244585714Y-66730571D01*
X245490476Y-66587714D02*
X245728571Y-67254380D01*
X245966666Y-66587714D02*
X245728571Y-67254380D01*
X245633333Y-67492476D01*
X245585714Y-67540095D01*
X245490476Y-67587714D01*
X247109523Y-67254380D02*
X247109523Y-66254380D01*
X247680952Y-67254380D01*
X247680952Y-66254380D01*
X248300000Y-67254380D02*
X248204761Y-67206761D01*
X248157142Y-67159142D01*
X248109523Y-67063904D01*
X248109523Y-66778190D01*
X248157142Y-66682952D01*
X248204761Y-66635333D01*
X248300000Y-66587714D01*
X248442857Y-66587714D01*
X248538095Y-66635333D01*
X248585714Y-66682952D01*
X248633333Y-66778190D01*
X248633333Y-67063904D01*
X248585714Y-67159142D01*
X248538095Y-67206761D01*
X248442857Y-67254380D01*
X248300000Y-67254380D01*
X249061904Y-67254380D02*
X249061904Y-66587714D01*
X249061904Y-66778190D02*
X249109523Y-66682952D01*
X249157142Y-66635333D01*
X249252380Y-66587714D01*
X249347619Y-66587714D01*
X249538095Y-66587714D02*
X249919047Y-66587714D01*
X249680952Y-66254380D02*
X249680952Y-67111523D01*
X249728571Y-67206761D01*
X249823809Y-67254380D01*
X249919047Y-67254380D01*
X250395238Y-67254380D02*
X250300000Y-67206761D01*
X250252380Y-67111523D01*
X250252380Y-66254380D01*
X251157142Y-67206761D02*
X251061904Y-67254380D01*
X250871428Y-67254380D01*
X250776190Y-67206761D01*
X250728571Y-67111523D01*
X250728571Y-66730571D01*
X250776190Y-66635333D01*
X250871428Y-66587714D01*
X251061904Y-66587714D01*
X251157142Y-66635333D01*
X251204761Y-66730571D01*
X251204761Y-66825809D01*
X250728571Y-66921047D01*
D11*
X220472000Y-120590000D02*
X221802000Y-120590000D01*
X221802000Y-120590000D02*
X221802000Y-121920000D01*
X221802000Y-123190000D02*
X221802000Y-125790000D01*
X219142000Y-125790000D02*
X221802000Y-125790000D01*
X219142000Y-123190000D02*
X219142000Y-125790000D01*
X219142000Y-123190000D02*
X221802000Y-123190000D01*
X220472000Y-70298000D02*
X221802000Y-70298000D01*
X221802000Y-70298000D02*
X221802000Y-71628000D01*
X221802000Y-72898000D02*
X221802000Y-75498000D01*
X219142000Y-75498000D02*
X221802000Y-75498000D01*
X219142000Y-72898000D02*
X219142000Y-75498000D01*
X219142000Y-72898000D02*
X221802000Y-72898000D01*
X220472000Y-95444000D02*
X221802000Y-95444000D01*
X221802000Y-95444000D02*
X221802000Y-96774000D01*
X221802000Y-98044000D02*
X221802000Y-100644000D01*
X219142000Y-100644000D02*
X221802000Y-100644000D01*
X219142000Y-98044000D02*
X219142000Y-100644000D01*
X219142000Y-98044000D02*
X221802000Y-98044000D01*
X227234000Y-49540000D02*
X239834000Y-49540000D01*
X227234000Y-44440000D02*
X227234000Y-49540000D01*
X239834000Y-44440000D02*
X227234000Y-44440000D01*
X248920000Y-57511000D02*
X245470000Y-57511000D01*
X248920000Y-57511000D02*
X250870000Y-57511000D01*
X248920000Y-62631000D02*
X246970000Y-62631000D01*
X248920000Y-62631000D02*
X250870000Y-62631000D01*
D10*
X241884000Y-54437000D02*
X241884000Y-56037000D01*
X251959000Y-54437000D02*
X251959000Y-48687000D01*
X241309000Y-54437000D02*
X241309000Y-48687000D01*
X251959000Y-54437000D02*
X251309000Y-54437000D01*
X251959000Y-48687000D02*
X251309000Y-48687000D01*
X241309000Y-48687000D02*
X241959000Y-48687000D01*
X241309000Y-54437000D02*
X241884000Y-54437000D01*
D11*
X253290000Y-63238748D02*
X253290000Y-63761252D01*
X254710000Y-63238748D02*
X254710000Y-63761252D01*
X253290000Y-59437748D02*
X253290000Y-59960252D01*
X254710000Y-59437748D02*
X254710000Y-59960252D01*
X253290000Y-55609748D02*
X253290000Y-56132252D01*
X254710000Y-55609748D02*
X254710000Y-56132252D01*
X239066000Y-58158748D02*
X239066000Y-58681252D01*
X240486000Y-58158748D02*
X240486000Y-58681252D01*
X217410000Y-60604000D02*
X217410000Y-51664000D01*
X222920000Y-60604000D02*
X221120000Y-60604000D01*
X217410000Y-60604000D02*
X218870000Y-60604000D01*
X217410000Y-51664000D02*
X218870000Y-51664000D01*
X222920000Y-51664000D02*
X221120000Y-51664000D01*
X240776000Y-50199000D02*
X240776000Y-52999000D01*
X240776000Y-52999000D02*
X238776000Y-52999000D01*
X238776000Y-52999000D02*
X238776000Y-50199000D01*
X238776000Y-50199000D02*
X240776000Y-50199000D01*
X240776000Y-53464000D02*
X240776000Y-56264000D01*
X240776000Y-56264000D02*
X238776000Y-56264000D01*
X238776000Y-56264000D02*
X238776000Y-53464000D01*
X238776000Y-53464000D02*
X240776000Y-53464000D01*
X224790000Y-50352000D02*
X223460000Y-50352000D01*
X223460000Y-50352000D02*
X223460000Y-49022000D01*
X223460000Y-47752000D02*
X223460000Y-45152000D01*
X226120000Y-45152000D02*
X223460000Y-45152000D01*
X226120000Y-47752000D02*
X226120000Y-45152000D01*
X226120000Y-47752000D02*
X223460000Y-47752000D01*
D12*
X227680000Y-59355000D02*
X227680000Y-57830000D01*
X237360000Y-57480000D02*
X227460000Y-57480000D01*
X237360000Y-54280000D02*
X237360000Y-57480000D01*
X227460000Y-54280000D02*
X237360000Y-54280000D01*
X227460000Y-57480000D02*
X227460000Y-54280000D01*
D11*
X250436748Y-64972000D02*
X250959252Y-64972000D01*
X250436748Y-63552000D02*
X250959252Y-63552000D01*
X242562748Y-59130000D02*
X243085252Y-59130000D01*
X242562748Y-57710000D02*
X243085252Y-57710000D01*
X243832748Y-46176000D02*
X244355252Y-46176000D01*
X243832748Y-44756000D02*
X244355252Y-44756000D01*
X220244000Y-61748000D02*
X220244000Y-62948000D01*
X220244000Y-66268000D02*
X220244000Y-65068000D01*
X223699563Y-66268000D02*
X220244000Y-66268000D01*
X223699563Y-61748000D02*
X220244000Y-61748000D01*
X224764000Y-62812437D02*
X224764000Y-62948000D01*
X224764000Y-65203563D02*
X224764000Y-65068000D01*
X224764000Y-65203563D02*
X223699563Y-66268000D01*
X224764000Y-62812437D02*
X223699563Y-61748000D01*
X225504000Y-65568000D02*
X225004000Y-65568000D01*
X225254000Y-65818000D02*
X225254000Y-65318000D01*
X247887748Y-46176000D02*
X248410252Y-46176000D01*
X247887748Y-44756000D02*
X248410252Y-44756000D01*
X225254000Y-141256000D02*
X225254000Y-140756000D01*
X225504000Y-141006000D02*
X225004000Y-141006000D01*
X224764000Y-138250437D02*
X223699563Y-137186000D01*
X224764000Y-140641563D02*
X223699563Y-141706000D01*
X224764000Y-140641563D02*
X224764000Y-140506000D01*
X224764000Y-138250437D02*
X224764000Y-138386000D01*
X223699563Y-137186000D02*
X220244000Y-137186000D01*
X223699563Y-141706000D02*
X220244000Y-141706000D01*
X220244000Y-141706000D02*
X220244000Y-140506000D01*
X220244000Y-137186000D02*
X220244000Y-138386000D01*
X249428000Y-84816000D02*
X245978000Y-84816000D01*
X249428000Y-84816000D02*
X251378000Y-84816000D01*
X249428000Y-89936000D02*
X247478000Y-89936000D01*
X249428000Y-89936000D02*
X251378000Y-89936000D01*
X269478000Y-67004000D02*
X263978000Y-67004000D01*
X263978000Y-64254000D02*
X263978000Y-67004000D01*
X263978000Y-64254000D02*
X256478000Y-64254000D01*
X263978000Y-45264000D02*
X263978000Y-48014000D01*
X256478000Y-48014000D02*
X256478000Y-64254000D01*
X269478000Y-45264000D02*
X263978000Y-45264000D01*
X263978000Y-48014000D02*
X256478000Y-48014000D01*
X278918000Y-45014000D02*
X278918000Y-67254000D01*
X276218000Y-43514000D02*
X276218000Y-45014000D01*
X276218000Y-67254000D02*
X276218000Y-69054000D01*
X276218000Y-67254000D02*
X278918000Y-67254000D01*
X276218000Y-45014000D02*
X278918000Y-45014000D01*
X269478000Y-69054000D02*
X269478000Y-67004000D01*
X269478000Y-45264000D02*
X269478000Y-43514000D01*
X276218000Y-43514000D02*
X269478000Y-43514000D01*
X276218000Y-69054000D02*
X269478000Y-69054000D01*
X269478000Y-117296000D02*
X263978000Y-117296000D01*
X263978000Y-114546000D02*
X263978000Y-117296000D01*
X263978000Y-114546000D02*
X256478000Y-114546000D01*
X263978000Y-95556000D02*
X263978000Y-98306000D01*
X256478000Y-98306000D02*
X256478000Y-114546000D01*
X269478000Y-95556000D02*
X263978000Y-95556000D01*
X263978000Y-98306000D02*
X256478000Y-98306000D01*
X278918000Y-95306000D02*
X278918000Y-117546000D01*
X276218000Y-93806000D02*
X276218000Y-95306000D01*
X276218000Y-117546000D02*
X276218000Y-119346000D01*
X276218000Y-117546000D02*
X278918000Y-117546000D01*
X276218000Y-95306000D02*
X278918000Y-95306000D01*
X269478000Y-119346000D02*
X269478000Y-117296000D01*
X269478000Y-95556000D02*
X269478000Y-93806000D01*
X276218000Y-93806000D02*
X269478000Y-93806000D01*
X276218000Y-119346000D02*
X269478000Y-119346000D01*
X242876000Y-139438748D02*
X242876000Y-139961252D01*
X244296000Y-139438748D02*
X244296000Y-139961252D01*
X241860000Y-114292748D02*
X241860000Y-114815252D01*
X243280000Y-114292748D02*
X243280000Y-114815252D01*
X242368000Y-88638748D02*
X242368000Y-89161252D01*
X243788000Y-88638748D02*
X243788000Y-89161252D01*
X249682000Y-110216000D02*
X246232000Y-110216000D01*
X249682000Y-110216000D02*
X251632000Y-110216000D01*
X249682000Y-115336000D02*
X247732000Y-115336000D01*
X249682000Y-115336000D02*
X251632000Y-115336000D01*
D10*
X241884000Y-107015000D02*
X241884000Y-108615000D01*
X251959000Y-107015000D02*
X251959000Y-101265000D01*
X241309000Y-107015000D02*
X241309000Y-101265000D01*
X251959000Y-107015000D02*
X251309000Y-107015000D01*
X251959000Y-101265000D02*
X251309000Y-101265000D01*
X241309000Y-101265000D02*
X241959000Y-101265000D01*
X241309000Y-107015000D02*
X241884000Y-107015000D01*
X241884000Y-81869000D02*
X241884000Y-83469000D01*
X251959000Y-81869000D02*
X251959000Y-76119000D01*
X241309000Y-81869000D02*
X241309000Y-76119000D01*
X251959000Y-81869000D02*
X251309000Y-81869000D01*
X251959000Y-76119000D02*
X251309000Y-76119000D01*
X241309000Y-76119000D02*
X241959000Y-76119000D01*
X241309000Y-81869000D02*
X241884000Y-81869000D01*
D11*
X249682000Y-134854000D02*
X246232000Y-134854000D01*
X249682000Y-134854000D02*
X251632000Y-134854000D01*
X249682000Y-139974000D02*
X247732000Y-139974000D01*
X249682000Y-139974000D02*
X251632000Y-139974000D01*
D10*
X241884000Y-131907000D02*
X241884000Y-133507000D01*
X251959000Y-131907000D02*
X251959000Y-126157000D01*
X241309000Y-131907000D02*
X241309000Y-126157000D01*
X251959000Y-131907000D02*
X251309000Y-131907000D01*
X251959000Y-126157000D02*
X251309000Y-126157000D01*
X241309000Y-126157000D02*
X241959000Y-126157000D01*
X241309000Y-131907000D02*
X241884000Y-131907000D01*
D11*
X253798000Y-115299748D02*
X253798000Y-115822252D01*
X255218000Y-115299748D02*
X255218000Y-115822252D01*
X253798000Y-111489748D02*
X253798000Y-112012252D01*
X255218000Y-111489748D02*
X255218000Y-112012252D01*
X253798000Y-107688748D02*
X253798000Y-108211252D01*
X255218000Y-107688748D02*
X255218000Y-108211252D01*
X253975800Y-88867348D02*
X253975800Y-89389852D01*
X255395800Y-88867348D02*
X255395800Y-89389852D01*
X253975800Y-85057348D02*
X253975800Y-85579852D01*
X255395800Y-85057348D02*
X255395800Y-85579852D01*
X253975800Y-81238348D02*
X253975800Y-81760852D01*
X255395800Y-81238348D02*
X255395800Y-81760852D01*
X253798000Y-140191748D02*
X253798000Y-140714252D01*
X255218000Y-140191748D02*
X255218000Y-140714252D01*
X253798000Y-136381748D02*
X253798000Y-136904252D01*
X255218000Y-136381748D02*
X255218000Y-136904252D01*
X253798000Y-132580748D02*
X253798000Y-133103252D01*
X255218000Y-132580748D02*
X255218000Y-133103252D01*
X222920000Y-127102000D02*
X221120000Y-127102000D01*
X217410000Y-127102000D02*
X218870000Y-127102000D01*
X217410000Y-136042000D02*
X218870000Y-136042000D01*
X222920000Y-136042000D02*
X221120000Y-136042000D01*
X217410000Y-136042000D02*
X217410000Y-127102000D01*
X222920000Y-101956000D02*
X221120000Y-101956000D01*
X217410000Y-101956000D02*
X218870000Y-101956000D01*
X217410000Y-110896000D02*
X218870000Y-110896000D01*
X222920000Y-110896000D02*
X221120000Y-110896000D01*
X217410000Y-110896000D02*
X217410000Y-101956000D01*
X222920000Y-76810000D02*
X221120000Y-76810000D01*
X217410000Y-76810000D02*
X218870000Y-76810000D01*
X217410000Y-85750000D02*
X218870000Y-85750000D01*
X222920000Y-85750000D02*
X221120000Y-85750000D01*
X217410000Y-85750000D02*
X217410000Y-76810000D01*
X269478000Y-92150000D02*
X263978000Y-92150000D01*
X263978000Y-89400000D02*
X263978000Y-92150000D01*
X263978000Y-89400000D02*
X256478000Y-89400000D01*
X263978000Y-70410000D02*
X263978000Y-73160000D01*
X256478000Y-73160000D02*
X256478000Y-89400000D01*
X269478000Y-70410000D02*
X263978000Y-70410000D01*
X263978000Y-73160000D02*
X256478000Y-73160000D01*
X278918000Y-70160000D02*
X278918000Y-92400000D01*
X276218000Y-68660000D02*
X276218000Y-70160000D01*
X276218000Y-92400000D02*
X276218000Y-94200000D01*
X276218000Y-92400000D02*
X278918000Y-92400000D01*
X276218000Y-70160000D02*
X278918000Y-70160000D01*
X269478000Y-94200000D02*
X269478000Y-92150000D01*
X269478000Y-70410000D02*
X269478000Y-68660000D01*
X276218000Y-68660000D02*
X269478000Y-68660000D01*
X276218000Y-94200000D02*
X269478000Y-94200000D01*
X269478000Y-142442000D02*
X263978000Y-142442000D01*
X263978000Y-139692000D02*
X263978000Y-142442000D01*
X263978000Y-139692000D02*
X256478000Y-139692000D01*
X263978000Y-120702000D02*
X263978000Y-123452000D01*
X256478000Y-123452000D02*
X256478000Y-139692000D01*
X269478000Y-120702000D02*
X263978000Y-120702000D01*
X263978000Y-123452000D02*
X256478000Y-123452000D01*
X278918000Y-120452000D02*
X278918000Y-142692000D01*
X276218000Y-118952000D02*
X276218000Y-120452000D01*
X276218000Y-142692000D02*
X276218000Y-144492000D01*
X276218000Y-142692000D02*
X278918000Y-142692000D01*
X276218000Y-120452000D02*
X278918000Y-120452000D01*
X269478000Y-144492000D02*
X269478000Y-142442000D01*
X269478000Y-120702000D02*
X269478000Y-118952000D01*
X276218000Y-118952000D02*
X269478000Y-118952000D01*
X276218000Y-144492000D02*
X269478000Y-144492000D01*
X220472000Y-45152000D02*
X221802000Y-45152000D01*
X221802000Y-45152000D02*
X221802000Y-46482000D01*
X221802000Y-47752000D02*
X221802000Y-50352000D01*
X219142000Y-50352000D02*
X221802000Y-50352000D01*
X219142000Y-47752000D02*
X219142000Y-50352000D01*
X219142000Y-47752000D02*
X221802000Y-47752000D01*
X255418000Y-101694064D02*
X255418000Y-100489936D01*
X253598000Y-101694064D02*
X253598000Y-100489936D01*
X255570400Y-77386264D02*
X255570400Y-76182136D01*
X253750400Y-77386264D02*
X253750400Y-76182136D01*
X254910000Y-51365564D02*
X254910000Y-50161436D01*
X253090000Y-51365564D02*
X253090000Y-50161436D01*
X255418000Y-127094064D02*
X255418000Y-125889936D01*
X253598000Y-127094064D02*
X253598000Y-125889936D01*
X242562748Y-86054000D02*
X243085252Y-86054000D01*
X242562748Y-84634000D02*
X243085252Y-84634000D01*
X242571748Y-111200000D02*
X243094252Y-111200000D01*
X242571748Y-109780000D02*
X243094252Y-109780000D01*
X243070748Y-136092000D02*
X243593252Y-136092000D01*
X243070748Y-134672000D02*
X243593252Y-134672000D01*
X243079748Y-99008000D02*
X243602252Y-99008000D01*
X243079748Y-97588000D02*
X243602252Y-97588000D01*
X242562748Y-73862000D02*
X243085252Y-73862000D01*
X242562748Y-72442000D02*
X243085252Y-72442000D01*
X225254000Y-90964000D02*
X225254000Y-90464000D01*
X225504000Y-90714000D02*
X225004000Y-90714000D01*
X224764000Y-87958437D02*
X223699563Y-86894000D01*
X224764000Y-90349563D02*
X223699563Y-91414000D01*
X224764000Y-90349563D02*
X224764000Y-90214000D01*
X224764000Y-87958437D02*
X224764000Y-88094000D01*
X223699563Y-86894000D02*
X220244000Y-86894000D01*
X223699563Y-91414000D02*
X220244000Y-91414000D01*
X220244000Y-91414000D02*
X220244000Y-90214000D01*
X220244000Y-86894000D02*
X220244000Y-88094000D01*
X225254000Y-116110000D02*
X225254000Y-115610000D01*
X225504000Y-115860000D02*
X225004000Y-115860000D01*
X224764000Y-113104437D02*
X223699563Y-112040000D01*
X224764000Y-115495563D02*
X223699563Y-116560000D01*
X224764000Y-115495563D02*
X224764000Y-115360000D01*
X224764000Y-113104437D02*
X224764000Y-113240000D01*
X223699563Y-112040000D02*
X220244000Y-112040000D01*
X223699563Y-116560000D02*
X220244000Y-116560000D01*
X220244000Y-116560000D02*
X220244000Y-115360000D01*
X220244000Y-112040000D02*
X220244000Y-113240000D01*
X246871748Y-99008000D02*
X247394252Y-99008000D01*
X246871748Y-97588000D02*
X247394252Y-97588000D01*
X246904252Y-72442000D02*
X246381748Y-72442000D01*
X246904252Y-73862000D02*
X246381748Y-73862000D01*
X243070748Y-123646000D02*
X243593252Y-123646000D01*
X243070748Y-122226000D02*
X243593252Y-122226000D01*
X228592748Y-51764000D02*
X229115252Y-51764000D01*
X228592748Y-50344000D02*
X229115252Y-50344000D01*
X246880748Y-123646000D02*
X247403252Y-123646000D01*
X246880748Y-122226000D02*
X247403252Y-122226000D01*
X232925252Y-50344000D02*
X232402748Y-50344000D01*
X232925252Y-51764000D02*
X232402748Y-51764000D01*
X236212748Y-51764000D02*
X236735252Y-51764000D01*
X236212748Y-50344000D02*
X236735252Y-50344000D01*
D10*
X222678666Y-120610380D02*
X222678666Y-121324666D01*
X222631047Y-121467523D01*
X222535809Y-121562761D01*
X222392952Y-121610380D01*
X222297714Y-121610380D01*
X223297714Y-121038952D02*
X223202476Y-120991333D01*
X223154857Y-120943714D01*
X223107238Y-120848476D01*
X223107238Y-120800857D01*
X223154857Y-120705619D01*
X223202476Y-120658000D01*
X223297714Y-120610380D01*
X223488190Y-120610380D01*
X223583428Y-120658000D01*
X223631047Y-120705619D01*
X223678666Y-120800857D01*
X223678666Y-120848476D01*
X223631047Y-120943714D01*
X223583428Y-120991333D01*
X223488190Y-121038952D01*
X223297714Y-121038952D01*
X223202476Y-121086571D01*
X223154857Y-121134190D01*
X223107238Y-121229428D01*
X223107238Y-121419904D01*
X223154857Y-121515142D01*
X223202476Y-121562761D01*
X223297714Y-121610380D01*
X223488190Y-121610380D01*
X223583428Y-121562761D01*
X223631047Y-121515142D01*
X223678666Y-121419904D01*
X223678666Y-121229428D01*
X223631047Y-121134190D01*
X223583428Y-121086571D01*
X223488190Y-121038952D01*
X222424666Y-70318380D02*
X222424666Y-71032666D01*
X222377047Y-71175523D01*
X222281809Y-71270761D01*
X222138952Y-71318380D01*
X222043714Y-71318380D01*
X222805619Y-70318380D02*
X223472285Y-70318380D01*
X223043714Y-71318380D01*
X222424666Y-95210380D02*
X222424666Y-95924666D01*
X222377047Y-96067523D01*
X222281809Y-96162761D01*
X222138952Y-96210380D01*
X222043714Y-96210380D01*
X222853238Y-95305619D02*
X222900857Y-95258000D01*
X222996095Y-95210380D01*
X223234190Y-95210380D01*
X223329428Y-95258000D01*
X223377047Y-95305619D01*
X223424666Y-95400857D01*
X223424666Y-95496095D01*
X223377047Y-95638952D01*
X222805619Y-96210380D01*
X223424666Y-96210380D01*
X233457809Y-46966190D02*
X233457809Y-47442380D01*
X233124476Y-46442380D02*
X233457809Y-46966190D01*
X233791142Y-46442380D01*
X234648285Y-47442380D02*
X234076857Y-47442380D01*
X234362571Y-47442380D02*
X234362571Y-46442380D01*
X234267333Y-46585238D01*
X234172095Y-46680476D01*
X234076857Y-46728095D01*
X248158095Y-56123380D02*
X248158095Y-56932904D01*
X248205714Y-57028142D01*
X248253333Y-57075761D01*
X248348571Y-57123380D01*
X248539047Y-57123380D01*
X248634285Y-57075761D01*
X248681904Y-57028142D01*
X248729523Y-56932904D01*
X248729523Y-56123380D01*
X249634285Y-56123380D02*
X249443809Y-56123380D01*
X249348571Y-56171000D01*
X249300952Y-56218619D01*
X249205714Y-56361476D01*
X249158095Y-56551952D01*
X249158095Y-56932904D01*
X249205714Y-57028142D01*
X249253333Y-57075761D01*
X249348571Y-57123380D01*
X249539047Y-57123380D01*
X249634285Y-57075761D01*
X249681904Y-57028142D01*
X249729523Y-56932904D01*
X249729523Y-56694809D01*
X249681904Y-56599571D01*
X249634285Y-56551952D01*
X249539047Y-56504333D01*
X249348571Y-56504333D01*
X249253333Y-56551952D01*
X249205714Y-56599571D01*
X249158095Y-56694809D01*
X239836380Y-52323904D02*
X240645904Y-52323904D01*
X240741142Y-52276285D01*
X240788761Y-52228666D01*
X240836380Y-52133428D01*
X240836380Y-51942952D01*
X240788761Y-51847714D01*
X240741142Y-51800095D01*
X240645904Y-51752476D01*
X239836380Y-51752476D01*
X239836380Y-51371523D02*
X239836380Y-50752476D01*
X240217333Y-51085809D01*
X240217333Y-50942952D01*
X240264952Y-50847714D01*
X240312571Y-50800095D01*
X240407809Y-50752476D01*
X240645904Y-50752476D01*
X240741142Y-50800095D01*
X240788761Y-50847714D01*
X240836380Y-50942952D01*
X240836380Y-51228666D01*
X240788761Y-51323904D01*
X240741142Y-51371523D01*
X256102380Y-64142857D02*
X255626190Y-64476190D01*
X256102380Y-64714285D02*
X255102380Y-64714285D01*
X255102380Y-64333333D01*
X255150000Y-64238095D01*
X255197619Y-64190476D01*
X255292857Y-64142857D01*
X255435714Y-64142857D01*
X255530952Y-64190476D01*
X255578571Y-64238095D01*
X255626190Y-64333333D01*
X255626190Y-64714285D01*
X256102380Y-63190476D02*
X256102380Y-63761904D01*
X256102380Y-63476190D02*
X255102380Y-63476190D01*
X255245238Y-63571428D01*
X255340476Y-63666666D01*
X255388095Y-63761904D01*
X256102380Y-62238095D02*
X256102380Y-62809523D01*
X256102380Y-62523809D02*
X255102380Y-62523809D01*
X255245238Y-62619047D01*
X255340476Y-62714285D01*
X255388095Y-62809523D01*
X256102380Y-60341857D02*
X255626190Y-60675190D01*
X256102380Y-60913285D02*
X255102380Y-60913285D01*
X255102380Y-60532333D01*
X255150000Y-60437095D01*
X255197619Y-60389476D01*
X255292857Y-60341857D01*
X255435714Y-60341857D01*
X255530952Y-60389476D01*
X255578571Y-60437095D01*
X255626190Y-60532333D01*
X255626190Y-60913285D01*
X256102380Y-59389476D02*
X256102380Y-59960904D01*
X256102380Y-59675190D02*
X255102380Y-59675190D01*
X255245238Y-59770428D01*
X255340476Y-59865666D01*
X255388095Y-59960904D01*
X255102380Y-58770428D02*
X255102380Y-58675190D01*
X255150000Y-58579952D01*
X255197619Y-58532333D01*
X255292857Y-58484714D01*
X255483333Y-58437095D01*
X255721428Y-58437095D01*
X255911904Y-58484714D01*
X256007142Y-58532333D01*
X256054761Y-58579952D01*
X256102380Y-58675190D01*
X256102380Y-58770428D01*
X256054761Y-58865666D01*
X256007142Y-58913285D01*
X255911904Y-58960904D01*
X255721428Y-59008523D01*
X255483333Y-59008523D01*
X255292857Y-58960904D01*
X255197619Y-58913285D01*
X255150000Y-58865666D01*
X255102380Y-58770428D01*
X256102380Y-56037666D02*
X255626190Y-56371000D01*
X256102380Y-56609095D02*
X255102380Y-56609095D01*
X255102380Y-56228142D01*
X255150000Y-56132904D01*
X255197619Y-56085285D01*
X255292857Y-56037666D01*
X255435714Y-56037666D01*
X255530952Y-56085285D01*
X255578571Y-56132904D01*
X255626190Y-56228142D01*
X255626190Y-56609095D01*
X256102380Y-55561476D02*
X256102380Y-55371000D01*
X256054761Y-55275761D01*
X256007142Y-55228142D01*
X255864285Y-55132904D01*
X255673809Y-55085285D01*
X255292857Y-55085285D01*
X255197619Y-55132904D01*
X255150000Y-55180523D01*
X255102380Y-55275761D01*
X255102380Y-55466238D01*
X255150000Y-55561476D01*
X255197619Y-55609095D01*
X255292857Y-55656714D01*
X255530952Y-55656714D01*
X255626190Y-55609095D01*
X255673809Y-55561476D01*
X255721428Y-55466238D01*
X255721428Y-55275761D01*
X255673809Y-55180523D01*
X255626190Y-55132904D01*
X255530952Y-55085285D01*
X240228380Y-61380666D02*
X239752190Y-61714000D01*
X240228380Y-61952095D02*
X239228380Y-61952095D01*
X239228380Y-61571142D01*
X239276000Y-61475904D01*
X239323619Y-61428285D01*
X239418857Y-61380666D01*
X239561714Y-61380666D01*
X239656952Y-61428285D01*
X239704571Y-61475904D01*
X239752190Y-61571142D01*
X239752190Y-61952095D01*
X240228380Y-60428285D02*
X240228380Y-60999714D01*
X240228380Y-60714000D02*
X239228380Y-60714000D01*
X239371238Y-60809238D01*
X239466476Y-60904476D01*
X239514095Y-60999714D01*
X227282380Y-56872095D02*
X226282380Y-56872095D01*
X226282380Y-56491142D01*
X226330000Y-56395904D01*
X226377619Y-56348285D01*
X226472857Y-56300666D01*
X226615714Y-56300666D01*
X226710952Y-56348285D01*
X226758571Y-56395904D01*
X226806190Y-56491142D01*
X226806190Y-56872095D01*
X227282380Y-55348285D02*
X227282380Y-55919714D01*
X227282380Y-55634000D02*
X226282380Y-55634000D01*
X226425238Y-55729238D01*
X226520476Y-55824476D01*
X226568095Y-55919714D01*
X241028380Y-52432333D02*
X241742666Y-52432333D01*
X241885523Y-52479952D01*
X241980761Y-52575190D01*
X242028380Y-52718047D01*
X242028380Y-52813285D01*
X242028380Y-51956142D02*
X241028380Y-51956142D01*
X241028380Y-51575190D01*
X241076000Y-51479952D01*
X241123619Y-51432333D01*
X241218857Y-51384714D01*
X241361714Y-51384714D01*
X241456952Y-51432333D01*
X241504571Y-51479952D01*
X241552190Y-51575190D01*
X241552190Y-51956142D01*
X241028380Y-51051380D02*
X241028380Y-50432333D01*
X241409333Y-50765666D01*
X241409333Y-50622809D01*
X241456952Y-50527571D01*
X241504571Y-50479952D01*
X241599809Y-50432333D01*
X241837904Y-50432333D01*
X241933142Y-50479952D01*
X241980761Y-50527571D01*
X242028380Y-50622809D01*
X242028380Y-50908523D01*
X241980761Y-51003761D01*
X241933142Y-51051380D01*
X241006380Y-55697333D02*
X241720666Y-55697333D01*
X241863523Y-55744952D01*
X241958761Y-55840190D01*
X242006380Y-55983047D01*
X242006380Y-56078285D01*
X242006380Y-55221142D02*
X241006380Y-55221142D01*
X241006380Y-54840190D01*
X241054000Y-54744952D01*
X241101619Y-54697333D01*
X241196857Y-54649714D01*
X241339714Y-54649714D01*
X241434952Y-54697333D01*
X241482571Y-54744952D01*
X241530190Y-54840190D01*
X241530190Y-55221142D01*
X241101619Y-54268761D02*
X241054000Y-54221142D01*
X241006380Y-54125904D01*
X241006380Y-53887809D01*
X241054000Y-53792571D01*
X241101619Y-53744952D01*
X241196857Y-53697333D01*
X241292095Y-53697333D01*
X241434952Y-53744952D01*
X242006380Y-54316380D01*
X242006380Y-53697333D01*
X222210380Y-47315333D02*
X222924666Y-47315333D01*
X223067523Y-47362952D01*
X223162761Y-47458190D01*
X223210380Y-47601047D01*
X223210380Y-47696285D01*
X223210380Y-46839142D02*
X222210380Y-46839142D01*
X222210380Y-46458190D01*
X222258000Y-46362952D01*
X222305619Y-46315333D01*
X222400857Y-46267714D01*
X222543714Y-46267714D01*
X222638952Y-46315333D01*
X222686571Y-46362952D01*
X222734190Y-46458190D01*
X222734190Y-46839142D01*
X223210380Y-45315333D02*
X223210380Y-45886761D01*
X223210380Y-45601047D02*
X222210380Y-45601047D01*
X222353238Y-45696285D01*
X222448476Y-45791523D01*
X222496095Y-45886761D01*
D13*
X232984523Y-57119761D02*
X231714523Y-57119761D01*
X232863571Y-55789285D02*
X232924047Y-55849761D01*
X232984523Y-56031190D01*
X232984523Y-56152142D01*
X232924047Y-56333571D01*
X232803095Y-56454523D01*
X232682142Y-56515000D01*
X232440238Y-56575476D01*
X232258809Y-56575476D01*
X232016904Y-56515000D01*
X231895952Y-56454523D01*
X231775000Y-56333571D01*
X231714523Y-56152142D01*
X231714523Y-56031190D01*
X231775000Y-55849761D01*
X231835476Y-55789285D01*
X232984523Y-54579761D02*
X232984523Y-55305476D01*
X232984523Y-54942619D02*
X231714523Y-54942619D01*
X231895952Y-55063571D01*
X232016904Y-55184523D01*
X232077380Y-55305476D01*
D10*
X250055142Y-62969142D02*
X250007523Y-63016761D01*
X249864666Y-63064380D01*
X249769428Y-63064380D01*
X249626571Y-63016761D01*
X249531333Y-62921523D01*
X249483714Y-62826285D01*
X249436095Y-62635809D01*
X249436095Y-62492952D01*
X249483714Y-62302476D01*
X249531333Y-62207238D01*
X249626571Y-62112000D01*
X249769428Y-62064380D01*
X249864666Y-62064380D01*
X250007523Y-62112000D01*
X250055142Y-62159619D01*
X250436095Y-62159619D02*
X250483714Y-62112000D01*
X250578952Y-62064380D01*
X250817047Y-62064380D01*
X250912285Y-62112000D01*
X250959904Y-62159619D01*
X251007523Y-62254857D01*
X251007523Y-62350095D01*
X250959904Y-62492952D01*
X250388476Y-63064380D01*
X251007523Y-63064380D01*
X251626571Y-62064380D02*
X251721809Y-62064380D01*
X251817047Y-62112000D01*
X251864666Y-62159619D01*
X251912285Y-62254857D01*
X251959904Y-62445333D01*
X251959904Y-62683428D01*
X251912285Y-62873904D01*
X251864666Y-62969142D01*
X251817047Y-63016761D01*
X251721809Y-63064380D01*
X251626571Y-63064380D01*
X251531333Y-63016761D01*
X251483714Y-62969142D01*
X251436095Y-62873904D01*
X251388476Y-62683428D01*
X251388476Y-62445333D01*
X251436095Y-62254857D01*
X251483714Y-62159619D01*
X251531333Y-62112000D01*
X251626571Y-62064380D01*
X242181142Y-61063142D02*
X242133523Y-61110761D01*
X241990666Y-61158380D01*
X241895428Y-61158380D01*
X241752571Y-61110761D01*
X241657333Y-61015523D01*
X241609714Y-60920285D01*
X241562095Y-60729809D01*
X241562095Y-60586952D01*
X241609714Y-60396476D01*
X241657333Y-60301238D01*
X241752571Y-60206000D01*
X241895428Y-60158380D01*
X241990666Y-60158380D01*
X242133523Y-60206000D01*
X242181142Y-60253619D01*
X243133523Y-61158380D02*
X242562095Y-61158380D01*
X242847809Y-61158380D02*
X242847809Y-60158380D01*
X242752571Y-60301238D01*
X242657333Y-60396476D01*
X242562095Y-60444095D01*
X243466857Y-60158380D02*
X244133523Y-60158380D01*
X243704952Y-61158380D01*
X241911142Y-46362857D02*
X241958761Y-46410476D01*
X242006380Y-46553333D01*
X242006380Y-46648571D01*
X241958761Y-46791428D01*
X241863523Y-46886666D01*
X241768285Y-46934285D01*
X241577809Y-46981904D01*
X241434952Y-46981904D01*
X241244476Y-46934285D01*
X241149238Y-46886666D01*
X241054000Y-46791428D01*
X241006380Y-46648571D01*
X241006380Y-46553333D01*
X241054000Y-46410476D01*
X241101619Y-46362857D01*
X242006380Y-45410476D02*
X242006380Y-45981904D01*
X242006380Y-45696190D02*
X241006380Y-45696190D01*
X241149238Y-45791428D01*
X241244476Y-45886666D01*
X241292095Y-45981904D01*
X241006380Y-45077142D02*
X241006380Y-44458095D01*
X241387333Y-44791428D01*
X241387333Y-44648571D01*
X241434952Y-44553333D01*
X241482571Y-44505714D01*
X241577809Y-44458095D01*
X241815904Y-44458095D01*
X241911142Y-44505714D01*
X241958761Y-44553333D01*
X242006380Y-44648571D01*
X242006380Y-44934285D01*
X241958761Y-45029523D01*
X241911142Y-45077142D01*
X221861142Y-67565142D02*
X221813523Y-67612761D01*
X221670666Y-67660380D01*
X221575428Y-67660380D01*
X221432571Y-67612761D01*
X221337333Y-67517523D01*
X221289714Y-67422285D01*
X221242095Y-67231809D01*
X221242095Y-67088952D01*
X221289714Y-66898476D01*
X221337333Y-66803238D01*
X221432571Y-66708000D01*
X221575428Y-66660380D01*
X221670666Y-66660380D01*
X221813523Y-66708000D01*
X221861142Y-66755619D01*
X222813523Y-67660380D02*
X222242095Y-67660380D01*
X222527809Y-67660380D02*
X222527809Y-66660380D01*
X222432571Y-66803238D01*
X222337333Y-66898476D01*
X222242095Y-66946095D01*
X223432571Y-66660380D02*
X223527809Y-66660380D01*
X223623047Y-66708000D01*
X223670666Y-66755619D01*
X223718285Y-66850857D01*
X223765904Y-67041333D01*
X223765904Y-67279428D01*
X223718285Y-67469904D01*
X223670666Y-67565142D01*
X223623047Y-67612761D01*
X223527809Y-67660380D01*
X223432571Y-67660380D01*
X223337333Y-67612761D01*
X223289714Y-67565142D01*
X223242095Y-67469904D01*
X223194476Y-67279428D01*
X223194476Y-67041333D01*
X223242095Y-66850857D01*
X223289714Y-66755619D01*
X223337333Y-66708000D01*
X223432571Y-66660380D01*
X251055142Y-45632666D02*
X251102761Y-45680285D01*
X251150380Y-45823142D01*
X251150380Y-45918380D01*
X251102761Y-46061238D01*
X251007523Y-46156476D01*
X250912285Y-46204095D01*
X250721809Y-46251714D01*
X250578952Y-46251714D01*
X250388476Y-46204095D01*
X250293238Y-46156476D01*
X250198000Y-46061238D01*
X250150380Y-45918380D01*
X250150380Y-45823142D01*
X250198000Y-45680285D01*
X250245619Y-45632666D01*
X250150380Y-45299333D02*
X250150380Y-44632666D01*
X251150380Y-45061238D01*
X222337333Y-143003142D02*
X222289714Y-143050761D01*
X222146857Y-143098380D01*
X222051619Y-143098380D01*
X221908761Y-143050761D01*
X221813523Y-142955523D01*
X221765904Y-142860285D01*
X221718285Y-142669809D01*
X221718285Y-142526952D01*
X221765904Y-142336476D01*
X221813523Y-142241238D01*
X221908761Y-142146000D01*
X222051619Y-142098380D01*
X222146857Y-142098380D01*
X222289714Y-142146000D01*
X222337333Y-142193619D01*
X223242095Y-142098380D02*
X222765904Y-142098380D01*
X222718285Y-142574571D01*
X222765904Y-142526952D01*
X222861142Y-142479333D01*
X223099238Y-142479333D01*
X223194476Y-142526952D01*
X223242095Y-142574571D01*
X223289714Y-142669809D01*
X223289714Y-142907904D01*
X223242095Y-143003142D01*
X223194476Y-143050761D01*
X223099238Y-143098380D01*
X222861142Y-143098380D01*
X222765904Y-143050761D01*
X222718285Y-143003142D01*
X248666095Y-83428380D02*
X248666095Y-84237904D01*
X248713714Y-84333142D01*
X248761333Y-84380761D01*
X248856571Y-84428380D01*
X249047047Y-84428380D01*
X249142285Y-84380761D01*
X249189904Y-84333142D01*
X249237523Y-84237904D01*
X249237523Y-83428380D01*
X249618476Y-83428380D02*
X250285142Y-83428380D01*
X249856571Y-84428380D01*
X267364666Y-41776380D02*
X267364666Y-42490666D01*
X267317047Y-42633523D01*
X267221809Y-42728761D01*
X267078952Y-42776380D01*
X266983714Y-42776380D01*
X268269428Y-42109714D02*
X268269428Y-42776380D01*
X268031333Y-41728761D02*
X267793238Y-42443047D01*
X268412285Y-42443047D01*
X267364666Y-92068380D02*
X267364666Y-92782666D01*
X267317047Y-92925523D01*
X267221809Y-93020761D01*
X267078952Y-93068380D01*
X266983714Y-93068380D01*
X268269428Y-92068380D02*
X268078952Y-92068380D01*
X267983714Y-92116000D01*
X267936095Y-92163619D01*
X267840857Y-92306476D01*
X267793238Y-92496952D01*
X267793238Y-92877904D01*
X267840857Y-92973142D01*
X267888476Y-93020761D01*
X267983714Y-93068380D01*
X268174190Y-93068380D01*
X268269428Y-93020761D01*
X268317047Y-92973142D01*
X268364666Y-92877904D01*
X268364666Y-92639809D01*
X268317047Y-92544571D01*
X268269428Y-92496952D01*
X268174190Y-92449333D01*
X267983714Y-92449333D01*
X267888476Y-92496952D01*
X267840857Y-92544571D01*
X267793238Y-92639809D01*
X245593142Y-140342857D02*
X245640761Y-140390476D01*
X245688380Y-140533333D01*
X245688380Y-140628571D01*
X245640761Y-140771428D01*
X245545523Y-140866666D01*
X245450285Y-140914285D01*
X245259809Y-140961904D01*
X245116952Y-140961904D01*
X244926476Y-140914285D01*
X244831238Y-140866666D01*
X244736000Y-140771428D01*
X244688380Y-140628571D01*
X244688380Y-140533333D01*
X244736000Y-140390476D01*
X244783619Y-140342857D01*
X244783619Y-139961904D02*
X244736000Y-139914285D01*
X244688380Y-139819047D01*
X244688380Y-139580952D01*
X244736000Y-139485714D01*
X244783619Y-139438095D01*
X244878857Y-139390476D01*
X244974095Y-139390476D01*
X245116952Y-139438095D01*
X245688380Y-140009523D01*
X245688380Y-139390476D01*
X244688380Y-139057142D02*
X244688380Y-138438095D01*
X245069333Y-138771428D01*
X245069333Y-138628571D01*
X245116952Y-138533333D01*
X245164571Y-138485714D01*
X245259809Y-138438095D01*
X245497904Y-138438095D01*
X245593142Y-138485714D01*
X245640761Y-138533333D01*
X245688380Y-138628571D01*
X245688380Y-138914285D01*
X245640761Y-139009523D01*
X245593142Y-139057142D01*
X244577142Y-115196857D02*
X244624761Y-115244476D01*
X244672380Y-115387333D01*
X244672380Y-115482571D01*
X244624761Y-115625428D01*
X244529523Y-115720666D01*
X244434285Y-115768285D01*
X244243809Y-115815904D01*
X244100952Y-115815904D01*
X243910476Y-115768285D01*
X243815238Y-115720666D01*
X243720000Y-115625428D01*
X243672380Y-115482571D01*
X243672380Y-115387333D01*
X243720000Y-115244476D01*
X243767619Y-115196857D01*
X243767619Y-114815904D02*
X243720000Y-114768285D01*
X243672380Y-114673047D01*
X243672380Y-114434952D01*
X243720000Y-114339714D01*
X243767619Y-114292095D01*
X243862857Y-114244476D01*
X243958095Y-114244476D01*
X244100952Y-114292095D01*
X244672380Y-114863523D01*
X244672380Y-114244476D01*
X243767619Y-113863523D02*
X243720000Y-113815904D01*
X243672380Y-113720666D01*
X243672380Y-113482571D01*
X243720000Y-113387333D01*
X243767619Y-113339714D01*
X243862857Y-113292095D01*
X243958095Y-113292095D01*
X244100952Y-113339714D01*
X244672380Y-113911142D01*
X244672380Y-113292095D01*
X245085142Y-89542857D02*
X245132761Y-89590476D01*
X245180380Y-89733333D01*
X245180380Y-89828571D01*
X245132761Y-89971428D01*
X245037523Y-90066666D01*
X244942285Y-90114285D01*
X244751809Y-90161904D01*
X244608952Y-90161904D01*
X244418476Y-90114285D01*
X244323238Y-90066666D01*
X244228000Y-89971428D01*
X244180380Y-89828571D01*
X244180380Y-89733333D01*
X244228000Y-89590476D01*
X244275619Y-89542857D01*
X244275619Y-89161904D02*
X244228000Y-89114285D01*
X244180380Y-89019047D01*
X244180380Y-88780952D01*
X244228000Y-88685714D01*
X244275619Y-88638095D01*
X244370857Y-88590476D01*
X244466095Y-88590476D01*
X244608952Y-88638095D01*
X245180380Y-89209523D01*
X245180380Y-88590476D01*
X245180380Y-87638095D02*
X245180380Y-88209523D01*
X245180380Y-87923809D02*
X244180380Y-87923809D01*
X244323238Y-88019047D01*
X244418476Y-88114285D01*
X244466095Y-88209523D01*
X248920095Y-108828380D02*
X248920095Y-109637904D01*
X248967714Y-109733142D01*
X249015333Y-109780761D01*
X249110571Y-109828380D01*
X249301047Y-109828380D01*
X249396285Y-109780761D01*
X249443904Y-109733142D01*
X249491523Y-109637904D01*
X249491523Y-108828380D01*
X250110571Y-109256952D02*
X250015333Y-109209333D01*
X249967714Y-109161714D01*
X249920095Y-109066476D01*
X249920095Y-109018857D01*
X249967714Y-108923619D01*
X250015333Y-108876000D01*
X250110571Y-108828380D01*
X250301047Y-108828380D01*
X250396285Y-108876000D01*
X250443904Y-108923619D01*
X250491523Y-109018857D01*
X250491523Y-109066476D01*
X250443904Y-109161714D01*
X250396285Y-109209333D01*
X250301047Y-109256952D01*
X250110571Y-109256952D01*
X250015333Y-109304571D01*
X249967714Y-109352190D01*
X249920095Y-109447428D01*
X249920095Y-109637904D01*
X249967714Y-109733142D01*
X250015333Y-109780761D01*
X250110571Y-109828380D01*
X250301047Y-109828380D01*
X250396285Y-109780761D01*
X250443904Y-109733142D01*
X250491523Y-109637904D01*
X250491523Y-109447428D01*
X250443904Y-109352190D01*
X250396285Y-109304571D01*
X250301047Y-109256952D01*
X239836380Y-104901904D02*
X240645904Y-104901904D01*
X240741142Y-104854285D01*
X240788761Y-104806666D01*
X240836380Y-104711428D01*
X240836380Y-104520952D01*
X240788761Y-104425714D01*
X240741142Y-104378095D01*
X240645904Y-104330476D01*
X239836380Y-104330476D01*
X239836380Y-103378095D02*
X239836380Y-103854285D01*
X240312571Y-103901904D01*
X240264952Y-103854285D01*
X240217333Y-103759047D01*
X240217333Y-103520952D01*
X240264952Y-103425714D01*
X240312571Y-103378095D01*
X240407809Y-103330476D01*
X240645904Y-103330476D01*
X240741142Y-103378095D01*
X240788761Y-103425714D01*
X240836380Y-103520952D01*
X240836380Y-103759047D01*
X240788761Y-103854285D01*
X240741142Y-103901904D01*
X239836380Y-79755904D02*
X240645904Y-79755904D01*
X240741142Y-79708285D01*
X240788761Y-79660666D01*
X240836380Y-79565428D01*
X240836380Y-79374952D01*
X240788761Y-79279714D01*
X240741142Y-79232095D01*
X240645904Y-79184476D01*
X239836380Y-79184476D01*
X240169714Y-78279714D02*
X240836380Y-78279714D01*
X239788761Y-78517809D02*
X240503047Y-78755904D01*
X240503047Y-78136857D01*
X248920095Y-136866380D02*
X248920095Y-137675904D01*
X248967714Y-137771142D01*
X249015333Y-137818761D01*
X249110571Y-137866380D01*
X249301047Y-137866380D01*
X249396285Y-137818761D01*
X249443904Y-137771142D01*
X249491523Y-137675904D01*
X249491523Y-136866380D01*
X249920095Y-136961619D02*
X249967714Y-136914000D01*
X250062952Y-136866380D01*
X250301047Y-136866380D01*
X250396285Y-136914000D01*
X250443904Y-136961619D01*
X250491523Y-137056857D01*
X250491523Y-137152095D01*
X250443904Y-137294952D01*
X249872476Y-137866380D01*
X250491523Y-137866380D01*
X239836380Y-129793904D02*
X240645904Y-129793904D01*
X240741142Y-129746285D01*
X240788761Y-129698666D01*
X240836380Y-129603428D01*
X240836380Y-129412952D01*
X240788761Y-129317714D01*
X240741142Y-129270095D01*
X240645904Y-129222476D01*
X239836380Y-129222476D01*
X240836380Y-128222476D02*
X240836380Y-128793904D01*
X240836380Y-128508190D02*
X239836380Y-128508190D01*
X239979238Y-128603428D01*
X240074476Y-128698666D01*
X240122095Y-128793904D01*
X256484380Y-116203857D02*
X256008190Y-116537190D01*
X256484380Y-116775285D02*
X255484380Y-116775285D01*
X255484380Y-116394333D01*
X255532000Y-116299095D01*
X255579619Y-116251476D01*
X255674857Y-116203857D01*
X255817714Y-116203857D01*
X255912952Y-116251476D01*
X255960571Y-116299095D01*
X256008190Y-116394333D01*
X256008190Y-116775285D01*
X256484380Y-115251476D02*
X256484380Y-115822904D01*
X256484380Y-115537190D02*
X255484380Y-115537190D01*
X255627238Y-115632428D01*
X255722476Y-115727666D01*
X255770095Y-115822904D01*
X255484380Y-114918142D02*
X255484380Y-114251476D01*
X256484380Y-114680047D01*
X256484380Y-112393857D02*
X256008190Y-112727190D01*
X256484380Y-112965285D02*
X255484380Y-112965285D01*
X255484380Y-112584333D01*
X255532000Y-112489095D01*
X255579619Y-112441476D01*
X255674857Y-112393857D01*
X255817714Y-112393857D01*
X255912952Y-112441476D01*
X255960571Y-112489095D01*
X256008190Y-112584333D01*
X256008190Y-112965285D01*
X256484380Y-111441476D02*
X256484380Y-112012904D01*
X256484380Y-111727190D02*
X255484380Y-111727190D01*
X255627238Y-111822428D01*
X255722476Y-111917666D01*
X255770095Y-112012904D01*
X255484380Y-110584333D02*
X255484380Y-110774809D01*
X255532000Y-110870047D01*
X255579619Y-110917666D01*
X255722476Y-111012904D01*
X255912952Y-111060523D01*
X256293904Y-111060523D01*
X256389142Y-111012904D01*
X256436761Y-110965285D01*
X256484380Y-110870047D01*
X256484380Y-110679571D01*
X256436761Y-110584333D01*
X256389142Y-110536714D01*
X256293904Y-110489095D01*
X256055809Y-110489095D01*
X255960571Y-110536714D01*
X255912952Y-110584333D01*
X255865333Y-110679571D01*
X255865333Y-110870047D01*
X255912952Y-110965285D01*
X255960571Y-111012904D01*
X256055809Y-111060523D01*
X256484380Y-108592857D02*
X256008190Y-108926190D01*
X256484380Y-109164285D02*
X255484380Y-109164285D01*
X255484380Y-108783333D01*
X255532000Y-108688095D01*
X255579619Y-108640476D01*
X255674857Y-108592857D01*
X255817714Y-108592857D01*
X255912952Y-108640476D01*
X255960571Y-108688095D01*
X256008190Y-108783333D01*
X256008190Y-109164285D01*
X256484380Y-107640476D02*
X256484380Y-108211904D01*
X256484380Y-107926190D02*
X255484380Y-107926190D01*
X255627238Y-108021428D01*
X255722476Y-108116666D01*
X255770095Y-108211904D01*
X255484380Y-106735714D02*
X255484380Y-107211904D01*
X255960571Y-107259523D01*
X255912952Y-107211904D01*
X255865333Y-107116666D01*
X255865333Y-106878571D01*
X255912952Y-106783333D01*
X255960571Y-106735714D01*
X256055809Y-106688095D01*
X256293904Y-106688095D01*
X256389142Y-106735714D01*
X256436761Y-106783333D01*
X256484380Y-106878571D01*
X256484380Y-107116666D01*
X256436761Y-107211904D01*
X256389142Y-107259523D01*
X256738380Y-89796857D02*
X256262190Y-90130190D01*
X256738380Y-90368285D02*
X255738380Y-90368285D01*
X255738380Y-89987333D01*
X255786000Y-89892095D01*
X255833619Y-89844476D01*
X255928857Y-89796857D01*
X256071714Y-89796857D01*
X256166952Y-89844476D01*
X256214571Y-89892095D01*
X256262190Y-89987333D01*
X256262190Y-90368285D01*
X256738380Y-88844476D02*
X256738380Y-89415904D01*
X256738380Y-89130190D02*
X255738380Y-89130190D01*
X255881238Y-89225428D01*
X255976476Y-89320666D01*
X256024095Y-89415904D01*
X256071714Y-87987333D02*
X256738380Y-87987333D01*
X255690761Y-88225428D02*
X256405047Y-88463523D01*
X256405047Y-87844476D01*
X256788180Y-85961457D02*
X256311990Y-86294790D01*
X256788180Y-86532885D02*
X255788180Y-86532885D01*
X255788180Y-86151933D01*
X255835800Y-86056695D01*
X255883419Y-86009076D01*
X255978657Y-85961457D01*
X256121514Y-85961457D01*
X256216752Y-86009076D01*
X256264371Y-86056695D01*
X256311990Y-86151933D01*
X256311990Y-86532885D01*
X256788180Y-85009076D02*
X256788180Y-85580504D01*
X256788180Y-85294790D02*
X255788180Y-85294790D01*
X255931038Y-85390028D01*
X256026276Y-85485266D01*
X256073895Y-85580504D01*
X255788180Y-84675742D02*
X255788180Y-84056695D01*
X256169133Y-84390028D01*
X256169133Y-84247171D01*
X256216752Y-84151933D01*
X256264371Y-84104314D01*
X256359609Y-84056695D01*
X256597704Y-84056695D01*
X256692942Y-84104314D01*
X256740561Y-84151933D01*
X256788180Y-84247171D01*
X256788180Y-84532885D01*
X256740561Y-84628123D01*
X256692942Y-84675742D01*
X256788180Y-82142457D02*
X256311990Y-82475790D01*
X256788180Y-82713885D02*
X255788180Y-82713885D01*
X255788180Y-82332933D01*
X255835800Y-82237695D01*
X255883419Y-82190076D01*
X255978657Y-82142457D01*
X256121514Y-82142457D01*
X256216752Y-82190076D01*
X256264371Y-82237695D01*
X256311990Y-82332933D01*
X256311990Y-82713885D01*
X256788180Y-81190076D02*
X256788180Y-81761504D01*
X256788180Y-81475790D02*
X255788180Y-81475790D01*
X255931038Y-81571028D01*
X256026276Y-81666266D01*
X256073895Y-81761504D01*
X255883419Y-80809123D02*
X255835800Y-80761504D01*
X255788180Y-80666266D01*
X255788180Y-80428171D01*
X255835800Y-80332933D01*
X255883419Y-80285314D01*
X255978657Y-80237695D01*
X256073895Y-80237695D01*
X256216752Y-80285314D01*
X256788180Y-80856742D01*
X256788180Y-80237695D01*
X256484380Y-140619666D02*
X256008190Y-140953000D01*
X256484380Y-141191095D02*
X255484380Y-141191095D01*
X255484380Y-140810142D01*
X255532000Y-140714904D01*
X255579619Y-140667285D01*
X255674857Y-140619666D01*
X255817714Y-140619666D01*
X255912952Y-140667285D01*
X255960571Y-140714904D01*
X256008190Y-140810142D01*
X256008190Y-141191095D01*
X255484380Y-139714904D02*
X255484380Y-140191095D01*
X255960571Y-140238714D01*
X255912952Y-140191095D01*
X255865333Y-140095857D01*
X255865333Y-139857761D01*
X255912952Y-139762523D01*
X255960571Y-139714904D01*
X256055809Y-139667285D01*
X256293904Y-139667285D01*
X256389142Y-139714904D01*
X256436761Y-139762523D01*
X256484380Y-139857761D01*
X256484380Y-140095857D01*
X256436761Y-140191095D01*
X256389142Y-140238714D01*
X256484380Y-136818666D02*
X256008190Y-137152000D01*
X256484380Y-137390095D02*
X255484380Y-137390095D01*
X255484380Y-137009142D01*
X255532000Y-136913904D01*
X255579619Y-136866285D01*
X255674857Y-136818666D01*
X255817714Y-136818666D01*
X255912952Y-136866285D01*
X255960571Y-136913904D01*
X256008190Y-137009142D01*
X256008190Y-137390095D01*
X255817714Y-135961523D02*
X256484380Y-135961523D01*
X255436761Y-136199619D02*
X256151047Y-136437714D01*
X256151047Y-135818666D01*
X256484380Y-133008666D02*
X256008190Y-133342000D01*
X256484380Y-133580095D02*
X255484380Y-133580095D01*
X255484380Y-133199142D01*
X255532000Y-133103904D01*
X255579619Y-133056285D01*
X255674857Y-133008666D01*
X255817714Y-133008666D01*
X255912952Y-133056285D01*
X255960571Y-133103904D01*
X256008190Y-133199142D01*
X256008190Y-133580095D01*
X255484380Y-132675333D02*
X255484380Y-132056285D01*
X255865333Y-132389619D01*
X255865333Y-132246761D01*
X255912952Y-132151523D01*
X255960571Y-132103904D01*
X256055809Y-132056285D01*
X256293904Y-132056285D01*
X256389142Y-132103904D01*
X256436761Y-132151523D01*
X256484380Y-132246761D01*
X256484380Y-132532476D01*
X256436761Y-132627714D01*
X256389142Y-132675333D01*
X227282380Y-132310095D02*
X226282380Y-132310095D01*
X226282380Y-131929142D01*
X226330000Y-131833904D01*
X226377619Y-131786285D01*
X226472857Y-131738666D01*
X226615714Y-131738666D01*
X226710952Y-131786285D01*
X226758571Y-131833904D01*
X226806190Y-131929142D01*
X226806190Y-132310095D01*
X226615714Y-130881523D02*
X227282380Y-130881523D01*
X226234761Y-131119619D02*
X226949047Y-131357714D01*
X226949047Y-130738666D01*
X227282380Y-107164095D02*
X226282380Y-107164095D01*
X226282380Y-106783142D01*
X226330000Y-106687904D01*
X226377619Y-106640285D01*
X226472857Y-106592666D01*
X226615714Y-106592666D01*
X226710952Y-106640285D01*
X226758571Y-106687904D01*
X226806190Y-106783142D01*
X226806190Y-107164095D01*
X226282380Y-106259333D02*
X226282380Y-105640285D01*
X226663333Y-105973619D01*
X226663333Y-105830761D01*
X226710952Y-105735523D01*
X226758571Y-105687904D01*
X226853809Y-105640285D01*
X227091904Y-105640285D01*
X227187142Y-105687904D01*
X227234761Y-105735523D01*
X227282380Y-105830761D01*
X227282380Y-106116476D01*
X227234761Y-106211714D01*
X227187142Y-106259333D01*
X227282380Y-82018095D02*
X226282380Y-82018095D01*
X226282380Y-81637142D01*
X226330000Y-81541904D01*
X226377619Y-81494285D01*
X226472857Y-81446666D01*
X226615714Y-81446666D01*
X226710952Y-81494285D01*
X226758571Y-81541904D01*
X226806190Y-81637142D01*
X226806190Y-82018095D01*
X226377619Y-81065714D02*
X226330000Y-81018095D01*
X226282380Y-80922857D01*
X226282380Y-80684761D01*
X226330000Y-80589523D01*
X226377619Y-80541904D01*
X226472857Y-80494285D01*
X226568095Y-80494285D01*
X226710952Y-80541904D01*
X227282380Y-81113333D01*
X227282380Y-80494285D01*
X267364666Y-66922380D02*
X267364666Y-67636666D01*
X267317047Y-67779523D01*
X267221809Y-67874761D01*
X267078952Y-67922380D01*
X266983714Y-67922380D01*
X268317047Y-66922380D02*
X267840857Y-66922380D01*
X267793238Y-67398571D01*
X267840857Y-67350952D01*
X267936095Y-67303333D01*
X268174190Y-67303333D01*
X268269428Y-67350952D01*
X268317047Y-67398571D01*
X268364666Y-67493809D01*
X268364666Y-67731904D01*
X268317047Y-67827142D01*
X268269428Y-67874761D01*
X268174190Y-67922380D01*
X267936095Y-67922380D01*
X267840857Y-67874761D01*
X267793238Y-67827142D01*
X267364666Y-117214380D02*
X267364666Y-117928666D01*
X267317047Y-118071523D01*
X267221809Y-118166761D01*
X267078952Y-118214380D01*
X266983714Y-118214380D01*
X267745619Y-117214380D02*
X268364666Y-117214380D01*
X268031333Y-117595333D01*
X268174190Y-117595333D01*
X268269428Y-117642952D01*
X268317047Y-117690571D01*
X268364666Y-117785809D01*
X268364666Y-118023904D01*
X268317047Y-118119142D01*
X268269428Y-118166761D01*
X268174190Y-118214380D01*
X267888476Y-118214380D01*
X267793238Y-118166761D01*
X267745619Y-118119142D01*
X218146380Y-46815333D02*
X218860666Y-46815333D01*
X219003523Y-46862952D01*
X219098761Y-46958190D01*
X219146380Y-47101047D01*
X219146380Y-47196285D01*
X219146380Y-45815333D02*
X219146380Y-46386761D01*
X219146380Y-46101047D02*
X218146380Y-46101047D01*
X218289238Y-46196285D01*
X218384476Y-46291523D01*
X218432095Y-46386761D01*
X252912571Y-101425333D02*
X252912571Y-101758666D01*
X253436380Y-101758666D02*
X252436380Y-101758666D01*
X252436380Y-101282476D01*
X252769714Y-100472952D02*
X253436380Y-100472952D01*
X252388761Y-100711047D02*
X253103047Y-100949142D01*
X253103047Y-100330095D01*
X252768971Y-77117533D02*
X252768971Y-77450866D01*
X253292780Y-77450866D02*
X252292780Y-77450866D01*
X252292780Y-76974676D01*
X252292780Y-76688961D02*
X252292780Y-76069914D01*
X252673733Y-76403247D01*
X252673733Y-76260390D01*
X252721352Y-76165152D01*
X252768971Y-76117533D01*
X252864209Y-76069914D01*
X253102304Y-76069914D01*
X253197542Y-76117533D01*
X253245161Y-76165152D01*
X253292780Y-76260390D01*
X253292780Y-76546104D01*
X253245161Y-76641342D01*
X253197542Y-76688961D01*
X252108571Y-51096833D02*
X252108571Y-51430166D01*
X252632380Y-51430166D02*
X251632380Y-51430166D01*
X251632380Y-50953976D01*
X251727619Y-50620642D02*
X251680000Y-50573023D01*
X251632380Y-50477785D01*
X251632380Y-50239690D01*
X251680000Y-50144452D01*
X251727619Y-50096833D01*
X251822857Y-50049214D01*
X251918095Y-50049214D01*
X252060952Y-50096833D01*
X252632380Y-50668261D01*
X252632380Y-50049214D01*
X252616571Y-126825333D02*
X252616571Y-127158666D01*
X253140380Y-127158666D02*
X252140380Y-127158666D01*
X252140380Y-126682476D01*
X253140380Y-125777714D02*
X253140380Y-126349142D01*
X253140380Y-126063428D02*
X252140380Y-126063428D01*
X252283238Y-126158666D01*
X252378476Y-126253904D01*
X252426095Y-126349142D01*
X242181142Y-84051142D02*
X242133523Y-84098761D01*
X241990666Y-84146380D01*
X241895428Y-84146380D01*
X241752571Y-84098761D01*
X241657333Y-84003523D01*
X241609714Y-83908285D01*
X241562095Y-83717809D01*
X241562095Y-83574952D01*
X241609714Y-83384476D01*
X241657333Y-83289238D01*
X241752571Y-83194000D01*
X241895428Y-83146380D01*
X241990666Y-83146380D01*
X242133523Y-83194000D01*
X242181142Y-83241619D01*
X243133523Y-84146380D02*
X242562095Y-84146380D01*
X242847809Y-84146380D02*
X242847809Y-83146380D01*
X242752571Y-83289238D01*
X242657333Y-83384476D01*
X242562095Y-83432095D01*
X243609714Y-84146380D02*
X243800190Y-84146380D01*
X243895428Y-84098761D01*
X243943047Y-84051142D01*
X244038285Y-83908285D01*
X244085904Y-83717809D01*
X244085904Y-83336857D01*
X244038285Y-83241619D01*
X243990666Y-83194000D01*
X243895428Y-83146380D01*
X243704952Y-83146380D01*
X243609714Y-83194000D01*
X243562095Y-83241619D01*
X243514476Y-83336857D01*
X243514476Y-83574952D01*
X243562095Y-83670190D01*
X243609714Y-83717809D01*
X243704952Y-83765428D01*
X243895428Y-83765428D01*
X243990666Y-83717809D01*
X244038285Y-83670190D01*
X244085904Y-83574952D01*
X242190142Y-109197142D02*
X242142523Y-109244761D01*
X241999666Y-109292380D01*
X241904428Y-109292380D01*
X241761571Y-109244761D01*
X241666333Y-109149523D01*
X241618714Y-109054285D01*
X241571095Y-108863809D01*
X241571095Y-108720952D01*
X241618714Y-108530476D01*
X241666333Y-108435238D01*
X241761571Y-108340000D01*
X241904428Y-108292380D01*
X241999666Y-108292380D01*
X242142523Y-108340000D01*
X242190142Y-108387619D01*
X243142523Y-109292380D02*
X242571095Y-109292380D01*
X242856809Y-109292380D02*
X242856809Y-108292380D01*
X242761571Y-108435238D01*
X242666333Y-108530476D01*
X242571095Y-108578095D01*
X243713952Y-108720952D02*
X243618714Y-108673333D01*
X243571095Y-108625714D01*
X243523476Y-108530476D01*
X243523476Y-108482857D01*
X243571095Y-108387619D01*
X243618714Y-108340000D01*
X243713952Y-108292380D01*
X243904428Y-108292380D01*
X243999666Y-108340000D01*
X244047285Y-108387619D01*
X244094904Y-108482857D01*
X244094904Y-108530476D01*
X244047285Y-108625714D01*
X243999666Y-108673333D01*
X243904428Y-108720952D01*
X243713952Y-108720952D01*
X243618714Y-108768571D01*
X243571095Y-108816190D01*
X243523476Y-108911428D01*
X243523476Y-109101904D01*
X243571095Y-109197142D01*
X243618714Y-109244761D01*
X243713952Y-109292380D01*
X243904428Y-109292380D01*
X243999666Y-109244761D01*
X244047285Y-109197142D01*
X244094904Y-109101904D01*
X244094904Y-108911428D01*
X244047285Y-108816190D01*
X243999666Y-108768571D01*
X243904428Y-108720952D01*
X242689142Y-137517142D02*
X242641523Y-137564761D01*
X242498666Y-137612380D01*
X242403428Y-137612380D01*
X242260571Y-137564761D01*
X242165333Y-137469523D01*
X242117714Y-137374285D01*
X242070095Y-137183809D01*
X242070095Y-137040952D01*
X242117714Y-136850476D01*
X242165333Y-136755238D01*
X242260571Y-136660000D01*
X242403428Y-136612380D01*
X242498666Y-136612380D01*
X242641523Y-136660000D01*
X242689142Y-136707619D01*
X243641523Y-137612380D02*
X243070095Y-137612380D01*
X243355809Y-137612380D02*
X243355809Y-136612380D01*
X243260571Y-136755238D01*
X243165333Y-136850476D01*
X243070095Y-136898095D01*
X244498666Y-136612380D02*
X244308190Y-136612380D01*
X244212952Y-136660000D01*
X244165333Y-136707619D01*
X244070095Y-136850476D01*
X244022476Y-137040952D01*
X244022476Y-137421904D01*
X244070095Y-137517142D01*
X244117714Y-137564761D01*
X244212952Y-137612380D01*
X244403428Y-137612380D01*
X244498666Y-137564761D01*
X244546285Y-137517142D01*
X244593904Y-137421904D01*
X244593904Y-137183809D01*
X244546285Y-137088571D01*
X244498666Y-137040952D01*
X244403428Y-136993333D01*
X244212952Y-136993333D01*
X244117714Y-137040952D01*
X244070095Y-137088571D01*
X244022476Y-137183809D01*
X242698142Y-97005142D02*
X242650523Y-97052761D01*
X242507666Y-97100380D01*
X242412428Y-97100380D01*
X242269571Y-97052761D01*
X242174333Y-96957523D01*
X242126714Y-96862285D01*
X242079095Y-96671809D01*
X242079095Y-96528952D01*
X242126714Y-96338476D01*
X242174333Y-96243238D01*
X242269571Y-96148000D01*
X242412428Y-96100380D01*
X242507666Y-96100380D01*
X242650523Y-96148000D01*
X242698142Y-96195619D01*
X243650523Y-97100380D02*
X243079095Y-97100380D01*
X243364809Y-97100380D02*
X243364809Y-96100380D01*
X243269571Y-96243238D01*
X243174333Y-96338476D01*
X243079095Y-96386095D01*
X244555285Y-96100380D02*
X244079095Y-96100380D01*
X244031476Y-96576571D01*
X244079095Y-96528952D01*
X244174333Y-96481333D01*
X244412428Y-96481333D01*
X244507666Y-96528952D01*
X244555285Y-96576571D01*
X244602904Y-96671809D01*
X244602904Y-96909904D01*
X244555285Y-97005142D01*
X244507666Y-97052761D01*
X244412428Y-97100380D01*
X244174333Y-97100380D01*
X244079095Y-97052761D01*
X244031476Y-97005142D01*
X242181142Y-71859142D02*
X242133523Y-71906761D01*
X241990666Y-71954380D01*
X241895428Y-71954380D01*
X241752571Y-71906761D01*
X241657333Y-71811523D01*
X241609714Y-71716285D01*
X241562095Y-71525809D01*
X241562095Y-71382952D01*
X241609714Y-71192476D01*
X241657333Y-71097238D01*
X241752571Y-71002000D01*
X241895428Y-70954380D01*
X241990666Y-70954380D01*
X242133523Y-71002000D01*
X242181142Y-71049619D01*
X243133523Y-71954380D02*
X242562095Y-71954380D01*
X242847809Y-71954380D02*
X242847809Y-70954380D01*
X242752571Y-71097238D01*
X242657333Y-71192476D01*
X242562095Y-71240095D01*
X243990666Y-71287714D02*
X243990666Y-71954380D01*
X243752571Y-70906761D02*
X243514476Y-71621047D01*
X244133523Y-71621047D01*
X221861142Y-92711142D02*
X221813523Y-92758761D01*
X221670666Y-92806380D01*
X221575428Y-92806380D01*
X221432571Y-92758761D01*
X221337333Y-92663523D01*
X221289714Y-92568285D01*
X221242095Y-92377809D01*
X221242095Y-92234952D01*
X221289714Y-92044476D01*
X221337333Y-91949238D01*
X221432571Y-91854000D01*
X221575428Y-91806380D01*
X221670666Y-91806380D01*
X221813523Y-91854000D01*
X221861142Y-91901619D01*
X222813523Y-92806380D02*
X222242095Y-92806380D01*
X222527809Y-92806380D02*
X222527809Y-91806380D01*
X222432571Y-91949238D01*
X222337333Y-92044476D01*
X222242095Y-92092095D01*
X223194476Y-91901619D02*
X223242095Y-91854000D01*
X223337333Y-91806380D01*
X223575428Y-91806380D01*
X223670666Y-91854000D01*
X223718285Y-91901619D01*
X223765904Y-91996857D01*
X223765904Y-92092095D01*
X223718285Y-92234952D01*
X223146857Y-92806380D01*
X223765904Y-92806380D01*
X221861142Y-117857142D02*
X221813523Y-117904761D01*
X221670666Y-117952380D01*
X221575428Y-117952380D01*
X221432571Y-117904761D01*
X221337333Y-117809523D01*
X221289714Y-117714285D01*
X221242095Y-117523809D01*
X221242095Y-117380952D01*
X221289714Y-117190476D01*
X221337333Y-117095238D01*
X221432571Y-117000000D01*
X221575428Y-116952380D01*
X221670666Y-116952380D01*
X221813523Y-117000000D01*
X221861142Y-117047619D01*
X222813523Y-117952380D02*
X222242095Y-117952380D01*
X222527809Y-117952380D02*
X222527809Y-116952380D01*
X222432571Y-117095238D01*
X222337333Y-117190476D01*
X222242095Y-117238095D01*
X223765904Y-117952380D02*
X223194476Y-117952380D01*
X223480190Y-117952380D02*
X223480190Y-116952380D01*
X223384952Y-117095238D01*
X223289714Y-117190476D01*
X223194476Y-117238095D01*
X246966333Y-97005142D02*
X246918714Y-97052761D01*
X246775857Y-97100380D01*
X246680619Y-97100380D01*
X246537761Y-97052761D01*
X246442523Y-96957523D01*
X246394904Y-96862285D01*
X246347285Y-96671809D01*
X246347285Y-96528952D01*
X246394904Y-96338476D01*
X246442523Y-96243238D01*
X246537761Y-96148000D01*
X246680619Y-96100380D01*
X246775857Y-96100380D01*
X246918714Y-96148000D01*
X246966333Y-96195619D01*
X247442523Y-97100380D02*
X247633000Y-97100380D01*
X247728238Y-97052761D01*
X247775857Y-97005142D01*
X247871095Y-96862285D01*
X247918714Y-96671809D01*
X247918714Y-96290857D01*
X247871095Y-96195619D01*
X247823476Y-96148000D01*
X247728238Y-96100380D01*
X247537761Y-96100380D01*
X247442523Y-96148000D01*
X247394904Y-96195619D01*
X247347285Y-96290857D01*
X247347285Y-96528952D01*
X247394904Y-96624190D01*
X247442523Y-96671809D01*
X247537761Y-96719428D01*
X247728238Y-96719428D01*
X247823476Y-96671809D01*
X247871095Y-96624190D01*
X247918714Y-96528952D01*
X246476333Y-75159142D02*
X246428714Y-75206761D01*
X246285857Y-75254380D01*
X246190619Y-75254380D01*
X246047761Y-75206761D01*
X245952523Y-75111523D01*
X245904904Y-75016285D01*
X245857285Y-74825809D01*
X245857285Y-74682952D01*
X245904904Y-74492476D01*
X245952523Y-74397238D01*
X246047761Y-74302000D01*
X246190619Y-74254380D01*
X246285857Y-74254380D01*
X246428714Y-74302000D01*
X246476333Y-74349619D01*
X247047761Y-74682952D02*
X246952523Y-74635333D01*
X246904904Y-74587714D01*
X246857285Y-74492476D01*
X246857285Y-74444857D01*
X246904904Y-74349619D01*
X246952523Y-74302000D01*
X247047761Y-74254380D01*
X247238238Y-74254380D01*
X247333476Y-74302000D01*
X247381095Y-74349619D01*
X247428714Y-74444857D01*
X247428714Y-74492476D01*
X247381095Y-74587714D01*
X247333476Y-74635333D01*
X247238238Y-74682952D01*
X247047761Y-74682952D01*
X246952523Y-74730571D01*
X246904904Y-74778190D01*
X246857285Y-74873428D01*
X246857285Y-75063904D01*
X246904904Y-75159142D01*
X246952523Y-75206761D01*
X247047761Y-75254380D01*
X247238238Y-75254380D01*
X247333476Y-75206761D01*
X247381095Y-75159142D01*
X247428714Y-75063904D01*
X247428714Y-74873428D01*
X247381095Y-74778190D01*
X247333476Y-74730571D01*
X247238238Y-74682952D01*
X243165333Y-121643142D02*
X243117714Y-121690761D01*
X242974857Y-121738380D01*
X242879619Y-121738380D01*
X242736761Y-121690761D01*
X242641523Y-121595523D01*
X242593904Y-121500285D01*
X242546285Y-121309809D01*
X242546285Y-121166952D01*
X242593904Y-120976476D01*
X242641523Y-120881238D01*
X242736761Y-120786000D01*
X242879619Y-120738380D01*
X242974857Y-120738380D01*
X243117714Y-120786000D01*
X243165333Y-120833619D01*
X244022476Y-120738380D02*
X243832000Y-120738380D01*
X243736761Y-120786000D01*
X243689142Y-120833619D01*
X243593904Y-120976476D01*
X243546285Y-121166952D01*
X243546285Y-121547904D01*
X243593904Y-121643142D01*
X243641523Y-121690761D01*
X243736761Y-121738380D01*
X243927238Y-121738380D01*
X244022476Y-121690761D01*
X244070095Y-121643142D01*
X244117714Y-121547904D01*
X244117714Y-121309809D01*
X244070095Y-121214571D01*
X244022476Y-121166952D01*
X243927238Y-121119333D01*
X243736761Y-121119333D01*
X243641523Y-121166952D01*
X243593904Y-121214571D01*
X243546285Y-121309809D01*
X228687333Y-49761142D02*
X228639714Y-49808761D01*
X228496857Y-49856380D01*
X228401619Y-49856380D01*
X228258761Y-49808761D01*
X228163523Y-49713523D01*
X228115904Y-49618285D01*
X228068285Y-49427809D01*
X228068285Y-49284952D01*
X228115904Y-49094476D01*
X228163523Y-48999238D01*
X228258761Y-48904000D01*
X228401619Y-48856380D01*
X228496857Y-48856380D01*
X228639714Y-48904000D01*
X228687333Y-48951619D01*
X229544476Y-49189714D02*
X229544476Y-49856380D01*
X229306380Y-48808761D02*
X229068285Y-49523047D01*
X229687333Y-49523047D01*
X246975333Y-121643142D02*
X246927714Y-121690761D01*
X246784857Y-121738380D01*
X246689619Y-121738380D01*
X246546761Y-121690761D01*
X246451523Y-121595523D01*
X246403904Y-121500285D01*
X246356285Y-121309809D01*
X246356285Y-121166952D01*
X246403904Y-120976476D01*
X246451523Y-120881238D01*
X246546761Y-120786000D01*
X246689619Y-120738380D01*
X246784857Y-120738380D01*
X246927714Y-120786000D01*
X246975333Y-120833619D01*
X247308666Y-120738380D02*
X247927714Y-120738380D01*
X247594380Y-121119333D01*
X247737238Y-121119333D01*
X247832476Y-121166952D01*
X247880095Y-121214571D01*
X247927714Y-121309809D01*
X247927714Y-121547904D01*
X247880095Y-121643142D01*
X247832476Y-121690761D01*
X247737238Y-121738380D01*
X247451523Y-121738380D01*
X247356285Y-121690761D01*
X247308666Y-121643142D01*
X232497333Y-53061142D02*
X232449714Y-53108761D01*
X232306857Y-53156380D01*
X232211619Y-53156380D01*
X232068761Y-53108761D01*
X231973523Y-53013523D01*
X231925904Y-52918285D01*
X231878285Y-52727809D01*
X231878285Y-52584952D01*
X231925904Y-52394476D01*
X231973523Y-52299238D01*
X232068761Y-52204000D01*
X232211619Y-52156380D01*
X232306857Y-52156380D01*
X232449714Y-52204000D01*
X232497333Y-52251619D01*
X232878285Y-52251619D02*
X232925904Y-52204000D01*
X233021142Y-52156380D01*
X233259238Y-52156380D01*
X233354476Y-52204000D01*
X233402095Y-52251619D01*
X233449714Y-52346857D01*
X233449714Y-52442095D01*
X233402095Y-52584952D01*
X232830666Y-53156380D01*
X233449714Y-53156380D01*
X236307333Y-49761142D02*
X236259714Y-49808761D01*
X236116857Y-49856380D01*
X236021619Y-49856380D01*
X235878761Y-49808761D01*
X235783523Y-49713523D01*
X235735904Y-49618285D01*
X235688285Y-49427809D01*
X235688285Y-49284952D01*
X235735904Y-49094476D01*
X235783523Y-48999238D01*
X235878761Y-48904000D01*
X236021619Y-48856380D01*
X236116857Y-48856380D01*
X236259714Y-48904000D01*
X236307333Y-48951619D01*
X237259714Y-49856380D02*
X236688285Y-49856380D01*
X236974000Y-49856380D02*
X236974000Y-48856380D01*
X236878761Y-48999238D01*
X236783523Y-49094476D01*
X236688285Y-49142095D01*
M02*
