G04 #@! TF.GenerationSoftware,KiCad,Pcbnew,(5.1.4)-1*
G04 #@! TF.CreationDate,2020-08-12T13:24:47+02:00*
G04 #@! TF.ProjectId,DMX_usb,444d585f-7573-4622-9e6b-696361645f70,rev?*
G04 #@! TF.SameCoordinates,Original*
G04 #@! TF.FileFunction,Legend,Bot*
G04 #@! TF.FilePolarity,Positive*
%FSLAX46Y46*%
G04 Gerber Fmt 4.6, Leading zero omitted, Abs format (unit mm)*
G04 Created by KiCad (PCBNEW (5.1.4)-1) date 2020-08-12 13:24:47*
%MOMM*%
%LPD*%
G04 APERTURE LIST*
%ADD10C,0.250000*%
G04 APERTURE END LIST*
D10*
X269857142Y-121259380D02*
X269857142Y-122068904D01*
X269809523Y-122164142D01*
X269761904Y-122211761D01*
X269666666Y-122259380D01*
X269476190Y-122259380D01*
X269380952Y-122211761D01*
X269333333Y-122164142D01*
X269285714Y-122068904D01*
X269285714Y-121259380D01*
X268857142Y-122211761D02*
X268761904Y-122259380D01*
X268571428Y-122259380D01*
X268476190Y-122211761D01*
X268428571Y-122116523D01*
X268428571Y-122068904D01*
X268476190Y-121973666D01*
X268571428Y-121926047D01*
X268714285Y-121926047D01*
X268809523Y-121878428D01*
X268857142Y-121783190D01*
X268857142Y-121735571D01*
X268809523Y-121640333D01*
X268714285Y-121592714D01*
X268571428Y-121592714D01*
X268476190Y-121640333D01*
X268000000Y-122259380D02*
X268000000Y-121259380D01*
X268000000Y-121640333D02*
X267904761Y-121592714D01*
X267714285Y-121592714D01*
X267619047Y-121640333D01*
X267571428Y-121687952D01*
X267523809Y-121783190D01*
X267523809Y-122068904D01*
X267571428Y-122164142D01*
X267619047Y-122211761D01*
X267714285Y-122259380D01*
X267904761Y-122259380D01*
X268000000Y-122211761D01*
X266333333Y-122259380D02*
X266333333Y-121259380D01*
X266095238Y-121259380D01*
X265952380Y-121307000D01*
X265857142Y-121402238D01*
X265809523Y-121497476D01*
X265761904Y-121687952D01*
X265761904Y-121830809D01*
X265809523Y-122021285D01*
X265857142Y-122116523D01*
X265952380Y-122211761D01*
X266095238Y-122259380D01*
X266333333Y-122259380D01*
X265333333Y-122259380D02*
X265333333Y-121259380D01*
X265000000Y-121973666D01*
X264666666Y-121259380D01*
X264666666Y-122259380D01*
X264285714Y-121259380D02*
X263619047Y-122259380D01*
X263619047Y-121259380D02*
X264285714Y-122259380D01*
X262047619Y-122259380D02*
X262047619Y-121259380D01*
X262047619Y-122211761D02*
X262142857Y-122259380D01*
X262333333Y-122259380D01*
X262428571Y-122211761D01*
X262476190Y-122164142D01*
X262523809Y-122068904D01*
X262523809Y-121783190D01*
X262476190Y-121687952D01*
X262428571Y-121640333D01*
X262333333Y-121592714D01*
X262142857Y-121592714D01*
X262047619Y-121640333D01*
X261428571Y-122259380D02*
X261523809Y-122211761D01*
X261571428Y-122164142D01*
X261619047Y-122068904D01*
X261619047Y-121783190D01*
X261571428Y-121687952D01*
X261523809Y-121640333D01*
X261428571Y-121592714D01*
X261285714Y-121592714D01*
X261190476Y-121640333D01*
X261142857Y-121687952D01*
X261095238Y-121783190D01*
X261095238Y-122068904D01*
X261142857Y-122164142D01*
X261190476Y-122211761D01*
X261285714Y-122259380D01*
X261428571Y-122259380D01*
X260666666Y-121592714D02*
X260666666Y-122259380D01*
X260666666Y-121687952D02*
X260619047Y-121640333D01*
X260523809Y-121592714D01*
X260380952Y-121592714D01*
X260285714Y-121640333D01*
X260238095Y-121735571D01*
X260238095Y-122259380D01*
X259333333Y-121592714D02*
X259333333Y-122402238D01*
X259380952Y-122497476D01*
X259428571Y-122545095D01*
X259523809Y-122592714D01*
X259666666Y-122592714D01*
X259761904Y-122545095D01*
X259333333Y-122211761D02*
X259428571Y-122259380D01*
X259619047Y-122259380D01*
X259714285Y-122211761D01*
X259761904Y-122164142D01*
X259809523Y-122068904D01*
X259809523Y-121783190D01*
X259761904Y-121687952D01*
X259714285Y-121640333D01*
X259619047Y-121592714D01*
X259428571Y-121592714D01*
X259333333Y-121640333D01*
X258714285Y-122259380D02*
X258809523Y-122211761D01*
X258857142Y-122116523D01*
X258857142Y-121259380D01*
X257952380Y-122211761D02*
X258047619Y-122259380D01*
X258238095Y-122259380D01*
X258333333Y-122211761D01*
X258380952Y-122116523D01*
X258380952Y-121735571D01*
X258333333Y-121640333D01*
X258238095Y-121592714D01*
X258047619Y-121592714D01*
X257952380Y-121640333D01*
X257904761Y-121735571D01*
X257904761Y-121830809D01*
X258380952Y-121926047D01*
X256380952Y-121735571D02*
X256238095Y-121783190D01*
X256190476Y-121830809D01*
X256142857Y-121926047D01*
X256142857Y-122068904D01*
X256190476Y-122164142D01*
X256238095Y-122211761D01*
X256333333Y-122259380D01*
X256714285Y-122259380D01*
X256714285Y-121259380D01*
X256380952Y-121259380D01*
X256285714Y-121307000D01*
X256238095Y-121354619D01*
X256190476Y-121449857D01*
X256190476Y-121545095D01*
X256238095Y-121640333D01*
X256285714Y-121687952D01*
X256380952Y-121735571D01*
X256714285Y-121735571D01*
X255809523Y-121592714D02*
X255571428Y-122259380D01*
X255333333Y-121592714D02*
X255571428Y-122259380D01*
X255666666Y-122497476D01*
X255714285Y-122545095D01*
X255809523Y-122592714D01*
X254190476Y-122259380D02*
X254190476Y-121259380D01*
X253619047Y-122259380D01*
X253619047Y-121259380D01*
X253000000Y-122259380D02*
X253095238Y-122211761D01*
X253142857Y-122164142D01*
X253190476Y-122068904D01*
X253190476Y-121783190D01*
X253142857Y-121687952D01*
X253095238Y-121640333D01*
X253000000Y-121592714D01*
X252857142Y-121592714D01*
X252761904Y-121640333D01*
X252714285Y-121687952D01*
X252666666Y-121783190D01*
X252666666Y-122068904D01*
X252714285Y-122164142D01*
X252761904Y-122211761D01*
X252857142Y-122259380D01*
X253000000Y-122259380D01*
X252238095Y-122259380D02*
X252238095Y-121592714D01*
X252238095Y-121783190D02*
X252190476Y-121687952D01*
X252142857Y-121640333D01*
X252047619Y-121592714D01*
X251952380Y-121592714D01*
X251761904Y-121592714D02*
X251380952Y-121592714D01*
X251619047Y-121259380D02*
X251619047Y-122116523D01*
X251571428Y-122211761D01*
X251476190Y-122259380D01*
X251380952Y-122259380D01*
X250904761Y-122259380D02*
X251000000Y-122211761D01*
X251047619Y-122116523D01*
X251047619Y-121259380D01*
X250142857Y-122211761D02*
X250238095Y-122259380D01*
X250428571Y-122259380D01*
X250523809Y-122211761D01*
X250571428Y-122116523D01*
X250571428Y-121735571D01*
X250523809Y-121640333D01*
X250428571Y-121592714D01*
X250238095Y-121592714D01*
X250142857Y-121640333D01*
X250095238Y-121735571D01*
X250095238Y-121830809D01*
X250571428Y-121926047D01*
X273000000Y-123723666D02*
X272523809Y-123723666D01*
X273095238Y-124009380D02*
X272761904Y-123009380D01*
X272428571Y-124009380D01*
X272095238Y-124009380D02*
X272095238Y-123342714D01*
X272095238Y-123533190D02*
X272047619Y-123437952D01*
X272000000Y-123390333D01*
X271904761Y-123342714D01*
X271809523Y-123342714D01*
X271476190Y-123342714D02*
X271476190Y-124009380D01*
X271476190Y-123437952D02*
X271428571Y-123390333D01*
X271333333Y-123342714D01*
X271190476Y-123342714D01*
X271095238Y-123390333D01*
X271047619Y-123485571D01*
X271047619Y-124009380D01*
X270190476Y-123961761D02*
X270285714Y-124009380D01*
X270476190Y-124009380D01*
X270571428Y-123961761D01*
X270619047Y-123866523D01*
X270619047Y-123485571D01*
X270571428Y-123390333D01*
X270476190Y-123342714D01*
X270285714Y-123342714D01*
X270190476Y-123390333D01*
X270142857Y-123485571D01*
X270142857Y-123580809D01*
X270619047Y-123676047D01*
X269095238Y-123009380D02*
X268761904Y-124009380D01*
X268428571Y-123009380D01*
X267666666Y-124009380D02*
X267666666Y-123485571D01*
X267714285Y-123390333D01*
X267809523Y-123342714D01*
X268000000Y-123342714D01*
X268095238Y-123390333D01*
X267666666Y-123961761D02*
X267761904Y-124009380D01*
X268000000Y-124009380D01*
X268095238Y-123961761D01*
X268142857Y-123866523D01*
X268142857Y-123771285D01*
X268095238Y-123676047D01*
X268000000Y-123628428D01*
X267761904Y-123628428D01*
X267666666Y-123580809D01*
X267190476Y-123342714D02*
X267190476Y-124009380D01*
X267190476Y-123437952D02*
X267142857Y-123390333D01*
X267047619Y-123342714D01*
X266904761Y-123342714D01*
X266809523Y-123390333D01*
X266761904Y-123485571D01*
X266761904Y-124009380D01*
X265095238Y-124009380D02*
X265095238Y-123009380D01*
X265095238Y-123961761D02*
X265190476Y-124009380D01*
X265380952Y-124009380D01*
X265476190Y-123961761D01*
X265523809Y-123914142D01*
X265571428Y-123818904D01*
X265571428Y-123533190D01*
X265523809Y-123437952D01*
X265476190Y-123390333D01*
X265380952Y-123342714D01*
X265190476Y-123342714D01*
X265095238Y-123390333D01*
X264238095Y-123961761D02*
X264333333Y-124009380D01*
X264523809Y-124009380D01*
X264619047Y-123961761D01*
X264666666Y-123866523D01*
X264666666Y-123485571D01*
X264619047Y-123390333D01*
X264523809Y-123342714D01*
X264333333Y-123342714D01*
X264238095Y-123390333D01*
X264190476Y-123485571D01*
X264190476Y-123580809D01*
X264666666Y-123676047D01*
X263761904Y-123342714D02*
X263761904Y-124009380D01*
X263761904Y-123437952D02*
X263714285Y-123390333D01*
X263619047Y-123342714D01*
X263476190Y-123342714D01*
X263380952Y-123390333D01*
X263333333Y-123485571D01*
X263333333Y-124009380D01*
X261761904Y-123485571D02*
X261619047Y-123533190D01*
X261571428Y-123580809D01*
X261523809Y-123676047D01*
X261523809Y-123818904D01*
X261571428Y-123914142D01*
X261619047Y-123961761D01*
X261714285Y-124009380D01*
X262095238Y-124009380D01*
X262095238Y-123009380D01*
X261761904Y-123009380D01*
X261666666Y-123057000D01*
X261619047Y-123104619D01*
X261571428Y-123199857D01*
X261571428Y-123295095D01*
X261619047Y-123390333D01*
X261666666Y-123437952D01*
X261761904Y-123485571D01*
X262095238Y-123485571D01*
X261095238Y-124009380D02*
X261095238Y-123342714D01*
X261095238Y-123533190D02*
X261047619Y-123437952D01*
X261000000Y-123390333D01*
X260904761Y-123342714D01*
X260809523Y-123342714D01*
X260333333Y-124009380D02*
X260428571Y-123961761D01*
X260476190Y-123914142D01*
X260523809Y-123818904D01*
X260523809Y-123533190D01*
X260476190Y-123437952D01*
X260428571Y-123390333D01*
X260333333Y-123342714D01*
X260190476Y-123342714D01*
X260095238Y-123390333D01*
X260047619Y-123437952D01*
X260000000Y-123533190D01*
X260000000Y-123818904D01*
X260047619Y-123914142D01*
X260095238Y-123961761D01*
X260190476Y-124009380D01*
X260333333Y-124009380D01*
X259190476Y-123961761D02*
X259285714Y-124009380D01*
X259476190Y-124009380D01*
X259571428Y-123961761D01*
X259619047Y-123866523D01*
X259619047Y-123485571D01*
X259571428Y-123390333D01*
X259476190Y-123342714D01*
X259285714Y-123342714D01*
X259190476Y-123390333D01*
X259142857Y-123485571D01*
X259142857Y-123580809D01*
X259619047Y-123676047D01*
X258285714Y-123961761D02*
X258380952Y-124009380D01*
X258571428Y-124009380D01*
X258666666Y-123961761D01*
X258714285Y-123914142D01*
X258761904Y-123818904D01*
X258761904Y-123533190D01*
X258714285Y-123437952D01*
X258666666Y-123390333D01*
X258571428Y-123342714D01*
X258380952Y-123342714D01*
X258285714Y-123390333D01*
X257857142Y-124009380D02*
X257857142Y-123009380D01*
X257761904Y-123628428D02*
X257476190Y-124009380D01*
X257476190Y-123342714D02*
X257857142Y-123723666D01*
X256333333Y-123104619D02*
X256285714Y-123057000D01*
X256190476Y-123009380D01*
X255952380Y-123009380D01*
X255857142Y-123057000D01*
X255809523Y-123104619D01*
X255761904Y-123199857D01*
X255761904Y-123295095D01*
X255809523Y-123437952D01*
X256380952Y-124009380D01*
X255761904Y-124009380D01*
X254857142Y-123009380D02*
X255333333Y-123009380D01*
X255380952Y-123485571D01*
X255333333Y-123437952D01*
X255238095Y-123390333D01*
X255000000Y-123390333D01*
X254904761Y-123437952D01*
X254857142Y-123485571D01*
X254809523Y-123580809D01*
X254809523Y-123818904D01*
X254857142Y-123914142D01*
X254904761Y-123961761D01*
X255000000Y-124009380D01*
X255238095Y-124009380D01*
X255333333Y-123961761D01*
X255380952Y-123914142D01*
X253666666Y-122961761D02*
X254523809Y-124247476D01*
X253142857Y-123009380D02*
X253047619Y-123009380D01*
X252952380Y-123057000D01*
X252904761Y-123104619D01*
X252857142Y-123199857D01*
X252809523Y-123390333D01*
X252809523Y-123628428D01*
X252857142Y-123818904D01*
X252904761Y-123914142D01*
X252952380Y-123961761D01*
X253047619Y-124009380D01*
X253142857Y-124009380D01*
X253238095Y-123961761D01*
X253285714Y-123914142D01*
X253333333Y-123818904D01*
X253380952Y-123628428D01*
X253380952Y-123390333D01*
X253333333Y-123199857D01*
X253285714Y-123104619D01*
X253238095Y-123057000D01*
X253142857Y-123009380D01*
X251952380Y-123009380D02*
X252142857Y-123009380D01*
X252238095Y-123057000D01*
X252285714Y-123104619D01*
X252380952Y-123247476D01*
X252428571Y-123437952D01*
X252428571Y-123818904D01*
X252380952Y-123914142D01*
X252333333Y-123961761D01*
X252238095Y-124009380D01*
X252047619Y-124009380D01*
X251952380Y-123961761D01*
X251904761Y-123914142D01*
X251857142Y-123818904D01*
X251857142Y-123580809D01*
X251904761Y-123485571D01*
X251952380Y-123437952D01*
X252047619Y-123390333D01*
X252238095Y-123390333D01*
X252333333Y-123437952D01*
X252380952Y-123485571D01*
X252428571Y-123580809D01*
X250714285Y-122961761D02*
X251571428Y-124247476D01*
X250428571Y-123104619D02*
X250380952Y-123057000D01*
X250285714Y-123009380D01*
X250047619Y-123009380D01*
X249952380Y-123057000D01*
X249904761Y-123104619D01*
X249857142Y-123199857D01*
X249857142Y-123295095D01*
X249904761Y-123437952D01*
X250476190Y-124009380D01*
X249857142Y-124009380D01*
X249238095Y-123009380D02*
X249142857Y-123009380D01*
X249047619Y-123057000D01*
X249000000Y-123104619D01*
X248952380Y-123199857D01*
X248904761Y-123390333D01*
X248904761Y-123628428D01*
X248952380Y-123818904D01*
X249000000Y-123914142D01*
X249047619Y-123961761D01*
X249142857Y-124009380D01*
X249238095Y-124009380D01*
X249333333Y-123961761D01*
X249380952Y-123914142D01*
X249428571Y-123818904D01*
X249476190Y-123628428D01*
X249476190Y-123390333D01*
X249428571Y-123199857D01*
X249380952Y-123104619D01*
X249333333Y-123057000D01*
X249238095Y-123009380D01*
X248523809Y-123104619D02*
X248476190Y-123057000D01*
X248380952Y-123009380D01*
X248142857Y-123009380D01*
X248047619Y-123057000D01*
X248000000Y-123104619D01*
X247952380Y-123199857D01*
X247952380Y-123295095D01*
X248000000Y-123437952D01*
X248571428Y-124009380D01*
X247952380Y-124009380D01*
X247333333Y-123009380D02*
X247238095Y-123009380D01*
X247142857Y-123057000D01*
X247095238Y-123104619D01*
X247047619Y-123199857D01*
X247000000Y-123390333D01*
X247000000Y-123628428D01*
X247047619Y-123818904D01*
X247095238Y-123914142D01*
X247142857Y-123961761D01*
X247238095Y-124009380D01*
X247333333Y-124009380D01*
X247428571Y-123961761D01*
X247476190Y-123914142D01*
X247523809Y-123818904D01*
X247571428Y-123628428D01*
X247571428Y-123390333D01*
X247523809Y-123199857D01*
X247476190Y-123104619D01*
X247428571Y-123057000D01*
X247333333Y-123009380D01*
X269857142Y-95859380D02*
X269857142Y-96668904D01*
X269809523Y-96764142D01*
X269761904Y-96811761D01*
X269666666Y-96859380D01*
X269476190Y-96859380D01*
X269380952Y-96811761D01*
X269333333Y-96764142D01*
X269285714Y-96668904D01*
X269285714Y-95859380D01*
X268857142Y-96811761D02*
X268761904Y-96859380D01*
X268571428Y-96859380D01*
X268476190Y-96811761D01*
X268428571Y-96716523D01*
X268428571Y-96668904D01*
X268476190Y-96573666D01*
X268571428Y-96526047D01*
X268714285Y-96526047D01*
X268809523Y-96478428D01*
X268857142Y-96383190D01*
X268857142Y-96335571D01*
X268809523Y-96240333D01*
X268714285Y-96192714D01*
X268571428Y-96192714D01*
X268476190Y-96240333D01*
X268000000Y-96859380D02*
X268000000Y-95859380D01*
X268000000Y-96240333D02*
X267904761Y-96192714D01*
X267714285Y-96192714D01*
X267619047Y-96240333D01*
X267571428Y-96287952D01*
X267523809Y-96383190D01*
X267523809Y-96668904D01*
X267571428Y-96764142D01*
X267619047Y-96811761D01*
X267714285Y-96859380D01*
X267904761Y-96859380D01*
X268000000Y-96811761D01*
X266333333Y-96859380D02*
X266333333Y-95859380D01*
X266095238Y-95859380D01*
X265952380Y-95907000D01*
X265857142Y-96002238D01*
X265809523Y-96097476D01*
X265761904Y-96287952D01*
X265761904Y-96430809D01*
X265809523Y-96621285D01*
X265857142Y-96716523D01*
X265952380Y-96811761D01*
X266095238Y-96859380D01*
X266333333Y-96859380D01*
X265333333Y-96859380D02*
X265333333Y-95859380D01*
X265000000Y-96573666D01*
X264666666Y-95859380D01*
X264666666Y-96859380D01*
X264285714Y-95859380D02*
X263619047Y-96859380D01*
X263619047Y-95859380D02*
X264285714Y-96859380D01*
X262047619Y-96859380D02*
X262047619Y-95859380D01*
X262047619Y-96811761D02*
X262142857Y-96859380D01*
X262333333Y-96859380D01*
X262428571Y-96811761D01*
X262476190Y-96764142D01*
X262523809Y-96668904D01*
X262523809Y-96383190D01*
X262476190Y-96287952D01*
X262428571Y-96240333D01*
X262333333Y-96192714D01*
X262142857Y-96192714D01*
X262047619Y-96240333D01*
X261428571Y-96859380D02*
X261523809Y-96811761D01*
X261571428Y-96764142D01*
X261619047Y-96668904D01*
X261619047Y-96383190D01*
X261571428Y-96287952D01*
X261523809Y-96240333D01*
X261428571Y-96192714D01*
X261285714Y-96192714D01*
X261190476Y-96240333D01*
X261142857Y-96287952D01*
X261095238Y-96383190D01*
X261095238Y-96668904D01*
X261142857Y-96764142D01*
X261190476Y-96811761D01*
X261285714Y-96859380D01*
X261428571Y-96859380D01*
X260666666Y-96192714D02*
X260666666Y-96859380D01*
X260666666Y-96287952D02*
X260619047Y-96240333D01*
X260523809Y-96192714D01*
X260380952Y-96192714D01*
X260285714Y-96240333D01*
X260238095Y-96335571D01*
X260238095Y-96859380D01*
X259333333Y-96192714D02*
X259333333Y-97002238D01*
X259380952Y-97097476D01*
X259428571Y-97145095D01*
X259523809Y-97192714D01*
X259666666Y-97192714D01*
X259761904Y-97145095D01*
X259333333Y-96811761D02*
X259428571Y-96859380D01*
X259619047Y-96859380D01*
X259714285Y-96811761D01*
X259761904Y-96764142D01*
X259809523Y-96668904D01*
X259809523Y-96383190D01*
X259761904Y-96287952D01*
X259714285Y-96240333D01*
X259619047Y-96192714D01*
X259428571Y-96192714D01*
X259333333Y-96240333D01*
X258714285Y-96859380D02*
X258809523Y-96811761D01*
X258857142Y-96716523D01*
X258857142Y-95859380D01*
X257952380Y-96811761D02*
X258047619Y-96859380D01*
X258238095Y-96859380D01*
X258333333Y-96811761D01*
X258380952Y-96716523D01*
X258380952Y-96335571D01*
X258333333Y-96240333D01*
X258238095Y-96192714D01*
X258047619Y-96192714D01*
X257952380Y-96240333D01*
X257904761Y-96335571D01*
X257904761Y-96430809D01*
X258380952Y-96526047D01*
X256380952Y-96335571D02*
X256238095Y-96383190D01*
X256190476Y-96430809D01*
X256142857Y-96526047D01*
X256142857Y-96668904D01*
X256190476Y-96764142D01*
X256238095Y-96811761D01*
X256333333Y-96859380D01*
X256714285Y-96859380D01*
X256714285Y-95859380D01*
X256380952Y-95859380D01*
X256285714Y-95907000D01*
X256238095Y-95954619D01*
X256190476Y-96049857D01*
X256190476Y-96145095D01*
X256238095Y-96240333D01*
X256285714Y-96287952D01*
X256380952Y-96335571D01*
X256714285Y-96335571D01*
X255809523Y-96192714D02*
X255571428Y-96859380D01*
X255333333Y-96192714D02*
X255571428Y-96859380D01*
X255666666Y-97097476D01*
X255714285Y-97145095D01*
X255809523Y-97192714D01*
X254190476Y-96859380D02*
X254190476Y-95859380D01*
X253619047Y-96859380D01*
X253619047Y-95859380D01*
X253000000Y-96859380D02*
X253095238Y-96811761D01*
X253142857Y-96764142D01*
X253190476Y-96668904D01*
X253190476Y-96383190D01*
X253142857Y-96287952D01*
X253095238Y-96240333D01*
X253000000Y-96192714D01*
X252857142Y-96192714D01*
X252761904Y-96240333D01*
X252714285Y-96287952D01*
X252666666Y-96383190D01*
X252666666Y-96668904D01*
X252714285Y-96764142D01*
X252761904Y-96811761D01*
X252857142Y-96859380D01*
X253000000Y-96859380D01*
X252238095Y-96859380D02*
X252238095Y-96192714D01*
X252238095Y-96383190D02*
X252190476Y-96287952D01*
X252142857Y-96240333D01*
X252047619Y-96192714D01*
X251952380Y-96192714D01*
X251761904Y-96192714D02*
X251380952Y-96192714D01*
X251619047Y-95859380D02*
X251619047Y-96716523D01*
X251571428Y-96811761D01*
X251476190Y-96859380D01*
X251380952Y-96859380D01*
X250904761Y-96859380D02*
X251000000Y-96811761D01*
X251047619Y-96716523D01*
X251047619Y-95859380D01*
X250142857Y-96811761D02*
X250238095Y-96859380D01*
X250428571Y-96859380D01*
X250523809Y-96811761D01*
X250571428Y-96716523D01*
X250571428Y-96335571D01*
X250523809Y-96240333D01*
X250428571Y-96192714D01*
X250238095Y-96192714D01*
X250142857Y-96240333D01*
X250095238Y-96335571D01*
X250095238Y-96430809D01*
X250571428Y-96526047D01*
X273000000Y-98323666D02*
X272523809Y-98323666D01*
X273095238Y-98609380D02*
X272761904Y-97609380D01*
X272428571Y-98609380D01*
X272095238Y-98609380D02*
X272095238Y-97942714D01*
X272095238Y-98133190D02*
X272047619Y-98037952D01*
X272000000Y-97990333D01*
X271904761Y-97942714D01*
X271809523Y-97942714D01*
X271476190Y-97942714D02*
X271476190Y-98609380D01*
X271476190Y-98037952D02*
X271428571Y-97990333D01*
X271333333Y-97942714D01*
X271190476Y-97942714D01*
X271095238Y-97990333D01*
X271047619Y-98085571D01*
X271047619Y-98609380D01*
X270190476Y-98561761D02*
X270285714Y-98609380D01*
X270476190Y-98609380D01*
X270571428Y-98561761D01*
X270619047Y-98466523D01*
X270619047Y-98085571D01*
X270571428Y-97990333D01*
X270476190Y-97942714D01*
X270285714Y-97942714D01*
X270190476Y-97990333D01*
X270142857Y-98085571D01*
X270142857Y-98180809D01*
X270619047Y-98276047D01*
X269095238Y-97609380D02*
X268761904Y-98609380D01*
X268428571Y-97609380D01*
X267666666Y-98609380D02*
X267666666Y-98085571D01*
X267714285Y-97990333D01*
X267809523Y-97942714D01*
X268000000Y-97942714D01*
X268095238Y-97990333D01*
X267666666Y-98561761D02*
X267761904Y-98609380D01*
X268000000Y-98609380D01*
X268095238Y-98561761D01*
X268142857Y-98466523D01*
X268142857Y-98371285D01*
X268095238Y-98276047D01*
X268000000Y-98228428D01*
X267761904Y-98228428D01*
X267666666Y-98180809D01*
X267190476Y-97942714D02*
X267190476Y-98609380D01*
X267190476Y-98037952D02*
X267142857Y-97990333D01*
X267047619Y-97942714D01*
X266904761Y-97942714D01*
X266809523Y-97990333D01*
X266761904Y-98085571D01*
X266761904Y-98609380D01*
X265095238Y-98609380D02*
X265095238Y-97609380D01*
X265095238Y-98561761D02*
X265190476Y-98609380D01*
X265380952Y-98609380D01*
X265476190Y-98561761D01*
X265523809Y-98514142D01*
X265571428Y-98418904D01*
X265571428Y-98133190D01*
X265523809Y-98037952D01*
X265476190Y-97990333D01*
X265380952Y-97942714D01*
X265190476Y-97942714D01*
X265095238Y-97990333D01*
X264238095Y-98561761D02*
X264333333Y-98609380D01*
X264523809Y-98609380D01*
X264619047Y-98561761D01*
X264666666Y-98466523D01*
X264666666Y-98085571D01*
X264619047Y-97990333D01*
X264523809Y-97942714D01*
X264333333Y-97942714D01*
X264238095Y-97990333D01*
X264190476Y-98085571D01*
X264190476Y-98180809D01*
X264666666Y-98276047D01*
X263761904Y-97942714D02*
X263761904Y-98609380D01*
X263761904Y-98037952D02*
X263714285Y-97990333D01*
X263619047Y-97942714D01*
X263476190Y-97942714D01*
X263380952Y-97990333D01*
X263333333Y-98085571D01*
X263333333Y-98609380D01*
X261761904Y-98085571D02*
X261619047Y-98133190D01*
X261571428Y-98180809D01*
X261523809Y-98276047D01*
X261523809Y-98418904D01*
X261571428Y-98514142D01*
X261619047Y-98561761D01*
X261714285Y-98609380D01*
X262095238Y-98609380D01*
X262095238Y-97609380D01*
X261761904Y-97609380D01*
X261666666Y-97657000D01*
X261619047Y-97704619D01*
X261571428Y-97799857D01*
X261571428Y-97895095D01*
X261619047Y-97990333D01*
X261666666Y-98037952D01*
X261761904Y-98085571D01*
X262095238Y-98085571D01*
X261095238Y-98609380D02*
X261095238Y-97942714D01*
X261095238Y-98133190D02*
X261047619Y-98037952D01*
X261000000Y-97990333D01*
X260904761Y-97942714D01*
X260809523Y-97942714D01*
X260333333Y-98609380D02*
X260428571Y-98561761D01*
X260476190Y-98514142D01*
X260523809Y-98418904D01*
X260523809Y-98133190D01*
X260476190Y-98037952D01*
X260428571Y-97990333D01*
X260333333Y-97942714D01*
X260190476Y-97942714D01*
X260095238Y-97990333D01*
X260047619Y-98037952D01*
X260000000Y-98133190D01*
X260000000Y-98418904D01*
X260047619Y-98514142D01*
X260095238Y-98561761D01*
X260190476Y-98609380D01*
X260333333Y-98609380D01*
X259190476Y-98561761D02*
X259285714Y-98609380D01*
X259476190Y-98609380D01*
X259571428Y-98561761D01*
X259619047Y-98466523D01*
X259619047Y-98085571D01*
X259571428Y-97990333D01*
X259476190Y-97942714D01*
X259285714Y-97942714D01*
X259190476Y-97990333D01*
X259142857Y-98085571D01*
X259142857Y-98180809D01*
X259619047Y-98276047D01*
X258285714Y-98561761D02*
X258380952Y-98609380D01*
X258571428Y-98609380D01*
X258666666Y-98561761D01*
X258714285Y-98514142D01*
X258761904Y-98418904D01*
X258761904Y-98133190D01*
X258714285Y-98037952D01*
X258666666Y-97990333D01*
X258571428Y-97942714D01*
X258380952Y-97942714D01*
X258285714Y-97990333D01*
X257857142Y-98609380D02*
X257857142Y-97609380D01*
X257761904Y-98228428D02*
X257476190Y-98609380D01*
X257476190Y-97942714D02*
X257857142Y-98323666D01*
X256333333Y-97704619D02*
X256285714Y-97657000D01*
X256190476Y-97609380D01*
X255952380Y-97609380D01*
X255857142Y-97657000D01*
X255809523Y-97704619D01*
X255761904Y-97799857D01*
X255761904Y-97895095D01*
X255809523Y-98037952D01*
X256380952Y-98609380D01*
X255761904Y-98609380D01*
X254857142Y-97609380D02*
X255333333Y-97609380D01*
X255380952Y-98085571D01*
X255333333Y-98037952D01*
X255238095Y-97990333D01*
X255000000Y-97990333D01*
X254904761Y-98037952D01*
X254857142Y-98085571D01*
X254809523Y-98180809D01*
X254809523Y-98418904D01*
X254857142Y-98514142D01*
X254904761Y-98561761D01*
X255000000Y-98609380D01*
X255238095Y-98609380D01*
X255333333Y-98561761D01*
X255380952Y-98514142D01*
X253666666Y-97561761D02*
X254523809Y-98847476D01*
X253142857Y-97609380D02*
X253047619Y-97609380D01*
X252952380Y-97657000D01*
X252904761Y-97704619D01*
X252857142Y-97799857D01*
X252809523Y-97990333D01*
X252809523Y-98228428D01*
X252857142Y-98418904D01*
X252904761Y-98514142D01*
X252952380Y-98561761D01*
X253047619Y-98609380D01*
X253142857Y-98609380D01*
X253238095Y-98561761D01*
X253285714Y-98514142D01*
X253333333Y-98418904D01*
X253380952Y-98228428D01*
X253380952Y-97990333D01*
X253333333Y-97799857D01*
X253285714Y-97704619D01*
X253238095Y-97657000D01*
X253142857Y-97609380D01*
X251952380Y-97609380D02*
X252142857Y-97609380D01*
X252238095Y-97657000D01*
X252285714Y-97704619D01*
X252380952Y-97847476D01*
X252428571Y-98037952D01*
X252428571Y-98418904D01*
X252380952Y-98514142D01*
X252333333Y-98561761D01*
X252238095Y-98609380D01*
X252047619Y-98609380D01*
X251952380Y-98561761D01*
X251904761Y-98514142D01*
X251857142Y-98418904D01*
X251857142Y-98180809D01*
X251904761Y-98085571D01*
X251952380Y-98037952D01*
X252047619Y-97990333D01*
X252238095Y-97990333D01*
X252333333Y-98037952D01*
X252380952Y-98085571D01*
X252428571Y-98180809D01*
X250714285Y-97561761D02*
X251571428Y-98847476D01*
X250428571Y-97704619D02*
X250380952Y-97657000D01*
X250285714Y-97609380D01*
X250047619Y-97609380D01*
X249952380Y-97657000D01*
X249904761Y-97704619D01*
X249857142Y-97799857D01*
X249857142Y-97895095D01*
X249904761Y-98037952D01*
X250476190Y-98609380D01*
X249857142Y-98609380D01*
X249238095Y-97609380D02*
X249142857Y-97609380D01*
X249047619Y-97657000D01*
X249000000Y-97704619D01*
X248952380Y-97799857D01*
X248904761Y-97990333D01*
X248904761Y-98228428D01*
X248952380Y-98418904D01*
X249000000Y-98514142D01*
X249047619Y-98561761D01*
X249142857Y-98609380D01*
X249238095Y-98609380D01*
X249333333Y-98561761D01*
X249380952Y-98514142D01*
X249428571Y-98418904D01*
X249476190Y-98228428D01*
X249476190Y-97990333D01*
X249428571Y-97799857D01*
X249380952Y-97704619D01*
X249333333Y-97657000D01*
X249238095Y-97609380D01*
X248523809Y-97704619D02*
X248476190Y-97657000D01*
X248380952Y-97609380D01*
X248142857Y-97609380D01*
X248047619Y-97657000D01*
X248000000Y-97704619D01*
X247952380Y-97799857D01*
X247952380Y-97895095D01*
X248000000Y-98037952D01*
X248571428Y-98609380D01*
X247952380Y-98609380D01*
X247333333Y-97609380D02*
X247238095Y-97609380D01*
X247142857Y-97657000D01*
X247095238Y-97704619D01*
X247047619Y-97799857D01*
X247000000Y-97990333D01*
X247000000Y-98228428D01*
X247047619Y-98418904D01*
X247095238Y-98514142D01*
X247142857Y-98561761D01*
X247238095Y-98609380D01*
X247333333Y-98609380D01*
X247428571Y-98561761D01*
X247476190Y-98514142D01*
X247523809Y-98418904D01*
X247571428Y-98228428D01*
X247571428Y-97990333D01*
X247523809Y-97799857D01*
X247476190Y-97704619D01*
X247428571Y-97657000D01*
X247333333Y-97609380D01*
X265539142Y-71485380D02*
X265539142Y-72294904D01*
X265491523Y-72390142D01*
X265443904Y-72437761D01*
X265348666Y-72485380D01*
X265158190Y-72485380D01*
X265062952Y-72437761D01*
X265015333Y-72390142D01*
X264967714Y-72294904D01*
X264967714Y-71485380D01*
X264539142Y-72437761D02*
X264443904Y-72485380D01*
X264253428Y-72485380D01*
X264158190Y-72437761D01*
X264110571Y-72342523D01*
X264110571Y-72294904D01*
X264158190Y-72199666D01*
X264253428Y-72152047D01*
X264396285Y-72152047D01*
X264491523Y-72104428D01*
X264539142Y-72009190D01*
X264539142Y-71961571D01*
X264491523Y-71866333D01*
X264396285Y-71818714D01*
X264253428Y-71818714D01*
X264158190Y-71866333D01*
X263682000Y-72485380D02*
X263682000Y-71485380D01*
X263682000Y-71866333D02*
X263586761Y-71818714D01*
X263396285Y-71818714D01*
X263301047Y-71866333D01*
X263253428Y-71913952D01*
X263205809Y-72009190D01*
X263205809Y-72294904D01*
X263253428Y-72390142D01*
X263301047Y-72437761D01*
X263396285Y-72485380D01*
X263586761Y-72485380D01*
X263682000Y-72437761D01*
X262015333Y-72485380D02*
X262015333Y-71485380D01*
X261777238Y-71485380D01*
X261634380Y-71533000D01*
X261539142Y-71628238D01*
X261491523Y-71723476D01*
X261443904Y-71913952D01*
X261443904Y-72056809D01*
X261491523Y-72247285D01*
X261539142Y-72342523D01*
X261634380Y-72437761D01*
X261777238Y-72485380D01*
X262015333Y-72485380D01*
X261015333Y-72485380D02*
X261015333Y-71485380D01*
X260682000Y-72199666D01*
X260348666Y-71485380D01*
X260348666Y-72485380D01*
X259967714Y-71485380D02*
X259301047Y-72485380D01*
X259301047Y-71485380D02*
X259967714Y-72485380D01*
X257729619Y-72485380D02*
X257729619Y-71485380D01*
X257729619Y-72437761D02*
X257824857Y-72485380D01*
X258015333Y-72485380D01*
X258110571Y-72437761D01*
X258158190Y-72390142D01*
X258205809Y-72294904D01*
X258205809Y-72009190D01*
X258158190Y-71913952D01*
X258110571Y-71866333D01*
X258015333Y-71818714D01*
X257824857Y-71818714D01*
X257729619Y-71866333D01*
X257110571Y-72485380D02*
X257205809Y-72437761D01*
X257253428Y-72390142D01*
X257301047Y-72294904D01*
X257301047Y-72009190D01*
X257253428Y-71913952D01*
X257205809Y-71866333D01*
X257110571Y-71818714D01*
X256967714Y-71818714D01*
X256872476Y-71866333D01*
X256824857Y-71913952D01*
X256777238Y-72009190D01*
X256777238Y-72294904D01*
X256824857Y-72390142D01*
X256872476Y-72437761D01*
X256967714Y-72485380D01*
X257110571Y-72485380D01*
X256348666Y-71818714D02*
X256348666Y-72485380D01*
X256348666Y-71913952D02*
X256301047Y-71866333D01*
X256205809Y-71818714D01*
X256062952Y-71818714D01*
X255967714Y-71866333D01*
X255920095Y-71961571D01*
X255920095Y-72485380D01*
X255015333Y-71818714D02*
X255015333Y-72628238D01*
X255062952Y-72723476D01*
X255110571Y-72771095D01*
X255205809Y-72818714D01*
X255348666Y-72818714D01*
X255443904Y-72771095D01*
X255015333Y-72437761D02*
X255110571Y-72485380D01*
X255301047Y-72485380D01*
X255396285Y-72437761D01*
X255443904Y-72390142D01*
X255491523Y-72294904D01*
X255491523Y-72009190D01*
X255443904Y-71913952D01*
X255396285Y-71866333D01*
X255301047Y-71818714D01*
X255110571Y-71818714D01*
X255015333Y-71866333D01*
X254396285Y-72485380D02*
X254491523Y-72437761D01*
X254539142Y-72342523D01*
X254539142Y-71485380D01*
X253634380Y-72437761D02*
X253729619Y-72485380D01*
X253920095Y-72485380D01*
X254015333Y-72437761D01*
X254062952Y-72342523D01*
X254062952Y-71961571D01*
X254015333Y-71866333D01*
X253920095Y-71818714D01*
X253729619Y-71818714D01*
X253634380Y-71866333D01*
X253586761Y-71961571D01*
X253586761Y-72056809D01*
X254062952Y-72152047D01*
X252062952Y-71961571D02*
X251920095Y-72009190D01*
X251872476Y-72056809D01*
X251824857Y-72152047D01*
X251824857Y-72294904D01*
X251872476Y-72390142D01*
X251920095Y-72437761D01*
X252015333Y-72485380D01*
X252396285Y-72485380D01*
X252396285Y-71485380D01*
X252062952Y-71485380D01*
X251967714Y-71533000D01*
X251920095Y-71580619D01*
X251872476Y-71675857D01*
X251872476Y-71771095D01*
X251920095Y-71866333D01*
X251967714Y-71913952D01*
X252062952Y-71961571D01*
X252396285Y-71961571D01*
X251491523Y-71818714D02*
X251253428Y-72485380D01*
X251015333Y-71818714D02*
X251253428Y-72485380D01*
X251348666Y-72723476D01*
X251396285Y-72771095D01*
X251491523Y-72818714D01*
X249872476Y-72485380D02*
X249872476Y-71485380D01*
X249301047Y-72485380D01*
X249301047Y-71485380D01*
X248682000Y-72485380D02*
X248777238Y-72437761D01*
X248824857Y-72390142D01*
X248872476Y-72294904D01*
X248872476Y-72009190D01*
X248824857Y-71913952D01*
X248777238Y-71866333D01*
X248682000Y-71818714D01*
X248539142Y-71818714D01*
X248443904Y-71866333D01*
X248396285Y-71913952D01*
X248348666Y-72009190D01*
X248348666Y-72294904D01*
X248396285Y-72390142D01*
X248443904Y-72437761D01*
X248539142Y-72485380D01*
X248682000Y-72485380D01*
X247920095Y-72485380D02*
X247920095Y-71818714D01*
X247920095Y-72009190D02*
X247872476Y-71913952D01*
X247824857Y-71866333D01*
X247729619Y-71818714D01*
X247634380Y-71818714D01*
X247443904Y-71818714D02*
X247062952Y-71818714D01*
X247301047Y-71485380D02*
X247301047Y-72342523D01*
X247253428Y-72437761D01*
X247158190Y-72485380D01*
X247062952Y-72485380D01*
X246586761Y-72485380D02*
X246682000Y-72437761D01*
X246729619Y-72342523D01*
X246729619Y-71485380D01*
X245824857Y-72437761D02*
X245920095Y-72485380D01*
X246110571Y-72485380D01*
X246205809Y-72437761D01*
X246253428Y-72342523D01*
X246253428Y-71961571D01*
X246205809Y-71866333D01*
X246110571Y-71818714D01*
X245920095Y-71818714D01*
X245824857Y-71866333D01*
X245777238Y-71961571D01*
X245777238Y-72056809D01*
X246253428Y-72152047D01*
X268682000Y-73949666D02*
X268205809Y-73949666D01*
X268777238Y-74235380D02*
X268443904Y-73235380D01*
X268110571Y-74235380D01*
X267777238Y-74235380D02*
X267777238Y-73568714D01*
X267777238Y-73759190D02*
X267729619Y-73663952D01*
X267682000Y-73616333D01*
X267586761Y-73568714D01*
X267491523Y-73568714D01*
X267158190Y-73568714D02*
X267158190Y-74235380D01*
X267158190Y-73663952D02*
X267110571Y-73616333D01*
X267015333Y-73568714D01*
X266872476Y-73568714D01*
X266777238Y-73616333D01*
X266729619Y-73711571D01*
X266729619Y-74235380D01*
X265872476Y-74187761D02*
X265967714Y-74235380D01*
X266158190Y-74235380D01*
X266253428Y-74187761D01*
X266301047Y-74092523D01*
X266301047Y-73711571D01*
X266253428Y-73616333D01*
X266158190Y-73568714D01*
X265967714Y-73568714D01*
X265872476Y-73616333D01*
X265824857Y-73711571D01*
X265824857Y-73806809D01*
X266301047Y-73902047D01*
X264777238Y-73235380D02*
X264443904Y-74235380D01*
X264110571Y-73235380D01*
X263348666Y-74235380D02*
X263348666Y-73711571D01*
X263396285Y-73616333D01*
X263491523Y-73568714D01*
X263682000Y-73568714D01*
X263777238Y-73616333D01*
X263348666Y-74187761D02*
X263443904Y-74235380D01*
X263682000Y-74235380D01*
X263777238Y-74187761D01*
X263824857Y-74092523D01*
X263824857Y-73997285D01*
X263777238Y-73902047D01*
X263682000Y-73854428D01*
X263443904Y-73854428D01*
X263348666Y-73806809D01*
X262872476Y-73568714D02*
X262872476Y-74235380D01*
X262872476Y-73663952D02*
X262824857Y-73616333D01*
X262729619Y-73568714D01*
X262586761Y-73568714D01*
X262491523Y-73616333D01*
X262443904Y-73711571D01*
X262443904Y-74235380D01*
X260777238Y-74235380D02*
X260777238Y-73235380D01*
X260777238Y-74187761D02*
X260872476Y-74235380D01*
X261062952Y-74235380D01*
X261158190Y-74187761D01*
X261205809Y-74140142D01*
X261253428Y-74044904D01*
X261253428Y-73759190D01*
X261205809Y-73663952D01*
X261158190Y-73616333D01*
X261062952Y-73568714D01*
X260872476Y-73568714D01*
X260777238Y-73616333D01*
X259920095Y-74187761D02*
X260015333Y-74235380D01*
X260205809Y-74235380D01*
X260301047Y-74187761D01*
X260348666Y-74092523D01*
X260348666Y-73711571D01*
X260301047Y-73616333D01*
X260205809Y-73568714D01*
X260015333Y-73568714D01*
X259920095Y-73616333D01*
X259872476Y-73711571D01*
X259872476Y-73806809D01*
X260348666Y-73902047D01*
X259443904Y-73568714D02*
X259443904Y-74235380D01*
X259443904Y-73663952D02*
X259396285Y-73616333D01*
X259301047Y-73568714D01*
X259158190Y-73568714D01*
X259062952Y-73616333D01*
X259015333Y-73711571D01*
X259015333Y-74235380D01*
X257443904Y-73711571D02*
X257301047Y-73759190D01*
X257253428Y-73806809D01*
X257205809Y-73902047D01*
X257205809Y-74044904D01*
X257253428Y-74140142D01*
X257301047Y-74187761D01*
X257396285Y-74235380D01*
X257777238Y-74235380D01*
X257777238Y-73235380D01*
X257443904Y-73235380D01*
X257348666Y-73283000D01*
X257301047Y-73330619D01*
X257253428Y-73425857D01*
X257253428Y-73521095D01*
X257301047Y-73616333D01*
X257348666Y-73663952D01*
X257443904Y-73711571D01*
X257777238Y-73711571D01*
X256777238Y-74235380D02*
X256777238Y-73568714D01*
X256777238Y-73759190D02*
X256729619Y-73663952D01*
X256682000Y-73616333D01*
X256586761Y-73568714D01*
X256491523Y-73568714D01*
X256015333Y-74235380D02*
X256110571Y-74187761D01*
X256158190Y-74140142D01*
X256205809Y-74044904D01*
X256205809Y-73759190D01*
X256158190Y-73663952D01*
X256110571Y-73616333D01*
X256015333Y-73568714D01*
X255872476Y-73568714D01*
X255777238Y-73616333D01*
X255729619Y-73663952D01*
X255682000Y-73759190D01*
X255682000Y-74044904D01*
X255729619Y-74140142D01*
X255777238Y-74187761D01*
X255872476Y-74235380D01*
X256015333Y-74235380D01*
X254872476Y-74187761D02*
X254967714Y-74235380D01*
X255158190Y-74235380D01*
X255253428Y-74187761D01*
X255301047Y-74092523D01*
X255301047Y-73711571D01*
X255253428Y-73616333D01*
X255158190Y-73568714D01*
X254967714Y-73568714D01*
X254872476Y-73616333D01*
X254824857Y-73711571D01*
X254824857Y-73806809D01*
X255301047Y-73902047D01*
X253967714Y-74187761D02*
X254062952Y-74235380D01*
X254253428Y-74235380D01*
X254348666Y-74187761D01*
X254396285Y-74140142D01*
X254443904Y-74044904D01*
X254443904Y-73759190D01*
X254396285Y-73663952D01*
X254348666Y-73616333D01*
X254253428Y-73568714D01*
X254062952Y-73568714D01*
X253967714Y-73616333D01*
X253539142Y-74235380D02*
X253539142Y-73235380D01*
X253443904Y-73854428D02*
X253158190Y-74235380D01*
X253158190Y-73568714D02*
X253539142Y-73949666D01*
X252015333Y-73330619D02*
X251967714Y-73283000D01*
X251872476Y-73235380D01*
X251634380Y-73235380D01*
X251539142Y-73283000D01*
X251491523Y-73330619D01*
X251443904Y-73425857D01*
X251443904Y-73521095D01*
X251491523Y-73663952D01*
X252062952Y-74235380D01*
X251443904Y-74235380D01*
X250539142Y-73235380D02*
X251015333Y-73235380D01*
X251062952Y-73711571D01*
X251015333Y-73663952D01*
X250920095Y-73616333D01*
X250682000Y-73616333D01*
X250586761Y-73663952D01*
X250539142Y-73711571D01*
X250491523Y-73806809D01*
X250491523Y-74044904D01*
X250539142Y-74140142D01*
X250586761Y-74187761D01*
X250682000Y-74235380D01*
X250920095Y-74235380D01*
X251015333Y-74187761D01*
X251062952Y-74140142D01*
X249348666Y-73187761D02*
X250205809Y-74473476D01*
X248824857Y-73235380D02*
X248729619Y-73235380D01*
X248634380Y-73283000D01*
X248586761Y-73330619D01*
X248539142Y-73425857D01*
X248491523Y-73616333D01*
X248491523Y-73854428D01*
X248539142Y-74044904D01*
X248586761Y-74140142D01*
X248634380Y-74187761D01*
X248729619Y-74235380D01*
X248824857Y-74235380D01*
X248920095Y-74187761D01*
X248967714Y-74140142D01*
X249015333Y-74044904D01*
X249062952Y-73854428D01*
X249062952Y-73616333D01*
X249015333Y-73425857D01*
X248967714Y-73330619D01*
X248920095Y-73283000D01*
X248824857Y-73235380D01*
X247634380Y-73235380D02*
X247824857Y-73235380D01*
X247920095Y-73283000D01*
X247967714Y-73330619D01*
X248062952Y-73473476D01*
X248110571Y-73663952D01*
X248110571Y-74044904D01*
X248062952Y-74140142D01*
X248015333Y-74187761D01*
X247920095Y-74235380D01*
X247729619Y-74235380D01*
X247634380Y-74187761D01*
X247586761Y-74140142D01*
X247539142Y-74044904D01*
X247539142Y-73806809D01*
X247586761Y-73711571D01*
X247634380Y-73663952D01*
X247729619Y-73616333D01*
X247920095Y-73616333D01*
X248015333Y-73663952D01*
X248062952Y-73711571D01*
X248110571Y-73806809D01*
X246396285Y-73187761D02*
X247253428Y-74473476D01*
X246110571Y-73330619D02*
X246062952Y-73283000D01*
X245967714Y-73235380D01*
X245729619Y-73235380D01*
X245634380Y-73283000D01*
X245586761Y-73330619D01*
X245539142Y-73425857D01*
X245539142Y-73521095D01*
X245586761Y-73663952D01*
X246158190Y-74235380D01*
X245539142Y-74235380D01*
X244920095Y-73235380D02*
X244824857Y-73235380D01*
X244729619Y-73283000D01*
X244682000Y-73330619D01*
X244634380Y-73425857D01*
X244586761Y-73616333D01*
X244586761Y-73854428D01*
X244634380Y-74044904D01*
X244682000Y-74140142D01*
X244729619Y-74187761D01*
X244824857Y-74235380D01*
X244920095Y-74235380D01*
X245015333Y-74187761D01*
X245062952Y-74140142D01*
X245110571Y-74044904D01*
X245158190Y-73854428D01*
X245158190Y-73616333D01*
X245110571Y-73425857D01*
X245062952Y-73330619D01*
X245015333Y-73283000D01*
X244920095Y-73235380D01*
X244205809Y-73330619D02*
X244158190Y-73283000D01*
X244062952Y-73235380D01*
X243824857Y-73235380D01*
X243729619Y-73283000D01*
X243682000Y-73330619D01*
X243634380Y-73425857D01*
X243634380Y-73521095D01*
X243682000Y-73663952D01*
X244253428Y-74235380D01*
X243634380Y-74235380D01*
X243015333Y-73235380D02*
X242920095Y-73235380D01*
X242824857Y-73283000D01*
X242777238Y-73330619D01*
X242729619Y-73425857D01*
X242682000Y-73616333D01*
X242682000Y-73854428D01*
X242729619Y-74044904D01*
X242777238Y-74140142D01*
X242824857Y-74187761D01*
X242920095Y-74235380D01*
X243015333Y-74235380D01*
X243110571Y-74187761D01*
X243158190Y-74140142D01*
X243205809Y-74044904D01*
X243253428Y-73854428D01*
X243253428Y-73616333D01*
X243205809Y-73425857D01*
X243158190Y-73330619D01*
X243110571Y-73283000D01*
X243015333Y-73235380D01*
X269857142Y-44805380D02*
X269857142Y-45614904D01*
X269809523Y-45710142D01*
X269761904Y-45757761D01*
X269666666Y-45805380D01*
X269476190Y-45805380D01*
X269380952Y-45757761D01*
X269333333Y-45710142D01*
X269285714Y-45614904D01*
X269285714Y-44805380D01*
X268857142Y-45757761D02*
X268761904Y-45805380D01*
X268571428Y-45805380D01*
X268476190Y-45757761D01*
X268428571Y-45662523D01*
X268428571Y-45614904D01*
X268476190Y-45519666D01*
X268571428Y-45472047D01*
X268714285Y-45472047D01*
X268809523Y-45424428D01*
X268857142Y-45329190D01*
X268857142Y-45281571D01*
X268809523Y-45186333D01*
X268714285Y-45138714D01*
X268571428Y-45138714D01*
X268476190Y-45186333D01*
X268000000Y-45805380D02*
X268000000Y-44805380D01*
X268000000Y-45186333D02*
X267904761Y-45138714D01*
X267714285Y-45138714D01*
X267619047Y-45186333D01*
X267571428Y-45233952D01*
X267523809Y-45329190D01*
X267523809Y-45614904D01*
X267571428Y-45710142D01*
X267619047Y-45757761D01*
X267714285Y-45805380D01*
X267904761Y-45805380D01*
X268000000Y-45757761D01*
X266333333Y-45805380D02*
X266333333Y-44805380D01*
X266095238Y-44805380D01*
X265952380Y-44853000D01*
X265857142Y-44948238D01*
X265809523Y-45043476D01*
X265761904Y-45233952D01*
X265761904Y-45376809D01*
X265809523Y-45567285D01*
X265857142Y-45662523D01*
X265952380Y-45757761D01*
X266095238Y-45805380D01*
X266333333Y-45805380D01*
X265333333Y-45805380D02*
X265333333Y-44805380D01*
X265000000Y-45519666D01*
X264666666Y-44805380D01*
X264666666Y-45805380D01*
X264285714Y-44805380D02*
X263619047Y-45805380D01*
X263619047Y-44805380D02*
X264285714Y-45805380D01*
X262047619Y-45805380D02*
X262047619Y-44805380D01*
X262047619Y-45757761D02*
X262142857Y-45805380D01*
X262333333Y-45805380D01*
X262428571Y-45757761D01*
X262476190Y-45710142D01*
X262523809Y-45614904D01*
X262523809Y-45329190D01*
X262476190Y-45233952D01*
X262428571Y-45186333D01*
X262333333Y-45138714D01*
X262142857Y-45138714D01*
X262047619Y-45186333D01*
X261428571Y-45805380D02*
X261523809Y-45757761D01*
X261571428Y-45710142D01*
X261619047Y-45614904D01*
X261619047Y-45329190D01*
X261571428Y-45233952D01*
X261523809Y-45186333D01*
X261428571Y-45138714D01*
X261285714Y-45138714D01*
X261190476Y-45186333D01*
X261142857Y-45233952D01*
X261095238Y-45329190D01*
X261095238Y-45614904D01*
X261142857Y-45710142D01*
X261190476Y-45757761D01*
X261285714Y-45805380D01*
X261428571Y-45805380D01*
X260666666Y-45138714D02*
X260666666Y-45805380D01*
X260666666Y-45233952D02*
X260619047Y-45186333D01*
X260523809Y-45138714D01*
X260380952Y-45138714D01*
X260285714Y-45186333D01*
X260238095Y-45281571D01*
X260238095Y-45805380D01*
X259333333Y-45138714D02*
X259333333Y-45948238D01*
X259380952Y-46043476D01*
X259428571Y-46091095D01*
X259523809Y-46138714D01*
X259666666Y-46138714D01*
X259761904Y-46091095D01*
X259333333Y-45757761D02*
X259428571Y-45805380D01*
X259619047Y-45805380D01*
X259714285Y-45757761D01*
X259761904Y-45710142D01*
X259809523Y-45614904D01*
X259809523Y-45329190D01*
X259761904Y-45233952D01*
X259714285Y-45186333D01*
X259619047Y-45138714D01*
X259428571Y-45138714D01*
X259333333Y-45186333D01*
X258714285Y-45805380D02*
X258809523Y-45757761D01*
X258857142Y-45662523D01*
X258857142Y-44805380D01*
X257952380Y-45757761D02*
X258047619Y-45805380D01*
X258238095Y-45805380D01*
X258333333Y-45757761D01*
X258380952Y-45662523D01*
X258380952Y-45281571D01*
X258333333Y-45186333D01*
X258238095Y-45138714D01*
X258047619Y-45138714D01*
X257952380Y-45186333D01*
X257904761Y-45281571D01*
X257904761Y-45376809D01*
X258380952Y-45472047D01*
X256380952Y-45281571D02*
X256238095Y-45329190D01*
X256190476Y-45376809D01*
X256142857Y-45472047D01*
X256142857Y-45614904D01*
X256190476Y-45710142D01*
X256238095Y-45757761D01*
X256333333Y-45805380D01*
X256714285Y-45805380D01*
X256714285Y-44805380D01*
X256380952Y-44805380D01*
X256285714Y-44853000D01*
X256238095Y-44900619D01*
X256190476Y-44995857D01*
X256190476Y-45091095D01*
X256238095Y-45186333D01*
X256285714Y-45233952D01*
X256380952Y-45281571D01*
X256714285Y-45281571D01*
X255809523Y-45138714D02*
X255571428Y-45805380D01*
X255333333Y-45138714D02*
X255571428Y-45805380D01*
X255666666Y-46043476D01*
X255714285Y-46091095D01*
X255809523Y-46138714D01*
X254190476Y-45805380D02*
X254190476Y-44805380D01*
X253619047Y-45805380D01*
X253619047Y-44805380D01*
X253000000Y-45805380D02*
X253095238Y-45757761D01*
X253142857Y-45710142D01*
X253190476Y-45614904D01*
X253190476Y-45329190D01*
X253142857Y-45233952D01*
X253095238Y-45186333D01*
X253000000Y-45138714D01*
X252857142Y-45138714D01*
X252761904Y-45186333D01*
X252714285Y-45233952D01*
X252666666Y-45329190D01*
X252666666Y-45614904D01*
X252714285Y-45710142D01*
X252761904Y-45757761D01*
X252857142Y-45805380D01*
X253000000Y-45805380D01*
X252238095Y-45805380D02*
X252238095Y-45138714D01*
X252238095Y-45329190D02*
X252190476Y-45233952D01*
X252142857Y-45186333D01*
X252047619Y-45138714D01*
X251952380Y-45138714D01*
X251761904Y-45138714D02*
X251380952Y-45138714D01*
X251619047Y-44805380D02*
X251619047Y-45662523D01*
X251571428Y-45757761D01*
X251476190Y-45805380D01*
X251380952Y-45805380D01*
X250904761Y-45805380D02*
X251000000Y-45757761D01*
X251047619Y-45662523D01*
X251047619Y-44805380D01*
X250142857Y-45757761D02*
X250238095Y-45805380D01*
X250428571Y-45805380D01*
X250523809Y-45757761D01*
X250571428Y-45662523D01*
X250571428Y-45281571D01*
X250523809Y-45186333D01*
X250428571Y-45138714D01*
X250238095Y-45138714D01*
X250142857Y-45186333D01*
X250095238Y-45281571D01*
X250095238Y-45376809D01*
X250571428Y-45472047D01*
X273000000Y-47269666D02*
X272523809Y-47269666D01*
X273095238Y-47555380D02*
X272761904Y-46555380D01*
X272428571Y-47555380D01*
X272095238Y-47555380D02*
X272095238Y-46888714D01*
X272095238Y-47079190D02*
X272047619Y-46983952D01*
X272000000Y-46936333D01*
X271904761Y-46888714D01*
X271809523Y-46888714D01*
X271476190Y-46888714D02*
X271476190Y-47555380D01*
X271476190Y-46983952D02*
X271428571Y-46936333D01*
X271333333Y-46888714D01*
X271190476Y-46888714D01*
X271095238Y-46936333D01*
X271047619Y-47031571D01*
X271047619Y-47555380D01*
X270190476Y-47507761D02*
X270285714Y-47555380D01*
X270476190Y-47555380D01*
X270571428Y-47507761D01*
X270619047Y-47412523D01*
X270619047Y-47031571D01*
X270571428Y-46936333D01*
X270476190Y-46888714D01*
X270285714Y-46888714D01*
X270190476Y-46936333D01*
X270142857Y-47031571D01*
X270142857Y-47126809D01*
X270619047Y-47222047D01*
X269095238Y-46555380D02*
X268761904Y-47555380D01*
X268428571Y-46555380D01*
X267666666Y-47555380D02*
X267666666Y-47031571D01*
X267714285Y-46936333D01*
X267809523Y-46888714D01*
X268000000Y-46888714D01*
X268095238Y-46936333D01*
X267666666Y-47507761D02*
X267761904Y-47555380D01*
X268000000Y-47555380D01*
X268095238Y-47507761D01*
X268142857Y-47412523D01*
X268142857Y-47317285D01*
X268095238Y-47222047D01*
X268000000Y-47174428D01*
X267761904Y-47174428D01*
X267666666Y-47126809D01*
X267190476Y-46888714D02*
X267190476Y-47555380D01*
X267190476Y-46983952D02*
X267142857Y-46936333D01*
X267047619Y-46888714D01*
X266904761Y-46888714D01*
X266809523Y-46936333D01*
X266761904Y-47031571D01*
X266761904Y-47555380D01*
X265095238Y-47555380D02*
X265095238Y-46555380D01*
X265095238Y-47507761D02*
X265190476Y-47555380D01*
X265380952Y-47555380D01*
X265476190Y-47507761D01*
X265523809Y-47460142D01*
X265571428Y-47364904D01*
X265571428Y-47079190D01*
X265523809Y-46983952D01*
X265476190Y-46936333D01*
X265380952Y-46888714D01*
X265190476Y-46888714D01*
X265095238Y-46936333D01*
X264238095Y-47507761D02*
X264333333Y-47555380D01*
X264523809Y-47555380D01*
X264619047Y-47507761D01*
X264666666Y-47412523D01*
X264666666Y-47031571D01*
X264619047Y-46936333D01*
X264523809Y-46888714D01*
X264333333Y-46888714D01*
X264238095Y-46936333D01*
X264190476Y-47031571D01*
X264190476Y-47126809D01*
X264666666Y-47222047D01*
X263761904Y-46888714D02*
X263761904Y-47555380D01*
X263761904Y-46983952D02*
X263714285Y-46936333D01*
X263619047Y-46888714D01*
X263476190Y-46888714D01*
X263380952Y-46936333D01*
X263333333Y-47031571D01*
X263333333Y-47555380D01*
X261761904Y-47031571D02*
X261619047Y-47079190D01*
X261571428Y-47126809D01*
X261523809Y-47222047D01*
X261523809Y-47364904D01*
X261571428Y-47460142D01*
X261619047Y-47507761D01*
X261714285Y-47555380D01*
X262095238Y-47555380D01*
X262095238Y-46555380D01*
X261761904Y-46555380D01*
X261666666Y-46603000D01*
X261619047Y-46650619D01*
X261571428Y-46745857D01*
X261571428Y-46841095D01*
X261619047Y-46936333D01*
X261666666Y-46983952D01*
X261761904Y-47031571D01*
X262095238Y-47031571D01*
X261095238Y-47555380D02*
X261095238Y-46888714D01*
X261095238Y-47079190D02*
X261047619Y-46983952D01*
X261000000Y-46936333D01*
X260904761Y-46888714D01*
X260809523Y-46888714D01*
X260333333Y-47555380D02*
X260428571Y-47507761D01*
X260476190Y-47460142D01*
X260523809Y-47364904D01*
X260523809Y-47079190D01*
X260476190Y-46983952D01*
X260428571Y-46936333D01*
X260333333Y-46888714D01*
X260190476Y-46888714D01*
X260095238Y-46936333D01*
X260047619Y-46983952D01*
X260000000Y-47079190D01*
X260000000Y-47364904D01*
X260047619Y-47460142D01*
X260095238Y-47507761D01*
X260190476Y-47555380D01*
X260333333Y-47555380D01*
X259190476Y-47507761D02*
X259285714Y-47555380D01*
X259476190Y-47555380D01*
X259571428Y-47507761D01*
X259619047Y-47412523D01*
X259619047Y-47031571D01*
X259571428Y-46936333D01*
X259476190Y-46888714D01*
X259285714Y-46888714D01*
X259190476Y-46936333D01*
X259142857Y-47031571D01*
X259142857Y-47126809D01*
X259619047Y-47222047D01*
X258285714Y-47507761D02*
X258380952Y-47555380D01*
X258571428Y-47555380D01*
X258666666Y-47507761D01*
X258714285Y-47460142D01*
X258761904Y-47364904D01*
X258761904Y-47079190D01*
X258714285Y-46983952D01*
X258666666Y-46936333D01*
X258571428Y-46888714D01*
X258380952Y-46888714D01*
X258285714Y-46936333D01*
X257857142Y-47555380D02*
X257857142Y-46555380D01*
X257761904Y-47174428D02*
X257476190Y-47555380D01*
X257476190Y-46888714D02*
X257857142Y-47269666D01*
X256333333Y-46650619D02*
X256285714Y-46603000D01*
X256190476Y-46555380D01*
X255952380Y-46555380D01*
X255857142Y-46603000D01*
X255809523Y-46650619D01*
X255761904Y-46745857D01*
X255761904Y-46841095D01*
X255809523Y-46983952D01*
X256380952Y-47555380D01*
X255761904Y-47555380D01*
X254857142Y-46555380D02*
X255333333Y-46555380D01*
X255380952Y-47031571D01*
X255333333Y-46983952D01*
X255238095Y-46936333D01*
X255000000Y-46936333D01*
X254904761Y-46983952D01*
X254857142Y-47031571D01*
X254809523Y-47126809D01*
X254809523Y-47364904D01*
X254857142Y-47460142D01*
X254904761Y-47507761D01*
X255000000Y-47555380D01*
X255238095Y-47555380D01*
X255333333Y-47507761D01*
X255380952Y-47460142D01*
X253666666Y-46507761D02*
X254523809Y-47793476D01*
X253142857Y-46555380D02*
X253047619Y-46555380D01*
X252952380Y-46603000D01*
X252904761Y-46650619D01*
X252857142Y-46745857D01*
X252809523Y-46936333D01*
X252809523Y-47174428D01*
X252857142Y-47364904D01*
X252904761Y-47460142D01*
X252952380Y-47507761D01*
X253047619Y-47555380D01*
X253142857Y-47555380D01*
X253238095Y-47507761D01*
X253285714Y-47460142D01*
X253333333Y-47364904D01*
X253380952Y-47174428D01*
X253380952Y-46936333D01*
X253333333Y-46745857D01*
X253285714Y-46650619D01*
X253238095Y-46603000D01*
X253142857Y-46555380D01*
X251952380Y-46555380D02*
X252142857Y-46555380D01*
X252238095Y-46603000D01*
X252285714Y-46650619D01*
X252380952Y-46793476D01*
X252428571Y-46983952D01*
X252428571Y-47364904D01*
X252380952Y-47460142D01*
X252333333Y-47507761D01*
X252238095Y-47555380D01*
X252047619Y-47555380D01*
X251952380Y-47507761D01*
X251904761Y-47460142D01*
X251857142Y-47364904D01*
X251857142Y-47126809D01*
X251904761Y-47031571D01*
X251952380Y-46983952D01*
X252047619Y-46936333D01*
X252238095Y-46936333D01*
X252333333Y-46983952D01*
X252380952Y-47031571D01*
X252428571Y-47126809D01*
X250714285Y-46507761D02*
X251571428Y-47793476D01*
X250428571Y-46650619D02*
X250380952Y-46603000D01*
X250285714Y-46555380D01*
X250047619Y-46555380D01*
X249952380Y-46603000D01*
X249904761Y-46650619D01*
X249857142Y-46745857D01*
X249857142Y-46841095D01*
X249904761Y-46983952D01*
X250476190Y-47555380D01*
X249857142Y-47555380D01*
X249238095Y-46555380D02*
X249142857Y-46555380D01*
X249047619Y-46603000D01*
X249000000Y-46650619D01*
X248952380Y-46745857D01*
X248904761Y-46936333D01*
X248904761Y-47174428D01*
X248952380Y-47364904D01*
X249000000Y-47460142D01*
X249047619Y-47507761D01*
X249142857Y-47555380D01*
X249238095Y-47555380D01*
X249333333Y-47507761D01*
X249380952Y-47460142D01*
X249428571Y-47364904D01*
X249476190Y-47174428D01*
X249476190Y-46936333D01*
X249428571Y-46745857D01*
X249380952Y-46650619D01*
X249333333Y-46603000D01*
X249238095Y-46555380D01*
X248523809Y-46650619D02*
X248476190Y-46603000D01*
X248380952Y-46555380D01*
X248142857Y-46555380D01*
X248047619Y-46603000D01*
X248000000Y-46650619D01*
X247952380Y-46745857D01*
X247952380Y-46841095D01*
X248000000Y-46983952D01*
X248571428Y-47555380D01*
X247952380Y-47555380D01*
X247333333Y-46555380D02*
X247238095Y-46555380D01*
X247142857Y-46603000D01*
X247095238Y-46650619D01*
X247047619Y-46745857D01*
X247000000Y-46936333D01*
X247000000Y-47174428D01*
X247047619Y-47364904D01*
X247095238Y-47460142D01*
X247142857Y-47507761D01*
X247238095Y-47555380D01*
X247333333Y-47555380D01*
X247428571Y-47507761D01*
X247476190Y-47460142D01*
X247523809Y-47364904D01*
X247571428Y-47174428D01*
X247571428Y-46936333D01*
X247523809Y-46745857D01*
X247476190Y-46650619D01*
X247428571Y-46603000D01*
X247333333Y-46555380D01*
M02*
