G04 #@! TF.GenerationSoftware,KiCad,Pcbnew,(5.1.5)-3*
G04 #@! TF.CreationDate,2020-07-04T05:18:36+02:00*
G04 #@! TF.ProjectId,DMX_usb,444d585f-7573-4622-9e6b-696361645f70,rev?*
G04 #@! TF.SameCoordinates,Original*
G04 #@! TF.FileFunction,Legend,Bot*
G04 #@! TF.FilePolarity,Positive*
%FSLAX46Y46*%
G04 Gerber Fmt 4.6, Leading zero omitted, Abs format (unit mm)*
G04 Created by KiCad (PCBNEW (5.1.5)-3) date 2020-07-04 05:18:36*
%MOMM*%
%LPD*%
G04 APERTURE LIST*
%ADD10C,0.250000*%
G04 APERTURE END LIST*
D10*
X271985142Y-121259380D02*
X271985142Y-122068904D01*
X271937523Y-122164142D01*
X271889904Y-122211761D01*
X271794666Y-122259380D01*
X271604190Y-122259380D01*
X271508952Y-122211761D01*
X271461333Y-122164142D01*
X271413714Y-122068904D01*
X271413714Y-121259380D01*
X270985142Y-122211761D02*
X270889904Y-122259380D01*
X270699428Y-122259380D01*
X270604190Y-122211761D01*
X270556571Y-122116523D01*
X270556571Y-122068904D01*
X270604190Y-121973666D01*
X270699428Y-121926047D01*
X270842285Y-121926047D01*
X270937523Y-121878428D01*
X270985142Y-121783190D01*
X270985142Y-121735571D01*
X270937523Y-121640333D01*
X270842285Y-121592714D01*
X270699428Y-121592714D01*
X270604190Y-121640333D01*
X270128000Y-122259380D02*
X270128000Y-121259380D01*
X270128000Y-121640333D02*
X270032761Y-121592714D01*
X269842285Y-121592714D01*
X269747047Y-121640333D01*
X269699428Y-121687952D01*
X269651809Y-121783190D01*
X269651809Y-122068904D01*
X269699428Y-122164142D01*
X269747047Y-122211761D01*
X269842285Y-122259380D01*
X270032761Y-122259380D01*
X270128000Y-122211761D01*
X268461333Y-122259380D02*
X268461333Y-121259380D01*
X268223238Y-121259380D01*
X268080380Y-121307000D01*
X267985142Y-121402238D01*
X267937523Y-121497476D01*
X267889904Y-121687952D01*
X267889904Y-121830809D01*
X267937523Y-122021285D01*
X267985142Y-122116523D01*
X268080380Y-122211761D01*
X268223238Y-122259380D01*
X268461333Y-122259380D01*
X267461333Y-122259380D02*
X267461333Y-121259380D01*
X267128000Y-121973666D01*
X266794666Y-121259380D01*
X266794666Y-122259380D01*
X266413714Y-121259380D02*
X265747047Y-122259380D01*
X265747047Y-121259380D02*
X266413714Y-122259380D01*
X264175619Y-122259380D02*
X264175619Y-121259380D01*
X264175619Y-122211761D02*
X264270857Y-122259380D01*
X264461333Y-122259380D01*
X264556571Y-122211761D01*
X264604190Y-122164142D01*
X264651809Y-122068904D01*
X264651809Y-121783190D01*
X264604190Y-121687952D01*
X264556571Y-121640333D01*
X264461333Y-121592714D01*
X264270857Y-121592714D01*
X264175619Y-121640333D01*
X263556571Y-122259380D02*
X263651809Y-122211761D01*
X263699428Y-122164142D01*
X263747047Y-122068904D01*
X263747047Y-121783190D01*
X263699428Y-121687952D01*
X263651809Y-121640333D01*
X263556571Y-121592714D01*
X263413714Y-121592714D01*
X263318476Y-121640333D01*
X263270857Y-121687952D01*
X263223238Y-121783190D01*
X263223238Y-122068904D01*
X263270857Y-122164142D01*
X263318476Y-122211761D01*
X263413714Y-122259380D01*
X263556571Y-122259380D01*
X262794666Y-121592714D02*
X262794666Y-122259380D01*
X262794666Y-121687952D02*
X262747047Y-121640333D01*
X262651809Y-121592714D01*
X262508952Y-121592714D01*
X262413714Y-121640333D01*
X262366095Y-121735571D01*
X262366095Y-122259380D01*
X261461333Y-121592714D02*
X261461333Y-122402238D01*
X261508952Y-122497476D01*
X261556571Y-122545095D01*
X261651809Y-122592714D01*
X261794666Y-122592714D01*
X261889904Y-122545095D01*
X261461333Y-122211761D02*
X261556571Y-122259380D01*
X261747047Y-122259380D01*
X261842285Y-122211761D01*
X261889904Y-122164142D01*
X261937523Y-122068904D01*
X261937523Y-121783190D01*
X261889904Y-121687952D01*
X261842285Y-121640333D01*
X261747047Y-121592714D01*
X261556571Y-121592714D01*
X261461333Y-121640333D01*
X260842285Y-122259380D02*
X260937523Y-122211761D01*
X260985142Y-122116523D01*
X260985142Y-121259380D01*
X260080380Y-122211761D02*
X260175619Y-122259380D01*
X260366095Y-122259380D01*
X260461333Y-122211761D01*
X260508952Y-122116523D01*
X260508952Y-121735571D01*
X260461333Y-121640333D01*
X260366095Y-121592714D01*
X260175619Y-121592714D01*
X260080380Y-121640333D01*
X260032761Y-121735571D01*
X260032761Y-121830809D01*
X260508952Y-121926047D01*
X258508952Y-121735571D02*
X258366095Y-121783190D01*
X258318476Y-121830809D01*
X258270857Y-121926047D01*
X258270857Y-122068904D01*
X258318476Y-122164142D01*
X258366095Y-122211761D01*
X258461333Y-122259380D01*
X258842285Y-122259380D01*
X258842285Y-121259380D01*
X258508952Y-121259380D01*
X258413714Y-121307000D01*
X258366095Y-121354619D01*
X258318476Y-121449857D01*
X258318476Y-121545095D01*
X258366095Y-121640333D01*
X258413714Y-121687952D01*
X258508952Y-121735571D01*
X258842285Y-121735571D01*
X257937523Y-121592714D02*
X257699428Y-122259380D01*
X257461333Y-121592714D02*
X257699428Y-122259380D01*
X257794666Y-122497476D01*
X257842285Y-122545095D01*
X257937523Y-122592714D01*
X256318476Y-122259380D02*
X256318476Y-121259380D01*
X255747047Y-122259380D01*
X255747047Y-121259380D01*
X255128000Y-122259380D02*
X255223238Y-122211761D01*
X255270857Y-122164142D01*
X255318476Y-122068904D01*
X255318476Y-121783190D01*
X255270857Y-121687952D01*
X255223238Y-121640333D01*
X255128000Y-121592714D01*
X254985142Y-121592714D01*
X254889904Y-121640333D01*
X254842285Y-121687952D01*
X254794666Y-121783190D01*
X254794666Y-122068904D01*
X254842285Y-122164142D01*
X254889904Y-122211761D01*
X254985142Y-122259380D01*
X255128000Y-122259380D01*
X254366095Y-122259380D02*
X254366095Y-121592714D01*
X254366095Y-121783190D02*
X254318476Y-121687952D01*
X254270857Y-121640333D01*
X254175619Y-121592714D01*
X254080380Y-121592714D01*
X253889904Y-121592714D02*
X253508952Y-121592714D01*
X253747047Y-121259380D02*
X253747047Y-122116523D01*
X253699428Y-122211761D01*
X253604190Y-122259380D01*
X253508952Y-122259380D01*
X253032761Y-122259380D02*
X253128000Y-122211761D01*
X253175619Y-122116523D01*
X253175619Y-121259380D01*
X252270857Y-122211761D02*
X252366095Y-122259380D01*
X252556571Y-122259380D01*
X252651809Y-122211761D01*
X252699428Y-122116523D01*
X252699428Y-121735571D01*
X252651809Y-121640333D01*
X252556571Y-121592714D01*
X252366095Y-121592714D01*
X252270857Y-121640333D01*
X252223238Y-121735571D01*
X252223238Y-121830809D01*
X252699428Y-121926047D01*
X275128000Y-123723666D02*
X274651809Y-123723666D01*
X275223238Y-124009380D02*
X274889904Y-123009380D01*
X274556571Y-124009380D01*
X274223238Y-124009380D02*
X274223238Y-123342714D01*
X274223238Y-123533190D02*
X274175619Y-123437952D01*
X274128000Y-123390333D01*
X274032761Y-123342714D01*
X273937523Y-123342714D01*
X273604190Y-123342714D02*
X273604190Y-124009380D01*
X273604190Y-123437952D02*
X273556571Y-123390333D01*
X273461333Y-123342714D01*
X273318476Y-123342714D01*
X273223238Y-123390333D01*
X273175619Y-123485571D01*
X273175619Y-124009380D01*
X272318476Y-123961761D02*
X272413714Y-124009380D01*
X272604190Y-124009380D01*
X272699428Y-123961761D01*
X272747047Y-123866523D01*
X272747047Y-123485571D01*
X272699428Y-123390333D01*
X272604190Y-123342714D01*
X272413714Y-123342714D01*
X272318476Y-123390333D01*
X272270857Y-123485571D01*
X272270857Y-123580809D01*
X272747047Y-123676047D01*
X271223238Y-123009380D02*
X270889904Y-124009380D01*
X270556571Y-123009380D01*
X269794666Y-124009380D02*
X269794666Y-123485571D01*
X269842285Y-123390333D01*
X269937523Y-123342714D01*
X270128000Y-123342714D01*
X270223238Y-123390333D01*
X269794666Y-123961761D02*
X269889904Y-124009380D01*
X270128000Y-124009380D01*
X270223238Y-123961761D01*
X270270857Y-123866523D01*
X270270857Y-123771285D01*
X270223238Y-123676047D01*
X270128000Y-123628428D01*
X269889904Y-123628428D01*
X269794666Y-123580809D01*
X269318476Y-123342714D02*
X269318476Y-124009380D01*
X269318476Y-123437952D02*
X269270857Y-123390333D01*
X269175619Y-123342714D01*
X269032761Y-123342714D01*
X268937523Y-123390333D01*
X268889904Y-123485571D01*
X268889904Y-124009380D01*
X267223238Y-124009380D02*
X267223238Y-123009380D01*
X267223238Y-123961761D02*
X267318476Y-124009380D01*
X267508952Y-124009380D01*
X267604190Y-123961761D01*
X267651809Y-123914142D01*
X267699428Y-123818904D01*
X267699428Y-123533190D01*
X267651809Y-123437952D01*
X267604190Y-123390333D01*
X267508952Y-123342714D01*
X267318476Y-123342714D01*
X267223238Y-123390333D01*
X266366095Y-123961761D02*
X266461333Y-124009380D01*
X266651809Y-124009380D01*
X266747047Y-123961761D01*
X266794666Y-123866523D01*
X266794666Y-123485571D01*
X266747047Y-123390333D01*
X266651809Y-123342714D01*
X266461333Y-123342714D01*
X266366095Y-123390333D01*
X266318476Y-123485571D01*
X266318476Y-123580809D01*
X266794666Y-123676047D01*
X265889904Y-123342714D02*
X265889904Y-124009380D01*
X265889904Y-123437952D02*
X265842285Y-123390333D01*
X265747047Y-123342714D01*
X265604190Y-123342714D01*
X265508952Y-123390333D01*
X265461333Y-123485571D01*
X265461333Y-124009380D01*
X263889904Y-123485571D02*
X263747047Y-123533190D01*
X263699428Y-123580809D01*
X263651809Y-123676047D01*
X263651809Y-123818904D01*
X263699428Y-123914142D01*
X263747047Y-123961761D01*
X263842285Y-124009380D01*
X264223238Y-124009380D01*
X264223238Y-123009380D01*
X263889904Y-123009380D01*
X263794666Y-123057000D01*
X263747047Y-123104619D01*
X263699428Y-123199857D01*
X263699428Y-123295095D01*
X263747047Y-123390333D01*
X263794666Y-123437952D01*
X263889904Y-123485571D01*
X264223238Y-123485571D01*
X263223238Y-124009380D02*
X263223238Y-123342714D01*
X263223238Y-123533190D02*
X263175619Y-123437952D01*
X263128000Y-123390333D01*
X263032761Y-123342714D01*
X262937523Y-123342714D01*
X262461333Y-124009380D02*
X262556571Y-123961761D01*
X262604190Y-123914142D01*
X262651809Y-123818904D01*
X262651809Y-123533190D01*
X262604190Y-123437952D01*
X262556571Y-123390333D01*
X262461333Y-123342714D01*
X262318476Y-123342714D01*
X262223238Y-123390333D01*
X262175619Y-123437952D01*
X262128000Y-123533190D01*
X262128000Y-123818904D01*
X262175619Y-123914142D01*
X262223238Y-123961761D01*
X262318476Y-124009380D01*
X262461333Y-124009380D01*
X261318476Y-123961761D02*
X261413714Y-124009380D01*
X261604190Y-124009380D01*
X261699428Y-123961761D01*
X261747047Y-123866523D01*
X261747047Y-123485571D01*
X261699428Y-123390333D01*
X261604190Y-123342714D01*
X261413714Y-123342714D01*
X261318476Y-123390333D01*
X261270857Y-123485571D01*
X261270857Y-123580809D01*
X261747047Y-123676047D01*
X260413714Y-123961761D02*
X260508952Y-124009380D01*
X260699428Y-124009380D01*
X260794666Y-123961761D01*
X260842285Y-123914142D01*
X260889904Y-123818904D01*
X260889904Y-123533190D01*
X260842285Y-123437952D01*
X260794666Y-123390333D01*
X260699428Y-123342714D01*
X260508952Y-123342714D01*
X260413714Y-123390333D01*
X259985142Y-124009380D02*
X259985142Y-123009380D01*
X259889904Y-123628428D02*
X259604190Y-124009380D01*
X259604190Y-123342714D02*
X259985142Y-123723666D01*
X258461333Y-123104619D02*
X258413714Y-123057000D01*
X258318476Y-123009380D01*
X258080380Y-123009380D01*
X257985142Y-123057000D01*
X257937523Y-123104619D01*
X257889904Y-123199857D01*
X257889904Y-123295095D01*
X257937523Y-123437952D01*
X258508952Y-124009380D01*
X257889904Y-124009380D01*
X256985142Y-123009380D02*
X257461333Y-123009380D01*
X257508952Y-123485571D01*
X257461333Y-123437952D01*
X257366095Y-123390333D01*
X257128000Y-123390333D01*
X257032761Y-123437952D01*
X256985142Y-123485571D01*
X256937523Y-123580809D01*
X256937523Y-123818904D01*
X256985142Y-123914142D01*
X257032761Y-123961761D01*
X257128000Y-124009380D01*
X257366095Y-124009380D01*
X257461333Y-123961761D01*
X257508952Y-123914142D01*
X255794666Y-122961761D02*
X256651809Y-124247476D01*
X255270857Y-123009380D02*
X255175619Y-123009380D01*
X255080380Y-123057000D01*
X255032761Y-123104619D01*
X254985142Y-123199857D01*
X254937523Y-123390333D01*
X254937523Y-123628428D01*
X254985142Y-123818904D01*
X255032761Y-123914142D01*
X255080380Y-123961761D01*
X255175619Y-124009380D01*
X255270857Y-124009380D01*
X255366095Y-123961761D01*
X255413714Y-123914142D01*
X255461333Y-123818904D01*
X255508952Y-123628428D01*
X255508952Y-123390333D01*
X255461333Y-123199857D01*
X255413714Y-123104619D01*
X255366095Y-123057000D01*
X255270857Y-123009380D01*
X254080380Y-123009380D02*
X254270857Y-123009380D01*
X254366095Y-123057000D01*
X254413714Y-123104619D01*
X254508952Y-123247476D01*
X254556571Y-123437952D01*
X254556571Y-123818904D01*
X254508952Y-123914142D01*
X254461333Y-123961761D01*
X254366095Y-124009380D01*
X254175619Y-124009380D01*
X254080380Y-123961761D01*
X254032761Y-123914142D01*
X253985142Y-123818904D01*
X253985142Y-123580809D01*
X254032761Y-123485571D01*
X254080380Y-123437952D01*
X254175619Y-123390333D01*
X254366095Y-123390333D01*
X254461333Y-123437952D01*
X254508952Y-123485571D01*
X254556571Y-123580809D01*
X252842285Y-122961761D02*
X253699428Y-124247476D01*
X252556571Y-123104619D02*
X252508952Y-123057000D01*
X252413714Y-123009380D01*
X252175619Y-123009380D01*
X252080380Y-123057000D01*
X252032761Y-123104619D01*
X251985142Y-123199857D01*
X251985142Y-123295095D01*
X252032761Y-123437952D01*
X252604190Y-124009380D01*
X251985142Y-124009380D01*
X251366095Y-123009380D02*
X251270857Y-123009380D01*
X251175619Y-123057000D01*
X251128000Y-123104619D01*
X251080380Y-123199857D01*
X251032761Y-123390333D01*
X251032761Y-123628428D01*
X251080380Y-123818904D01*
X251128000Y-123914142D01*
X251175619Y-123961761D01*
X251270857Y-124009380D01*
X251366095Y-124009380D01*
X251461333Y-123961761D01*
X251508952Y-123914142D01*
X251556571Y-123818904D01*
X251604190Y-123628428D01*
X251604190Y-123390333D01*
X251556571Y-123199857D01*
X251508952Y-123104619D01*
X251461333Y-123057000D01*
X251366095Y-123009380D01*
X250651809Y-123104619D02*
X250604190Y-123057000D01*
X250508952Y-123009380D01*
X250270857Y-123009380D01*
X250175619Y-123057000D01*
X250128000Y-123104619D01*
X250080380Y-123199857D01*
X250080380Y-123295095D01*
X250128000Y-123437952D01*
X250699428Y-124009380D01*
X250080380Y-124009380D01*
X249461333Y-123009380D02*
X249366095Y-123009380D01*
X249270857Y-123057000D01*
X249223238Y-123104619D01*
X249175619Y-123199857D01*
X249128000Y-123390333D01*
X249128000Y-123628428D01*
X249175619Y-123818904D01*
X249223238Y-123914142D01*
X249270857Y-123961761D01*
X249366095Y-124009380D01*
X249461333Y-124009380D01*
X249556571Y-123961761D01*
X249604190Y-123914142D01*
X249651809Y-123818904D01*
X249699428Y-123628428D01*
X249699428Y-123390333D01*
X249651809Y-123199857D01*
X249604190Y-123104619D01*
X249556571Y-123057000D01*
X249461333Y-123009380D01*
X271985142Y-95859380D02*
X271985142Y-96668904D01*
X271937523Y-96764142D01*
X271889904Y-96811761D01*
X271794666Y-96859380D01*
X271604190Y-96859380D01*
X271508952Y-96811761D01*
X271461333Y-96764142D01*
X271413714Y-96668904D01*
X271413714Y-95859380D01*
X270985142Y-96811761D02*
X270889904Y-96859380D01*
X270699428Y-96859380D01*
X270604190Y-96811761D01*
X270556571Y-96716523D01*
X270556571Y-96668904D01*
X270604190Y-96573666D01*
X270699428Y-96526047D01*
X270842285Y-96526047D01*
X270937523Y-96478428D01*
X270985142Y-96383190D01*
X270985142Y-96335571D01*
X270937523Y-96240333D01*
X270842285Y-96192714D01*
X270699428Y-96192714D01*
X270604190Y-96240333D01*
X270128000Y-96859380D02*
X270128000Y-95859380D01*
X270128000Y-96240333D02*
X270032761Y-96192714D01*
X269842285Y-96192714D01*
X269747047Y-96240333D01*
X269699428Y-96287952D01*
X269651809Y-96383190D01*
X269651809Y-96668904D01*
X269699428Y-96764142D01*
X269747047Y-96811761D01*
X269842285Y-96859380D01*
X270032761Y-96859380D01*
X270128000Y-96811761D01*
X268461333Y-96859380D02*
X268461333Y-95859380D01*
X268223238Y-95859380D01*
X268080380Y-95907000D01*
X267985142Y-96002238D01*
X267937523Y-96097476D01*
X267889904Y-96287952D01*
X267889904Y-96430809D01*
X267937523Y-96621285D01*
X267985142Y-96716523D01*
X268080380Y-96811761D01*
X268223238Y-96859380D01*
X268461333Y-96859380D01*
X267461333Y-96859380D02*
X267461333Y-95859380D01*
X267128000Y-96573666D01*
X266794666Y-95859380D01*
X266794666Y-96859380D01*
X266413714Y-95859380D02*
X265747047Y-96859380D01*
X265747047Y-95859380D02*
X266413714Y-96859380D01*
X264175619Y-96859380D02*
X264175619Y-95859380D01*
X264175619Y-96811761D02*
X264270857Y-96859380D01*
X264461333Y-96859380D01*
X264556571Y-96811761D01*
X264604190Y-96764142D01*
X264651809Y-96668904D01*
X264651809Y-96383190D01*
X264604190Y-96287952D01*
X264556571Y-96240333D01*
X264461333Y-96192714D01*
X264270857Y-96192714D01*
X264175619Y-96240333D01*
X263556571Y-96859380D02*
X263651809Y-96811761D01*
X263699428Y-96764142D01*
X263747047Y-96668904D01*
X263747047Y-96383190D01*
X263699428Y-96287952D01*
X263651809Y-96240333D01*
X263556571Y-96192714D01*
X263413714Y-96192714D01*
X263318476Y-96240333D01*
X263270857Y-96287952D01*
X263223238Y-96383190D01*
X263223238Y-96668904D01*
X263270857Y-96764142D01*
X263318476Y-96811761D01*
X263413714Y-96859380D01*
X263556571Y-96859380D01*
X262794666Y-96192714D02*
X262794666Y-96859380D01*
X262794666Y-96287952D02*
X262747047Y-96240333D01*
X262651809Y-96192714D01*
X262508952Y-96192714D01*
X262413714Y-96240333D01*
X262366095Y-96335571D01*
X262366095Y-96859380D01*
X261461333Y-96192714D02*
X261461333Y-97002238D01*
X261508952Y-97097476D01*
X261556571Y-97145095D01*
X261651809Y-97192714D01*
X261794666Y-97192714D01*
X261889904Y-97145095D01*
X261461333Y-96811761D02*
X261556571Y-96859380D01*
X261747047Y-96859380D01*
X261842285Y-96811761D01*
X261889904Y-96764142D01*
X261937523Y-96668904D01*
X261937523Y-96383190D01*
X261889904Y-96287952D01*
X261842285Y-96240333D01*
X261747047Y-96192714D01*
X261556571Y-96192714D01*
X261461333Y-96240333D01*
X260842285Y-96859380D02*
X260937523Y-96811761D01*
X260985142Y-96716523D01*
X260985142Y-95859380D01*
X260080380Y-96811761D02*
X260175619Y-96859380D01*
X260366095Y-96859380D01*
X260461333Y-96811761D01*
X260508952Y-96716523D01*
X260508952Y-96335571D01*
X260461333Y-96240333D01*
X260366095Y-96192714D01*
X260175619Y-96192714D01*
X260080380Y-96240333D01*
X260032761Y-96335571D01*
X260032761Y-96430809D01*
X260508952Y-96526047D01*
X258508952Y-96335571D02*
X258366095Y-96383190D01*
X258318476Y-96430809D01*
X258270857Y-96526047D01*
X258270857Y-96668904D01*
X258318476Y-96764142D01*
X258366095Y-96811761D01*
X258461333Y-96859380D01*
X258842285Y-96859380D01*
X258842285Y-95859380D01*
X258508952Y-95859380D01*
X258413714Y-95907000D01*
X258366095Y-95954619D01*
X258318476Y-96049857D01*
X258318476Y-96145095D01*
X258366095Y-96240333D01*
X258413714Y-96287952D01*
X258508952Y-96335571D01*
X258842285Y-96335571D01*
X257937523Y-96192714D02*
X257699428Y-96859380D01*
X257461333Y-96192714D02*
X257699428Y-96859380D01*
X257794666Y-97097476D01*
X257842285Y-97145095D01*
X257937523Y-97192714D01*
X256318476Y-96859380D02*
X256318476Y-95859380D01*
X255747047Y-96859380D01*
X255747047Y-95859380D01*
X255128000Y-96859380D02*
X255223238Y-96811761D01*
X255270857Y-96764142D01*
X255318476Y-96668904D01*
X255318476Y-96383190D01*
X255270857Y-96287952D01*
X255223238Y-96240333D01*
X255128000Y-96192714D01*
X254985142Y-96192714D01*
X254889904Y-96240333D01*
X254842285Y-96287952D01*
X254794666Y-96383190D01*
X254794666Y-96668904D01*
X254842285Y-96764142D01*
X254889904Y-96811761D01*
X254985142Y-96859380D01*
X255128000Y-96859380D01*
X254366095Y-96859380D02*
X254366095Y-96192714D01*
X254366095Y-96383190D02*
X254318476Y-96287952D01*
X254270857Y-96240333D01*
X254175619Y-96192714D01*
X254080380Y-96192714D01*
X253889904Y-96192714D02*
X253508952Y-96192714D01*
X253747047Y-95859380D02*
X253747047Y-96716523D01*
X253699428Y-96811761D01*
X253604190Y-96859380D01*
X253508952Y-96859380D01*
X253032761Y-96859380D02*
X253128000Y-96811761D01*
X253175619Y-96716523D01*
X253175619Y-95859380D01*
X252270857Y-96811761D02*
X252366095Y-96859380D01*
X252556571Y-96859380D01*
X252651809Y-96811761D01*
X252699428Y-96716523D01*
X252699428Y-96335571D01*
X252651809Y-96240333D01*
X252556571Y-96192714D01*
X252366095Y-96192714D01*
X252270857Y-96240333D01*
X252223238Y-96335571D01*
X252223238Y-96430809D01*
X252699428Y-96526047D01*
X275128000Y-98323666D02*
X274651809Y-98323666D01*
X275223238Y-98609380D02*
X274889904Y-97609380D01*
X274556571Y-98609380D01*
X274223238Y-98609380D02*
X274223238Y-97942714D01*
X274223238Y-98133190D02*
X274175619Y-98037952D01*
X274128000Y-97990333D01*
X274032761Y-97942714D01*
X273937523Y-97942714D01*
X273604190Y-97942714D02*
X273604190Y-98609380D01*
X273604190Y-98037952D02*
X273556571Y-97990333D01*
X273461333Y-97942714D01*
X273318476Y-97942714D01*
X273223238Y-97990333D01*
X273175619Y-98085571D01*
X273175619Y-98609380D01*
X272318476Y-98561761D02*
X272413714Y-98609380D01*
X272604190Y-98609380D01*
X272699428Y-98561761D01*
X272747047Y-98466523D01*
X272747047Y-98085571D01*
X272699428Y-97990333D01*
X272604190Y-97942714D01*
X272413714Y-97942714D01*
X272318476Y-97990333D01*
X272270857Y-98085571D01*
X272270857Y-98180809D01*
X272747047Y-98276047D01*
X271223238Y-97609380D02*
X270889904Y-98609380D01*
X270556571Y-97609380D01*
X269794666Y-98609380D02*
X269794666Y-98085571D01*
X269842285Y-97990333D01*
X269937523Y-97942714D01*
X270128000Y-97942714D01*
X270223238Y-97990333D01*
X269794666Y-98561761D02*
X269889904Y-98609380D01*
X270128000Y-98609380D01*
X270223238Y-98561761D01*
X270270857Y-98466523D01*
X270270857Y-98371285D01*
X270223238Y-98276047D01*
X270128000Y-98228428D01*
X269889904Y-98228428D01*
X269794666Y-98180809D01*
X269318476Y-97942714D02*
X269318476Y-98609380D01*
X269318476Y-98037952D02*
X269270857Y-97990333D01*
X269175619Y-97942714D01*
X269032761Y-97942714D01*
X268937523Y-97990333D01*
X268889904Y-98085571D01*
X268889904Y-98609380D01*
X267223238Y-98609380D02*
X267223238Y-97609380D01*
X267223238Y-98561761D02*
X267318476Y-98609380D01*
X267508952Y-98609380D01*
X267604190Y-98561761D01*
X267651809Y-98514142D01*
X267699428Y-98418904D01*
X267699428Y-98133190D01*
X267651809Y-98037952D01*
X267604190Y-97990333D01*
X267508952Y-97942714D01*
X267318476Y-97942714D01*
X267223238Y-97990333D01*
X266366095Y-98561761D02*
X266461333Y-98609380D01*
X266651809Y-98609380D01*
X266747047Y-98561761D01*
X266794666Y-98466523D01*
X266794666Y-98085571D01*
X266747047Y-97990333D01*
X266651809Y-97942714D01*
X266461333Y-97942714D01*
X266366095Y-97990333D01*
X266318476Y-98085571D01*
X266318476Y-98180809D01*
X266794666Y-98276047D01*
X265889904Y-97942714D02*
X265889904Y-98609380D01*
X265889904Y-98037952D02*
X265842285Y-97990333D01*
X265747047Y-97942714D01*
X265604190Y-97942714D01*
X265508952Y-97990333D01*
X265461333Y-98085571D01*
X265461333Y-98609380D01*
X263889904Y-98085571D02*
X263747047Y-98133190D01*
X263699428Y-98180809D01*
X263651809Y-98276047D01*
X263651809Y-98418904D01*
X263699428Y-98514142D01*
X263747047Y-98561761D01*
X263842285Y-98609380D01*
X264223238Y-98609380D01*
X264223238Y-97609380D01*
X263889904Y-97609380D01*
X263794666Y-97657000D01*
X263747047Y-97704619D01*
X263699428Y-97799857D01*
X263699428Y-97895095D01*
X263747047Y-97990333D01*
X263794666Y-98037952D01*
X263889904Y-98085571D01*
X264223238Y-98085571D01*
X263223238Y-98609380D02*
X263223238Y-97942714D01*
X263223238Y-98133190D02*
X263175619Y-98037952D01*
X263128000Y-97990333D01*
X263032761Y-97942714D01*
X262937523Y-97942714D01*
X262461333Y-98609380D02*
X262556571Y-98561761D01*
X262604190Y-98514142D01*
X262651809Y-98418904D01*
X262651809Y-98133190D01*
X262604190Y-98037952D01*
X262556571Y-97990333D01*
X262461333Y-97942714D01*
X262318476Y-97942714D01*
X262223238Y-97990333D01*
X262175619Y-98037952D01*
X262128000Y-98133190D01*
X262128000Y-98418904D01*
X262175619Y-98514142D01*
X262223238Y-98561761D01*
X262318476Y-98609380D01*
X262461333Y-98609380D01*
X261318476Y-98561761D02*
X261413714Y-98609380D01*
X261604190Y-98609380D01*
X261699428Y-98561761D01*
X261747047Y-98466523D01*
X261747047Y-98085571D01*
X261699428Y-97990333D01*
X261604190Y-97942714D01*
X261413714Y-97942714D01*
X261318476Y-97990333D01*
X261270857Y-98085571D01*
X261270857Y-98180809D01*
X261747047Y-98276047D01*
X260413714Y-98561761D02*
X260508952Y-98609380D01*
X260699428Y-98609380D01*
X260794666Y-98561761D01*
X260842285Y-98514142D01*
X260889904Y-98418904D01*
X260889904Y-98133190D01*
X260842285Y-98037952D01*
X260794666Y-97990333D01*
X260699428Y-97942714D01*
X260508952Y-97942714D01*
X260413714Y-97990333D01*
X259985142Y-98609380D02*
X259985142Y-97609380D01*
X259889904Y-98228428D02*
X259604190Y-98609380D01*
X259604190Y-97942714D02*
X259985142Y-98323666D01*
X258461333Y-97704619D02*
X258413714Y-97657000D01*
X258318476Y-97609380D01*
X258080380Y-97609380D01*
X257985142Y-97657000D01*
X257937523Y-97704619D01*
X257889904Y-97799857D01*
X257889904Y-97895095D01*
X257937523Y-98037952D01*
X258508952Y-98609380D01*
X257889904Y-98609380D01*
X256985142Y-97609380D02*
X257461333Y-97609380D01*
X257508952Y-98085571D01*
X257461333Y-98037952D01*
X257366095Y-97990333D01*
X257128000Y-97990333D01*
X257032761Y-98037952D01*
X256985142Y-98085571D01*
X256937523Y-98180809D01*
X256937523Y-98418904D01*
X256985142Y-98514142D01*
X257032761Y-98561761D01*
X257128000Y-98609380D01*
X257366095Y-98609380D01*
X257461333Y-98561761D01*
X257508952Y-98514142D01*
X255794666Y-97561761D02*
X256651809Y-98847476D01*
X255270857Y-97609380D02*
X255175619Y-97609380D01*
X255080380Y-97657000D01*
X255032761Y-97704619D01*
X254985142Y-97799857D01*
X254937523Y-97990333D01*
X254937523Y-98228428D01*
X254985142Y-98418904D01*
X255032761Y-98514142D01*
X255080380Y-98561761D01*
X255175619Y-98609380D01*
X255270857Y-98609380D01*
X255366095Y-98561761D01*
X255413714Y-98514142D01*
X255461333Y-98418904D01*
X255508952Y-98228428D01*
X255508952Y-97990333D01*
X255461333Y-97799857D01*
X255413714Y-97704619D01*
X255366095Y-97657000D01*
X255270857Y-97609380D01*
X254080380Y-97609380D02*
X254270857Y-97609380D01*
X254366095Y-97657000D01*
X254413714Y-97704619D01*
X254508952Y-97847476D01*
X254556571Y-98037952D01*
X254556571Y-98418904D01*
X254508952Y-98514142D01*
X254461333Y-98561761D01*
X254366095Y-98609380D01*
X254175619Y-98609380D01*
X254080380Y-98561761D01*
X254032761Y-98514142D01*
X253985142Y-98418904D01*
X253985142Y-98180809D01*
X254032761Y-98085571D01*
X254080380Y-98037952D01*
X254175619Y-97990333D01*
X254366095Y-97990333D01*
X254461333Y-98037952D01*
X254508952Y-98085571D01*
X254556571Y-98180809D01*
X252842285Y-97561761D02*
X253699428Y-98847476D01*
X252556571Y-97704619D02*
X252508952Y-97657000D01*
X252413714Y-97609380D01*
X252175619Y-97609380D01*
X252080380Y-97657000D01*
X252032761Y-97704619D01*
X251985142Y-97799857D01*
X251985142Y-97895095D01*
X252032761Y-98037952D01*
X252604190Y-98609380D01*
X251985142Y-98609380D01*
X251366095Y-97609380D02*
X251270857Y-97609380D01*
X251175619Y-97657000D01*
X251128000Y-97704619D01*
X251080380Y-97799857D01*
X251032761Y-97990333D01*
X251032761Y-98228428D01*
X251080380Y-98418904D01*
X251128000Y-98514142D01*
X251175619Y-98561761D01*
X251270857Y-98609380D01*
X251366095Y-98609380D01*
X251461333Y-98561761D01*
X251508952Y-98514142D01*
X251556571Y-98418904D01*
X251604190Y-98228428D01*
X251604190Y-97990333D01*
X251556571Y-97799857D01*
X251508952Y-97704619D01*
X251461333Y-97657000D01*
X251366095Y-97609380D01*
X250651809Y-97704619D02*
X250604190Y-97657000D01*
X250508952Y-97609380D01*
X250270857Y-97609380D01*
X250175619Y-97657000D01*
X250128000Y-97704619D01*
X250080380Y-97799857D01*
X250080380Y-97895095D01*
X250128000Y-98037952D01*
X250699428Y-98609380D01*
X250080380Y-98609380D01*
X249461333Y-97609380D02*
X249366095Y-97609380D01*
X249270857Y-97657000D01*
X249223238Y-97704619D01*
X249175619Y-97799857D01*
X249128000Y-97990333D01*
X249128000Y-98228428D01*
X249175619Y-98418904D01*
X249223238Y-98514142D01*
X249270857Y-98561761D01*
X249366095Y-98609380D01*
X249461333Y-98609380D01*
X249556571Y-98561761D01*
X249604190Y-98514142D01*
X249651809Y-98418904D01*
X249699428Y-98228428D01*
X249699428Y-97990333D01*
X249651809Y-97799857D01*
X249604190Y-97704619D01*
X249556571Y-97657000D01*
X249461333Y-97609380D01*
X271985142Y-44805380D02*
X271985142Y-45614904D01*
X271937523Y-45710142D01*
X271889904Y-45757761D01*
X271794666Y-45805380D01*
X271604190Y-45805380D01*
X271508952Y-45757761D01*
X271461333Y-45710142D01*
X271413714Y-45614904D01*
X271413714Y-44805380D01*
X270985142Y-45757761D02*
X270889904Y-45805380D01*
X270699428Y-45805380D01*
X270604190Y-45757761D01*
X270556571Y-45662523D01*
X270556571Y-45614904D01*
X270604190Y-45519666D01*
X270699428Y-45472047D01*
X270842285Y-45472047D01*
X270937523Y-45424428D01*
X270985142Y-45329190D01*
X270985142Y-45281571D01*
X270937523Y-45186333D01*
X270842285Y-45138714D01*
X270699428Y-45138714D01*
X270604190Y-45186333D01*
X270128000Y-45805380D02*
X270128000Y-44805380D01*
X270128000Y-45186333D02*
X270032761Y-45138714D01*
X269842285Y-45138714D01*
X269747047Y-45186333D01*
X269699428Y-45233952D01*
X269651809Y-45329190D01*
X269651809Y-45614904D01*
X269699428Y-45710142D01*
X269747047Y-45757761D01*
X269842285Y-45805380D01*
X270032761Y-45805380D01*
X270128000Y-45757761D01*
X268461333Y-45805380D02*
X268461333Y-44805380D01*
X268223238Y-44805380D01*
X268080380Y-44853000D01*
X267985142Y-44948238D01*
X267937523Y-45043476D01*
X267889904Y-45233952D01*
X267889904Y-45376809D01*
X267937523Y-45567285D01*
X267985142Y-45662523D01*
X268080380Y-45757761D01*
X268223238Y-45805380D01*
X268461333Y-45805380D01*
X267461333Y-45805380D02*
X267461333Y-44805380D01*
X267128000Y-45519666D01*
X266794666Y-44805380D01*
X266794666Y-45805380D01*
X266413714Y-44805380D02*
X265747047Y-45805380D01*
X265747047Y-44805380D02*
X266413714Y-45805380D01*
X264175619Y-45805380D02*
X264175619Y-44805380D01*
X264175619Y-45757761D02*
X264270857Y-45805380D01*
X264461333Y-45805380D01*
X264556571Y-45757761D01*
X264604190Y-45710142D01*
X264651809Y-45614904D01*
X264651809Y-45329190D01*
X264604190Y-45233952D01*
X264556571Y-45186333D01*
X264461333Y-45138714D01*
X264270857Y-45138714D01*
X264175619Y-45186333D01*
X263556571Y-45805380D02*
X263651809Y-45757761D01*
X263699428Y-45710142D01*
X263747047Y-45614904D01*
X263747047Y-45329190D01*
X263699428Y-45233952D01*
X263651809Y-45186333D01*
X263556571Y-45138714D01*
X263413714Y-45138714D01*
X263318476Y-45186333D01*
X263270857Y-45233952D01*
X263223238Y-45329190D01*
X263223238Y-45614904D01*
X263270857Y-45710142D01*
X263318476Y-45757761D01*
X263413714Y-45805380D01*
X263556571Y-45805380D01*
X262794666Y-45138714D02*
X262794666Y-45805380D01*
X262794666Y-45233952D02*
X262747047Y-45186333D01*
X262651809Y-45138714D01*
X262508952Y-45138714D01*
X262413714Y-45186333D01*
X262366095Y-45281571D01*
X262366095Y-45805380D01*
X261461333Y-45138714D02*
X261461333Y-45948238D01*
X261508952Y-46043476D01*
X261556571Y-46091095D01*
X261651809Y-46138714D01*
X261794666Y-46138714D01*
X261889904Y-46091095D01*
X261461333Y-45757761D02*
X261556571Y-45805380D01*
X261747047Y-45805380D01*
X261842285Y-45757761D01*
X261889904Y-45710142D01*
X261937523Y-45614904D01*
X261937523Y-45329190D01*
X261889904Y-45233952D01*
X261842285Y-45186333D01*
X261747047Y-45138714D01*
X261556571Y-45138714D01*
X261461333Y-45186333D01*
X260842285Y-45805380D02*
X260937523Y-45757761D01*
X260985142Y-45662523D01*
X260985142Y-44805380D01*
X260080380Y-45757761D02*
X260175619Y-45805380D01*
X260366095Y-45805380D01*
X260461333Y-45757761D01*
X260508952Y-45662523D01*
X260508952Y-45281571D01*
X260461333Y-45186333D01*
X260366095Y-45138714D01*
X260175619Y-45138714D01*
X260080380Y-45186333D01*
X260032761Y-45281571D01*
X260032761Y-45376809D01*
X260508952Y-45472047D01*
X258508952Y-45281571D02*
X258366095Y-45329190D01*
X258318476Y-45376809D01*
X258270857Y-45472047D01*
X258270857Y-45614904D01*
X258318476Y-45710142D01*
X258366095Y-45757761D01*
X258461333Y-45805380D01*
X258842285Y-45805380D01*
X258842285Y-44805380D01*
X258508952Y-44805380D01*
X258413714Y-44853000D01*
X258366095Y-44900619D01*
X258318476Y-44995857D01*
X258318476Y-45091095D01*
X258366095Y-45186333D01*
X258413714Y-45233952D01*
X258508952Y-45281571D01*
X258842285Y-45281571D01*
X257937523Y-45138714D02*
X257699428Y-45805380D01*
X257461333Y-45138714D02*
X257699428Y-45805380D01*
X257794666Y-46043476D01*
X257842285Y-46091095D01*
X257937523Y-46138714D01*
X256318476Y-45805380D02*
X256318476Y-44805380D01*
X255747047Y-45805380D01*
X255747047Y-44805380D01*
X255128000Y-45805380D02*
X255223238Y-45757761D01*
X255270857Y-45710142D01*
X255318476Y-45614904D01*
X255318476Y-45329190D01*
X255270857Y-45233952D01*
X255223238Y-45186333D01*
X255128000Y-45138714D01*
X254985142Y-45138714D01*
X254889904Y-45186333D01*
X254842285Y-45233952D01*
X254794666Y-45329190D01*
X254794666Y-45614904D01*
X254842285Y-45710142D01*
X254889904Y-45757761D01*
X254985142Y-45805380D01*
X255128000Y-45805380D01*
X254366095Y-45805380D02*
X254366095Y-45138714D01*
X254366095Y-45329190D02*
X254318476Y-45233952D01*
X254270857Y-45186333D01*
X254175619Y-45138714D01*
X254080380Y-45138714D01*
X253889904Y-45138714D02*
X253508952Y-45138714D01*
X253747047Y-44805380D02*
X253747047Y-45662523D01*
X253699428Y-45757761D01*
X253604190Y-45805380D01*
X253508952Y-45805380D01*
X253032761Y-45805380D02*
X253128000Y-45757761D01*
X253175619Y-45662523D01*
X253175619Y-44805380D01*
X252270857Y-45757761D02*
X252366095Y-45805380D01*
X252556571Y-45805380D01*
X252651809Y-45757761D01*
X252699428Y-45662523D01*
X252699428Y-45281571D01*
X252651809Y-45186333D01*
X252556571Y-45138714D01*
X252366095Y-45138714D01*
X252270857Y-45186333D01*
X252223238Y-45281571D01*
X252223238Y-45376809D01*
X252699428Y-45472047D01*
X275128000Y-47269666D02*
X274651809Y-47269666D01*
X275223238Y-47555380D02*
X274889904Y-46555380D01*
X274556571Y-47555380D01*
X274223238Y-47555380D02*
X274223238Y-46888714D01*
X274223238Y-47079190D02*
X274175619Y-46983952D01*
X274128000Y-46936333D01*
X274032761Y-46888714D01*
X273937523Y-46888714D01*
X273604190Y-46888714D02*
X273604190Y-47555380D01*
X273604190Y-46983952D02*
X273556571Y-46936333D01*
X273461333Y-46888714D01*
X273318476Y-46888714D01*
X273223238Y-46936333D01*
X273175619Y-47031571D01*
X273175619Y-47555380D01*
X272318476Y-47507761D02*
X272413714Y-47555380D01*
X272604190Y-47555380D01*
X272699428Y-47507761D01*
X272747047Y-47412523D01*
X272747047Y-47031571D01*
X272699428Y-46936333D01*
X272604190Y-46888714D01*
X272413714Y-46888714D01*
X272318476Y-46936333D01*
X272270857Y-47031571D01*
X272270857Y-47126809D01*
X272747047Y-47222047D01*
X271223238Y-46555380D02*
X270889904Y-47555380D01*
X270556571Y-46555380D01*
X269794666Y-47555380D02*
X269794666Y-47031571D01*
X269842285Y-46936333D01*
X269937523Y-46888714D01*
X270128000Y-46888714D01*
X270223238Y-46936333D01*
X269794666Y-47507761D02*
X269889904Y-47555380D01*
X270128000Y-47555380D01*
X270223238Y-47507761D01*
X270270857Y-47412523D01*
X270270857Y-47317285D01*
X270223238Y-47222047D01*
X270128000Y-47174428D01*
X269889904Y-47174428D01*
X269794666Y-47126809D01*
X269318476Y-46888714D02*
X269318476Y-47555380D01*
X269318476Y-46983952D02*
X269270857Y-46936333D01*
X269175619Y-46888714D01*
X269032761Y-46888714D01*
X268937523Y-46936333D01*
X268889904Y-47031571D01*
X268889904Y-47555380D01*
X267223238Y-47555380D02*
X267223238Y-46555380D01*
X267223238Y-47507761D02*
X267318476Y-47555380D01*
X267508952Y-47555380D01*
X267604190Y-47507761D01*
X267651809Y-47460142D01*
X267699428Y-47364904D01*
X267699428Y-47079190D01*
X267651809Y-46983952D01*
X267604190Y-46936333D01*
X267508952Y-46888714D01*
X267318476Y-46888714D01*
X267223238Y-46936333D01*
X266366095Y-47507761D02*
X266461333Y-47555380D01*
X266651809Y-47555380D01*
X266747047Y-47507761D01*
X266794666Y-47412523D01*
X266794666Y-47031571D01*
X266747047Y-46936333D01*
X266651809Y-46888714D01*
X266461333Y-46888714D01*
X266366095Y-46936333D01*
X266318476Y-47031571D01*
X266318476Y-47126809D01*
X266794666Y-47222047D01*
X265889904Y-46888714D02*
X265889904Y-47555380D01*
X265889904Y-46983952D02*
X265842285Y-46936333D01*
X265747047Y-46888714D01*
X265604190Y-46888714D01*
X265508952Y-46936333D01*
X265461333Y-47031571D01*
X265461333Y-47555380D01*
X263889904Y-47031571D02*
X263747047Y-47079190D01*
X263699428Y-47126809D01*
X263651809Y-47222047D01*
X263651809Y-47364904D01*
X263699428Y-47460142D01*
X263747047Y-47507761D01*
X263842285Y-47555380D01*
X264223238Y-47555380D01*
X264223238Y-46555380D01*
X263889904Y-46555380D01*
X263794666Y-46603000D01*
X263747047Y-46650619D01*
X263699428Y-46745857D01*
X263699428Y-46841095D01*
X263747047Y-46936333D01*
X263794666Y-46983952D01*
X263889904Y-47031571D01*
X264223238Y-47031571D01*
X263223238Y-47555380D02*
X263223238Y-46888714D01*
X263223238Y-47079190D02*
X263175619Y-46983952D01*
X263128000Y-46936333D01*
X263032761Y-46888714D01*
X262937523Y-46888714D01*
X262461333Y-47555380D02*
X262556571Y-47507761D01*
X262604190Y-47460142D01*
X262651809Y-47364904D01*
X262651809Y-47079190D01*
X262604190Y-46983952D01*
X262556571Y-46936333D01*
X262461333Y-46888714D01*
X262318476Y-46888714D01*
X262223238Y-46936333D01*
X262175619Y-46983952D01*
X262128000Y-47079190D01*
X262128000Y-47364904D01*
X262175619Y-47460142D01*
X262223238Y-47507761D01*
X262318476Y-47555380D01*
X262461333Y-47555380D01*
X261318476Y-47507761D02*
X261413714Y-47555380D01*
X261604190Y-47555380D01*
X261699428Y-47507761D01*
X261747047Y-47412523D01*
X261747047Y-47031571D01*
X261699428Y-46936333D01*
X261604190Y-46888714D01*
X261413714Y-46888714D01*
X261318476Y-46936333D01*
X261270857Y-47031571D01*
X261270857Y-47126809D01*
X261747047Y-47222047D01*
X260413714Y-47507761D02*
X260508952Y-47555380D01*
X260699428Y-47555380D01*
X260794666Y-47507761D01*
X260842285Y-47460142D01*
X260889904Y-47364904D01*
X260889904Y-47079190D01*
X260842285Y-46983952D01*
X260794666Y-46936333D01*
X260699428Y-46888714D01*
X260508952Y-46888714D01*
X260413714Y-46936333D01*
X259985142Y-47555380D02*
X259985142Y-46555380D01*
X259889904Y-47174428D02*
X259604190Y-47555380D01*
X259604190Y-46888714D02*
X259985142Y-47269666D01*
X258461333Y-46650619D02*
X258413714Y-46603000D01*
X258318476Y-46555380D01*
X258080380Y-46555380D01*
X257985142Y-46603000D01*
X257937523Y-46650619D01*
X257889904Y-46745857D01*
X257889904Y-46841095D01*
X257937523Y-46983952D01*
X258508952Y-47555380D01*
X257889904Y-47555380D01*
X256985142Y-46555380D02*
X257461333Y-46555380D01*
X257508952Y-47031571D01*
X257461333Y-46983952D01*
X257366095Y-46936333D01*
X257128000Y-46936333D01*
X257032761Y-46983952D01*
X256985142Y-47031571D01*
X256937523Y-47126809D01*
X256937523Y-47364904D01*
X256985142Y-47460142D01*
X257032761Y-47507761D01*
X257128000Y-47555380D01*
X257366095Y-47555380D01*
X257461333Y-47507761D01*
X257508952Y-47460142D01*
X255794666Y-46507761D02*
X256651809Y-47793476D01*
X255270857Y-46555380D02*
X255175619Y-46555380D01*
X255080380Y-46603000D01*
X255032761Y-46650619D01*
X254985142Y-46745857D01*
X254937523Y-46936333D01*
X254937523Y-47174428D01*
X254985142Y-47364904D01*
X255032761Y-47460142D01*
X255080380Y-47507761D01*
X255175619Y-47555380D01*
X255270857Y-47555380D01*
X255366095Y-47507761D01*
X255413714Y-47460142D01*
X255461333Y-47364904D01*
X255508952Y-47174428D01*
X255508952Y-46936333D01*
X255461333Y-46745857D01*
X255413714Y-46650619D01*
X255366095Y-46603000D01*
X255270857Y-46555380D01*
X254080380Y-46555380D02*
X254270857Y-46555380D01*
X254366095Y-46603000D01*
X254413714Y-46650619D01*
X254508952Y-46793476D01*
X254556571Y-46983952D01*
X254556571Y-47364904D01*
X254508952Y-47460142D01*
X254461333Y-47507761D01*
X254366095Y-47555380D01*
X254175619Y-47555380D01*
X254080380Y-47507761D01*
X254032761Y-47460142D01*
X253985142Y-47364904D01*
X253985142Y-47126809D01*
X254032761Y-47031571D01*
X254080380Y-46983952D01*
X254175619Y-46936333D01*
X254366095Y-46936333D01*
X254461333Y-46983952D01*
X254508952Y-47031571D01*
X254556571Y-47126809D01*
X252842285Y-46507761D02*
X253699428Y-47793476D01*
X252556571Y-46650619D02*
X252508952Y-46603000D01*
X252413714Y-46555380D01*
X252175619Y-46555380D01*
X252080380Y-46603000D01*
X252032761Y-46650619D01*
X251985142Y-46745857D01*
X251985142Y-46841095D01*
X252032761Y-46983952D01*
X252604190Y-47555380D01*
X251985142Y-47555380D01*
X251366095Y-46555380D02*
X251270857Y-46555380D01*
X251175619Y-46603000D01*
X251128000Y-46650619D01*
X251080380Y-46745857D01*
X251032761Y-46936333D01*
X251032761Y-47174428D01*
X251080380Y-47364904D01*
X251128000Y-47460142D01*
X251175619Y-47507761D01*
X251270857Y-47555380D01*
X251366095Y-47555380D01*
X251461333Y-47507761D01*
X251508952Y-47460142D01*
X251556571Y-47364904D01*
X251604190Y-47174428D01*
X251604190Y-46936333D01*
X251556571Y-46745857D01*
X251508952Y-46650619D01*
X251461333Y-46603000D01*
X251366095Y-46555380D01*
X250651809Y-46650619D02*
X250604190Y-46603000D01*
X250508952Y-46555380D01*
X250270857Y-46555380D01*
X250175619Y-46603000D01*
X250128000Y-46650619D01*
X250080380Y-46745857D01*
X250080380Y-46841095D01*
X250128000Y-46983952D01*
X250699428Y-47555380D01*
X250080380Y-47555380D01*
X249461333Y-46555380D02*
X249366095Y-46555380D01*
X249270857Y-46603000D01*
X249223238Y-46650619D01*
X249175619Y-46745857D01*
X249128000Y-46936333D01*
X249128000Y-47174428D01*
X249175619Y-47364904D01*
X249223238Y-47460142D01*
X249270857Y-47507761D01*
X249366095Y-47555380D01*
X249461333Y-47555380D01*
X249556571Y-47507761D01*
X249604190Y-47460142D01*
X249651809Y-47364904D01*
X249699428Y-47174428D01*
X249699428Y-46936333D01*
X249651809Y-46745857D01*
X249604190Y-46650619D01*
X249556571Y-46603000D01*
X249461333Y-46555380D01*
X271985142Y-70967380D02*
X271985142Y-71776904D01*
X271937523Y-71872142D01*
X271889904Y-71919761D01*
X271794666Y-71967380D01*
X271604190Y-71967380D01*
X271508952Y-71919761D01*
X271461333Y-71872142D01*
X271413714Y-71776904D01*
X271413714Y-70967380D01*
X270985142Y-71919761D02*
X270889904Y-71967380D01*
X270699428Y-71967380D01*
X270604190Y-71919761D01*
X270556571Y-71824523D01*
X270556571Y-71776904D01*
X270604190Y-71681666D01*
X270699428Y-71634047D01*
X270842285Y-71634047D01*
X270937523Y-71586428D01*
X270985142Y-71491190D01*
X270985142Y-71443571D01*
X270937523Y-71348333D01*
X270842285Y-71300714D01*
X270699428Y-71300714D01*
X270604190Y-71348333D01*
X270128000Y-71967380D02*
X270128000Y-70967380D01*
X270128000Y-71348333D02*
X270032761Y-71300714D01*
X269842285Y-71300714D01*
X269747047Y-71348333D01*
X269699428Y-71395952D01*
X269651809Y-71491190D01*
X269651809Y-71776904D01*
X269699428Y-71872142D01*
X269747047Y-71919761D01*
X269842285Y-71967380D01*
X270032761Y-71967380D01*
X270128000Y-71919761D01*
X268461333Y-71967380D02*
X268461333Y-70967380D01*
X268223238Y-70967380D01*
X268080380Y-71015000D01*
X267985142Y-71110238D01*
X267937523Y-71205476D01*
X267889904Y-71395952D01*
X267889904Y-71538809D01*
X267937523Y-71729285D01*
X267985142Y-71824523D01*
X268080380Y-71919761D01*
X268223238Y-71967380D01*
X268461333Y-71967380D01*
X267461333Y-71967380D02*
X267461333Y-70967380D01*
X267128000Y-71681666D01*
X266794666Y-70967380D01*
X266794666Y-71967380D01*
X266413714Y-70967380D02*
X265747047Y-71967380D01*
X265747047Y-70967380D02*
X266413714Y-71967380D01*
X264175619Y-71967380D02*
X264175619Y-70967380D01*
X264175619Y-71919761D02*
X264270857Y-71967380D01*
X264461333Y-71967380D01*
X264556571Y-71919761D01*
X264604190Y-71872142D01*
X264651809Y-71776904D01*
X264651809Y-71491190D01*
X264604190Y-71395952D01*
X264556571Y-71348333D01*
X264461333Y-71300714D01*
X264270857Y-71300714D01*
X264175619Y-71348333D01*
X263556571Y-71967380D02*
X263651809Y-71919761D01*
X263699428Y-71872142D01*
X263747047Y-71776904D01*
X263747047Y-71491190D01*
X263699428Y-71395952D01*
X263651809Y-71348333D01*
X263556571Y-71300714D01*
X263413714Y-71300714D01*
X263318476Y-71348333D01*
X263270857Y-71395952D01*
X263223238Y-71491190D01*
X263223238Y-71776904D01*
X263270857Y-71872142D01*
X263318476Y-71919761D01*
X263413714Y-71967380D01*
X263556571Y-71967380D01*
X262794666Y-71300714D02*
X262794666Y-71967380D01*
X262794666Y-71395952D02*
X262747047Y-71348333D01*
X262651809Y-71300714D01*
X262508952Y-71300714D01*
X262413714Y-71348333D01*
X262366095Y-71443571D01*
X262366095Y-71967380D01*
X261461333Y-71300714D02*
X261461333Y-72110238D01*
X261508952Y-72205476D01*
X261556571Y-72253095D01*
X261651809Y-72300714D01*
X261794666Y-72300714D01*
X261889904Y-72253095D01*
X261461333Y-71919761D02*
X261556571Y-71967380D01*
X261747047Y-71967380D01*
X261842285Y-71919761D01*
X261889904Y-71872142D01*
X261937523Y-71776904D01*
X261937523Y-71491190D01*
X261889904Y-71395952D01*
X261842285Y-71348333D01*
X261747047Y-71300714D01*
X261556571Y-71300714D01*
X261461333Y-71348333D01*
X260842285Y-71967380D02*
X260937523Y-71919761D01*
X260985142Y-71824523D01*
X260985142Y-70967380D01*
X260080380Y-71919761D02*
X260175619Y-71967380D01*
X260366095Y-71967380D01*
X260461333Y-71919761D01*
X260508952Y-71824523D01*
X260508952Y-71443571D01*
X260461333Y-71348333D01*
X260366095Y-71300714D01*
X260175619Y-71300714D01*
X260080380Y-71348333D01*
X260032761Y-71443571D01*
X260032761Y-71538809D01*
X260508952Y-71634047D01*
X258508952Y-71443571D02*
X258366095Y-71491190D01*
X258318476Y-71538809D01*
X258270857Y-71634047D01*
X258270857Y-71776904D01*
X258318476Y-71872142D01*
X258366095Y-71919761D01*
X258461333Y-71967380D01*
X258842285Y-71967380D01*
X258842285Y-70967380D01*
X258508952Y-70967380D01*
X258413714Y-71015000D01*
X258366095Y-71062619D01*
X258318476Y-71157857D01*
X258318476Y-71253095D01*
X258366095Y-71348333D01*
X258413714Y-71395952D01*
X258508952Y-71443571D01*
X258842285Y-71443571D01*
X257937523Y-71300714D02*
X257699428Y-71967380D01*
X257461333Y-71300714D02*
X257699428Y-71967380D01*
X257794666Y-72205476D01*
X257842285Y-72253095D01*
X257937523Y-72300714D01*
X256318476Y-71967380D02*
X256318476Y-70967380D01*
X255747047Y-71967380D01*
X255747047Y-70967380D01*
X255128000Y-71967380D02*
X255223238Y-71919761D01*
X255270857Y-71872142D01*
X255318476Y-71776904D01*
X255318476Y-71491190D01*
X255270857Y-71395952D01*
X255223238Y-71348333D01*
X255128000Y-71300714D01*
X254985142Y-71300714D01*
X254889904Y-71348333D01*
X254842285Y-71395952D01*
X254794666Y-71491190D01*
X254794666Y-71776904D01*
X254842285Y-71872142D01*
X254889904Y-71919761D01*
X254985142Y-71967380D01*
X255128000Y-71967380D01*
X254366095Y-71967380D02*
X254366095Y-71300714D01*
X254366095Y-71491190D02*
X254318476Y-71395952D01*
X254270857Y-71348333D01*
X254175619Y-71300714D01*
X254080380Y-71300714D01*
X253889904Y-71300714D02*
X253508952Y-71300714D01*
X253747047Y-70967380D02*
X253747047Y-71824523D01*
X253699428Y-71919761D01*
X253604190Y-71967380D01*
X253508952Y-71967380D01*
X253032761Y-71967380D02*
X253128000Y-71919761D01*
X253175619Y-71824523D01*
X253175619Y-70967380D01*
X252270857Y-71919761D02*
X252366095Y-71967380D01*
X252556571Y-71967380D01*
X252651809Y-71919761D01*
X252699428Y-71824523D01*
X252699428Y-71443571D01*
X252651809Y-71348333D01*
X252556571Y-71300714D01*
X252366095Y-71300714D01*
X252270857Y-71348333D01*
X252223238Y-71443571D01*
X252223238Y-71538809D01*
X252699428Y-71634047D01*
X275128000Y-73431666D02*
X274651809Y-73431666D01*
X275223238Y-73717380D02*
X274889904Y-72717380D01*
X274556571Y-73717380D01*
X274223238Y-73717380D02*
X274223238Y-73050714D01*
X274223238Y-73241190D02*
X274175619Y-73145952D01*
X274128000Y-73098333D01*
X274032761Y-73050714D01*
X273937523Y-73050714D01*
X273604190Y-73050714D02*
X273604190Y-73717380D01*
X273604190Y-73145952D02*
X273556571Y-73098333D01*
X273461333Y-73050714D01*
X273318476Y-73050714D01*
X273223238Y-73098333D01*
X273175619Y-73193571D01*
X273175619Y-73717380D01*
X272318476Y-73669761D02*
X272413714Y-73717380D01*
X272604190Y-73717380D01*
X272699428Y-73669761D01*
X272747047Y-73574523D01*
X272747047Y-73193571D01*
X272699428Y-73098333D01*
X272604190Y-73050714D01*
X272413714Y-73050714D01*
X272318476Y-73098333D01*
X272270857Y-73193571D01*
X272270857Y-73288809D01*
X272747047Y-73384047D01*
X271223238Y-72717380D02*
X270889904Y-73717380D01*
X270556571Y-72717380D01*
X269794666Y-73717380D02*
X269794666Y-73193571D01*
X269842285Y-73098333D01*
X269937523Y-73050714D01*
X270128000Y-73050714D01*
X270223238Y-73098333D01*
X269794666Y-73669761D02*
X269889904Y-73717380D01*
X270128000Y-73717380D01*
X270223238Y-73669761D01*
X270270857Y-73574523D01*
X270270857Y-73479285D01*
X270223238Y-73384047D01*
X270128000Y-73336428D01*
X269889904Y-73336428D01*
X269794666Y-73288809D01*
X269318476Y-73050714D02*
X269318476Y-73717380D01*
X269318476Y-73145952D02*
X269270857Y-73098333D01*
X269175619Y-73050714D01*
X269032761Y-73050714D01*
X268937523Y-73098333D01*
X268889904Y-73193571D01*
X268889904Y-73717380D01*
X267223238Y-73717380D02*
X267223238Y-72717380D01*
X267223238Y-73669761D02*
X267318476Y-73717380D01*
X267508952Y-73717380D01*
X267604190Y-73669761D01*
X267651809Y-73622142D01*
X267699428Y-73526904D01*
X267699428Y-73241190D01*
X267651809Y-73145952D01*
X267604190Y-73098333D01*
X267508952Y-73050714D01*
X267318476Y-73050714D01*
X267223238Y-73098333D01*
X266366095Y-73669761D02*
X266461333Y-73717380D01*
X266651809Y-73717380D01*
X266747047Y-73669761D01*
X266794666Y-73574523D01*
X266794666Y-73193571D01*
X266747047Y-73098333D01*
X266651809Y-73050714D01*
X266461333Y-73050714D01*
X266366095Y-73098333D01*
X266318476Y-73193571D01*
X266318476Y-73288809D01*
X266794666Y-73384047D01*
X265889904Y-73050714D02*
X265889904Y-73717380D01*
X265889904Y-73145952D02*
X265842285Y-73098333D01*
X265747047Y-73050714D01*
X265604190Y-73050714D01*
X265508952Y-73098333D01*
X265461333Y-73193571D01*
X265461333Y-73717380D01*
X263889904Y-73193571D02*
X263747047Y-73241190D01*
X263699428Y-73288809D01*
X263651809Y-73384047D01*
X263651809Y-73526904D01*
X263699428Y-73622142D01*
X263747047Y-73669761D01*
X263842285Y-73717380D01*
X264223238Y-73717380D01*
X264223238Y-72717380D01*
X263889904Y-72717380D01*
X263794666Y-72765000D01*
X263747047Y-72812619D01*
X263699428Y-72907857D01*
X263699428Y-73003095D01*
X263747047Y-73098333D01*
X263794666Y-73145952D01*
X263889904Y-73193571D01*
X264223238Y-73193571D01*
X263223238Y-73717380D02*
X263223238Y-73050714D01*
X263223238Y-73241190D02*
X263175619Y-73145952D01*
X263128000Y-73098333D01*
X263032761Y-73050714D01*
X262937523Y-73050714D01*
X262461333Y-73717380D02*
X262556571Y-73669761D01*
X262604190Y-73622142D01*
X262651809Y-73526904D01*
X262651809Y-73241190D01*
X262604190Y-73145952D01*
X262556571Y-73098333D01*
X262461333Y-73050714D01*
X262318476Y-73050714D01*
X262223238Y-73098333D01*
X262175619Y-73145952D01*
X262128000Y-73241190D01*
X262128000Y-73526904D01*
X262175619Y-73622142D01*
X262223238Y-73669761D01*
X262318476Y-73717380D01*
X262461333Y-73717380D01*
X261318476Y-73669761D02*
X261413714Y-73717380D01*
X261604190Y-73717380D01*
X261699428Y-73669761D01*
X261747047Y-73574523D01*
X261747047Y-73193571D01*
X261699428Y-73098333D01*
X261604190Y-73050714D01*
X261413714Y-73050714D01*
X261318476Y-73098333D01*
X261270857Y-73193571D01*
X261270857Y-73288809D01*
X261747047Y-73384047D01*
X260413714Y-73669761D02*
X260508952Y-73717380D01*
X260699428Y-73717380D01*
X260794666Y-73669761D01*
X260842285Y-73622142D01*
X260889904Y-73526904D01*
X260889904Y-73241190D01*
X260842285Y-73145952D01*
X260794666Y-73098333D01*
X260699428Y-73050714D01*
X260508952Y-73050714D01*
X260413714Y-73098333D01*
X259985142Y-73717380D02*
X259985142Y-72717380D01*
X259889904Y-73336428D02*
X259604190Y-73717380D01*
X259604190Y-73050714D02*
X259985142Y-73431666D01*
X258461333Y-72812619D02*
X258413714Y-72765000D01*
X258318476Y-72717380D01*
X258080380Y-72717380D01*
X257985142Y-72765000D01*
X257937523Y-72812619D01*
X257889904Y-72907857D01*
X257889904Y-73003095D01*
X257937523Y-73145952D01*
X258508952Y-73717380D01*
X257889904Y-73717380D01*
X256985142Y-72717380D02*
X257461333Y-72717380D01*
X257508952Y-73193571D01*
X257461333Y-73145952D01*
X257366095Y-73098333D01*
X257128000Y-73098333D01*
X257032761Y-73145952D01*
X256985142Y-73193571D01*
X256937523Y-73288809D01*
X256937523Y-73526904D01*
X256985142Y-73622142D01*
X257032761Y-73669761D01*
X257128000Y-73717380D01*
X257366095Y-73717380D01*
X257461333Y-73669761D01*
X257508952Y-73622142D01*
X255794666Y-72669761D02*
X256651809Y-73955476D01*
X255270857Y-72717380D02*
X255175619Y-72717380D01*
X255080380Y-72765000D01*
X255032761Y-72812619D01*
X254985142Y-72907857D01*
X254937523Y-73098333D01*
X254937523Y-73336428D01*
X254985142Y-73526904D01*
X255032761Y-73622142D01*
X255080380Y-73669761D01*
X255175619Y-73717380D01*
X255270857Y-73717380D01*
X255366095Y-73669761D01*
X255413714Y-73622142D01*
X255461333Y-73526904D01*
X255508952Y-73336428D01*
X255508952Y-73098333D01*
X255461333Y-72907857D01*
X255413714Y-72812619D01*
X255366095Y-72765000D01*
X255270857Y-72717380D01*
X254080380Y-72717380D02*
X254270857Y-72717380D01*
X254366095Y-72765000D01*
X254413714Y-72812619D01*
X254508952Y-72955476D01*
X254556571Y-73145952D01*
X254556571Y-73526904D01*
X254508952Y-73622142D01*
X254461333Y-73669761D01*
X254366095Y-73717380D01*
X254175619Y-73717380D01*
X254080380Y-73669761D01*
X254032761Y-73622142D01*
X253985142Y-73526904D01*
X253985142Y-73288809D01*
X254032761Y-73193571D01*
X254080380Y-73145952D01*
X254175619Y-73098333D01*
X254366095Y-73098333D01*
X254461333Y-73145952D01*
X254508952Y-73193571D01*
X254556571Y-73288809D01*
X252842285Y-72669761D02*
X253699428Y-73955476D01*
X252556571Y-72812619D02*
X252508952Y-72765000D01*
X252413714Y-72717380D01*
X252175619Y-72717380D01*
X252080380Y-72765000D01*
X252032761Y-72812619D01*
X251985142Y-72907857D01*
X251985142Y-73003095D01*
X252032761Y-73145952D01*
X252604190Y-73717380D01*
X251985142Y-73717380D01*
X251366095Y-72717380D02*
X251270857Y-72717380D01*
X251175619Y-72765000D01*
X251128000Y-72812619D01*
X251080380Y-72907857D01*
X251032761Y-73098333D01*
X251032761Y-73336428D01*
X251080380Y-73526904D01*
X251128000Y-73622142D01*
X251175619Y-73669761D01*
X251270857Y-73717380D01*
X251366095Y-73717380D01*
X251461333Y-73669761D01*
X251508952Y-73622142D01*
X251556571Y-73526904D01*
X251604190Y-73336428D01*
X251604190Y-73098333D01*
X251556571Y-72907857D01*
X251508952Y-72812619D01*
X251461333Y-72765000D01*
X251366095Y-72717380D01*
X250651809Y-72812619D02*
X250604190Y-72765000D01*
X250508952Y-72717380D01*
X250270857Y-72717380D01*
X250175619Y-72765000D01*
X250128000Y-72812619D01*
X250080380Y-72907857D01*
X250080380Y-73003095D01*
X250128000Y-73145952D01*
X250699428Y-73717380D01*
X250080380Y-73717380D01*
X249461333Y-72717380D02*
X249366095Y-72717380D01*
X249270857Y-72765000D01*
X249223238Y-72812619D01*
X249175619Y-72907857D01*
X249128000Y-73098333D01*
X249128000Y-73336428D01*
X249175619Y-73526904D01*
X249223238Y-73622142D01*
X249270857Y-73669761D01*
X249366095Y-73717380D01*
X249461333Y-73717380D01*
X249556571Y-73669761D01*
X249604190Y-73622142D01*
X249651809Y-73526904D01*
X249699428Y-73336428D01*
X249699428Y-73098333D01*
X249651809Y-72907857D01*
X249604190Y-72812619D01*
X249556571Y-72765000D01*
X249461333Y-72717380D01*
M02*
