G04 #@! TF.GenerationSoftware,KiCad,Pcbnew,(5.1.4)-1*
G04 #@! TF.CreationDate,2020-08-12T13:24:48+02:00*
G04 #@! TF.ProjectId,DMX_usb,444d585f-7573-4622-9e6b-696361645f70,rev?*
G04 #@! TF.SameCoordinates,Original*
G04 #@! TF.FileFunction,Profile,NP*
%FSLAX46Y46*%
G04 Gerber Fmt 4.6, Leading zero omitted, Abs format (unit mm)*
G04 Created by KiCad (PCBNEW (5.1.4)-1) date 2020-08-12 13:24:48*
%MOMM*%
%LPD*%
G04 APERTURE LIST*
%ADD10C,0.050000*%
G04 APERTURE END LIST*
D10*
X231140000Y-120142000D02*
X252984000Y-120142000D01*
X252984000Y-120142000D02*
X252984000Y-118110000D01*
X231140000Y-118110000D02*
X231140000Y-120142000D01*
X252984000Y-118110000D02*
X231140000Y-118110000D01*
X231140000Y-94996000D02*
X252984000Y-94996000D01*
X252984000Y-94996000D02*
X252984000Y-92964000D01*
X231140000Y-92964000D02*
X231140000Y-94996000D01*
X252984000Y-92964000D02*
X231140000Y-92964000D01*
X252984000Y-67818000D02*
X231140000Y-67818000D01*
X252984000Y-69850000D02*
X252984000Y-67818000D01*
X231140000Y-69850000D02*
X252984000Y-69850000D01*
X231140000Y-67818000D02*
X231140000Y-69850000D01*
X219000000Y-143256000D02*
X256286000Y-143256000D01*
X219000000Y-120142000D02*
X219000000Y-143256000D01*
X227584000Y-120142000D02*
X219000000Y-120142000D01*
X227584000Y-118110000D02*
X227584000Y-120142000D01*
X219000000Y-118110000D02*
X227584000Y-118110000D01*
X219000000Y-94996000D02*
X219000000Y-118110000D01*
X227584000Y-94996000D02*
X219000000Y-95000000D01*
X227584000Y-92964000D02*
X227584000Y-94996000D01*
X219000000Y-92964000D02*
X227584000Y-92964000D01*
X219000000Y-69850000D02*
X219000000Y-92964000D01*
X227584000Y-69850000D02*
X219000000Y-69850000D01*
X227584000Y-67818000D02*
X227584000Y-69850000D01*
X219000000Y-67818000D02*
X227584000Y-67818000D01*
X219000000Y-44196000D02*
X219000000Y-67818000D01*
X256032000Y-44196000D02*
X219000000Y-44196000D01*
X274000000Y-143256000D02*
X256286000Y-143256000D01*
X274000000Y-120142000D02*
X274000000Y-143256000D01*
X256032000Y-120142000D02*
X274000000Y-120142000D01*
X256032000Y-118110000D02*
X256032000Y-120142000D01*
X274000000Y-118110000D02*
X256032000Y-118110000D01*
X274000000Y-95000000D02*
X274000000Y-118114000D01*
X256032000Y-94996000D02*
X274000000Y-95000000D01*
X256032000Y-92964000D02*
X256032000Y-94996000D01*
X274000000Y-92964000D02*
X256032000Y-92964000D01*
X274000000Y-69850000D02*
X274000000Y-92964000D01*
X256032000Y-69850000D02*
X274000000Y-69850000D01*
X256032000Y-68834000D02*
X256032000Y-69850000D01*
X274000000Y-44196000D02*
X256032000Y-44196000D01*
X274000000Y-67818000D02*
X274000000Y-44196000D01*
X256032000Y-67818000D02*
X274000000Y-67818000D01*
X256032000Y-68834000D02*
X256032000Y-67818000D01*
M02*
